G04 #@! TF.GenerationSoftware,KiCad,Pcbnew,7.0.8*
G04 #@! TF.CreationDate,2023-11-05T18:38:43+01:00*
G04 #@! TF.ProjectId,Middle,4d696464-6c65-42e6-9b69-6361645f7063,rev?*
G04 #@! TF.SameCoordinates,Original*
G04 #@! TF.FileFunction,Legend,Top*
G04 #@! TF.FilePolarity,Positive*
%FSLAX46Y46*%
G04 Gerber Fmt 4.6, Leading zero omitted, Abs format (unit mm)*
G04 Created by KiCad (PCBNEW 7.0.8) date 2023-11-05 18:38:43*
%MOMM*%
%LPD*%
G01*
G04 APERTURE LIST*
G04 Aperture macros list*
%AMRoundRect*
0 Rectangle with rounded corners*
0 $1 Rounding radius*
0 $2 $3 $4 $5 $6 $7 $8 $9 X,Y pos of 4 corners*
0 Add a 4 corners polygon primitive as box body*
4,1,4,$2,$3,$4,$5,$6,$7,$8,$9,$2,$3,0*
0 Add four circle primitives for the rounded corners*
1,1,$1+$1,$2,$3*
1,1,$1+$1,$4,$5*
1,1,$1+$1,$6,$7*
1,1,$1+$1,$8,$9*
0 Add four rect primitives between the rounded corners*
20,1,$1+$1,$2,$3,$4,$5,0*
20,1,$1+$1,$4,$5,$6,$7,0*
20,1,$1+$1,$6,$7,$8,$9,0*
20,1,$1+$1,$8,$9,$2,$3,0*%
G04 Aperture macros list end*
%ADD10C,0.230420*%
%ADD11C,0.256022*%
%ADD12C,0.242587*%
%ADD13C,0.255004*%
%ADD14C,0.161307*%
%ADD15C,0.230426*%
%ADD16C,0.161724*%
%ADD17R,1.700000X1.700000*%
%ADD18O,1.700000X1.700000*%
%ADD19RoundRect,0.205000X0.557000X-0.205000X0.557000X0.205000X-0.557000X0.205000X-0.557000X-0.205000X0*%
%ADD20RoundRect,0.215500X0.546500X-0.215500X0.546500X0.215500X-0.546500X0.215500X-0.546500X-0.215500X0*%
%ADD21RoundRect,0.250000X0.512000X-0.250000X0.512000X0.250000X-0.512000X0.250000X-0.512000X-0.250000X0*%
%ADD22O,2.200000X1.000000*%
G04 APERTURE END LIST*
D10*
X117606128Y-67009845D02*
X117683716Y-67041492D01*
X118239790Y-67521935D02*
X118282161Y-67593720D01*
D11*
X117772197Y-68016026D02*
X117781739Y-68049930D01*
X117441656Y-67631966D02*
X117472746Y-67648106D01*
D10*
X117830790Y-67119100D02*
X117899882Y-67164697D01*
D12*
X145256958Y-68156818D02*
X145438330Y-68739170D01*
D11*
X117718201Y-68519843D02*
X117700000Y-68550000D01*
X117747656Y-67950227D02*
X117760800Y-67982699D01*
D13*
X117669073Y-69828709D02*
X116241241Y-69205087D01*
X115836798Y-67906611D01*
X116657992Y-66582481D01*
X117669073Y-69828709D01*
G36*
X117669073Y-69828709D02*
G01*
X116241241Y-69205087D01*
X115836798Y-67906611D01*
X116657992Y-66582481D01*
X117669073Y-69828709D01*
G37*
D12*
X147660488Y-66929094D02*
X146239511Y-68329941D01*
D11*
X117678665Y-67830030D02*
X117698271Y-67858511D01*
D10*
X118206837Y-68938551D02*
X118156088Y-69005916D01*
D11*
X117732819Y-67918666D02*
X117747656Y-67950227D01*
D10*
X118422872Y-68404838D02*
X118407337Y-68485912D01*
X118156088Y-69005916D02*
X118100545Y-69070277D01*
D11*
X117789738Y-68325063D02*
X117782353Y-68358791D01*
D14*
X145966169Y-67452393D02*
X146446051Y-67307337D01*
D10*
X118420369Y-67991020D02*
X118431756Y-68074039D01*
X118319926Y-67668519D02*
X118352889Y-67746150D01*
X117443836Y-66961775D02*
X117526102Y-66983212D01*
D11*
X117795285Y-68291009D02*
X117789738Y-68325063D01*
D12*
X144274405Y-67983747D02*
X145693306Y-66576272D01*
X145256958Y-68156818D02*
X145967440Y-67456401D01*
D15*
X133380805Y-67593146D02*
X132430158Y-69491755D01*
X131520185Y-66570192D01*
X133380805Y-67593146D01*
G36*
X133380805Y-67593146D02*
G01*
X132430158Y-69491755D01*
X131520185Y-66570192D01*
X133380805Y-67593146D01*
G37*
D14*
X145967433Y-67456414D02*
X146035454Y-67674802D01*
D12*
X145438330Y-68739170D02*
X145256958Y-68156818D01*
D16*
X146420896Y-68912280D02*
X146783666Y-70076970D01*
D11*
X117585914Y-67728098D02*
X117611147Y-67751668D01*
D10*
X118329725Y-68721044D02*
X118293714Y-68795853D01*
X118193010Y-67453346D02*
X118239790Y-67521935D01*
D11*
X117798871Y-68153060D02*
X117800786Y-68187653D01*
D12*
X145966182Y-67452367D02*
X144984887Y-67283317D01*
X145967440Y-67456401D02*
X146949993Y-67629498D01*
D10*
X118282161Y-67593720D02*
X118319926Y-67668519D01*
X117899882Y-67164697D02*
X117965748Y-67214581D01*
D11*
X117611147Y-67751668D02*
X117635051Y-67776552D01*
X117798982Y-68256704D02*
X117795285Y-68291009D01*
X117789359Y-68084122D02*
X117795066Y-68118524D01*
D10*
X117683716Y-67041492D02*
X117758669Y-67077971D01*
D11*
X117762105Y-68424959D02*
X117749265Y-68457247D01*
X117782353Y-68358791D02*
X117773138Y-68392115D01*
D10*
X118431756Y-68074039D02*
X118437641Y-68157191D01*
D11*
X117657574Y-67802691D02*
X117678665Y-67830030D01*
D12*
X146677922Y-66755984D02*
X145966182Y-67452367D01*
X147967798Y-68909608D02*
X146783667Y-70076970D01*
X146783666Y-70076970D02*
X145146078Y-69788479D01*
X145146077Y-69788479D02*
X144783307Y-68623776D01*
X144783307Y-68623776D02*
X146420896Y-68912280D01*
X146420896Y-68912280D02*
X147605041Y-67744918D01*
X147605041Y-67744918D02*
X147967798Y-68909608D01*
D10*
X118087014Y-67326481D02*
X118142019Y-67388134D01*
X118293714Y-68795853D02*
X118252732Y-68868443D01*
D13*
X115880014Y-69317614D02*
X115678986Y-69380207D01*
X115451688Y-69272946D01*
X115148365Y-68299082D01*
X115274544Y-68081732D01*
X115475585Y-68019139D01*
X115880014Y-69317614D01*
G36*
X115880014Y-69317614D02*
G01*
X115678986Y-69380207D01*
X115451688Y-69272946D01*
X115148365Y-68299082D01*
X115274544Y-68081732D01*
X115475585Y-68019139D01*
X115880014Y-69317614D01*
G37*
D11*
X117472746Y-67648106D02*
X117502769Y-67665846D01*
D10*
X117526102Y-66983212D02*
X117606128Y-67009845D01*
D11*
X117531673Y-67685130D02*
X117559406Y-67705900D01*
D12*
X144274405Y-67983747D02*
X144455790Y-68566085D01*
D10*
X117965748Y-67214581D02*
X118028191Y-67268570D01*
D12*
X145693306Y-66576272D02*
X147660488Y-66929094D01*
D10*
X118360705Y-68644276D02*
X118329725Y-68721044D01*
D11*
X117749265Y-68457247D02*
X117734626Y-68488900D01*
D12*
X147605041Y-67744918D02*
X147841860Y-67511445D01*
D11*
X117502769Y-67665846D02*
X117531673Y-67685130D01*
D14*
X145967427Y-67456414D02*
X146154661Y-67063709D01*
D12*
X146950006Y-67629511D02*
X147131378Y-68211863D01*
D10*
X118142019Y-67388134D02*
X118193010Y-67453346D01*
D14*
X145967433Y-67456414D02*
X145830367Y-67016369D01*
D10*
X118407337Y-68485912D02*
X118386595Y-68565811D01*
D11*
X117800819Y-68222227D02*
X117798982Y-68256704D01*
D10*
X118028191Y-67268570D02*
X118087014Y-67326481D01*
X118438083Y-68240217D02*
X118433140Y-68322853D01*
X117758669Y-67077971D02*
X117830790Y-67119100D01*
D12*
X147375719Y-69493296D02*
X147012962Y-68328592D01*
D11*
X117734626Y-68488900D02*
X117718201Y-68519843D01*
X117795066Y-68118524D02*
X117798871Y-68153060D01*
X117559406Y-67705900D02*
X117585914Y-67728098D01*
D10*
X118386595Y-68565811D02*
X118360705Y-68644276D01*
D11*
X117773138Y-68392115D02*
X117762105Y-68424959D01*
X117635051Y-67776552D02*
X117657574Y-67802691D01*
X117760800Y-67982699D02*
X117772197Y-68016026D01*
D10*
X118433140Y-68322853D02*
X118422872Y-68404838D01*
D11*
X117781739Y-68049930D02*
X117789359Y-68084122D01*
D10*
X118252732Y-68868443D02*
X118206837Y-68938551D01*
D12*
X146239511Y-68329941D02*
X144274405Y-67983747D01*
D11*
X117698271Y-67858511D02*
X117716339Y-67888075D01*
D12*
X147841860Y-67511445D02*
X147660488Y-66929094D01*
D14*
X145967433Y-67456414D02*
X145483426Y-67604972D01*
D12*
X145964872Y-69932731D02*
X145602115Y-68768041D01*
D11*
X117409550Y-67617485D02*
X117441656Y-67631966D01*
X117716339Y-67888075D02*
X117732819Y-67918666D01*
D10*
X118437641Y-68157191D02*
X118438083Y-68240217D01*
D15*
X131620534Y-68141413D02*
X130669874Y-70040009D01*
X129759914Y-67118445D01*
X131620534Y-68141413D01*
G36*
X131620534Y-68141413D02*
G01*
X130669874Y-70040009D01*
X129759914Y-67118445D01*
X131620534Y-68141413D01*
G37*
D10*
X118380852Y-67826431D02*
X118403420Y-67908397D01*
D12*
X144455790Y-68566085D02*
X144783307Y-68623789D01*
D11*
X117800786Y-68187653D02*
X117800819Y-68222227D01*
D16*
X146239511Y-68329941D02*
X146420896Y-68912280D01*
D10*
X118403420Y-67908397D02*
X118420369Y-67991020D01*
X118352889Y-67746150D02*
X118380852Y-67826431D01*
D14*
X145967433Y-67456414D02*
X145592971Y-67248012D01*
G36*
X156191404Y-60112347D02*
G01*
X156487748Y-60299526D01*
X156722572Y-60541871D01*
X156899611Y-60838317D01*
X156935347Y-60916693D01*
X156962515Y-60987952D01*
X156982289Y-61064848D01*
X156995844Y-61160131D01*
X157004353Y-61286553D01*
X157008990Y-61456868D01*
X157010931Y-61683827D01*
X157011348Y-61980182D01*
X157011352Y-62051920D01*
X157010887Y-62367366D01*
X157008839Y-62610495D01*
X157004224Y-62793799D01*
X156996061Y-62929765D01*
X156983367Y-63030885D01*
X156965162Y-63109648D01*
X156940462Y-63178543D01*
X156918942Y-63227241D01*
X156749777Y-63503373D01*
X156521362Y-63744292D01*
X156250330Y-63938923D01*
X155953313Y-64076190D01*
X155646946Y-64145014D01*
X155531913Y-64150918D01*
X155255429Y-64150918D01*
X155235670Y-64288731D01*
X155179825Y-64634295D01*
X155118741Y-64911147D01*
X155046375Y-65135380D01*
X154956682Y-65323085D01*
X154843618Y-65490355D01*
X154737842Y-65614256D01*
X154624177Y-65728137D01*
X154506315Y-65821431D01*
X154364768Y-65905872D01*
X154180044Y-65993192D01*
X153951382Y-66087680D01*
X153661436Y-66203141D01*
X151255008Y-66219275D01*
X150812055Y-66222469D01*
X150395484Y-66225904D01*
X150012831Y-66229491D01*
X149671631Y-66233138D01*
X149379420Y-66236752D01*
X149143735Y-66240244D01*
X148972110Y-66243521D01*
X148872083Y-66246491D01*
X148848581Y-66248471D01*
X148858523Y-66291994D01*
X148885804Y-66402404D01*
X148926605Y-66564459D01*
X148977107Y-66762918D01*
X148994114Y-66829362D01*
X149053409Y-67067663D01*
X149109465Y-67305341D01*
X149156236Y-67515965D01*
X149187673Y-67673108D01*
X149189285Y-67682236D01*
X149238923Y-67967279D01*
X151142750Y-67967279D01*
X153046578Y-67967279D01*
X153046578Y-68179299D01*
X153046578Y-68391319D01*
X152028881Y-68391319D01*
X151011185Y-68391319D01*
X151011185Y-69387813D01*
X151011185Y-70384307D01*
X152028881Y-70384307D01*
X153046578Y-70384307D01*
X153046578Y-70596327D01*
X153046578Y-70808347D01*
X150953726Y-70808347D01*
X148860874Y-70808347D01*
X148642708Y-71191281D01*
X148424541Y-71574214D01*
X148424541Y-72166573D01*
X148424541Y-72758932D01*
X150735559Y-72758932D01*
X153046578Y-72758932D01*
X153046578Y-72970952D01*
X153046578Y-73182972D01*
X152028881Y-73182972D01*
X151011185Y-73182972D01*
X151011185Y-74179466D01*
X151011185Y-75175960D01*
X152028881Y-75175960D01*
X153046578Y-75175960D01*
X153046578Y-75387980D01*
X153046578Y-75600000D01*
X150735559Y-75600000D01*
X148424541Y-75600000D01*
X148424541Y-76469282D01*
X148424541Y-77338564D01*
X150854453Y-77338564D01*
X153284365Y-77338564D01*
X153430496Y-77490587D01*
X153641250Y-77669769D01*
X153896697Y-77826145D01*
X154100070Y-77915527D01*
X154099567Y-77919531D01*
X154073873Y-77923346D01*
X154021151Y-77926976D01*
X153939560Y-77930425D01*
X153827263Y-77933698D01*
X153682421Y-77936798D01*
X153503194Y-77939730D01*
X153287745Y-77942498D01*
X153034233Y-77945107D01*
X152740821Y-77947560D01*
X152405670Y-77949861D01*
X152026941Y-77952016D01*
X151602794Y-77954027D01*
X151131392Y-77955900D01*
X150610895Y-77957638D01*
X150039465Y-77959247D01*
X149415262Y-77960729D01*
X148736449Y-77962089D01*
X148001186Y-77963332D01*
X147207634Y-77964461D01*
X146353954Y-77965481D01*
X145438309Y-77966396D01*
X144458858Y-77967211D01*
X143413764Y-77967929D01*
X142301187Y-77968554D01*
X141119288Y-77969091D01*
X139866230Y-77969545D01*
X138540172Y-77969919D01*
X137139277Y-77970217D01*
X135661704Y-77970444D01*
X134105617Y-77970604D01*
X132469175Y-77970701D01*
X130750540Y-77970739D01*
X130000000Y-77970739D01*
X128276484Y-77970713D01*
X126635787Y-77970655D01*
X125075919Y-77970560D01*
X123594890Y-77970422D01*
X122190711Y-77970236D01*
X120861394Y-77969997D01*
X119604947Y-77969698D01*
X118419382Y-77969335D01*
X117302709Y-77968902D01*
X116252940Y-77968393D01*
X115268083Y-77967804D01*
X114346151Y-77967129D01*
X113485152Y-77966362D01*
X112683099Y-77965497D01*
X111938002Y-77964531D01*
X111247870Y-77963456D01*
X110610715Y-77962268D01*
X110024546Y-77960961D01*
X109487376Y-77959529D01*
X108997214Y-77957968D01*
X108552070Y-77956272D01*
X108149955Y-77954435D01*
X107788881Y-77952452D01*
X107466856Y-77950318D01*
X107181892Y-77948027D01*
X106932000Y-77945573D01*
X106715189Y-77942952D01*
X106529471Y-77940157D01*
X106372856Y-77937183D01*
X106243355Y-77934026D01*
X106138977Y-77930679D01*
X106057734Y-77927137D01*
X105997636Y-77923394D01*
X105956693Y-77919446D01*
X105932917Y-77915286D01*
X105924317Y-77910910D01*
X105928905Y-77906311D01*
X105932372Y-77904951D01*
X106261851Y-77745551D01*
X106549010Y-77512712D01*
X106569504Y-77491602D01*
X106715635Y-77338564D01*
X109103143Y-77338564D01*
X111490651Y-77338564D01*
X111490651Y-76469282D01*
X111490651Y-75600000D01*
X111872287Y-75600000D01*
X111872287Y-76469282D01*
X111872287Y-77338564D01*
X114289315Y-77338564D01*
X116706344Y-77338564D01*
X116706344Y-76469282D01*
X116706344Y-75600000D01*
X117130384Y-75600000D01*
X117130384Y-76469282D01*
X117130384Y-77338564D01*
X119526210Y-77338564D01*
X121922037Y-77338564D01*
X121922037Y-76469282D01*
X121922037Y-75600000D01*
X122346077Y-75600000D01*
X122346077Y-76469282D01*
X122346077Y-77338564D01*
X124741903Y-77338564D01*
X127137730Y-77338564D01*
X127137730Y-76469282D01*
X127137730Y-75600000D01*
X127561770Y-75600000D01*
X127561770Y-76469282D01*
X127561770Y-77338564D01*
X129957596Y-77338564D01*
X132353422Y-77338564D01*
X132353422Y-76469282D01*
X132353422Y-75600000D01*
X132777462Y-75600000D01*
X132777462Y-76469282D01*
X132777462Y-77338564D01*
X135173289Y-77338564D01*
X137569115Y-77338564D01*
X137569115Y-76469282D01*
X137569115Y-75600000D01*
X137993155Y-75600000D01*
X137993155Y-76469282D01*
X137993155Y-77338564D01*
X140388982Y-77338564D01*
X142784808Y-77338564D01*
X142784808Y-76469282D01*
X142784808Y-75600000D01*
X143208848Y-75600000D01*
X143208848Y-76469282D01*
X143208848Y-77338564D01*
X145625876Y-77338564D01*
X148042905Y-77338564D01*
X148042905Y-76469282D01*
X148042905Y-75600000D01*
X145625876Y-75600000D01*
X143208848Y-75600000D01*
X142784808Y-75600000D01*
X140388982Y-75600000D01*
X137993155Y-75600000D01*
X137569115Y-75600000D01*
X135173289Y-75600000D01*
X132777462Y-75600000D01*
X132353422Y-75600000D01*
X129957596Y-75600000D01*
X127561770Y-75600000D01*
X127137730Y-75600000D01*
X124741903Y-75600000D01*
X122346077Y-75600000D01*
X121922037Y-75600000D01*
X119526210Y-75600000D01*
X117130384Y-75600000D01*
X116706344Y-75600000D01*
X114289315Y-75600000D01*
X111872287Y-75600000D01*
X111490651Y-75600000D01*
X109222037Y-75600000D01*
X106953422Y-75600000D01*
X106953422Y-75387980D01*
X106953422Y-75175960D01*
X107865108Y-75175960D01*
X108776795Y-75175960D01*
X108776795Y-74179466D01*
X108776795Y-73182972D01*
X109200835Y-73182972D01*
X109200835Y-74179466D01*
X109200835Y-75175960D01*
X111596661Y-75175960D01*
X113992487Y-75175960D01*
X113992487Y-74992074D01*
X113992487Y-74900334D01*
X114416412Y-74900334D01*
X114416470Y-75038147D01*
X114416528Y-75175960D01*
X116833556Y-75175960D01*
X119250584Y-75175960D01*
X119250584Y-74179466D01*
X119250584Y-73182972D01*
X119632220Y-73182972D01*
X119632220Y-74179466D01*
X119632220Y-75175960D01*
X122049249Y-75175960D01*
X124466277Y-75175960D01*
X124466277Y-74179466D01*
X124466277Y-73182972D01*
X124834955Y-73182972D01*
X124862443Y-73660017D01*
X124874135Y-73912060D01*
X124883396Y-74205088D01*
X124889009Y-74495286D01*
X124890124Y-74656511D01*
X124890317Y-75175960D01*
X127286144Y-75175960D01*
X127770337Y-75175295D01*
X128213376Y-75173366D01*
X128609344Y-75170265D01*
X128952322Y-75166089D01*
X129236394Y-75160932D01*
X129455642Y-75154889D01*
X129604149Y-75148055D01*
X129675998Y-75140525D01*
X129681970Y-75137526D01*
X129648542Y-75114787D01*
X129603874Y-75119514D01*
X129494004Y-75126538D01*
X129326745Y-75112039D01*
X129307129Y-75108937D01*
X130113502Y-75108937D01*
X130116778Y-75123303D01*
X130137179Y-75135479D01*
X130181037Y-75145643D01*
X130254685Y-75153973D01*
X130364454Y-75160648D01*
X130516679Y-75165844D01*
X130717691Y-75169740D01*
X130973824Y-75172514D01*
X131291409Y-75174344D01*
X131676779Y-75175407D01*
X132136268Y-75175882D01*
X132498727Y-75175960D01*
X134897663Y-75175960D01*
X134897663Y-74179466D01*
X134897663Y-73182972D01*
X135321703Y-73182972D01*
X135321703Y-74179466D01*
X135321703Y-75175960D01*
X137717529Y-75175960D01*
X140113356Y-75175960D01*
X140113356Y-74179466D01*
X140113356Y-73182972D01*
X140537396Y-73182972D01*
X140537396Y-74179466D01*
X140537396Y-75175960D01*
X142095743Y-75172427D01*
X142498363Y-75171265D01*
X142778678Y-75169819D01*
X144247746Y-75169819D01*
X144809599Y-75172890D01*
X145371452Y-75175960D01*
X145753088Y-75175960D01*
X148170117Y-75175960D01*
X150587145Y-75175960D01*
X150587145Y-74179466D01*
X150587145Y-73182972D01*
X148911616Y-73182972D01*
X147236087Y-73182972D01*
X146808616Y-73626788D01*
X146623028Y-73813056D01*
X146424856Y-74001287D01*
X146236600Y-74170715D01*
X146080762Y-74300575D01*
X146067116Y-74311130D01*
X145753088Y-74551656D01*
X145753088Y-74863808D01*
X145753088Y-75175960D01*
X145371452Y-75175960D01*
X145371452Y-74986191D01*
X145368692Y-74870601D01*
X145351850Y-74821765D01*
X145308085Y-74821642D01*
X145265155Y-74836837D01*
X145148496Y-74886611D01*
X145032422Y-74942634D01*
X144929605Y-74984536D01*
X144775087Y-75034706D01*
X144599986Y-75083152D01*
X144576867Y-75088918D01*
X144247746Y-75169819D01*
X142778678Y-75169819D01*
X142822683Y-75169592D01*
X143075209Y-75167114D01*
X143262447Y-75163533D01*
X143390906Y-75158552D01*
X143467091Y-75151876D01*
X143497510Y-75143207D01*
X143488670Y-75132250D01*
X143447077Y-75118707D01*
X143420868Y-75112045D01*
X143066302Y-74995883D01*
X142711674Y-74825924D01*
X142382145Y-74616838D01*
X142102879Y-74383294D01*
X142017666Y-74294002D01*
X141882866Y-74116037D01*
X141751660Y-73897856D01*
X141638808Y-73668230D01*
X141559068Y-73455933D01*
X141533465Y-73350074D01*
X141505233Y-73182972D01*
X141021314Y-73182972D01*
X140537396Y-73182972D01*
X140113356Y-73182972D01*
X137717529Y-73182972D01*
X135321703Y-73182972D01*
X134897663Y-73182972D01*
X133801208Y-73182972D01*
X132704753Y-73182972D01*
X132264063Y-73632066D01*
X131825212Y-74050426D01*
X131401656Y-74393572D01*
X130984597Y-74667605D01*
X130565238Y-74878624D01*
X130339232Y-74966933D01*
X130217122Y-75021048D01*
X130134068Y-75078431D01*
X130113502Y-75108937D01*
X129307129Y-75108937D01*
X129125523Y-75080218D01*
X128913760Y-75035278D01*
X128714882Y-74981421D01*
X128586538Y-74937021D01*
X128296333Y-74800940D01*
X128008697Y-74627777D01*
X127750915Y-74435712D01*
X127557899Y-74251598D01*
X127459227Y-74123687D01*
X127353881Y-73960310D01*
X127253361Y-73782906D01*
X127169165Y-73612917D01*
X127112791Y-73471782D01*
X127095326Y-73389055D01*
X127094593Y-73327957D01*
X127086146Y-73280307D01*
X127060613Y-73244436D01*
X127008622Y-73218671D01*
X126920798Y-73201342D01*
X126787771Y-73190779D01*
X126600167Y-73185309D01*
X126348614Y-73183262D01*
X126023739Y-73182967D01*
X125939402Y-73182972D01*
X124834955Y-73182972D01*
X124466277Y-73182972D01*
X122049249Y-73182972D01*
X119632220Y-73182972D01*
X119250584Y-73182972D01*
X118512382Y-73182972D01*
X117774180Y-73182972D01*
X117408316Y-73544740D01*
X116974862Y-73938053D01*
X116534378Y-74269921D01*
X116093510Y-74537043D01*
X115658902Y-74736121D01*
X115237201Y-74863852D01*
X114835052Y-74916938D01*
X114649369Y-74914841D01*
X114416412Y-74900334D01*
X113992487Y-74900334D01*
X113992487Y-74808188D01*
X113630683Y-74628907D01*
X113251710Y-74403829D01*
X112936022Y-74137577D01*
X112690475Y-73836619D01*
X112575689Y-73633802D01*
X112503761Y-73480126D01*
X112445011Y-73349140D01*
X112410404Y-73265401D01*
X112407565Y-73257179D01*
X112396597Y-73238042D01*
X112371814Y-73222495D01*
X112325171Y-73210167D01*
X112248619Y-73200690D01*
X112134110Y-73193693D01*
X111973599Y-73188807D01*
X111759036Y-73185662D01*
X111482376Y-73183889D01*
X111135570Y-73183117D01*
X110792316Y-73182972D01*
X109200835Y-73182972D01*
X108776795Y-73182972D01*
X107865108Y-73182972D01*
X106953422Y-73182972D01*
X106953422Y-72970952D01*
X106953422Y-72759855D01*
X112974791Y-72759855D01*
X112980384Y-72949265D01*
X113002951Y-73093348D01*
X113051171Y-73231180D01*
X113104697Y-73344582D01*
X113288161Y-73624859D01*
X113539966Y-73864620D01*
X113864993Y-74068323D01*
X113935888Y-74103538D01*
X114300174Y-74243366D01*
X114655343Y-74304814D01*
X115019865Y-74289699D01*
X115284234Y-74236166D01*
X115630235Y-74110037D01*
X115998413Y-73907547D01*
X116384297Y-73632846D01*
X116783414Y-73290084D01*
X117143152Y-72931407D01*
X127654629Y-72931407D01*
X127696958Y-73266291D01*
X127819080Y-73572584D01*
X128021003Y-73850245D01*
X128088258Y-73919379D01*
X128414248Y-74180505D01*
X128772129Y-74364607D01*
X129155049Y-74470103D01*
X129556157Y-74495411D01*
X129968603Y-74438950D01*
X130137297Y-74392461D01*
X130492820Y-74244846D01*
X130870281Y-74021782D01*
X131264298Y-73728111D01*
X131669491Y-73368672D01*
X132080480Y-72948305D01*
X132115847Y-72907346D01*
X142131842Y-72907346D01*
X142133174Y-73106698D01*
X142146095Y-73252101D01*
X142176002Y-73374185D01*
X142228291Y-73503583D01*
X142242198Y-73533649D01*
X142406856Y-73795626D01*
X142638673Y-74038383D01*
X142920249Y-74249204D01*
X143234184Y-74415372D01*
X143563077Y-74524170D01*
X143611686Y-74534570D01*
X143879005Y-74559804D01*
X144183221Y-74543490D01*
X144489061Y-74488617D01*
X144629382Y-74448375D01*
X145007529Y-74286975D01*
X145404210Y-74047263D01*
X145815411Y-73732682D01*
X146237118Y-73346677D01*
X146665317Y-72892690D01*
X146776414Y-72758932D01*
X147574461Y-72758932D01*
X147808683Y-72758932D01*
X148042905Y-72758932D01*
X148042905Y-72483305D01*
X148038448Y-72343265D01*
X148026784Y-72244643D01*
X148011102Y-72209422D01*
X147972755Y-72242050D01*
X147899169Y-72327153D01*
X147804394Y-72448195D01*
X147776880Y-72485048D01*
X147574461Y-72758932D01*
X146776414Y-72758932D01*
X147095994Y-72374165D01*
X147191965Y-72250083D01*
X147567363Y-71741266D01*
X147880669Y-71276051D01*
X148135748Y-70844735D01*
X148336469Y-70437614D01*
X148356865Y-70384307D01*
X149026217Y-70384307D01*
X149806681Y-70384307D01*
X150587145Y-70384307D01*
X150587145Y-69387813D01*
X150587145Y-68391319D01*
X149925068Y-68391319D01*
X149262992Y-68391319D01*
X149290918Y-68577547D01*
X149300891Y-68749632D01*
X149292096Y-68980847D01*
X149267137Y-69248253D01*
X149228619Y-69528908D01*
X149179148Y-69799873D01*
X149127590Y-70015848D01*
X149026217Y-70384307D01*
X148356865Y-70384307D01*
X148486698Y-70044984D01*
X148590301Y-69657140D01*
X148651147Y-69264378D01*
X148673103Y-68856994D01*
X148666974Y-68548615D01*
X148654329Y-68333998D01*
X148635650Y-68126870D01*
X148608813Y-67918318D01*
X148571690Y-67699427D01*
X148522154Y-67461283D01*
X148458081Y-67194973D01*
X148377344Y-66891583D01*
X148277816Y-66542199D01*
X148157371Y-66137907D01*
X148013883Y-65669792D01*
X147870539Y-65209714D01*
X147775072Y-64903206D01*
X147688431Y-64621818D01*
X147613758Y-64376018D01*
X147562669Y-64204683D01*
X148182346Y-64204683D01*
X148182728Y-64207429D01*
X148202811Y-64266806D01*
X148242937Y-64390700D01*
X148297841Y-64562681D01*
X148362258Y-64766323D01*
X148383202Y-64832888D01*
X148451066Y-65047444D01*
X148512696Y-65239713D01*
X148562286Y-65391763D01*
X148594029Y-65485662D01*
X148598822Y-65498812D01*
X148635653Y-65595789D01*
X151190949Y-65583620D01*
X151723676Y-65580935D01*
X152178301Y-65578200D01*
X152561529Y-65575198D01*
X152880065Y-65571710D01*
X153140616Y-65567519D01*
X153349886Y-65562408D01*
X153514581Y-65556158D01*
X153641406Y-65548551D01*
X153737068Y-65539370D01*
X153808270Y-65528397D01*
X153861720Y-65515414D01*
X153904122Y-65500203D01*
X153915860Y-65495096D01*
X154157594Y-65341506D01*
X154356559Y-65124564D01*
X154504400Y-64858430D01*
X154592765Y-64557264D01*
X154615023Y-64309933D01*
X154615526Y-64150918D01*
X151388285Y-64150918D01*
X150775335Y-64151128D01*
X150242130Y-64151817D01*
X149783608Y-64153074D01*
X149394706Y-64154988D01*
X149070362Y-64157649D01*
X148805513Y-64161147D01*
X148595099Y-64165569D01*
X148434055Y-64171006D01*
X148317320Y-64177546D01*
X148239832Y-64185280D01*
X148196528Y-64194296D01*
X148182346Y-64204683D01*
X147562669Y-64204683D01*
X147554197Y-64176271D01*
X147512893Y-64033046D01*
X147492989Y-63956809D01*
X147491653Y-63948194D01*
X147459780Y-63899942D01*
X147441992Y-63896494D01*
X147395857Y-63909259D01*
X147278181Y-63945640D01*
X147097762Y-64002767D01*
X146863392Y-64077768D01*
X146583869Y-64167773D01*
X146267985Y-64269911D01*
X145924536Y-64381312D01*
X145562318Y-64499104D01*
X145190124Y-64620417D01*
X144816751Y-64742381D01*
X144450992Y-64862124D01*
X144101643Y-64976776D01*
X143777499Y-65083466D01*
X143487354Y-65179323D01*
X143240004Y-65261477D01*
X143044244Y-65327056D01*
X142908868Y-65373191D01*
X142842671Y-65397010D01*
X142837572Y-65399414D01*
X142847589Y-65440545D01*
X142881729Y-65549926D01*
X142936105Y-65715757D01*
X143006826Y-65926240D01*
X143090005Y-66169577D01*
X143121573Y-66260996D01*
X143296797Y-66779044D01*
X143439795Y-67230196D01*
X143553007Y-67624956D01*
X143638874Y-67973829D01*
X143699836Y-68287318D01*
X143738333Y-68575928D01*
X143756805Y-68850162D01*
X143759306Y-69006177D01*
X143740796Y-69393253D01*
X143682118Y-69740404D01*
X143576346Y-70066147D01*
X143416552Y-70388999D01*
X143195810Y-70727476D01*
X143036076Y-70939586D01*
X142748498Y-71323609D01*
X142522523Y-71666220D01*
X142353089Y-71978431D01*
X142235136Y-72271257D01*
X142163604Y-72555710D01*
X142133431Y-72842802D01*
X142131842Y-72907346D01*
X132115847Y-72907346D01*
X132262206Y-72737845D01*
X133074290Y-72737845D01*
X133115395Y-72741858D01*
X133233509Y-72745620D01*
X133420834Y-72749060D01*
X133669574Y-72752103D01*
X133971929Y-72754677D01*
X134320101Y-72756708D01*
X134706294Y-72758123D01*
X135122707Y-72758849D01*
X135321703Y-72758932D01*
X137569115Y-72758932D01*
X137569115Y-71783639D01*
X137569115Y-70808347D01*
X137993155Y-70808347D01*
X137993155Y-71783639D01*
X137993155Y-72758932D01*
X139752922Y-72758932D01*
X140185728Y-72758764D01*
X140541285Y-72758043D01*
X140827151Y-72756443D01*
X141050886Y-72753639D01*
X141220046Y-72749303D01*
X141342190Y-72743111D01*
X141424878Y-72734736D01*
X141475667Y-72723852D01*
X141502116Y-72710132D01*
X141511784Y-72693252D01*
X141512688Y-72683033D01*
X141534929Y-72504925D01*
X141596707Y-72274751D01*
X141690605Y-72011069D01*
X141809205Y-71732437D01*
X141945090Y-71457411D01*
X142090843Y-71204549D01*
X142124652Y-71151977D01*
X142350729Y-70808347D01*
X140171942Y-70808347D01*
X137993155Y-70808347D01*
X137569115Y-70808347D01*
X135947162Y-70808448D01*
X134325209Y-70808549D01*
X134197997Y-71052268D01*
X134038775Y-71333124D01*
X133830613Y-71661741D01*
X133582681Y-72024111D01*
X133365192Y-72324406D01*
X133250336Y-72481041D01*
X133156870Y-72611785D01*
X133094872Y-72702315D01*
X133074290Y-72737845D01*
X132262206Y-72737845D01*
X132491885Y-72471851D01*
X132898325Y-71944150D01*
X132971366Y-71842943D01*
X133296988Y-71368181D01*
X133562319Y-70936009D01*
X133771965Y-70534424D01*
X133841627Y-70366165D01*
X134516027Y-70366165D01*
X134553962Y-70376989D01*
X134649934Y-70383478D01*
X134706845Y-70384307D01*
X134897663Y-70384307D01*
X134897663Y-69387813D01*
X134896841Y-69062726D01*
X134894033Y-68813508D01*
X134888725Y-68631230D01*
X134880404Y-68506967D01*
X134868556Y-68431792D01*
X134852668Y-68396776D01*
X134840349Y-68391319D01*
X135321703Y-68391319D01*
X135321703Y-69387813D01*
X135321703Y-70384307D01*
X137717529Y-70384307D01*
X140113356Y-70384307D01*
X140113356Y-69387813D01*
X140113356Y-68391319D01*
X140537396Y-68391319D01*
X140537396Y-69387813D01*
X140537396Y-70384307D01*
X141630940Y-70384307D01*
X142724485Y-70384307D01*
X142856273Y-70161686D01*
X142985064Y-69917748D01*
X143071086Y-69682790D01*
X143121091Y-69429641D01*
X143141832Y-69131130D01*
X143143437Y-69006177D01*
X143141140Y-68809109D01*
X143134287Y-68638527D01*
X143124010Y-68515367D01*
X143114276Y-68465526D01*
X143100271Y-68444350D01*
X143071257Y-68427611D01*
X143018171Y-68414794D01*
X142931953Y-68405381D01*
X142803539Y-68398857D01*
X142623868Y-68394707D01*
X142383880Y-68392414D01*
X142074511Y-68391463D01*
X141810847Y-68391319D01*
X140537396Y-68391319D01*
X140113356Y-68391319D01*
X137717529Y-68391319D01*
X135321703Y-68391319D01*
X134840349Y-68391319D01*
X134815442Y-68411073D01*
X134795841Y-68477218D01*
X134780085Y-68600078D01*
X134766709Y-68789976D01*
X134757715Y-68974374D01*
X134737521Y-69300776D01*
X134705903Y-69571663D01*
X134658909Y-69815997D01*
X134624211Y-69952726D01*
X134577884Y-70123761D01*
X134541469Y-70261547D01*
X134519856Y-70347398D01*
X134516027Y-70366165D01*
X133841627Y-70366165D01*
X133930535Y-70151422D01*
X134042635Y-69775001D01*
X134112874Y-69393156D01*
X134145859Y-68993885D01*
X134149815Y-68772955D01*
X134141913Y-68435778D01*
X134116862Y-68120062D01*
X134071072Y-67801053D01*
X134000957Y-67453997D01*
X133902926Y-67054142D01*
X133897769Y-67034391D01*
X133856651Y-66884600D01*
X133797872Y-66680689D01*
X133724813Y-66433543D01*
X133679264Y-66281918D01*
X134322361Y-66281918D01*
X134324641Y-66300304D01*
X134325677Y-66302922D01*
X134343864Y-66363429D01*
X134377496Y-66489966D01*
X134422517Y-66666028D01*
X134474869Y-66875111D01*
X134530494Y-67100709D01*
X134585334Y-67326318D01*
X134635331Y-67535433D01*
X134676428Y-67711549D01*
X134704568Y-67838162D01*
X134711405Y-67871870D01*
X134729662Y-67967279D01*
X136149389Y-67967279D01*
X137569115Y-67967279D01*
X137569115Y-67097997D01*
X137569115Y-66228714D01*
X137993155Y-66228714D01*
X137993155Y-67097997D01*
X137993155Y-67967279D01*
X140388982Y-67967279D01*
X142784808Y-67967279D01*
X142785328Y-67553840D01*
X142782532Y-67357232D01*
X142769890Y-67199725D01*
X142741878Y-67051109D01*
X142692971Y-66881172D01*
X142626357Y-66684558D01*
X142466867Y-66228714D01*
X140230011Y-66228714D01*
X137993155Y-66228714D01*
X137569115Y-66228714D01*
X135932024Y-66228714D01*
X135516219Y-66228899D01*
X135177551Y-66229688D01*
X134908348Y-66231437D01*
X134700941Y-66234499D01*
X134547659Y-66239229D01*
X134440831Y-66245982D01*
X134372786Y-66255112D01*
X134335853Y-66266972D01*
X134322361Y-66281918D01*
X133679264Y-66281918D01*
X133640852Y-66154048D01*
X133549366Y-65853090D01*
X133453734Y-65541555D01*
X133357335Y-65230328D01*
X133263547Y-64930296D01*
X133175747Y-64652345D01*
X133097316Y-64407360D01*
X133031630Y-64206228D01*
X133024383Y-64184821D01*
X133667947Y-64184821D01*
X133680091Y-64234726D01*
X133713701Y-64351304D01*
X133764540Y-64520408D01*
X133828374Y-64727892D01*
X133879967Y-64892988D01*
X133950318Y-65117442D01*
X134010799Y-65311786D01*
X134057216Y-65462429D01*
X134085373Y-65555777D01*
X134091987Y-65579953D01*
X134133321Y-65581953D01*
X134253043Y-65583855D01*
X134444735Y-65585637D01*
X134701976Y-65587272D01*
X135018347Y-65588737D01*
X135387429Y-65590006D01*
X135802803Y-65591056D01*
X136258047Y-65591862D01*
X136746744Y-65592399D01*
X137262474Y-65592642D01*
X137408328Y-65592654D01*
X140724669Y-65592654D01*
X140550836Y-65412437D01*
X140453768Y-65306221D01*
X140376998Y-65204179D01*
X140311154Y-65088053D01*
X140246869Y-64939583D01*
X140174771Y-64740507D01*
X140115656Y-64564357D01*
X139979150Y-64150918D01*
X136823548Y-64150918D01*
X136314598Y-64151362D01*
X135831074Y-64152646D01*
X135379558Y-64154700D01*
X134966632Y-64157453D01*
X134598875Y-64160835D01*
X134282868Y-64164774D01*
X134025194Y-64169199D01*
X133832432Y-64174042D01*
X133711163Y-64179229D01*
X133667969Y-64184692D01*
X133667947Y-64184821D01*
X133024383Y-64184821D01*
X132982069Y-64059835D01*
X132952010Y-63979066D01*
X132945884Y-63967178D01*
X132899553Y-63971495D01*
X132782375Y-64000582D01*
X132603067Y-64051547D01*
X132370346Y-64121500D01*
X132092930Y-64207548D01*
X131779536Y-64306800D01*
X131438881Y-64416364D01*
X131079684Y-64533349D01*
X130710661Y-64654863D01*
X130340529Y-64778015D01*
X129978007Y-64899913D01*
X129631811Y-65017665D01*
X129310659Y-65128381D01*
X129023268Y-65229167D01*
X128778356Y-65317134D01*
X128584640Y-65389388D01*
X128450837Y-65443040D01*
X128385665Y-65475196D01*
X128380779Y-65481430D01*
X128449263Y-65668224D01*
X128533256Y-65910301D01*
X128627729Y-66191872D01*
X128727657Y-66497152D01*
X128828011Y-66810354D01*
X128923763Y-67115690D01*
X129009886Y-67397375D01*
X129081352Y-67639621D01*
X129133134Y-67826642D01*
X129152186Y-67903673D01*
X129253498Y-68458223D01*
X129291716Y-68962509D01*
X129265455Y-69424443D01*
X129173329Y-69851938D01*
X129013951Y-70252909D01*
X128785935Y-70635267D01*
X128639632Y-70829549D01*
X128283102Y-71306776D01*
X128006330Y-71755616D01*
X127809322Y-72176028D01*
X127692086Y-72567972D01*
X127654629Y-72931407D01*
X117143152Y-72931407D01*
X117191289Y-72883412D01*
X117322021Y-72735466D01*
X118148080Y-72735466D01*
X118189066Y-72740326D01*
X118306348Y-72744847D01*
X118491419Y-72748921D01*
X118735765Y-72752444D01*
X119030879Y-72755308D01*
X119368249Y-72757410D01*
X119739365Y-72758642D01*
X120035058Y-72758932D01*
X121922037Y-72758932D01*
X121922037Y-71783639D01*
X121922037Y-70808347D01*
X122346077Y-70808347D01*
X122346077Y-71783639D01*
X122346077Y-72758932D01*
X124689829Y-72758932D01*
X127033581Y-72758932D01*
X127085655Y-72484420D01*
X127103727Y-72345382D01*
X127119076Y-72143825D01*
X127130512Y-71902023D01*
X127136846Y-71642252D01*
X127137730Y-71509128D01*
X127137730Y-70808347D01*
X127561770Y-70808347D01*
X127561770Y-71028848D01*
X127567471Y-71143740D01*
X127582157Y-71206497D01*
X127595912Y-71209065D01*
X127640478Y-71152039D01*
X127712426Y-71055962D01*
X127744326Y-71012596D01*
X127812747Y-70914262D01*
X127853561Y-70846305D01*
X127858598Y-70832378D01*
X127821274Y-70816486D01*
X127729512Y-70808552D01*
X127710184Y-70808347D01*
X127561770Y-70808347D01*
X127137730Y-70808347D01*
X124741903Y-70808347D01*
X122346077Y-70808347D01*
X121922037Y-70808347D01*
X120676263Y-70808347D01*
X119430489Y-70808347D01*
X119373999Y-70944726D01*
X119321504Y-71046313D01*
X119228650Y-71201222D01*
X119105449Y-71394546D01*
X118961916Y-71611379D01*
X118808064Y-71836814D01*
X118653906Y-72055946D01*
X118509456Y-72253869D01*
X118391809Y-72406835D01*
X118285082Y-72542849D01*
X118202098Y-72653142D01*
X118154716Y-72721725D01*
X118148080Y-72735466D01*
X117322021Y-72735466D01*
X117603451Y-72416979D01*
X118015426Y-71894936D01*
X118417877Y-71328637D01*
X118619167Y-71022105D01*
X118777847Y-70758150D01*
X118905820Y-70514385D01*
X118963555Y-70384307D01*
X119635982Y-70384307D01*
X122051130Y-70384307D01*
X124466277Y-70384307D01*
X124466277Y-69387813D01*
X124466277Y-68602940D01*
X124864604Y-68602940D01*
X124864755Y-68786153D01*
X124867599Y-69016506D01*
X124873082Y-69281460D01*
X124876841Y-69424590D01*
X124903819Y-70384307D01*
X126572960Y-70384307D01*
X128242102Y-70384307D01*
X128369901Y-70182888D01*
X128523085Y-69884198D01*
X128620063Y-69553168D01*
X128664836Y-69173892D01*
X128669035Y-68993821D01*
X128666483Y-68801589D01*
X128659737Y-68634654D01*
X128649945Y-68515489D01*
X128642515Y-68474372D01*
X128633756Y-68454480D01*
X128616280Y-68438046D01*
X128582594Y-68424740D01*
X128525204Y-68414232D01*
X128436620Y-68406192D01*
X128309348Y-68400291D01*
X128135896Y-68396199D01*
X127908771Y-68393586D01*
X127620481Y-68392121D01*
X127263534Y-68391476D01*
X126830436Y-68391320D01*
X126755739Y-68391319D01*
X126366714Y-68392131D01*
X126004259Y-68394454D01*
X125677084Y-68398118D01*
X125393901Y-68402953D01*
X125163419Y-68408788D01*
X124994350Y-68415453D01*
X124895405Y-68422779D01*
X124872593Y-68428096D01*
X124867198Y-68479408D01*
X124864604Y-68602940D01*
X124466277Y-68602940D01*
X124466277Y-68391319D01*
X122225110Y-68391319D01*
X119983943Y-68391319D01*
X119954509Y-68847162D01*
X119920157Y-69197942D01*
X119864336Y-69556185D01*
X119792582Y-69892282D01*
X119710433Y-70176621D01*
X119700775Y-70204090D01*
X119635982Y-70384307D01*
X118963555Y-70384307D01*
X119014991Y-70268422D01*
X119100390Y-70045075D01*
X119239005Y-69572645D01*
X119317258Y-69084078D01*
X119335153Y-68569895D01*
X119292695Y-68020615D01*
X119189890Y-67426759D01*
X119101918Y-67055463D01*
X119060065Y-66901035D01*
X119000710Y-66693086D01*
X118927207Y-66442470D01*
X118881003Y-66287656D01*
X119521733Y-66287656D01*
X119526062Y-66302922D01*
X119558267Y-66400814D01*
X119603183Y-66561733D01*
X119656011Y-66765727D01*
X119711951Y-66992841D01*
X119766201Y-67223122D01*
X119813962Y-67436619D01*
X119850433Y-67613376D01*
X119870815Y-67733442D01*
X119871438Y-67738550D01*
X119898321Y-67967279D01*
X120910179Y-67967279D01*
X121922037Y-67967279D01*
X121922037Y-67097997D01*
X121922037Y-66228714D01*
X122346077Y-66228714D01*
X122346077Y-67097997D01*
X122346077Y-67967279D01*
X124741903Y-67967279D01*
X127137730Y-67967279D01*
X127137730Y-67097997D01*
X127137730Y-66228714D01*
X124741903Y-66228714D01*
X122346077Y-66228714D01*
X121922037Y-66228714D01*
X120708986Y-66228714D01*
X120356586Y-66228988D01*
X120080152Y-66230180D01*
X119870843Y-66232843D01*
X119719818Y-66237534D01*
X119618235Y-66244806D01*
X119557254Y-66255213D01*
X119528034Y-66269312D01*
X119521733Y-66287656D01*
X118881003Y-66287656D01*
X118862089Y-66224282D01*
X127561770Y-66224282D01*
X127561770Y-67095781D01*
X127561770Y-67967279D01*
X128052785Y-67967279D01*
X128543800Y-67967279D01*
X128514529Y-67829466D01*
X128491799Y-67744753D01*
X128447031Y-67595822D01*
X128385274Y-67398819D01*
X128311574Y-67169894D01*
X128246135Y-66970785D01*
X128007012Y-66249916D01*
X127784391Y-66237099D01*
X127561770Y-66224282D01*
X118862089Y-66224282D01*
X118842915Y-66160039D01*
X118751189Y-65856648D01*
X118655387Y-65543151D01*
X118558864Y-65230399D01*
X118464978Y-64929248D01*
X118377084Y-64650550D01*
X118298541Y-64405160D01*
X118232703Y-64203930D01*
X118225483Y-64182721D01*
X118869585Y-64182721D01*
X118881797Y-64235351D01*
X118913757Y-64347699D01*
X118959394Y-64498702D01*
X118976525Y-64553756D01*
X119044252Y-64770737D01*
X119120540Y-65016424D01*
X119189124Y-65238432D01*
X119190474Y-65242821D01*
X119298120Y-65592654D01*
X122755874Y-65592654D01*
X126213627Y-65592654D01*
X126082282Y-65443061D01*
X125983802Y-65318919D01*
X125898532Y-65180510D01*
X125817766Y-65009891D01*
X125732799Y-64789120D01*
X125655958Y-64564357D01*
X125519384Y-64150918D01*
X122194166Y-64150918D01*
X121671427Y-64151313D01*
X121173959Y-64152459D01*
X120708172Y-64154292D01*
X120280473Y-64156753D01*
X119897274Y-64159779D01*
X119564982Y-64163310D01*
X119290007Y-64167285D01*
X119078758Y-64171641D01*
X118937645Y-64176318D01*
X118873077Y-64181254D01*
X118869585Y-64182721D01*
X118225483Y-64182721D01*
X118182928Y-64057714D01*
X118152573Y-63977367D01*
X118146417Y-63965868D01*
X118103508Y-63974108D01*
X117988903Y-64005903D01*
X117811499Y-64058410D01*
X117580194Y-64128784D01*
X117303887Y-64214183D01*
X116991476Y-64311762D01*
X116651859Y-64418677D01*
X116293934Y-64532086D01*
X115926598Y-64649143D01*
X115558751Y-64767007D01*
X115199290Y-64882832D01*
X114857114Y-64993776D01*
X114541119Y-65096995D01*
X114260206Y-65189644D01*
X114023271Y-65268881D01*
X113839212Y-65331862D01*
X113716929Y-65375742D01*
X113665318Y-65397679D01*
X113664785Y-65398118D01*
X113674706Y-65438995D01*
X113708429Y-65545851D01*
X113761356Y-65704753D01*
X113828886Y-65901769D01*
X113869874Y-66019299D01*
X114046077Y-66530628D01*
X114191475Y-66974315D01*
X114308561Y-67360716D01*
X114399825Y-67700188D01*
X114467758Y-68003088D01*
X114514852Y-68279774D01*
X114543596Y-68540601D01*
X114556483Y-68795927D01*
X114557670Y-68878965D01*
X114553632Y-69098869D01*
X114540429Y-69314652D01*
X114520359Y-69495707D01*
X114505113Y-69578631D01*
X114400032Y-69898293D01*
X114238072Y-70234792D01*
X114033972Y-70559543D01*
X113925783Y-70702337D01*
X113614142Y-71109985D01*
X113369517Y-71481078D01*
X113187595Y-71824942D01*
X113064067Y-72150904D01*
X112994621Y-72468290D01*
X112974791Y-72759855D01*
X106953422Y-72759855D01*
X106953422Y-72758932D01*
X109222037Y-72758932D01*
X111490651Y-72758932D01*
X111490651Y-71783639D01*
X111490651Y-70808347D01*
X111872287Y-70808347D01*
X111872287Y-71783639D01*
X111872287Y-72758932D01*
X112105509Y-72758932D01*
X112239030Y-72756254D01*
X112308548Y-72741793D01*
X112334844Y-72705905D01*
X112338731Y-72650691D01*
X112359963Y-72456923D01*
X112418765Y-72210859D01*
X112507795Y-71932144D01*
X112619714Y-71640422D01*
X112747181Y-71355338D01*
X112882854Y-71096536D01*
X112975671Y-70946160D01*
X113067928Y-70808347D01*
X112470107Y-70808347D01*
X111872287Y-70808347D01*
X111490651Y-70808347D01*
X109222037Y-70808347D01*
X106953422Y-70808347D01*
X106953422Y-70596327D01*
X106953422Y-70384307D01*
X107865108Y-70384307D01*
X108776795Y-70384307D01*
X108776795Y-69387813D01*
X108776795Y-68391319D01*
X109200835Y-68391319D01*
X109200835Y-69387813D01*
X109200835Y-70384307D01*
X111310434Y-70382996D01*
X113420033Y-70381685D01*
X113562750Y-70192242D01*
X113739802Y-69909707D01*
X113858380Y-69602513D01*
X113924822Y-69251380D01*
X113941048Y-69041234D01*
X113946889Y-68846372D01*
X113946451Y-68672983D01*
X113940072Y-68545325D01*
X113933487Y-68500583D01*
X113906064Y-68391319D01*
X111553449Y-68391319D01*
X109200835Y-68391319D01*
X108776795Y-68391319D01*
X107865108Y-68391319D01*
X106953422Y-68391319D01*
X106953422Y-68179299D01*
X106953422Y-67967279D01*
X109222037Y-67967279D01*
X111490651Y-67967279D01*
X111490651Y-67100377D01*
X111490651Y-66233475D01*
X110666999Y-66228714D01*
X111872287Y-66228714D01*
X111872287Y-67097997D01*
X111872287Y-67967279D01*
X112852298Y-67967279D01*
X113832310Y-67967279D01*
X113802811Y-67808264D01*
X113779922Y-67715786D01*
X113735112Y-67559839D01*
X113673499Y-67357332D01*
X113600203Y-67125178D01*
X113539721Y-66938982D01*
X113306131Y-66228714D01*
X112589209Y-66228714D01*
X111872287Y-66228714D01*
X110666999Y-66228714D01*
X108893406Y-66218462D01*
X106296160Y-66203448D01*
X105995077Y-66072038D01*
X105775041Y-65974118D01*
X105615005Y-65896121D01*
X105496344Y-65826174D01*
X105400436Y-65752403D01*
X105308658Y-65662937D01*
X105245388Y-65594073D01*
X105079745Y-65366698D01*
X104932312Y-65082926D01*
X104815471Y-64770965D01*
X104741604Y-64459026D01*
X104738577Y-64439370D01*
X104695765Y-64150918D01*
X105330291Y-64150918D01*
X105353295Y-64394741D01*
X105420503Y-64716089D01*
X105553125Y-65005200D01*
X105742038Y-65250052D01*
X105978119Y-65438625D01*
X106232280Y-65553035D01*
X106292695Y-65558825D01*
X106430303Y-65564399D01*
X106637491Y-65569657D01*
X106906644Y-65574499D01*
X107230148Y-65578823D01*
X107600388Y-65582530D01*
X108009751Y-65585519D01*
X108450621Y-65587689D01*
X108915385Y-65588942D01*
X108960941Y-65589010D01*
X111583318Y-65592654D01*
X111391636Y-65379458D01*
X111215802Y-65135516D01*
X111106292Y-64881211D01*
X111043504Y-64694345D01*
X110976414Y-64501113D01*
X110930563Y-64373539D01*
X110848498Y-64150918D01*
X108089394Y-64150918D01*
X105330291Y-64150918D01*
X104695765Y-64150918D01*
X104443684Y-64150918D01*
X104155616Y-64111584D01*
X103865335Y-64001358D01*
X103590048Y-63831901D01*
X103530724Y-63778938D01*
X111417900Y-63778938D01*
X111438820Y-63953094D01*
X111497948Y-64178008D01*
X111557996Y-64362662D01*
X111675714Y-64671081D01*
X111795368Y-64901069D01*
X111923788Y-65058863D01*
X112067802Y-65150701D01*
X112234238Y-65182819D01*
X112429924Y-65161452D01*
X112432057Y-65160989D01*
X112496590Y-65142410D01*
X112635076Y-65099175D01*
X112841001Y-65033410D01*
X113107850Y-64947239D01*
X113429108Y-64842786D01*
X113798260Y-64722178D01*
X114208791Y-64587538D01*
X114654185Y-64440991D01*
X115127929Y-64284662D01*
X115623506Y-64120676D01*
X115725057Y-64087018D01*
X116303216Y-63895227D01*
X116592972Y-63798900D01*
X126077629Y-63798900D01*
X126091876Y-63892394D01*
X126129993Y-64043622D01*
X126185044Y-64231302D01*
X126250093Y-64434153D01*
X126318205Y-64630892D01*
X126382443Y-64800239D01*
X126435872Y-64920911D01*
X126453420Y-64951960D01*
X126592027Y-65093250D01*
X126778999Y-65184195D01*
X126954393Y-65210860D01*
X127034951Y-65196908D01*
X127195487Y-65154998D01*
X127435919Y-65085154D01*
X127756168Y-64987402D01*
X128156151Y-64861766D01*
X128635790Y-64708273D01*
X129195002Y-64526947D01*
X129833708Y-64317814D01*
X130346338Y-64148850D01*
X130851071Y-63981700D01*
X131334498Y-63820851D01*
X131530385Y-63755355D01*
X140537396Y-63755355D01*
X140552416Y-63871715D01*
X140592660Y-64043606D01*
X140650904Y-64248201D01*
X140719924Y-64462676D01*
X140792496Y-64664205D01*
X140861394Y-64829964D01*
X140903702Y-64912712D01*
X141002046Y-65022185D01*
X141146707Y-65121841D01*
X141302705Y-65191160D01*
X141412188Y-65210985D01*
X141465655Y-65197939D01*
X141593402Y-65160121D01*
X141789236Y-65099521D01*
X142046964Y-65018133D01*
X142360394Y-64917947D01*
X142723331Y-64800958D01*
X143129582Y-64669156D01*
X143572956Y-64524534D01*
X144047257Y-64369084D01*
X144546293Y-64204798D01*
X144776863Y-64128655D01*
X145286273Y-63959984D01*
X145774439Y-63797800D01*
X146235070Y-63644226D01*
X146661878Y-63501383D01*
X147048572Y-63371394D01*
X147388865Y-63256381D01*
X147676465Y-63158466D01*
X147905085Y-63079771D01*
X148068434Y-63022418D01*
X148160224Y-62988530D01*
X148176149Y-62981688D01*
X148323131Y-62861490D01*
X148425138Y-62688894D01*
X148466558Y-62491067D01*
X148466786Y-62476039D01*
X148449751Y-62330798D01*
X148403774Y-62136491D01*
X148336868Y-61915958D01*
X148257045Y-61692040D01*
X148172317Y-61487577D01*
X148090695Y-61325407D01*
X148034173Y-61242778D01*
X147894713Y-61127679D01*
X147726256Y-61051164D01*
X147559837Y-61024779D01*
X147478967Y-61036242D01*
X147381997Y-61066358D01*
X147216365Y-61119465D01*
X146989445Y-61193116D01*
X146708614Y-61284862D01*
X146381245Y-61392256D01*
X146014716Y-61512851D01*
X145616400Y-61644198D01*
X145193675Y-61783850D01*
X144753914Y-61929360D01*
X144304493Y-62078279D01*
X143852789Y-62228160D01*
X143406175Y-62376556D01*
X142972028Y-62521019D01*
X142557723Y-62659101D01*
X142170636Y-62788355D01*
X141818141Y-62906332D01*
X141507614Y-63010586D01*
X141246431Y-63098669D01*
X141041967Y-63168132D01*
X140901597Y-63216529D01*
X140832696Y-63241412D01*
X140827716Y-63243561D01*
X140694171Y-63353267D01*
X140592644Y-63515593D01*
X140540691Y-63699593D01*
X140537396Y-63755355D01*
X131530385Y-63755355D01*
X131790270Y-63668461D01*
X132212037Y-63526689D01*
X132593449Y-63397692D01*
X132928156Y-63283628D01*
X133209808Y-63186656D01*
X133432056Y-63108932D01*
X133588550Y-63052616D01*
X133672940Y-63019866D01*
X133683977Y-63014543D01*
X133814282Y-62896978D01*
X133914081Y-62731485D01*
X133962906Y-62554345D01*
X133964775Y-62516756D01*
X133950423Y-62419354D01*
X133911966Y-62264597D01*
X133856297Y-62074068D01*
X133790313Y-61869350D01*
X133720908Y-61672028D01*
X133654977Y-61503685D01*
X133609478Y-61404593D01*
X133508265Y-61281927D01*
X133356668Y-61177203D01*
X133189076Y-61110807D01*
X133091978Y-61097830D01*
X133028931Y-61111096D01*
X132893185Y-61149254D01*
X132692146Y-61209844D01*
X132433217Y-61290407D01*
X132123802Y-61388483D01*
X131771306Y-61501613D01*
X131383132Y-61627335D01*
X130966685Y-61763192D01*
X130529369Y-61906723D01*
X130078588Y-62055469D01*
X129621746Y-62206969D01*
X129166247Y-62358764D01*
X128719495Y-62508395D01*
X128288895Y-62653401D01*
X127881850Y-62791323D01*
X127505765Y-62919702D01*
X127168044Y-63036077D01*
X126876090Y-63137988D01*
X126637308Y-63222977D01*
X126459103Y-63288584D01*
X126348878Y-63332348D01*
X126315797Y-63348928D01*
X126179382Y-63497916D01*
X126095739Y-63676338D01*
X126077629Y-63798900D01*
X116592972Y-63798900D01*
X116806297Y-63727982D01*
X117239772Y-63583299D01*
X117609112Y-63459190D01*
X117919791Y-63353670D01*
X118177279Y-63264752D01*
X118387050Y-63190451D01*
X118554576Y-63128779D01*
X118685328Y-63077751D01*
X118784778Y-63035380D01*
X118858399Y-62999681D01*
X118911664Y-62968666D01*
X118950043Y-62940351D01*
X118979009Y-62912748D01*
X118988188Y-62902601D01*
X119070952Y-62797940D01*
X119121968Y-62697948D01*
X119141396Y-62586405D01*
X119129395Y-62447094D01*
X119086123Y-62263795D01*
X119011740Y-62020289D01*
X118997273Y-61975612D01*
X118896286Y-61691038D01*
X118799176Y-61479509D01*
X118697773Y-61330124D01*
X118583910Y-61231979D01*
X118449419Y-61174171D01*
X118385895Y-61159500D01*
X118360704Y-61153170D01*
X118341938Y-61146559D01*
X118324367Y-61141272D01*
X118302762Y-61138909D01*
X118271892Y-61141074D01*
X118226529Y-61149369D01*
X118161443Y-61165398D01*
X118071403Y-61190763D01*
X117951180Y-61227067D01*
X117795544Y-61275912D01*
X117599267Y-61338901D01*
X117357117Y-61417636D01*
X117063866Y-61513722D01*
X116714284Y-61628760D01*
X116303140Y-61764352D01*
X115825206Y-61922102D01*
X115275252Y-62103613D01*
X114882972Y-62233022D01*
X114296983Y-62426477D01*
X113786268Y-62595594D01*
X113345459Y-62742288D01*
X112969188Y-62868475D01*
X112652087Y-62976071D01*
X112388788Y-63066991D01*
X112173924Y-63143153D01*
X112002125Y-63206470D01*
X111868025Y-63258860D01*
X111766256Y-63302238D01*
X111691448Y-63338520D01*
X111638236Y-63369621D01*
X111601249Y-63397458D01*
X111589404Y-63408495D01*
X111492690Y-63521892D01*
X111435690Y-63640289D01*
X111417900Y-63778938D01*
X103530724Y-63778938D01*
X103346958Y-63614876D01*
X103153271Y-63361947D01*
X103081058Y-63227241D01*
X103051559Y-63158617D01*
X103029089Y-63088831D01*
X103012697Y-63005582D01*
X103001433Y-62896567D01*
X102994348Y-62749485D01*
X102990490Y-62552033D01*
X102989038Y-62312905D01*
X103522750Y-62312905D01*
X103524258Y-62588589D01*
X103532535Y-62801949D01*
X103549223Y-62964191D01*
X103575966Y-63086522D01*
X103614405Y-63180148D01*
X103666185Y-63256274D01*
X103724991Y-63318553D01*
X103768673Y-63360400D01*
X103810412Y-63396960D01*
X103855938Y-63428593D01*
X103910979Y-63455660D01*
X103981266Y-63478520D01*
X104072528Y-63497533D01*
X104190495Y-63513060D01*
X104340895Y-63525461D01*
X104529459Y-63535097D01*
X104761916Y-63542326D01*
X105043995Y-63547510D01*
X105381426Y-63551008D01*
X105779939Y-63553181D01*
X106245262Y-63554389D01*
X106783126Y-63554991D01*
X107399259Y-63555349D01*
X107492831Y-63555401D01*
X110809702Y-63557262D01*
X110919310Y-63325571D01*
X111030665Y-63141575D01*
X111175888Y-62967858D01*
X111224462Y-62921754D01*
X111262878Y-62889571D01*
X111306144Y-62858278D01*
X111359754Y-62825883D01*
X111429202Y-62790394D01*
X111519983Y-62749817D01*
X111637590Y-62702161D01*
X111787519Y-62645432D01*
X111975263Y-62577637D01*
X112206316Y-62496785D01*
X112486173Y-62400883D01*
X112820327Y-62287937D01*
X113214274Y-62155955D01*
X113673507Y-62002946D01*
X114203521Y-61826915D01*
X114667432Y-61673067D01*
X117914858Y-60596505D01*
X110988211Y-60592743D01*
X110076871Y-60592150D01*
X109246485Y-60591504D01*
X108493203Y-60590955D01*
X107813170Y-60590654D01*
X107202534Y-60590750D01*
X106657444Y-60591392D01*
X106174045Y-60592730D01*
X105748487Y-60594915D01*
X105376915Y-60598095D01*
X105055478Y-60602421D01*
X104780323Y-60608042D01*
X104547597Y-60615108D01*
X104353448Y-60623768D01*
X104194023Y-60634173D01*
X104065469Y-60646472D01*
X103963934Y-60660814D01*
X103885566Y-60677350D01*
X103826512Y-60696229D01*
X103782919Y-60717602D01*
X103750934Y-60741616D01*
X103726705Y-60768423D01*
X103706380Y-60798173D01*
X103686106Y-60831014D01*
X103662030Y-60867096D01*
X103654117Y-60877755D01*
X103539900Y-61027381D01*
X103526367Y-61963690D01*
X103522750Y-62312905D01*
X102989038Y-62312905D01*
X102988910Y-62291908D01*
X102988648Y-62030718D01*
X102988648Y-61034224D01*
X103132783Y-60768421D01*
X103254646Y-60589048D01*
X118635726Y-60589048D01*
X118816042Y-60678303D01*
X118944367Y-60760414D01*
X119087643Y-60879348D01*
X119181798Y-60973812D01*
X119261721Y-61070031D01*
X119328659Y-61171943D01*
X119391071Y-61297188D01*
X119457419Y-61463408D01*
X119536161Y-61688241D01*
X119563335Y-61769368D01*
X119634000Y-61991610D01*
X119693349Y-62197102D01*
X119736328Y-62366882D01*
X119757882Y-62481987D01*
X119759432Y-62505027D01*
X119717633Y-62798347D01*
X119594586Y-63080923D01*
X119415015Y-63321641D01*
X119199670Y-63557262D01*
X122340580Y-63557262D01*
X125481489Y-63557262D01*
X125591096Y-63325571D01*
X125761950Y-63060542D01*
X125999737Y-62846861D01*
X126305143Y-62683948D01*
X126384234Y-62653878D01*
X126475069Y-62622559D01*
X126639222Y-62567043D01*
X126869484Y-62489732D01*
X127158645Y-62393030D01*
X127499495Y-62279338D01*
X127884824Y-62151061D01*
X128307423Y-62010600D01*
X128760081Y-61860358D01*
X129235589Y-61702739D01*
X129639566Y-61568987D01*
X132586644Y-60593765D01*
X125611185Y-60591407D01*
X118635726Y-60589048D01*
X103254646Y-60589048D01*
X103254691Y-60588982D01*
X133568599Y-60588982D01*
X133761145Y-60716519D01*
X133901046Y-60823936D01*
X134019522Y-60952343D01*
X134125245Y-61115998D01*
X134226886Y-61329161D01*
X134333118Y-61606094D01*
X134374509Y-61725187D01*
X134474972Y-62043740D01*
X134536327Y-62303827D01*
X134559538Y-62521725D01*
X134545568Y-62713713D01*
X134495379Y-62896068D01*
X134450142Y-63003644D01*
X134355916Y-63166577D01*
X134234881Y-63325883D01*
X134167874Y-63395881D01*
X133993067Y-63557262D01*
X136959885Y-63557262D01*
X139926703Y-63557262D01*
X139983629Y-63398247D01*
X140107774Y-63145739D01*
X140280158Y-62926667D01*
X140480745Y-62766471D01*
X140481624Y-62765955D01*
X140552752Y-62734397D01*
X140697782Y-62678715D01*
X140910036Y-62601227D01*
X141182833Y-62504249D01*
X141509496Y-62390098D01*
X141883346Y-62261090D01*
X142297702Y-62119542D01*
X142745888Y-61967770D01*
X143221223Y-61808092D01*
X143717028Y-61642824D01*
X143777183Y-61622859D01*
X146876795Y-60594595D01*
X140222697Y-60591788D01*
X133568599Y-60588982D01*
X148214416Y-60588982D01*
X148407860Y-60767293D01*
X148527410Y-60891051D01*
X148630208Y-61020721D01*
X148676668Y-61095924D01*
X148723004Y-61204245D01*
X148785544Y-61371659D01*
X148856860Y-61575809D01*
X148929525Y-61794339D01*
X148996112Y-62004892D01*
X149049194Y-62185111D01*
X149081342Y-62312640D01*
X149082041Y-62316096D01*
X149088935Y-62542910D01*
X149032911Y-62790348D01*
X148923990Y-63035766D01*
X148772194Y-63256518D01*
X148589834Y-63428307D01*
X148411816Y-63557262D01*
X152054322Y-63557026D01*
X152784428Y-63556451D01*
X153440129Y-63554836D01*
X154020171Y-63552195D01*
X154523300Y-63548544D01*
X154948261Y-63543895D01*
X155293800Y-63538265D01*
X155558662Y-63531667D01*
X155741594Y-63524116D01*
X155841341Y-63515627D01*
X155854526Y-63512992D01*
X156058293Y-63418148D01*
X156239087Y-63264250D01*
X156345012Y-63117570D01*
X156372700Y-63022216D01*
X156394646Y-62858535D01*
X156410830Y-62642672D01*
X156421233Y-62390776D01*
X156425837Y-62118992D01*
X156424622Y-61843468D01*
X156417569Y-61580350D01*
X156404659Y-61345786D01*
X156385874Y-61155923D01*
X156361193Y-61026906D01*
X156347518Y-60991820D01*
X156206138Y-60802300D01*
X156028769Y-60666335D01*
X155959093Y-60634210D01*
X155896939Y-60625247D01*
X155759765Y-60617306D01*
X155546453Y-60610373D01*
X155255886Y-60604436D01*
X154886945Y-60599482D01*
X154438514Y-60595499D01*
X153909474Y-60592473D01*
X153298708Y-60590391D01*
X152605099Y-60589241D01*
X152027068Y-60588982D01*
X148214416Y-60588982D01*
X133568599Y-60588982D01*
X103254691Y-60588982D01*
X103333356Y-60473194D01*
X103583286Y-60243028D01*
X103852841Y-60085865D01*
X104091152Y-59974124D01*
X130000892Y-59974124D01*
X155910631Y-59974124D01*
X156191404Y-60112347D01*
G37*
%LPC*%
D17*
X160000000Y-106200000D03*
D18*
X160000000Y-108740000D03*
X160000000Y-111280000D03*
X160000000Y-113820000D03*
D17*
X100000000Y-106200000D03*
D18*
X100000000Y-108740000D03*
X100000000Y-111280000D03*
X100000000Y-113820000D03*
D19*
X159900000Y-134500000D03*
D20*
X159900000Y-132480000D03*
D21*
X159900000Y-131250000D03*
D19*
X159900000Y-133500000D03*
D20*
X159900000Y-135520000D03*
D21*
X159900000Y-136750000D03*
D22*
X159780000Y-138320000D03*
X159780000Y-129680000D03*
G36*
X154943039Y-88019685D02*
G01*
X154988794Y-88072489D01*
X155000000Y-88124000D01*
X155000000Y-137876000D01*
X154980315Y-137943039D01*
X154927511Y-137988794D01*
X154876000Y-138000000D01*
X105124000Y-138000000D01*
X105056961Y-137980315D01*
X105011206Y-137927511D01*
X105000000Y-137876000D01*
X105000000Y-88124000D01*
X105019685Y-88056961D01*
X105072489Y-88011206D01*
X105124000Y-88000000D01*
X154876000Y-88000000D01*
X154943039Y-88019685D01*
G37*
%LPD*%
M02*
