<?xml version="1.0" encoding="UTF-8" standalone="no"?>
<!-- Created with Inkscape (http://www.inkscape.org/) -->

<svg
   width="82.264778mm"
   height="64.265175mm"
   viewBox="0 0 82.264778 64.265175"
   version="1.1"
   id="svg1"
   xml:space="preserve"
   inkscape:version="1.3 (0e150ed6c4, 2023-07-21)"
   sodipodi:docname="Front_silks.svg"
   xmlns:inkscape="http://www.inkscape.org/namespaces/inkscape"
   xmlns:sodipodi="http://sodipodi.sourceforge.net/DTD/sodipodi-0.dtd"
   xmlns="http://www.w3.org/2000/svg"
   xmlns:svg="http://www.w3.org/2000/svg"><sodipodi:namedview
     id="namedview1"
     pagecolor="#ffffff"
     bordercolor="#000000"
     borderopacity="0.25"
     inkscape:showpageshadow="2"
     inkscape:pageopacity="0.0"
     inkscape:pagecheckerboard="0"
     inkscape:deskcolor="#d1d1d1"
     inkscape:document-units="mm"
     inkscape:zoom="2.8970539"
     inkscape:cx="101.13723"
     inkscape:cy="108.21338"
     inkscape:window-width="1920"
     inkscape:window-height="1009"
     inkscape:window-x="-8"
     inkscape:window-y="-8"
     inkscape:window-maximized="1"
     inkscape:current-layer="layer1" /><defs
     id="defs1"><inkscape:path-effect
       effect="tiling"
       id="path-effect115"
       is_visible="true"
       lpeversion="1"
       unit="px"
       seed="1;1"
       lpesatellites=""
       num_rows="11"
       num_cols="16"
       gapx="19.7"
       gapy="9"
       offset="0"
       offset_type="false"
       scale="0"
       rotate="0"
       mirrorrowsx="false"
       mirrorrowsy="false"
       mirrorcolsx="false"
       mirrorcolsy="false"
       mirrortrans="false"
       shrink_interp="false"
       split_items="false"
       link_styles="false"
       interpolate_scalex="false"
       interpolate_scaley="true"
       interpolate_rotatex="false"
       interpolate_rotatey="true"
       random_scale="false"
       random_rotate="false"
       random_gap_y="false"
       random_gap_x="false"
       transformorigin="" /><inkscape:path-effect
       effect="tiling"
       id="path-effect114"
       is_visible="true"
       lpeversion="1"
       unit="px"
       seed="1;1"
       lpesatellites=""
       num_rows="11"
       num_cols="16"
       gapx="19.7"
       gapy="8.9"
       offset="0"
       offset_type="false"
       scale="0"
       rotate="0"
       mirrorrowsx="false"
       mirrorrowsy="false"
       mirrorcolsx="false"
       mirrorcolsy="false"
       mirrortrans="false"
       shrink_interp="false"
       split_items="false"
       link_styles="false"
       interpolate_scalex="false"
       interpolate_scaley="true"
       interpolate_rotatex="false"
       interpolate_rotatey="true"
       random_scale="false"
       random_rotate="false"
       random_gap_y="false"
       random_gap_x="false"
       transformorigin="" /><inkscape:path-effect
       effect="tiling"
       id="path-effect104"
       is_visible="true"
       lpeversion="1"
       unit="px"
       seed="1;1"
       lpesatellites=""
       num_rows="22"
       num_cols="1"
       gapx="0"
       gapy="8.9"
       offset="0"
       offset_type="false"
       scale="0"
       rotate="0"
       mirrorrowsx="false"
       mirrorrowsy="false"
       mirrorcolsx="false"
       mirrorcolsy="false"
       mirrortrans="false"
       shrink_interp="false"
       split_items="false"
       link_styles="false"
       interpolate_scalex="false"
       interpolate_scaley="true"
       interpolate_rotatex="false"
       interpolate_rotatey="true"
       random_scale="false"
       random_rotate="false"
       random_gap_y="false"
       random_gap_x="false"
       transformorigin="" /><marker
       id="DistanceX"
       orient="auto"
       refX="0"
       refY="0"
       style="overflow:visible"><path
         d="M 3,-3 -3,3 M 0,-5 V 5"
         style="stroke:#000000;stroke-width:0.5"
         id="path1" /></marker><pattern
       id="Hatch"
       patternUnits="userSpaceOnUse"
       width="8"
       height="8"
       x="0"
       y="0"><path
         d="M8 4 l-4,4"
         stroke="#000000"
         stroke-width="0.25"
         linecap="square"
         id="path2" /><path
         d="M6 2 l-4,4"
         stroke="#000000"
         stroke-width="0.25"
         linecap="square"
         id="path3" /><path
         d="M4 0 l-4,4"
         stroke="#000000"
         stroke-width="0.25"
         linecap="square"
         id="path4" /></pattern><symbol
       id="*MODEL_SPACE" /><symbol
       id="*PAPER_SPACE" /><inkscape:path-effect
       effect="fill_between_many"
       method="originald"
       linkedpaths="#path5,0,1|#path6,0,1|#path7,0,1|#path8,0,1|#path9,0,1|#path10,0,1|#path11,0,1|#path12,0,1|"
       id="path-effect102" /><inkscape:path-effect
       effect="fill_between_many"
       method="originald"
       linkedpaths="#path13,0,1|#path14,0,1|#path15,0,1|#path16,0,1|#path17,0,1|#path18,0,1|#path19,0,1|#path20,0,1|#path21,0,1|#path22,0,1|#path23,0,1|#path24,0,1|#path25,0,1|#path26,0,1|#path27,0,1|#path28,0,1|#path29,0,1|#path30,0,1|#path31,0,1|#path32,0,1|#path33,0,1|#path34,0,1|#path35,0,1|#path36,0,1|"
       id="path-effect103" /></defs><g
     inkscape:groupmode="layer"
     id="layer2"
     inkscape:label="Layer 2"
     style="stroke-width:0.6;stroke-dasharray:none"><path
       style="fill:#ffffff;stroke:#000000;stroke-width:0.6;stroke-linecap:round;stroke-linejoin:round;stroke-dasharray:none"
       d="M 0,59.8 H 82.264778"
       id="path42"
       sodipodi:nodetypes="cc" /><path
       style="display:inline;fill:none;fill-opacity:1;fill-rule:nonzero;stroke:#000000;stroke-width:0.1;stroke-linecap:round;stroke-linejoin:round;stroke-dasharray:0.1,0.2;stroke-opacity:1;stroke-dashoffset:0"
       d="M 146.16007,173.36742 H 63.89529 m 82.26478,2.35479 H 63.89529 m 82.26478,2.35479 H 63.89529 m 82.26478,2.35479 H 63.89529 m 82.26478,2.3548 H 63.89529 m 82.26478,2.35479 H 63.89529 m 82.26478,2.35479 H 63.89529 m 82.26478,2.35479 H 63.89529 m 82.26478,2.35479 H 63.89529 m 82.26478,2.35479 H 63.89529 m 82.26478,2.3548 H 63.89529 m 82.26478,2.35479 H 63.89529 m 82.26478,2.35479 H 63.89529 m 82.26478,2.35479 H 63.89529 m 82.26478,2.35479 H 63.89529 m 82.26478,2.35479 H 63.89529 m 82.26478,2.3548 H 63.89529 m 82.26478,2.35479 H 63.89529 m 82.26478,2.35479 H 63.89529 m 82.26478,2.35479 H 63.89529 m 82.26478,2.35479 H 63.89529 m 82.26478,2.35479 H 63.89529"
       id="path104"
       sodipodi:nodetypes="cc"
       inkscape:path-effect="#path-effect104"
       inkscape:original-d="M 146.16007,173.36742 H 63.89529"
       transform="translate(-63.89529,-165.57994)" /><path
       style="fill:none;fill-opacity:1;fill-rule:nonzero;stroke:#000000;stroke-width:0.1;stroke-linecap:round;stroke-linejoin:round;stroke-dasharray:0.1, 0.2;stroke-dashoffset:0;stroke-opacity:1"
       d="m 8.7798335,7.7874798 0.00358,2.3547902 m 5.2122915,-2.3547902 0.0036,2.3547902 m 5.212292,-2.3547902 0.0036,2.3547902 m 5.212291,-2.3547902 0.0036,2.3547902 M 29.64332,7.7874798 29.6469,10.14227 m 5.212292,-2.3547902 0.0036,2.3547902 m 5.212291,-2.3547902 0.0036,2.3547902 m 5.212292,-2.3547902 0.0036,2.3547902 m 5.212292,-2.3547902 0.0036,2.3547902 m 5.212291,-2.3547902 0.0036,2.3547902 m 5.212292,-2.3547902 0.0036,2.3547902 m 5.212292,-2.3547902 0.0036,2.3547902 m 5.212291,-2.3547902 0.0036,2.3547902 m 5.212292,-2.3547902 0.0036,2.3547902 m 5.212292,-2.3547902 0.0036,2.3547902 m 5.212291,-2.3547902 0.0036,2.3547902 m -78.2416545,2.354792 0.00358,2.35479 m 5.2122915,-2.35479 0.0036,2.35479 m 5.212292,-2.35479 0.0036,2.35479 m 5.212291,-2.35479 0.0036,2.35479 m 5.212292,-2.35479 0.0036,2.35479 m 5.212292,-2.35479 0.0036,2.35479 m 5.212291,-2.35479 0.0036,2.35479 m 5.212292,-2.35479 0.0036,2.35479 m 5.212292,-2.35479 0.0036,2.35479 m 5.212291,-2.35479 0.0036,2.35479 m 5.212292,-2.35479 0.0036,2.35479 m 5.212292,-2.35479 0.0036,2.35479 m 5.212291,-2.35479 0.0036,2.35479 m 5.212292,-2.35479 0.0036,2.35479 m 5.212292,-2.35479 0.0036,2.35479 m 5.212291,-2.35479 0.0036,2.35479 m -78.2416545,2.354792 0.00358,2.35479 m 5.2122915,-2.35479 0.0036,2.35479 m 5.212292,-2.35479 0.0036,2.35479 m 5.212291,-2.35479 0.0036,2.35479 m 5.212292,-2.35479 0.0036,2.35479 m 5.212292,-2.35479 0.0036,2.35479 m 5.212291,-2.35479 0.0036,2.35479 m 5.212292,-2.35479 0.0036,2.35479 m 5.212292,-2.35479 0.0036,2.35479 m 5.212291,-2.35479 0.0036,2.35479 m 5.212292,-2.35479 0.0036,2.35479 m 5.212292,-2.35479 0.0036,2.35479 m 5.212291,-2.35479 0.0036,2.35479 m 5.212292,-2.35479 0.0036,2.35479 m 5.212292,-2.35479 0.0036,2.35479 m 5.212291,-2.35479 0.0036,2.35479 m -78.2416545,2.354791 0.00358,2.354791 m 5.2122915,-2.354791 0.0036,2.354791 m 5.212292,-2.354791 0.0036,2.354791 m 5.212291,-2.354791 0.0036,2.354791 m 5.212292,-2.354791 0.0036,2.354791 m 5.212292,-2.354791 0.0036,2.354791 m 5.212291,-2.354791 0.0036,2.354791 m 5.212292,-2.354791 0.0036,2.354791 m 5.212292,-2.354791 0.0036,2.354791 m 5.212291,-2.354791 0.0036,2.354791 m 5.212292,-2.354791 0.0036,2.354791 m 5.212292,-2.354791 0.0036,2.354791 m 5.212291,-2.354791 0.0036,2.354791 m 5.212292,-2.354791 0.0036,2.354791 m 5.212292,-2.354791 0.0036,2.354791 m 5.212291,-2.354791 0.0036,2.354791 m -78.2416545,2.354791 0.00358,2.35479 m 5.2122915,-2.35479 0.0036,2.35479 m 5.212292,-2.35479 0.0036,2.35479 m 5.212291,-2.35479 0.0036,2.35479 m 5.212292,-2.35479 0.0036,2.35479 m 5.212292,-2.35479 0.0036,2.35479 m 5.212291,-2.35479 0.0036,2.35479 m 5.212292,-2.35479 0.0036,2.35479 m 5.212292,-2.35479 0.0036,2.35479 m 5.212291,-2.35479 0.0036,2.35479 m 5.212292,-2.35479 0.0036,2.35479 m 5.212292,-2.35479 0.0036,2.35479 m 5.212291,-2.35479 0.0036,2.35479 m 5.212292,-2.35479 0.0036,2.35479 m 5.212292,-2.35479 0.0036,2.35479 m 5.212291,-2.35479 0.0036,2.35479 m -78.2416545,2.354792 0.00358,2.35479 m 5.2122915,-2.35479 0.0036,2.35479 m 5.212292,-2.35479 0.0036,2.35479 m 5.212291,-2.35479 0.0036,2.35479 m 5.212292,-2.35479 0.0036,2.35479 m 5.212292,-2.35479 0.0036,2.35479 m 5.212291,-2.35479 0.0036,2.35479 m 5.212292,-2.35479 0.0036,2.35479 m 5.212292,-2.35479 0.0036,2.35479 m 5.212291,-2.35479 0.0036,2.35479 m 5.212292,-2.35479 0.0036,2.35479 m 5.212292,-2.35479 0.0036,2.35479 m 5.212291,-2.35479 0.0036,2.35479 m 5.212292,-2.35479 0.0036,2.35479 m 5.212292,-2.35479 0.0036,2.35479 m 5.212291,-2.35479 0.0036,2.35479 m -78.2416545,2.354792 0.00358,2.35479 m 5.2122915,-2.35479 0.0036,2.35479 m 5.212292,-2.35479 0.0036,2.35479 m 5.212291,-2.35479 0.0036,2.35479 m 5.212292,-2.35479 0.0036,2.35479 m 5.212292,-2.35479 0.0036,2.35479 m 5.212291,-2.35479 0.0036,2.35479 m 5.212292,-2.35479 0.0036,2.35479 m 5.212292,-2.35479 0.0036,2.35479 m 5.212291,-2.35479 0.0036,2.35479 m 5.212292,-2.35479 0.0036,2.35479 m 5.212292,-2.35479 0.0036,2.35479 m 5.212291,-2.35479 0.0036,2.35479 m 5.212292,-2.35479 0.0036,2.35479 m 5.212292,-2.35479 0.0036,2.35479 m 5.212291,-2.35479 0.0036,2.35479 m -78.2416545,2.354792 0.00358,2.35479 m 5.2122915,-2.35479 0.0036,2.35479 m 5.212292,-2.35479 0.0036,2.35479 m 5.212291,-2.35479 0.0036,2.35479 m 5.212292,-2.35479 0.0036,2.35479 m 5.212292,-2.35479 0.0036,2.35479 m 5.212291,-2.35479 0.0036,2.35479 m 5.212292,-2.35479 0.0036,2.35479 m 5.212292,-2.35479 0.0036,2.35479 m 5.212291,-2.35479 0.0036,2.35479 m 5.212292,-2.35479 0.0036,2.35479 m 5.212292,-2.35479 0.0036,2.35479 m 5.212291,-2.35479 0.0036,2.35479 m 5.212292,-2.35479 0.0036,2.35479 m 5.212292,-2.35479 0.0036,2.35479 m 5.212291,-2.35479 0.0036,2.35479 m -78.2416545,2.354792 0.00358,2.35479 m 5.2122915,-2.35479 0.0036,2.35479 m 5.212292,-2.35479 0.0036,2.35479 m 5.212291,-2.35479 0.0036,2.35479 m 5.212292,-2.35479 0.0036,2.35479 m 5.212292,-2.35479 0.0036,2.35479 m 5.212291,-2.35479 0.0036,2.35479 m 5.212292,-2.35479 0.0036,2.35479 m 5.212292,-2.35479 0.0036,2.35479 m 5.212291,-2.35479 0.0036,2.35479 m 5.212292,-2.35479 0.0036,2.35479 m 5.212292,-2.35479 0.0036,2.35479 m 5.212291,-2.35479 0.0036,2.35479 m 5.212292,-2.35479 0.0036,2.35479 m 5.212292,-2.35479 0.0036,2.35479 m 5.212291,-2.35479 0.0036,2.35479 m -78.2416545,2.354792 0.00358,2.35479 m 5.2122915,-2.35479 0.0036,2.35479 m 5.212292,-2.35479 0.0036,2.35479 m 5.212291,-2.35479 0.0036,2.35479 m 5.212292,-2.35479 0.0036,2.35479 m 5.212292,-2.35479 0.0036,2.35479 m 5.212291,-2.35479 0.0036,2.35479 m 5.212292,-2.35479 0.0036,2.35479 m 5.212292,-2.35479 0.0036,2.35479 m 5.212291,-2.35479 0.0036,2.35479 m 5.212292,-2.35479 0.0036,2.35479 m 5.212292,-2.35479 0.0036,2.35479 m 5.212291,-2.35479 0.0036,2.35479 m 5.212292,-2.35479 0.0036,2.35479 m 5.212292,-2.35479 0.0036,2.35479 m 5.212291,-2.35479 0.0036,2.35479 m -78.2416545,2.354791 0.00358,2.354791 m 5.2122915,-2.354791 0.0036,2.354791 m 5.212292,-2.354791 0.0036,2.354791 m 5.212291,-2.354791 0.0036,2.354791 m 5.212292,-2.354791 0.0036,2.354791 m 5.212292,-2.354791 0.0036,2.354791 m 5.212291,-2.354791 0.0036,2.354791 m 5.212292,-2.354791 0.0036,2.354791 m 5.212292,-2.354791 0.0036,2.354791 m 5.212291,-2.354791 0.0036,2.354791 m 5.212292,-2.354791 0.0036,2.354791 m 5.212292,-2.354791 0.0036,2.354791 m 5.212291,-2.354791 0.0036,2.354791 m 5.212292,-2.354791 0.0036,2.354791 m 5.212292,-2.354791 0.0036,2.354791 m 5.212291,-2.354791 0.0036,2.354791"
       id="path113"
       sodipodi:nodetypes="cc"
       inkscape:path-effect="#path-effect114"
       inkscape:original-d="m 8.7798335,7.7874798 0.00358,2.3547902"
       transform="translate(-5.5298335)" /><path
       style="fill:none;fill-opacity:1;fill-rule:nonzero;stroke:#000000;stroke-width:0.1;stroke-linecap:round;stroke-linejoin:round;stroke-dasharray:0.1, 0.2;stroke-dashoffset:0;stroke-opacity:1"
       d="m 11.161083,10.16873 v 2.32833 m 5.212292,-2.32833 v 2.32833 m 5.212291,-2.32833 v 2.32833 m 5.212292,-2.32833 v 2.32833 m 5.212292,-2.32833 v 2.32833 m 5.212291,-2.32833 v 2.32833 m 5.212292,-2.32833 v 2.32833 m 5.212292,-2.32833 v 2.32833 m 5.212291,-2.32833 v 2.32833 m 5.212292,-2.32833 v 2.32833 M 63.284,10.16873 v 2.32833 m 5.212291,-2.32833 v 2.32833 m 5.212292,-2.32833 v 2.32833 m 5.212292,-2.32833 v 2.32833 m 5.212291,-2.32833 v 2.32833 m 5.212292,-2.32833 v 2.32833 m -78.184375,2.38125 v 2.32833 m 5.212292,-2.32833 v 2.32833 m 5.212291,-2.32833 v 2.32833 m 5.212292,-2.32833 v 2.32833 m 5.212292,-2.32833 v 2.32833 m 5.212291,-2.32833 v 2.32833 m 5.212292,-2.32833 v 2.32833 m 5.212292,-2.32833 v 2.32833 m 5.212291,-2.32833 v 2.32833 m 5.212292,-2.32833 v 2.32833 M 63.284,14.87831 v 2.32833 m 5.212291,-2.32833 v 2.32833 m 5.212292,-2.32833 v 2.32833 m 5.212292,-2.32833 v 2.32833 m 5.212291,-2.32833 v 2.32833 m 5.212292,-2.32833 v 2.32833 m -78.184375,2.38125 v 2.32833 m 5.212292,-2.32833 v 2.32833 m 5.212291,-2.32833 v 2.32833 m 5.212292,-2.32833 v 2.32833 m 5.212292,-2.32833 v 2.32833 m 5.212291,-2.32833 v 2.32833 m 5.212292,-2.32833 v 2.32833 m 5.212292,-2.32833 v 2.32833 m 5.212291,-2.32833 v 2.32833 m 5.212292,-2.32833 v 2.32833 M 63.284,19.58789 v 2.32833 m 5.212291,-2.32833 v 2.32833 m 5.212292,-2.32833 v 2.32833 m 5.212292,-2.32833 v 2.32833 m 5.212291,-2.32833 v 2.32833 m 5.212292,-2.32833 v 2.32833 m -78.184375,2.38125 v 2.32833 m 5.212292,-2.32833 v 2.32833 m 5.212291,-2.32833 v 2.32833 m 5.212292,-2.32833 v 2.32833 m 5.212292,-2.32833 v 2.32833 m 5.212291,-2.32833 v 2.32833 m 5.212292,-2.32833 v 2.32833 m 5.212292,-2.32833 v 2.32833 m 5.212291,-2.32833 v 2.32833 m 5.212292,-2.32833 V 26.6258 M 63.284,24.29747 v 2.32833 m 5.212291,-2.32833 v 2.32833 m 5.212292,-2.32833 v 2.32833 m 5.212292,-2.32833 v 2.32833 m 5.212291,-2.32833 v 2.32833 m 5.212292,-2.32833 v 2.32833 m -78.184375,2.38125 v 2.32833 m 5.212292,-2.32833 v 2.32833 m 5.212291,-2.32833 v 2.32833 m 5.212292,-2.32833 v 2.32833 m 5.212292,-2.32833 v 2.32833 m 5.212291,-2.32833 v 2.32833 m 5.212292,-2.32833 v 2.32833 m 5.212292,-2.32833 v 2.32833 m 5.212291,-2.32833 v 2.32833 m 5.212292,-2.32833 v 2.32833 M 63.284,29.00705 v 2.32833 m 5.212291,-2.32833 v 2.32833 m 5.212292,-2.32833 v 2.32833 m 5.212292,-2.32833 v 2.32833 m 5.212291,-2.32833 v 2.32833 m 5.212292,-2.32833 v 2.32833 m -78.184375,2.38125 v 2.32833 m 5.212292,-2.32833 v 2.32833 m 5.212291,-2.32833 v 2.32833 m 5.212292,-2.32833 v 2.32833 m 5.212292,-2.32833 v 2.32833 m 5.212291,-2.32833 v 2.32833 m 5.212292,-2.32833 v 2.32833 m 5.212292,-2.32833 v 2.32833 m 5.212291,-2.32833 v 2.32833 m 5.212292,-2.32833 v 2.32833 M 63.284,33.71663 v 2.32833 m 5.212291,-2.32833 v 2.32833 m 5.212292,-2.32833 v 2.32833 m 5.212292,-2.32833 v 2.32833 m 5.212291,-2.32833 v 2.32833 m 5.212292,-2.32833 v 2.32833 m -78.184375,2.38125 v 2.32833 m 5.212292,-2.32833 v 2.32833 m 5.212291,-2.32833 v 2.32833 m 5.212292,-2.32833 v 2.32833 m 5.212292,-2.32833 v 2.32833 m 5.212291,-2.32833 v 2.32833 m 5.212292,-2.32833 v 2.32833 m 5.212292,-2.32833 v 2.32833 m 5.212291,-2.32833 v 2.32833 m 5.212292,-2.32833 v 2.32833 M 63.284,38.42621 v 2.32833 m 5.212291,-2.32833 v 2.32833 m 5.212292,-2.32833 v 2.32833 m 5.212292,-2.32833 v 2.32833 m 5.212291,-2.32833 v 2.32833 m 5.212292,-2.32833 v 2.32833 m -78.184375,2.38125 v 2.32833 m 5.212292,-2.32833 v 2.32833 m 5.212291,-2.32833 v 2.32833 m 5.212292,-2.32833 v 2.32833 m 5.212292,-2.32833 v 2.32833 m 5.212291,-2.32833 v 2.32833 m 5.212292,-2.32833 v 2.32833 m 5.212292,-2.32833 v 2.32833 m 5.212291,-2.32833 v 2.32833 m 5.212292,-2.32833 v 2.32833 M 63.284,43.13579 v 2.32833 m 5.212291,-2.32833 v 2.32833 m 5.212292,-2.32833 v 2.32833 m 5.212292,-2.32833 v 2.32833 m 5.212291,-2.32833 v 2.32833 m 5.212292,-2.32833 v 2.32833 m -78.184375,2.38125 v 2.32833 m 5.212292,-2.32833 v 2.32833 m 5.212291,-2.32833 v 2.32833 m 5.212292,-2.32833 v 2.32833 m 5.212292,-2.32833 v 2.32833 m 5.212291,-2.32833 v 2.32833 m 5.212292,-2.32833 v 2.32833 m 5.212292,-2.32833 v 2.32833 m 5.212291,-2.32833 v 2.32833 m 5.212292,-2.32833 V 50.1737 M 63.284,47.84537 v 2.32833 m 5.212291,-2.32833 v 2.32833 m 5.212292,-2.32833 v 2.32833 m 5.212292,-2.32833 v 2.32833 m 5.212291,-2.32833 v 2.32833 m 5.212292,-2.32833 v 2.32833 m -78.184375,2.38125 v 2.32833 m 5.212292,-2.32833 v 2.32833 m 5.212291,-2.32833 v 2.32833 m 5.212292,-2.32833 v 2.32833 m 5.212292,-2.32833 v 2.32833 m 5.212291,-2.32833 v 2.32833 m 5.212292,-2.32833 v 2.32833 m 5.212292,-2.32833 v 2.32833 m 5.212291,-2.32833 v 2.32833 m 5.212292,-2.32833 v 2.32833 M 63.284,52.55495 v 2.32833 m 5.212291,-2.32833 v 2.32833 m 5.212292,-2.32833 v 2.32833 m 5.212292,-2.32833 v 2.32833 m 5.212291,-2.32833 v 2.32833 m 5.212292,-2.32833 v 2.32833 m -78.184375,2.38125 v 2.32833 m 5.212292,-2.32833 v 2.32833 m 5.212291,-2.32833 v 2.32833 m 5.212292,-2.32833 v 2.32833 m 5.212292,-2.32833 v 2.32833 m 5.212291,-2.32833 v 2.32833 m 5.212292,-2.32833 v 2.32833 m 5.212292,-2.32833 v 2.32833 m 5.212291,-2.32833 v 2.32833 m 5.212292,-2.32833 v 2.32833 M 63.284,57.26453 v 2.32833 m 5.212291,-2.32833 v 2.32833 m 5.212292,-2.32833 v 2.32833 m 5.212292,-2.32833 v 2.32833 m 5.212291,-2.32833 v 2.32833 m 5.212292,-2.32833 v 2.32833"
       id="path114"
       sodipodi:nodetypes="cc"
       inkscape:path-effect="#path-effect115"
       inkscape:original-d="m 11.161083,10.16873 v 2.32833"
       transform="translate(-5.211083)" /></g><g
     inkscape:label="Layer 1"
     inkscape:groupmode="layer"
     id="layer1"
     transform="translate(-63.89529,-116.36742)"
     style="display:inline;mix-blend-mode:normal;stroke-width:0.01;stroke-dasharray:none"><path
       id="path103"
       style="display:inline;fill:#ffffff;fill-opacity:1;stroke:#000000;stroke-width:0.03;stroke-dasharray:none;stroke-opacity:1"
       d="m 63.89529,116.36742 v 64.26533 h 82.26475 v -64.26533 z m 1.632458,0.13229 h 78.999832 c 0.29093,0 0.53122,0.0327 0.72812,0.0992 0.13675,0.0462 0.264,0.11232 0.3731,0.20722 0.095,0.0826 0.16926,0.18117 0.22686,0.29301 0.062,0.12043 0.10236,0.25177 0.12816,0.38447 0.0326,0.16783 0.0438,0.34589 0.0439,0.51625 v 4.49998 c 0,0.29092 -0.0327,0.53122 -0.0992,0.72812 -0.0462,0.13674 -0.11284,0.264 -0.20774,0.37311 -0.0826,0.095 -0.18064,0.16926 -0.29249,0.22686 -0.12042,0.062 -0.25178,0.10184 -0.38447,0.12764 -0.16783,0.0326 -0.34571,0.0441 -0.51625,0.0439 h -2.99982 c -0.29093,0 -0.53123,0.0332 -0.72812,0.0997 -0.13675,0.0462 -0.264,0.11232 -0.3731,0.20722 -0.095,0.0826 -0.16926,0.18064 -0.22686,0.29249 -0.062,0.12042 -0.10236,0.25229 -0.12816,0.38499 -0.0326,0.16783 -0.0438,0.34522 -0.0439,0.51573 v 49.49982 c 0,0.29093 0.0327,0.53174 0.0992,0.72864 0.0462,0.13674 0.11284,0.26346 0.20774,0.37258 0.0826,0.095 0.18064,0.16978 0.29249,0.22738 0.12042,0.062 0.25177,0.10184 0.38447,0.12764 0.16783,0.0326 0.34575,0.0439 0.51625,0.0439 h 2.99982 c 0.29093,0 0.53122,0.0327 0.72812,0.0992 0.13675,0.0462 0.264,0.11284 0.3731,0.20773 0.095,0.0826 0.16926,0.18066 0.22686,0.29249 0.062,0.12044 0.10236,0.25179 0.12816,0.38448 0.0326,0.16783 0.0438,0.34553 0.0439,0.51624 v 0.99994 c 0,0.29093 -0.0327,0.53122 -0.0992,0.72812 -0.0462,0.13674 -0.11284,0.264 -0.20774,0.37311 -0.0826,0.095 -0.18064,0.16926 -0.29249,0.22686 -0.12042,0.062 -0.25178,0.10235 -0.38447,0.12815 -0.16783,0.0326 -0.34571,0.0439 -0.51625,0.0445 l -78.999832,-5.2e-4 c -0.170421,0 -0.347894,-0.0113 -0.51573,-0.0439 -0.132694,-0.0258 -0.26457,-0.0661 -0.38499,-0.12815 -0.111847,-0.0576 -0.209878,-0.13186 -0.292488,-0.22686 -0.09488,-0.10911 -0.16154,-0.23637 -0.20774,-0.37311 -0.06652,-0.1969 -0.09912,-0.43706 -0.09922,-0.7276 v -1.00046 c 0,-0.17042 0.01131,-0.34841 0.04393,-0.51624 0.02579,-0.13269 0.06613,-0.26404 0.128157,-0.38448 0.05762,-0.11183 0.13187,-0.20989 0.22686,-0.29249 0.109109,-0.0949 0.236359,-0.16153 0.373104,-0.20773 0.196895,-0.0665 0.437107,-0.0993 0.72812,-0.0992 h 2.999817 c 0.170424,0 0.348415,-0.0113 0.516248,-0.0439 0.132697,-0.0258 0.264051,-0.0656 0.384473,-0.12764 0.111846,-0.0576 0.209878,-0.13238 0.292488,-0.22738 0.09488,-0.10912 0.16154,-0.23584 0.207739,-0.37258 0.06651,-0.1969 0.0991,-0.4376 0.09922,-0.72864 v -49.49982 c 0,-0.17043 -0.01131,-0.3479 -0.04393,-0.51573 -0.02579,-0.1327 -0.06613,-0.26457 -0.128157,-0.38499 -0.05762,-0.11185 -0.13187,-0.20989 -0.22686,-0.29249 -0.109106,-0.0949 -0.236359,-0.16102 -0.373104,-0.20722 -0.196895,-0.0665 -0.43713,-0.0996 -0.728121,-0.0997 h -2.999817 c -0.170421,0 -0.347894,-0.0113 -0.51573,-0.0439 -0.132694,-0.0258 -0.26457,-0.0656 -0.38499,-0.12764 -0.111847,-0.0576 -0.209878,-0.13186 -0.292488,-0.22686 -0.09488,-0.10911 -0.16154,-0.23637 -0.20774,-0.37311 -0.06652,-0.1969 -0.09912,-0.43714 -0.09922,-0.72812 v -4.49998 c 0,-0.17043 0.01131,-0.34842 0.04393,-0.51625 0.02579,-0.1327 0.06613,-0.26404 0.128157,-0.38447 0.05762,-0.11184 0.13187,-0.21041 0.22686,-0.29301 0.109109,-0.0949 0.236359,-0.16102 0.373104,-0.20722 0.196895,-0.0665 0.437107,-0.0992 0.72812,-0.0992 z m 36.762612,10.05779 a 64.999999,64.999999 0 0 0 -21.317559,4.55734 c -0.135336,0.0539 -0.27684,0.119 -0.401526,0.1974 -0.09282,0.0584 -0.179788,0.12603 -0.254248,0.20723 -0.08954,0.0977 -0.153628,0.20631 -0.198438,0.33073 -0.06756,0.18759 -0.09095,0.40854 -0.09095,0.65784 v 42.49146 c 0,0.17055 0.01131,0.34842 0.04393,0.51625 0.02579,0.13269 0.06561,0.26406 0.12764,0.38447 0.05762,0.11187 0.132387,0.21041 0.227377,0.29301 0.109107,0.0949 0.235843,0.16102 0.372587,0.20722 0.196898,0.0665 0.437713,0.0992 0.728637,0.0992 h 46.99971 c 0.29093,-1e-4 0.53175,-0.0327 0.72864,-0.0992 0.13676,-0.0462 0.26349,-0.11232 0.37259,-0.20722 0.095,-0.0826 0.16977,-0.18114 0.22738,-0.29301 0.062,-0.12041 0.10184,-0.25178 0.12764,-0.38447 0.0326,-0.16783 0.0439,-0.34583 0.0439,-0.51625 v -42.49095 c 0,-0.24943 -0.0234,-0.47076 -0.091,-0.65835 -0.0448,-0.12442 -0.10894,-0.23303 -0.19844,-0.33073 -0.0745,-0.0812 -0.16145,-0.14883 -0.25425,-0.20723 -0.12469,-0.0784 -0.26567,-0.1435 -0.40102,-0.1974 a 64.999999,64.999999 0 0 0 -26.79268,-4.55734 z" /><g
       id="g1"
       inkscape:label="Alignment marks"
       style="display:none;stroke-width:0.01;stroke-dasharray:none"><path
         style="fill:none;stroke:#000000;stroke-width:0.0377953;stroke-dasharray:none"
         d="m -111.496,1018.58 -3.78,-3.78"
         id="path40"
         transform="matrix(0.26458333,0,0,0.26458333,105.02768,-120.50028)" /><path
         style="display:inline;fill:none;stroke:#000000;stroke-width:0.0377953;stroke-dasharray:none"
         d="m -111.496,1014.8 -3.78,3.78"
         id="path39"
         transform="matrix(0.26458333,0,0,0.26458333,105.02768,-120.50028)" /><path
         style="fill:none;stroke:#000000;stroke-width:0.0377953;stroke-dasharray:none"
         d="m 111.496,1014.8 3.78,3.78"
         id="path37"
         transform="matrix(0.26458333,0,0,0.26458333,105.02768,-120.50028)" /><path
         style="fill:none;stroke:#000000;stroke-width:0.0377953;stroke-dasharray:none"
         d="m 111.496,1018.58 3.78,-3.78"
         id="path38"
         transform="matrix(0.26458333,0,0,0.26458333,105.02768,-120.50028)" /></g></g></svg>
