<?xml version="1.0" encoding="UTF-8" standalone="no"?>
<!-- Created with Inkscape (http://www.inkscape.org/) -->

<svg
   width="82.264778mm"
   height="64.265175mm"
   viewBox="0 0 82.264778 64.265175"
   version="1.1"
   id="svg1"
   xml:space="preserve"
   inkscape:version="1.3 (0e150ed6c4, 2023-07-21)"
   sodipodi:docname="Front_silks.svg"
   inkscape:export-filename="Front_silks.png"
   inkscape:export-xdpi="600"
   inkscape:export-ydpi="600"
   xmlns:inkscape="http://www.inkscape.org/namespaces/inkscape"
   xmlns:sodipodi="http://sodipodi.sourceforge.net/DTD/sodipodi-0.dtd"
   xmlns="http://www.w3.org/2000/svg"
   xmlns:svg="http://www.w3.org/2000/svg"><sodipodi:namedview
     id="namedview1"
     pagecolor="#ffffff"
     bordercolor="#000000"
     borderopacity="0.25"
     inkscape:showpageshadow="2"
     inkscape:pageopacity="0.0"
     inkscape:pagecheckerboard="0"
     inkscape:deskcolor="#d1d1d1"
     inkscape:document-units="mm"
     inkscape:zoom="2.0485265"
     inkscape:cx="41.981395"
     inkscape:cy="113.00806"
     inkscape:window-width="1920"
     inkscape:window-height="1009"
     inkscape:window-x="-8"
     inkscape:window-y="-8"
     inkscape:window-maximized="1"
     inkscape:current-layer="layer2" /><defs
     id="defs1"><inkscape:path-effect
       effect="fillet_chamfer"
       id="path-effect9"
       is_visible="true"
       lpeversion="1"
       nodesatellites_param="F,0,0,1,0,3,0,1 @ F,0,0,1,0,3,0,1 @ F,0,0,1,0,3,0,1 @ F,0,0,1,0,3,0,1 @ F,0,0,1,0,3,0,1"
       radius="3"
       unit="mm"
       method="auto"
       mode="F"
       chamfer_steps="1"
       flexible="false"
       use_knot_distance="true"
       apply_no_radius="true"
       apply_with_radius="true"
       only_selected="false"
       hide_knots="false" /><inkscape:path-effect
       effect="skeletal"
       id="path-effect8"
       is_visible="true"
       lpeversion="1"
       pattern="M -57.500682,-8.4899592 V 0.31208594"
       copytype="repeated"
       prop_scale="1"
       scale_y_rel="false"
       spacing="9.9"
       normal_offset="0"
       tang_offset="9"
       prop_units="false"
       vertical_pattern="false"
       hide_knot="false"
       fuse_tolerance="0" /><inkscape:path-effect
       effect="skeletal"
       id="path-effect7"
       is_visible="true"
       lpeversion="1"
       pattern="m 31.928988,47.46201 v 8.802045"
       copytype="repeated_stretched"
       prop_scale="1"
       scale_y_rel="false"
       spacing="0"
       normal_offset="0"
       tang_offset="0"
       prop_units="false"
       vertical_pattern="false"
       hide_knot="false"
       fuse_tolerance="0" /><inkscape:path-effect
       effect="tiling"
       id="path-effect115"
       is_visible="true"
       lpeversion="1"
       unit="px"
       seed="1;1"
       lpesatellites=""
       num_rows="11"
       num_cols="15"
       gapx="19.7"
       gapy="9"
       offset="0"
       offset_type="false"
       scale="0"
       rotate="0"
       mirrorrowsx="false"
       mirrorrowsy="false"
       mirrorcolsx="false"
       mirrorcolsy="false"
       mirrortrans="false"
       shrink_interp="false"
       split_items="false"
       link_styles="false"
       interpolate_scalex="false"
       interpolate_scaley="true"
       interpolate_rotatex="false"
       interpolate_rotatey="true"
       random_scale="false"
       random_rotate="false"
       random_gap_y="false"
       random_gap_x="false"
       transformorigin="" /><inkscape:path-effect
       effect="tiling"
       id="path-effect114"
       is_visible="true"
       lpeversion="1"
       unit="px"
       seed="1;1"
       lpesatellites=""
       num_rows="11"
       num_cols="16"
       gapx="19.7"
       gapy="8.9"
       offset="0"
       offset_type="false"
       scale="0"
       rotate="0"
       mirrorrowsx="false"
       mirrorrowsy="false"
       mirrorcolsx="false"
       mirrorcolsy="false"
       mirrortrans="false"
       shrink_interp="false"
       split_items="false"
       link_styles="false"
       interpolate_scalex="false"
       interpolate_scaley="true"
       interpolate_rotatex="false"
       interpolate_rotatey="true"
       random_scale="false"
       random_rotate="false"
       random_gap_y="false"
       random_gap_x="false"
       transformorigin="" /><inkscape:path-effect
       effect="tiling"
       id="path-effect104"
       is_visible="true"
       lpeversion="1"
       unit="px"
       seed="1;1"
       lpesatellites=""
       num_rows="22"
       num_cols="1"
       gapx="0"
       gapy="8.9"
       offset="0"
       offset_type="false"
       scale="0"
       rotate="0"
       mirrorrowsx="false"
       mirrorrowsy="false"
       mirrorcolsx="false"
       mirrorcolsy="false"
       mirrortrans="false"
       shrink_interp="false"
       split_items="false"
       link_styles="false"
       interpolate_scalex="false"
       interpolate_scaley="true"
       interpolate_rotatex="false"
       interpolate_rotatey="true"
       random_scale="false"
       random_rotate="false"
       random_gap_y="false"
       random_gap_x="false"
       transformorigin="" /><marker
       id="DistanceX"
       orient="auto"
       refX="0"
       refY="0"
       style="overflow:visible"><path
         d="M 3,-3 -3,3 M 0,-5 V 5"
         style="stroke:#000000;stroke-width:0.5"
         id="path1" /></marker><pattern
       id="Hatch"
       patternUnits="userSpaceOnUse"
       width="8"
       height="8"
       x="0"
       y="0"><path
         d="M8 4 l-4,4"
         stroke="#000000"
         stroke-width="0.25"
         linecap="square"
         id="path2" /><path
         d="M6 2 l-4,4"
         stroke="#000000"
         stroke-width="0.25"
         linecap="square"
         id="path3" /><path
         d="M4 0 l-4,4"
         stroke="#000000"
         stroke-width="0.25"
         linecap="square"
         id="path4" /></pattern><symbol
       id="*MODEL_SPACE" /><symbol
       id="*PAPER_SPACE" /><inkscape:path-effect
       effect="fill_between_many"
       method="originald"
       linkedpaths="#path5,0,1|#path6,0,1|#path7,0,1|#path8,0,1|#path9,0,1|#path10,0,1|#path11,0,1|#path12,0,1|"
       id="path-effect102" /><inkscape:path-effect
       effect="fill_between_many"
       method="originald"
       linkedpaths="#path13,0,1|#path14,0,1|#path15,0,1|#path16,0,1|#path17,0,1|#path18,0,1|#path19,0,1|#path20,0,1|#path21,0,1|#path22,0,1|#path23,0,1|#path24,0,1|#path25,0,1|#path26,0,1|#path27,0,1|#path28,0,1|#path29,0,1|#path30,0,1|#path31,0,1|#path32,0,1|#path33,0,1|#path34,0,1|#path35,0,1|#path36,0,1|"
       id="path-effect103" /></defs><g
     inkscape:groupmode="layer"
     id="layer2"
     inkscape:label="Layer 2"
     style="stroke-width:0.6;stroke-dasharray:none"><path
       style="fill:#ffffff;stroke:#000000;stroke-width:0.6;stroke-linecap:round;stroke-linejoin:round;stroke-dasharray:none"
       d="M 0,60.329167 H 82.264778"
       id="path42"
       sodipodi:nodetypes="cc" /><g
       id="g2"
       transform="matrix(0.99998297,0,0,1.0140763,7.0049632e-4,-0.38290337)"
       style="stroke-width:0.3972175;stroke-dasharray:none"><path
         style="display:inline;fill:none;fill-opacity:1;fill-rule:nonzero;stroke:#000000;stroke-width:0.3972175;stroke-linecap:round;stroke-linejoin:round;stroke-dasharray:none;stroke-dashoffset:0;stroke-opacity:1"
         d="M 146.16007,173.36742 H 63.89529 m 82.26478,2.35479 H 63.89529 m 82.26478,2.35479 H 63.89529 m 82.26478,2.35479 H 63.89529 m 82.26478,2.3548 H 63.89529 m 82.26478,2.35479 H 63.89529 m 82.26478,2.35479 H 63.89529 m 82.26478,2.35479 H 63.89529 m 82.26478,2.35479 H 63.89529 m 82.26478,2.35479 H 63.89529 m 82.26478,2.3548 H 63.89529 m 82.26478,2.35479 H 63.89529 m 82.26478,2.35479 H 63.89529 m 82.26478,2.35479 H 63.89529 m 82.26478,2.35479 H 63.89529 m 82.26478,2.35479 H 63.89529 m 82.26478,2.3548 H 63.89529 m 82.26478,2.35479 H 63.89529 m 82.26478,2.35479 H 63.89529 m 82.26478,2.35479 H 63.89529 m 82.26478,2.35479 H 63.89529 m 82.26478,2.35479 H 63.89529"
         id="path104"
         sodipodi:nodetypes="cc"
         inkscape:path-effect="#path-effect104"
         inkscape:original-d="M 146.16007,173.36742 H 63.89529"
         transform="translate(-63.89529,-165.57994)" /><path
         style="fill:none;fill-opacity:1;fill-rule:nonzero;stroke:#000000;stroke-width:0.3972175;stroke-linecap:round;stroke-linejoin:round;stroke-dasharray:none;stroke-dashoffset:0;stroke-opacity:1"
         d="m 8.7798335,7.7874798 0.00358,2.3547902 m 5.2122915,-2.3547902 0.0036,2.3547902 m 5.212292,-2.3547902 0.0036,2.3547902 m 5.212291,-2.3547902 0.0036,2.3547902 M 29.64332,7.7874798 29.6469,10.14227 m 5.212292,-2.3547902 0.0036,2.3547902 m 5.212291,-2.3547902 0.0036,2.3547902 m 5.212292,-2.3547902 0.0036,2.3547902 m 5.212292,-2.3547902 0.0036,2.3547902 m 5.212291,-2.3547902 0.0036,2.3547902 m 5.212292,-2.3547902 0.0036,2.3547902 m 5.212292,-2.3547902 0.0036,2.3547902 m 5.212291,-2.3547902 0.0036,2.3547902 m 5.212292,-2.3547902 0.0036,2.3547902 m 5.212292,-2.3547902 0.0036,2.3547902 m 5.212291,-2.3547902 0.0036,2.3547902 m -78.2416545,2.354792 0.00358,2.35479 m 5.2122915,-2.35479 0.0036,2.35479 m 5.212292,-2.35479 0.0036,2.35479 m 5.212291,-2.35479 0.0036,2.35479 m 5.212292,-2.35479 0.0036,2.35479 m 5.212292,-2.35479 0.0036,2.35479 m 5.212291,-2.35479 0.0036,2.35479 m 5.212292,-2.35479 0.0036,2.35479 m 5.212292,-2.35479 0.0036,2.35479 m 5.212291,-2.35479 0.0036,2.35479 m 5.212292,-2.35479 0.0036,2.35479 m 5.212292,-2.35479 0.0036,2.35479 m 5.212291,-2.35479 0.0036,2.35479 m 5.212292,-2.35479 0.0036,2.35479 m 5.212292,-2.35479 0.0036,2.35479 m 5.212291,-2.35479 0.0036,2.35479 m -78.2416545,2.354792 0.00358,2.35479 m 5.2122915,-2.35479 0.0036,2.35479 m 5.212292,-2.35479 0.0036,2.35479 m 5.212291,-2.35479 0.0036,2.35479 m 5.212292,-2.35479 0.0036,2.35479 m 5.212292,-2.35479 0.0036,2.35479 m 5.212291,-2.35479 0.0036,2.35479 m 5.212292,-2.35479 0.0036,2.35479 m 5.212292,-2.35479 0.0036,2.35479 m 5.212291,-2.35479 0.0036,2.35479 m 5.212292,-2.35479 0.0036,2.35479 m 5.212292,-2.35479 0.0036,2.35479 m 5.212291,-2.35479 0.0036,2.35479 m 5.212292,-2.35479 0.0036,2.35479 m 5.212292,-2.35479 0.0036,2.35479 m 5.212291,-2.35479 0.0036,2.35479 m -78.2416545,2.354791 0.00358,2.354791 m 5.2122915,-2.354791 0.0036,2.354791 m 5.212292,-2.354791 0.0036,2.354791 m 5.212291,-2.354791 0.0036,2.354791 m 5.212292,-2.354791 0.0036,2.354791 m 5.212292,-2.354791 0.0036,2.354791 m 5.212291,-2.354791 0.0036,2.354791 m 5.212292,-2.354791 0.0036,2.354791 m 5.212292,-2.354791 0.0036,2.354791 m 5.212291,-2.354791 0.0036,2.354791 m 5.212292,-2.354791 0.0036,2.354791 m 5.212292,-2.354791 0.0036,2.354791 m 5.212291,-2.354791 0.0036,2.354791 m 5.212292,-2.354791 0.0036,2.354791 m 5.212292,-2.354791 0.0036,2.354791 m 5.212291,-2.354791 0.0036,2.354791 m -78.2416545,2.354791 0.00358,2.35479 m 5.2122915,-2.35479 0.0036,2.35479 m 5.212292,-2.35479 0.0036,2.35479 m 5.212291,-2.35479 0.0036,2.35479 m 5.212292,-2.35479 0.0036,2.35479 m 5.212292,-2.35479 0.0036,2.35479 m 5.212291,-2.35479 0.0036,2.35479 m 5.212292,-2.35479 0.0036,2.35479 m 5.212292,-2.35479 0.0036,2.35479 m 5.212291,-2.35479 0.0036,2.35479 m 5.212292,-2.35479 0.0036,2.35479 m 5.212292,-2.35479 0.0036,2.35479 m 5.212291,-2.35479 0.0036,2.35479 m 5.212292,-2.35479 0.0036,2.35479 m 5.212292,-2.35479 0.0036,2.35479 m 5.212291,-2.35479 0.0036,2.35479 m -78.2416545,2.354792 0.00358,2.35479 m 5.2122915,-2.35479 0.0036,2.35479 m 5.212292,-2.35479 0.0036,2.35479 m 5.212291,-2.35479 0.0036,2.35479 m 5.212292,-2.35479 0.0036,2.35479 m 5.212292,-2.35479 0.0036,2.35479 m 5.212291,-2.35479 0.0036,2.35479 m 5.212292,-2.35479 0.0036,2.35479 m 5.212292,-2.35479 0.0036,2.35479 m 5.212291,-2.35479 0.0036,2.35479 m 5.212292,-2.35479 0.0036,2.35479 m 5.212292,-2.35479 0.0036,2.35479 m 5.212291,-2.35479 0.0036,2.35479 m 5.212292,-2.35479 0.0036,2.35479 m 5.212292,-2.35479 0.0036,2.35479 m 5.212291,-2.35479 0.0036,2.35479 m -78.2416545,2.354792 0.00358,2.35479 m 5.2122915,-2.35479 0.0036,2.35479 m 5.212292,-2.35479 0.0036,2.35479 m 5.212291,-2.35479 0.0036,2.35479 m 5.212292,-2.35479 0.0036,2.35479 m 5.212292,-2.35479 0.0036,2.35479 m 5.212291,-2.35479 0.0036,2.35479 m 5.212292,-2.35479 0.0036,2.35479 m 5.212292,-2.35479 0.0036,2.35479 m 5.212291,-2.35479 0.0036,2.35479 m 5.212292,-2.35479 0.0036,2.35479 m 5.212292,-2.35479 0.0036,2.35479 m 5.212291,-2.35479 0.0036,2.35479 m 5.212292,-2.35479 0.0036,2.35479 m 5.212292,-2.35479 0.0036,2.35479 m 5.212291,-2.35479 0.0036,2.35479 m -78.2416545,2.354792 0.00358,2.35479 m 5.2122915,-2.35479 0.0036,2.35479 m 5.212292,-2.35479 0.0036,2.35479 m 5.212291,-2.35479 0.0036,2.35479 m 5.212292,-2.35479 0.0036,2.35479 m 5.212292,-2.35479 0.0036,2.35479 m 5.212291,-2.35479 0.0036,2.35479 m 5.212292,-2.35479 0.0036,2.35479 m 5.212292,-2.35479 0.0036,2.35479 m 5.212291,-2.35479 0.0036,2.35479 m 5.212292,-2.35479 0.0036,2.35479 m 5.212292,-2.35479 0.0036,2.35479 m 5.212291,-2.35479 0.0036,2.35479 m 5.212292,-2.35479 0.0036,2.35479 m 5.212292,-2.35479 0.0036,2.35479 m 5.212291,-2.35479 0.0036,2.35479 m -78.2416545,2.354792 0.00358,2.35479 m 5.2122915,-2.35479 0.0036,2.35479 m 5.212292,-2.35479 0.0036,2.35479 m 5.212291,-2.35479 0.0036,2.35479 m 5.212292,-2.35479 0.0036,2.35479 m 5.212292,-2.35479 0.0036,2.35479 m 5.212291,-2.35479 0.0036,2.35479 m 5.212292,-2.35479 0.0036,2.35479 m 5.212292,-2.35479 0.0036,2.35479 m 5.212291,-2.35479 0.0036,2.35479 m 5.212292,-2.35479 0.0036,2.35479 m 5.212292,-2.35479 0.0036,2.35479 m 5.212291,-2.35479 0.0036,2.35479 m 5.212292,-2.35479 0.0036,2.35479 m 5.212292,-2.35479 0.0036,2.35479 m 5.212291,-2.35479 0.0036,2.35479 m -78.2416545,2.354792 0.00358,2.35479 m 5.2122915,-2.35479 0.0036,2.35479 m 5.212292,-2.35479 0.0036,2.35479 m 5.212291,-2.35479 0.0036,2.35479 m 5.212292,-2.35479 0.0036,2.35479 m 5.212292,-2.35479 0.0036,2.35479 m 5.212291,-2.35479 0.0036,2.35479 m 5.212292,-2.35479 0.0036,2.35479 m 5.212292,-2.35479 0.0036,2.35479 m 5.212291,-2.35479 0.0036,2.35479 m 5.212292,-2.35479 0.0036,2.35479 m 5.212292,-2.35479 0.0036,2.35479 m 5.212291,-2.35479 0.0036,2.35479 m 5.212292,-2.35479 0.0036,2.35479 m 5.212292,-2.35479 0.0036,2.35479 m 5.212291,-2.35479 0.0036,2.35479 m -78.2416545,2.354791 0.00358,2.354791 m 5.2122915,-2.354791 0.0036,2.354791 m 5.212292,-2.354791 0.0036,2.354791 m 5.212291,-2.354791 0.0036,2.354791 m 5.212292,-2.354791 0.0036,2.354791 m 5.212292,-2.354791 0.0036,2.354791 m 5.212291,-2.354791 0.0036,2.354791 m 5.212292,-2.354791 0.0036,2.354791 m 5.212292,-2.354791 0.0036,2.354791 m 5.212291,-2.354791 0.0036,2.354791 m 5.212292,-2.354791 0.0036,2.354791 m 5.212292,-2.354791 0.0036,2.354791 m 5.212291,-2.354791 0.0036,2.354791 m 5.212292,-2.354791 0.0036,2.354791 m 5.212292,-2.354791 0.0036,2.354791 m 5.212291,-2.354791 0.0036,2.354791"
         id="path113"
         sodipodi:nodetypes="cc"
         inkscape:path-effect="#path-effect114"
         inkscape:original-d="m 8.7798335,7.7874798 0.00358,2.3547902"
         transform="translate(-5.5298335)" /><path
         style="fill:none;fill-opacity:1;fill-rule:nonzero;stroke:#000000;stroke-width:0.3972175;stroke-linecap:round;stroke-linejoin:round;stroke-dasharray:none;stroke-dashoffset:0;stroke-opacity:1"
         d="m 11.161083,10.16873 v 2.32833 m 5.212292,-2.32833 v 2.32833 m 5.212291,-2.32833 v 2.32833 m 5.212292,-2.32833 v 2.32833 m 5.212292,-2.32833 v 2.32833 m 5.212291,-2.32833 v 2.32833 m 5.212292,-2.32833 v 2.32833 m 5.212292,-2.32833 v 2.32833 m 5.212291,-2.32833 v 2.32833 m 5.212292,-2.32833 v 2.32833 M 63.284,10.16873 v 2.32833 m 5.212291,-2.32833 v 2.32833 m 5.212292,-2.32833 v 2.32833 m 5.212292,-2.32833 v 2.32833 m 5.212291,-2.32833 v 2.32833 m -72.972083,2.38125 v 2.32833 m 5.212292,-2.32833 v 2.32833 m 5.212291,-2.32833 v 2.32833 m 5.212292,-2.32833 v 2.32833 m 5.212292,-2.32833 v 2.32833 m 5.212291,-2.32833 v 2.32833 m 5.212292,-2.32833 v 2.32833 m 5.212292,-2.32833 v 2.32833 m 5.212291,-2.32833 v 2.32833 m 5.212292,-2.32833 v 2.32833 M 63.284,14.87831 v 2.32833 m 5.212291,-2.32833 v 2.32833 m 5.212292,-2.32833 v 2.32833 m 5.212292,-2.32833 v 2.32833 m 5.212291,-2.32833 v 2.32833 m -72.972083,2.38125 v 2.32833 m 5.212292,-2.32833 v 2.32833 m 5.212291,-2.32833 v 2.32833 m 5.212292,-2.32833 v 2.32833 m 5.212292,-2.32833 v 2.32833 m 5.212291,-2.32833 v 2.32833 m 5.212292,-2.32833 v 2.32833 m 5.212292,-2.32833 v 2.32833 m 5.212291,-2.32833 v 2.32833 m 5.212292,-2.32833 v 2.32833 M 63.284,19.58789 v 2.32833 m 5.212291,-2.32833 v 2.32833 m 5.212292,-2.32833 v 2.32833 m 5.212292,-2.32833 v 2.32833 m 5.212291,-2.32833 v 2.32833 m -72.972083,2.38125 v 2.32833 m 5.212292,-2.32833 v 2.32833 m 5.212291,-2.32833 v 2.32833 m 5.212292,-2.32833 v 2.32833 m 5.212292,-2.32833 v 2.32833 m 5.212291,-2.32833 v 2.32833 m 5.212292,-2.32833 v 2.32833 m 5.212292,-2.32833 v 2.32833 m 5.212291,-2.32833 v 2.32833 m 5.212292,-2.32833 V 26.6258 M 63.284,24.29747 v 2.32833 m 5.212291,-2.32833 v 2.32833 m 5.212292,-2.32833 v 2.32833 m 5.212292,-2.32833 v 2.32833 m 5.212291,-2.32833 v 2.32833 m -72.972083,2.38125 v 2.32833 m 5.212292,-2.32833 v 2.32833 m 5.212291,-2.32833 v 2.32833 m 5.212292,-2.32833 v 2.32833 m 5.212292,-2.32833 v 2.32833 m 5.212291,-2.32833 v 2.32833 m 5.212292,-2.32833 v 2.32833 m 5.212292,-2.32833 v 2.32833 m 5.212291,-2.32833 v 2.32833 m 5.212292,-2.32833 v 2.32833 M 63.284,29.00705 v 2.32833 m 5.212291,-2.32833 v 2.32833 m 5.212292,-2.32833 v 2.32833 m 5.212292,-2.32833 v 2.32833 m 5.212291,-2.32833 v 2.32833 m -72.972083,2.38125 v 2.32833 m 5.212292,-2.32833 v 2.32833 m 5.212291,-2.32833 v 2.32833 m 5.212292,-2.32833 v 2.32833 m 5.212292,-2.32833 v 2.32833 m 5.212291,-2.32833 v 2.32833 m 5.212292,-2.32833 v 2.32833 m 5.212292,-2.32833 v 2.32833 m 5.212291,-2.32833 v 2.32833 m 5.212292,-2.32833 v 2.32833 M 63.284,33.71663 v 2.32833 m 5.212291,-2.32833 v 2.32833 m 5.212292,-2.32833 v 2.32833 m 5.212292,-2.32833 v 2.32833 m 5.212291,-2.32833 v 2.32833 m -72.972083,2.38125 v 2.32833 m 5.212292,-2.32833 v 2.32833 m 5.212291,-2.32833 v 2.32833 m 5.212292,-2.32833 v 2.32833 m 5.212292,-2.32833 v 2.32833 m 5.212291,-2.32833 v 2.32833 m 5.212292,-2.32833 v 2.32833 m 5.212292,-2.32833 v 2.32833 m 5.212291,-2.32833 v 2.32833 m 5.212292,-2.32833 v 2.32833 M 63.284,38.42621 v 2.32833 m 5.212291,-2.32833 v 2.32833 m 5.212292,-2.32833 v 2.32833 m 5.212292,-2.32833 v 2.32833 m 5.212291,-2.32833 v 2.32833 m -72.972083,2.38125 v 2.32833 m 5.212292,-2.32833 v 2.32833 m 5.212291,-2.32833 v 2.32833 m 5.212292,-2.32833 v 2.32833 m 5.212292,-2.32833 v 2.32833 m 5.212291,-2.32833 v 2.32833 m 5.212292,-2.32833 v 2.32833 m 5.212292,-2.32833 v 2.32833 m 5.212291,-2.32833 v 2.32833 m 5.212292,-2.32833 v 2.32833 M 63.284,43.13579 v 2.32833 m 5.212291,-2.32833 v 2.32833 m 5.212292,-2.32833 v 2.32833 m 5.212292,-2.32833 v 2.32833 m 5.212291,-2.32833 v 2.32833 m -72.972083,2.38125 v 2.32833 m 5.212292,-2.32833 v 2.32833 m 5.212291,-2.32833 v 2.32833 m 5.212292,-2.32833 v 2.32833 m 5.212292,-2.32833 v 2.32833 m 5.212291,-2.32833 v 2.32833 m 5.212292,-2.32833 v 2.32833 m 5.212292,-2.32833 v 2.32833 m 5.212291,-2.32833 v 2.32833 m 5.212292,-2.32833 V 50.1737 M 63.284,47.84537 v 2.32833 m 5.212291,-2.32833 v 2.32833 m 5.212292,-2.32833 v 2.32833 m 5.212292,-2.32833 v 2.32833 m 5.212291,-2.32833 v 2.32833 m -72.972083,2.38125 v 2.32833 m 5.212292,-2.32833 v 2.32833 m 5.212291,-2.32833 v 2.32833 m 5.212292,-2.32833 v 2.32833 m 5.212292,-2.32833 v 2.32833 m 5.212291,-2.32833 v 2.32833 m 5.212292,-2.32833 v 2.32833 m 5.212292,-2.32833 v 2.32833 m 5.212291,-2.32833 v 2.32833 m 5.212292,-2.32833 v 2.32833 M 63.284,52.55495 v 2.32833 m 5.212291,-2.32833 v 2.32833 m 5.212292,-2.32833 v 2.32833 m 5.212292,-2.32833 v 2.32833 m 5.212291,-2.32833 v 2.32833 m -72.972083,2.38125 v 2.32833 m 5.212292,-2.32833 v 2.32833 m 5.212291,-2.32833 v 2.32833 m 5.212292,-2.32833 v 2.32833 m 5.212292,-2.32833 v 2.32833 m 5.212291,-2.32833 v 2.32833 m 5.212292,-2.32833 v 2.32833 m 5.212292,-2.32833 v 2.32833 m 5.212291,-2.32833 v 2.32833 m 5.212292,-2.32833 v 2.32833 M 63.284,57.26453 v 2.32833 m 5.212291,-2.32833 v 2.32833 m 5.212292,-2.32833 v 2.32833 m 5.212292,-2.32833 v 2.32833 m 5.212291,-2.32833 v 2.32833"
         id="path114"
         sodipodi:nodetypes="cc"
         inkscape:path-effect="#path-effect115"
         inkscape:original-d="m 11.161083,10.16873 v 2.32833"
         transform="translate(-5.211083)" /></g><path
       d="M 65.18767,14.74742 C 56.677681,11.357347 47.54724,9.804291 38.39499,10.19008 h 8e-5 c -7.311738,0.308229 -14.518924,1.849006 -21.317559,4.55734"
       style="display:none;fill:none;fill-opacity:1;stroke:#000000;stroke-width:5.03;stroke-linecap:butt;stroke-linejoin:bevel;stroke-dasharray:none;stroke-opacity:1;paint-order:normal"
       id="path1-9"
       sodipodi:nodetypes="cccc" /><path
       style="fill:#ffffff;stroke:#000000;stroke-width:0.6;stroke-linecap:round;stroke-linejoin:round;stroke-dasharray:none"
       d="M -0.04566321,7.3508407 H 82.219115"
       id="path42-2"
       sodipodi:nodetypes="cc" /><g
       id="g8"
       transform="translate(-0.38588936,0.18265683)"><path
         style="color:#000000;fill:#ffffff;fill-opacity:1;stroke:#000000;stroke-width:2.26771657;stroke-linecap:round;stroke-linejoin:round;stroke-dasharray:none;stroke-opacity:1"
         d="M 93.18372,22.220841 C 57.209666,22.7401 21.326416,30.926199 -11.949516,46.772304 c -1.495892,0.712349 -2.109214,2.511631 -1.379364,3.999073 l 1.519088,3.095918 c 0.72985,1.487442 2.5264664,2.099714 4.0226823,1.388047 C 58.00999,23.959319 134.36722,23.761357 200.32531,54.716597 c 1.49988,0.703917 3.29341,0.08241 4.01569,-1.408721 l 1.50354,-3.104034 c 0.72228,-1.491133 0.0998,-3.287168 -1.39979,-3.991766 C 171.08718,30.53833 135.15994,22.538465 99.18356,22.205322 c -1.656774,-0.01534 -4.343168,-0.0084 -5.99984,0.01552 z"
         id="path6"
         transform="matrix(0.26458333,0,0,0.26458333,15.792889,1.2379683)"
         inkscape:path-effect="#path-effect9"
         inkscape:original-d="m 96.183594,22.195312 c -37.952615,0.09816 -75.882019,8.728439 -110.833985,25.882813 l 4.16211,8.482422 C 56.811952,23.529691 135.56302,23.325511 203.0332,56.007812 l 4.11914,-8.503906 C 172.11211,30.530553 134.13621,22.097156 96.183594,22.195312 Z" /><path
         style="fill:none;stroke:#000000;stroke-width:1.51181104;stroke-linecap:round;stroke-linejoin:round;stroke-dasharray:none;stroke-dashoffset:0;paint-order:normal"
         id="path5"
         transform="matrix(0.26458333,0,0,0.26458333,15.792889,1.2379683)"
         sodipodi:type="arc"
         sodipodi:cx="96.838326"
         sodipodi:cy="275.23755"
         sodipodi:rx="248.32007"
         sodipodi:ry="248.32007"
         sodipodi:start="4.2561296"
         sodipodi:end="5.1634758"
         sodipodi:open="true"
         sodipodi:arc-type="arc"
         inkscape:path-effect="#path-effect8"
         d="m -6.2046371,44.491674 3.5702883,8.038562 m 5.7189372,-11.932518 3.2316382,8.176078 m 6.2045664,-11.682268 2.892953,8.299888 m 6.674817,-11.418274 2.554232,8.409995 m 7.12969,-11.140535 2.215475,8.506396 m 7.569184,-10.849052 1.876683,8.589093 m 7.993299,-10.543825 1.537855,8.658086 m 8.402036,-10.224853 1.198993,8.713374 m 8.795394,-9.892136 0.860095,8.754957 m 9.173373,-9.545676 0.521161,8.782837 m 9.535974,-9.185471 0.182192,8.797011 m 9.883201,-8.811522 -0.15682,8.797481 m 10.21504,-8.423827 -0.49585,8.784246 m 10.53151,-8.02239 -0.83493,8.757307 m 10.83259,-7.607206 -1.17404,8.716663 m 11.1183,-7.17828 -1.51318,8.662316 m 11.38863,-6.735609 -1.85237,8.594263 m 11.64358,-6.279193 -2.19158,8.512506 m 11.88315,-5.809033 -2.53083,8.417044 m 12.10734,-5.325128 -2.87012,8.307878 m 12.31616,-4.827479 -3.20945,8.185007 m 12.5096,-4.316086 -3.5488,8.048431" /></g><rect
       style="fill:none;stroke:#000000;stroke-width:0.6;stroke-linecap:round;stroke-linejoin:round;stroke-dasharray:none;stroke-dashoffset:0"
       id="rect2"
       width="81.291946"
       height="6.8546948"
       x="0.48386675"
       y="0.4783268"
       ry="0.82559472" /><rect
       style="fill:none;stroke:#000000;stroke-width:0.6;stroke-linecap:round;stroke-linejoin:round;stroke-dasharray:none;stroke-dashoffset:0"
       id="rect2-3"
       width="81.332878"
       height="3.3747015"
       x="0.4773978"
       y="60.40799"
       ry="0.82559472" /></g><g
     inkscape:label="Layer 1"
     inkscape:groupmode="layer"
     id="layer1"
     transform="translate(-63.89529,-116.36742)"
     style="display:inline;mix-blend-mode:normal;stroke-width:0.01;stroke-dasharray:none"
     sodipodi:insensitive="true"><path
       id="path103"
       style="display:inline;fill:#ffffff;fill-opacity:1;stroke:#000000;stroke-width:0;stroke-dasharray:none;stroke-opacity:1"
       d="m 63.89529,116.36742 v 64.26533 h 82.26475 v -64.26533 z m 1.632458,0.13229 h 78.999832 c 0.29093,0 0.53122,0.0327 0.72812,0.0992 0.13675,0.0462 0.264,0.11232 0.3731,0.20722 0.095,0.0826 0.16926,0.18117 0.22686,0.29301 0.062,0.12043 0.10236,0.25177 0.12816,0.38447 0.0326,0.16783 0.0438,0.34589 0.0439,0.51625 v 4.49998 c 0,0.29092 -0.0327,0.53122 -0.0992,0.72812 -0.0462,0.13674 -0.11284,0.264 -0.20774,0.37311 -0.0826,0.095 -0.18064,0.16926 -0.29249,0.22686 -0.12042,0.062 -0.25178,0.10184 -0.38447,0.12764 -0.16783,0.0326 -0.34571,0.0441 -0.51625,0.0439 h -2.99982 c -0.29093,0 -0.53123,0.0332 -0.72812,0.0997 -0.13675,0.0462 -0.264,0.11232 -0.3731,0.20722 -0.095,0.0826 -0.16926,0.18064 -0.22686,0.29249 -0.062,0.12042 -0.10236,0.25229 -0.12816,0.38499 -0.0326,0.16783 -0.0438,0.34522 -0.0439,0.51573 v 49.49982 c 0,0.29093 0.0327,0.53174 0.0992,0.72864 0.0462,0.13674 0.11284,0.26346 0.20774,0.37258 0.0826,0.095 0.18064,0.16978 0.29249,0.22738 0.12042,0.062 0.25177,0.10184 0.38447,0.12764 0.16783,0.0326 0.34575,0.0439 0.51625,0.0439 h 2.99982 c 0.29093,0 0.53122,0.0327 0.72812,0.0992 0.13675,0.0462 0.264,0.11284 0.3731,0.20773 0.095,0.0826 0.16926,0.18066 0.22686,0.29249 0.062,0.12044 0.10236,0.25179 0.12816,0.38448 0.0326,0.16783 0.0438,0.34553 0.0439,0.51624 v 0.99994 c 0,0.29093 -0.0327,0.53122 -0.0992,0.72812 -0.0462,0.13674 -0.11284,0.264 -0.20774,0.37311 -0.0826,0.095 -0.18064,0.16926 -0.29249,0.22686 -0.12042,0.062 -0.25178,0.10235 -0.38447,0.12815 -0.16783,0.0326 -0.34571,0.0439 -0.51625,0.0445 l -78.999832,-5.2e-4 c -0.170421,0 -0.347894,-0.0113 -0.51573,-0.0439 -0.132694,-0.0258 -0.26457,-0.0661 -0.38499,-0.12815 -0.111847,-0.0576 -0.209878,-0.13186 -0.292488,-0.22686 -0.09488,-0.10911 -0.16154,-0.23637 -0.20774,-0.37311 -0.06652,-0.1969 -0.09912,-0.43706 -0.09922,-0.7276 v -1.00046 c 0,-0.17042 0.01131,-0.34841 0.04393,-0.51624 0.02579,-0.13269 0.06613,-0.26404 0.128157,-0.38448 0.05762,-0.11183 0.13187,-0.20989 0.22686,-0.29249 0.109109,-0.0949 0.236359,-0.16153 0.373104,-0.20773 0.196895,-0.0665 0.437107,-0.0993 0.72812,-0.0992 h 2.999817 c 0.170424,0 0.348415,-0.0113 0.516248,-0.0439 0.132697,-0.0258 0.264051,-0.0656 0.384473,-0.12764 0.111846,-0.0576 0.209878,-0.13238 0.292488,-0.22738 0.09488,-0.10912 0.16154,-0.23584 0.207739,-0.37258 0.06651,-0.1969 0.0991,-0.4376 0.09922,-0.72864 v -49.49982 c 0,-0.17043 -0.01131,-0.3479 -0.04393,-0.51573 -0.02579,-0.1327 -0.06613,-0.26457 -0.128157,-0.38499 -0.05762,-0.11185 -0.13187,-0.20989 -0.22686,-0.29249 -0.109106,-0.0949 -0.236359,-0.16102 -0.373104,-0.20722 -0.196895,-0.0665 -0.43713,-0.0996 -0.728121,-0.0997 h -2.999817 c -0.170421,0 -0.347894,-0.0113 -0.51573,-0.0439 -0.132694,-0.0258 -0.26457,-0.0656 -0.38499,-0.12764 -0.111847,-0.0576 -0.209878,-0.13186 -0.292488,-0.22686 -0.09488,-0.10911 -0.16154,-0.23637 -0.20774,-0.37311 -0.06652,-0.1969 -0.09912,-0.43714 -0.09922,-0.72812 v -4.49998 c 0,-0.17043 0.01131,-0.34842 0.04393,-0.51625 0.02579,-0.1327 0.06613,-0.26404 0.128157,-0.38447 0.05762,-0.11184 0.13187,-0.21041 0.22686,-0.29301 0.109109,-0.0949 0.236359,-0.16102 0.373104,-0.20722 0.196895,-0.0665 0.437107,-0.0992 0.72812,-0.0992 z m 36.762612,10.05779 c -7.311737,0.30823 -14.518924,1.84901 -21.317559,4.55734 -0.135336,0.0539 -0.27684,0.119 -0.401526,0.1974 -0.09282,0.0584 -0.179788,0.12603 -0.254248,0.20723 -0.08954,0.0977 -0.153628,0.20631 -0.198438,0.33073 -0.06756,0.18759 -0.09095,0.40854 -0.09095,0.65784 v 42.49146 c 0,0.17055 0.01131,0.34842 0.04393,0.51625 0.02579,0.13269 0.06561,0.26406 0.12764,0.38447 0.05762,0.11187 0.132387,0.21041 0.227377,0.29301 0.109107,0.0949 0.235843,0.16102 0.372587,0.20722 0.196898,0.0665 0.437713,0.0992 0.728637,0.0992 h 46.99971 c 0.29093,-1e-4 0.53175,-0.0327 0.72864,-0.0992 0.13676,-0.0462 0.26349,-0.11232 0.37259,-0.20722 0.095,-0.0826 0.16977,-0.18114 0.22738,-0.29301 0.062,-0.12041 0.10184,-0.25178 0.12764,-0.38447 0.0326,-0.16783 0.0439,-0.34583 0.0439,-0.51625 v -42.49095 c 0,-0.24943 -0.0234,-0.47076 -0.091,-0.65835 -0.0448,-0.12442 -0.10894,-0.23303 -0.19844,-0.33073 -0.0745,-0.0812 -0.16145,-0.14883 -0.25425,-0.20723 -0.12469,-0.0784 -0.26567,-0.1435 -0.40102,-0.1974 -8.50999,-3.39007 -17.64043,-4.94313 -26.79268,-4.55734 z"
       sodipodi:nodetypes="ccccccssccccsccsccsscsccsssscsssscccsscscccccsscssccccsccsccssccccsccsccsccccccccccsssssccscscscsscccccc" /><g
       id="g1"
       inkscape:label="Alignment marks"
       style="display:none;stroke-width:0.01;stroke-dasharray:none"><path
         style="fill:none;stroke:#000000;stroke-width:0.0377953;stroke-dasharray:none"
         d="m -111.496,1018.58 -3.78,-3.78"
         id="path40"
         transform="matrix(0.26458333,0,0,0.26458333,105.02768,-120.50028)" /><path
         style="display:inline;fill:none;stroke:#000000;stroke-width:0.0377953;stroke-dasharray:none"
         d="m -111.496,1014.8 -3.78,3.78"
         id="path39"
         transform="matrix(0.26458333,0,0,0.26458333,105.02768,-120.50028)" /><path
         style="fill:none;stroke:#000000;stroke-width:0.0377953;stroke-dasharray:none"
         d="m 111.496,1014.8 3.78,3.78"
         id="path37"
         transform="matrix(0.26458333,0,0,0.26458333,105.02768,-120.50028)" /><path
         style="fill:none;stroke:#000000;stroke-width:0.0377953;stroke-dasharray:none"
         d="m 111.496,1018.58 3.78,-3.78"
         id="path38"
         transform="matrix(0.26458333,0,0,0.26458333,105.02768,-120.50028)" /></g></g></svg>
