0
SECTION
2
HEADER
9
$INSUNITS
70
4
9
$ACADVER
1
AC1014
9
$HANDSEED
5
FFFF
0
ENDSEC
0
SECTION
2
TABLES
0
TABLE
2
VPORT
5
8
100
AcDbSymbolTable
0
ENDTAB
0
TABLE
2
LTYPE
5
5
100
AcDbSymbolTable
0
LTYPE
5
14
100
AcDbSymbolTableRecord
100
AcDbLinetypeTableRecord
2
BYBLOCK
70
0
0
LTYPE
5
15
100
AcDbSymbolTableRecord
100
AcDbLinetypeTableRecord
2
BYLAYER
70
0
0
ENDTAB
0
TABLE
2
LAYER
5
2
100
AcDbSymbolTable
70
2
0
LAYER
5
50
100
AcDbSymbolTableRecord
100
AcDbLayerTableRecord
2
0
70
0
6
CONTINUOUS
0
ENDTAB
0
TABLE
2
STYLE
5
3
100
AcDbSymbolTable
70
1
0
STYLE
5
11
100
AcDbSymbolTableRecord
100
AcDbTextStyleTableRecord
2
STANDARD
70
0
0
ENDTAB
0
TABLE
2
VIEW
5
6
100
AcDbSymbolTable
70
0
0
ENDTAB
0
TABLE
2
UCS
5
7
100
AcDbSymbolTable
70
0
0
ENDTAB
0
TABLE
2
APPID
5
9
100
AcDbSymbolTable
70
2
0
APPID
5
12
100
AcDbSymbolTableRecord
100
AcDbRegAppTableRecord
2
ACAD
70
0
0
ENDTAB
0
TABLE
2
DIMSTYLE
5
A
100
AcDbSymbolTable
70
1
0
ENDTAB
0
TABLE
2
BLOCK_RECORD
5
1
100
AcDbSymbolTable
70
1
0
BLOCK_RECORD
5
1F
100
AcDbSymbolTableRecord
100
AcDbBlockTableRecord
2
*MODEL_SPACE
0
BLOCK_RECORD
5
1B
100
AcDbSymbolTableRecord
100
AcDbBlockTableRecord
2
*PAPER_SPACE
0
ENDTAB
0
ENDSEC
0
SECTION
2
BLOCKS
0
BLOCK
5
20
100
AcDbEntity
100
AcDbBlockBegin
2
*MODEL_SPACE
0
ENDBLK
5
21
100
AcDbEntity
100
AcDbBlockEnd
0
BLOCK
5
1C
100
AcDbEntity
100
AcDbBlockBegin
2
*PAPER_SPACE
0
ENDBLK
5
1D
100
AcDbEntity
100
AcDbBlockEnd
0
ENDSEC
0
SECTION
2
ENTITIES
0
CIRCLE
5
100
100
AcDbEntity
8
0
100
AcDbCircle
10
30.000000000000018
20
12.000000000000002
30
0
40
1.0000000000000009
210
0
220
-0
230
1
0
CIRCLE
5
101
100
AcDbEntity
8
0
100
AcDbCircle
10
-30
20
44
30
0
40
1.0000000000000009
210
0
220
-0
230
1
0
CIRCLE
5
102
100
AcDbEntity
8
0
100
AcDbCircle
10
30.000000000000018
20
44
30
0
40
1.0000000000000009
210
0
220
-0
230
1
0
CIRCLE
5
103
100
AcDbEntity
8
0
100
AcDbCircle
10
-30
20
12.000000000000002
30
0
40
1.0000000000000009
210
0
220
-0
230
1
0
ARC
5
104
100
AcDbEntity
8
0
100
AcDbCircle
10
0
20
-14.99999999999995
30
0
40
64.999999999999943
210
0
220
-0
230
1
100
AcDbArc
50
68.279526526586494
51
111.72047347341346
0
SPLINE
5
105
100
AcDbEntity
8
0
100
AcDbSpline
70
0
71
3
72
14
73
10
74
0
42
0.000000001
43
0.0000000001
44
0.0000000001
40
0
40
0
40
0
40
0
40
0.074791184665100666
40
0.074791184665100666
40
0.12439855712303559
40
0.12439855712303559
40
0.165650162199969
40
0.165650162199969
40
0.22106275913696613
40
0.22106275913696613
40
0.22106275913696613
40
0.22106275913696613
10
25
20
43.991524815010493
30
0
10
25
20
44.240828763894164
30
0
10
24.976528933807998
20
44.461690072618893
30
0
10
24.864164552858327
20
44.773693181277537
30
0
10
24.800228576151074
20
44.882690469578826
30
0
10
24.636226801154592
20
45.061553965017808
30
0
10
24.549174455703884
20
45.129244933091222
30
0
10
24.331665985875922
20
45.266004809374962
30
0
10
24.190457195219665
20
45.331111410884183
30
0
10
24.055118110236229
20
45.385025401191839
30
0
0
LINE
5
106
100
AcDbEntity
8
0
100
AcDbLine
10
25
20
43.991524815010493
30
0
11
25
21
1.5000000000000036
31
0
0
SPLINE
5
107
100
AcDbEntity
8
0
100
AcDbSpline
70
0
71
3
72
16
73
12
74
0
42
0.000000001
43
0.0000000001
44
0.0000000001
40
0
40
0
40
0
40
0
40
0.087277801542321259
40
0.087277801542321259
40
0.14789158875672731
40
0.14789158875672731
40
0.20066427935357886
40
0.20066427935357886
40
0.25748144240817833
40
0.25748144240817833
40
0.32934441383828333
40
0.32934441383828333
40
0.32934441383828333
40
0.32934441383828333
10
23.5
20
0
30
0
10
23.790926005141074
20
0
30
0
10
24.031356137796472
20
0.032803675374584548
30
0
10
24.364998202228016
20
0.14552294582250624
30
0
10
24.492055914067837
20
0.21180501872346449
30
0
10
24.696156828726181
20
0.38929447528567296
30
0
10
24.770608201632559
20
0.48749894899959223
30
0
10
24.890258711222209
20
0.71976813877821866
30
0
10
24.930332251245709
20
0.85139468836328225
30
0
10
24.988743227226383
20
1.1519239591111554
30
0
10
25
20
1.3295770016833899
30
0
10
25
20
1.5000000000000002
30
0
0
LINE
5
108
100
AcDbEntity
8
0
100
AcDbLine
10
23.5
20
0
30
0
11
-23.5
21
0
31
0
0
SPLINE
5
109
100
AcDbEntity
8
0
100
AcDbSpline
70
0
71
3
72
16
73
12
74
0
42
0.000000001
43
0.0000000001
44
0.0000000001
40
0
40
0
40
0
40
0
40
0.087277801542321259
40
0.087277801542321259
40
0.14789158875672731
40
0.14789158875672731
40
0.20066427935357886
40
0.20066427935357886
40
0.25748144240817833
40
0.25748144240817833
40
0.32934441383828333
40
0.32934441383828333
40
0.32934441383828333
40
0.32934441383828333
10
-23.5
20
0
30
0
10
-23.790926005141074
20
0
30
0
10
-24.031356137796472
20
0.032803675374584548
30
0
10
-24.364998202228016
20
0.14552294582250624
30
0
10
-24.492055914067837
20
0.21180501872346449
30
0
10
-24.696156828726181
20
0.38929447528567296
30
0
10
-24.770608201632559
20
0.48749894899959223
30
0
10
-24.890258711222209
20
0.71976813877821866
30
0
10
-24.930332251245709
20
0.85139468836328225
30
0
10
-24.988743227226383
20
1.1519239591111554
30
0
10
-25
20
1.3295770016833899
30
0
10
-25
20
1.5000000000000002
30
0
0
LINE
5
110
100
AcDbEntity
8
0
100
AcDbLine
10
-25
20
1.5000000000000002
30
0
11
-25
21
43.991524815010493
31
0
0
SPLINE
5
111
100
AcDbEntity
8
0
100
AcDbSpline
70
0
71
3
72
14
73
10
74
0
42
0.000000001
43
0.0000000001
44
0.0000000001
40
0
40
0
40
0
40
0
40
0.074791184665100666
40
0.074791184665100666
40
0.12439855712303559
40
0.12439855712303559
40
0.165650162199969
40
0.165650162199969
40
0.22106275913696613
40
0.22106275913696613
40
0.22106275913696613
40
0.22106275913696613
10
-25
20
43.991524815010493
30
0
10
-25
20
44.240828763894164
30
0
10
-24.976528933807998
20
44.461690072618893
30
0
10
-24.864164552858327
20
44.773693181277537
30
0
10
-24.800228576151074
20
44.882690469578826
30
0
10
-24.636226801154592
20
45.061553965017808
30
0
10
-24.549174455703884
20
45.129244933091222
30
0
10
-24.331665985875922
20
45.266004809374962
30
0
10
-24.190457195219665
20
45.331111410884183
30
0
10
-24.055118110236229
20
45.385025401191839
30
0
0
LINE
5
112
100
AcDbEntity
8
0
100
AcDbLine
10
25.500000000000792
20
78.000000000000981
30
0
11
-25.500000000000792
21
78.000000000000981
31
0
0
ARC
5
113
100
AcDbEntity
8
0
100
AcDbCircle
10
-25.500000000000398
20
76.500000000000966
30
0
40
1.5000000000000036
210
0
220
0
230
1
100
AcDbArc
50
90.000000000015049
51
180
0
LINE
5
114
100
AcDbEntity
8
0
100
AcDbLine
10
-27.000000000000398
20
76.500000000000981
30
0
11
-27.000000000000412
21
75.32842712474681
31
0
0
ARC
5
115
100
AcDbEntity
8
0
100
AcDbCircle
10
-25.500000000000412
20
75.328427124746796
30
0
40
1.4999999999999991
210
0
220
0
230
1
100
AcDbArc
50
180
51
250.52877936551101
0
ARC
5
116
100
AcDbEntity
8
0
100
AcDbCircle
10
-26.500000000000302
20
72.500000000000597
30
0
40
1.4999999999999631
210
0
220
-0
230
1
100
AcDbArc
50
16.874494297943201
51
70.528779365511696
0
ARC
5
117
100
AcDbEntity
8
0
100
AcDbCircle
10
-23.62917130661334
20
73.370828693387494
30
0
40
1.5000000000000022
210
0
220
0
230
1
100
AcDbArc
50
196.87449429794279
51
253.12550570205065
0
ARC
5
118
100
AcDbEntity
8
0
100
AcDbCircle
10
-24.500000000000579
20
70.500000000000597
30
0
40
1.500000000000008
210
0
220
0
230
1
100
AcDbArc
50
0
51
73.125505702050148
0
LINE
5
119
100
AcDbEntity
8
0
100
AcDbLine
10
-23.000000000000572
20
70.499999999999574
30
0
11
-23.000000000006715
21
61.499999999998984
31
0
0
ARC
5
120
100
AcDbEntity
8
0
100
AcDbCircle
10
-24.500000000006708
20
61.499999999999993
30
0
40
1.4999999999999947
210
0
220
0
230
1
100
AcDbArc
50
269.99999999999983
51
360
0
LINE
5
121
100
AcDbEntity
8
0
100
AcDbLine
10
-24.500000000006711
20
60
30
0
11
-39.5
21
60
31
0
0
SPLINE
5
122
100
AcDbEntity
8
0
100
AcDbSpline
70
0
71
3
72
16
73
12
74
0
42
0.000000001
43
0.0000000001
44
0.0000000001
40
0
40
0
40
0
40
0
40
0.087277801542403069
40
0.087277801542403069
40
0.14789158875696776
40
0.14789158875696776
40
0.20066427935395625
40
0.20066427935395625
40
0.25748144240866427
40
0.25748144240866427
40
0.32934441383887347
40
0.32934441383887347
40
0.32934441383887347
40
0.32934441383887347
10
-39.5
20
60
30
0
10
-39.790926005141344
20
60
30
0
10
-40.031356137796656
20
59.967196324625355
30
0
10
-40.364998202228122
20
59.854477054177451
30
0
10
-40.492055914067855
20
59.78819498127649
30
0
10
-40.696156828726146
20
59.610705524714341
30
0
10
-40.770608201632513
20
59.512501051000498
30
0
10
-40.890258711222188
20
59.280231861221814
30
0
10
-40.930332251245702
20
59.148605311636793
30
0
10
-40.988743227226372
20
58.848076040888856
30
0
10
-41
20
58.670422998316624
30
0
10
-41
20
58.5
30
0
0
LINE
5
123
100
AcDbEntity
8
0
100
AcDbLine
10
-41
20
58.499999999999986
30
0
11
-41
21
54
31
0
0
SPLINE
5
124
100
AcDbEntity
8
0
100
AcDbSpline
70
0
71
3
72
16
73
12
74
0
42
0.000000001
43
0.0000000001
44
0.0000000001
40
0
40
0
40
0
40
0
40
0.08727780154296931
40
0.08727780154296931
40
0.14789158875830616
40
0.14789158875830616
40
0.20066427935598477
40
0.20066427935598477
40
0.25748144241147852
40
0.25748144241147852
40
0.3293444138426827
40
0.3293444138426827
40
0.3293444138426827
40
0.3293444138426827
10
-41
20
54
30
0
10
-41
20
53.709073994856773
30
0
10
-40.967196324624922
20
53.468643862202057
30
0
10
-40.85447705417748
20
53.135001797771928
30
0
10
-40.788194981276511
20
53.007944085932152
30
0
10
-40.610705524714305
20
52.803843171273797
30
0
10
-40.512501051000356
20
52.729391798367416
30
0
10
-40.280231861221765
20
52.609741288777798
30
0
10
-40.148605311636743
20
52.569667748754291
30
0
10
-39.848076040888827
20
52.511256772773613
30
0
10
-39.670422998316582
20
52.5
30
0
10
-39.5
20
52.5
30
0
0
ARC
5
125
100
AcDbEntity
8
0
100
AcDbCircle
10
-39.499999999999993
20
50.999999999999986
30
0
40
1.500000000000008
210
0
220
-0
230
1
100
AcDbArc
50
0
51
90.00000000000027
0
ARC
5
126
100
AcDbEntity
8
0
100
AcDbCircle
10
-36.499999999999986
20
51.000000000000007
30
0
40
1.4999999999999991
210
0
220
0
230
1
100
AcDbArc
50
180
51
270
0
ARC
5
127
100
AcDbEntity
8
0
100
AcDbCircle
10
-36.499999999999993
20
48.000000000000007
30
0
40
1.4999999999999947
210
0
220
0
230
1
100
AcDbArc
50
0
51
89.99999999999973
0
LINE
5
128
100
AcDbEntity
8
0
100
AcDbLine
10
-35
20
48
30
0
11
-35
21
4.5000000000000018
31
0
0
ARC
5
129
100
AcDbEntity
8
0
100
AcDbCircle
10
-36.5
20
4.5
30
0
40
1.499999999999998
210
0
220
0
230
1
100
AcDbArc
50
-90
51
0
0
ARC
5
130
100
AcDbEntity
8
0
100
AcDbCircle
10
-36.5
20
1.5000000000000002
30
0
40
1.5000000000000013
210
0
220
-0
230
1
100
AcDbArc
50
90
51
180
0
ARC
5
131
100
AcDbEntity
8
0
100
AcDbCircle
10
-39.5
20
1.4999999999999973
30
0
40
1.4999999999999982
210
0
220
0
230
1
100
AcDbArc
50
-90
51
0
0
SPLINE
5
132
100
AcDbEntity
8
0
100
AcDbSpline
70
0
71
3
72
16
73
12
74
0
42
0.000000001
43
0.0000000001
44
0.0000000001
40
0
40
0
40
0
40
0
40
0.087277801542390898
40
0.087277801542390898
40
0.14789158875689346
40
0.14789158875689346
40
0.20066427935384609
40
0.20066427935384609
40
0.25748144240858034
40
0.25748144240858034
40
0.3293444138388022
40
0.3293444138388022
40
0.3293444138388022
40
0.3293444138388022
10
-39.5
20
-6.919699470596815e-16
30
0
10
-39.790926005141301
20
-6.6542616193243721e-16
30
0
10
-40.031356137796628
20
-0.032803675374637659
30
0
10
-40.364998202228023
20
-0.14552294582251452
30
0
10
-40.492055914067848
20
-0.21180501872347571
30
0
10
-40.696156828726217
20
-0.38929447528570682
30
0
10
-40.770608201632584
20
-0.48749894899968549
30
0
10
-40.890258711222181
20
-0.71976813877820833
30
0
10
-40.930332251245687
20
-0.85139468836319776
30
0
10
-40.988743227226379
20
-1.1519239591111634
30
0
10
-41
20
-1.3295770016833897
30
0
10
-41
20
-1.5000000000000009
30
0
0
LINE
5
133
100
AcDbEntity
8
0
100
AcDbLine
10
-41
20
-1.5000000000000009
30
0
11
-41
21
-2.5000000000000004
31
0
0
SPLINE
5
134
100
AcDbEntity
8
0
100
AcDbSpline
70
0
71
3
72
16
73
12
74
0
42
0.000000001
43
0.0000000001
44
0.0000000001
40
0
40
0
40
0
40
0
40
0.087277801542243238
40
0.087277801542243238
40
0.14789158875656855
40
0.14789158875656855
40
0.20066427935335199
40
0.20066427935335199
40
0.25748144240785892
40
0.25748144240785892
40
0.32934441383782626
40
0.32934441383782626
40
0.32934441383782626
40
0.32934441383782626
10
-41
20
-2.5000000000000004
30
0
10
-41
20
-2.7909260051408111
30
0
10
-40.967196324625462
20
-3.0313561377962972
30
0
10
-40.854477054177465
20
-3.3649982022280787
30
0
10
-40.788194981276504
20
-3.492055914067842
30
0
10
-40.610705524714334
20
-3.6961568287261599
30
0
10
-40.512501051000442
20
-3.7706082016325393
30
0
10
-40.280231861221779
20
-3.890258711222204
30
0
10
-40.148605311636736
20
-3.9303322512457068
30
0
10
-39.848076040888849
20
-3.9887432272263803
30
0
10
-39.670422998316646
20
-4.0000000000000009
30
0
10
-39.5
20
-4.0000000000000009
30
0
0
LINE
5
135
100
AcDbEntity
8
0
100
AcDbLine
10
-39.5
20
-4.0000000000000009
30
0
11
39.5
21
-4.0000000000000009
31
0
0
SPLINE
5
136
100
AcDbEntity
8
0
100
AcDbSpline
70
0
71
3
72
16
73
12
74
0
42
0.000000001
43
0.0000000001
44
0.0000000001
40
0
40
0
40
0
40
0
40
0.087277801542243238
40
0.087277801542243238
40
0.14789158875656855
40
0.14789158875656855
40
0.20066427935335199
40
0.20066427935335199
40
0.25748144240785892
40
0.25748144240785892
40
0.32934441383782626
40
0.32934441383782626
40
0.32934441383782626
40
0.32934441383782626
10
41
20
-2.5000000000000004
30
0
10
41
20
-2.7909260051408111
30
0
10
40.967196324625462
20
-3.0313561377962972
30
0
10
40.854477054177465
20
-3.3649982022280787
30
0
10
40.788194981276504
20
-3.492055914067842
30
0
10
40.610705524714334
20
-3.6961568287261599
30
0
10
40.512501051000442
20
-3.7706082016325393
30
0
10
40.280231861221779
20
-3.890258711222204
30
0
10
40.148605311636736
20
-3.9303322512457068
30
0
10
39.848076040888849
20
-3.9887432272263803
30
0
10
39.670422998316646
20
-4.0000000000000009
30
0
10
39.5
20
-4.0000000000000009
30
0
0
LINE
5
137
100
AcDbEntity
8
0
100
AcDbLine
10
41
20
-2.5000000000000004
30
0
11
41
21
-1.5000000000000009
31
0
0
SPLINE
5
138
100
AcDbEntity
8
0
100
AcDbSpline
70
0
71
3
72
16
73
12
74
0
42
0.000000001
43
0.0000000001
44
0.0000000001
40
0
40
0
40
0
40
0
40
0.087277801542390898
40
0.087277801542390898
40
0.14789158875689346
40
0.14789158875689346
40
0.20066427935384609
40
0.20066427935384609
40
0.25748144240858034
40
0.25748144240858034
40
0.3293444138388022
40
0.3293444138388022
40
0.3293444138388022
40
0.3293444138388022
10
39.5
20
-6.919699470596815e-16
30
0
10
39.790926005141301
20
-6.6542616193243721e-16
30
0
10
40.031356137796628
20
-0.032803675374637659
30
0
10
40.364998202228023
20
-0.14552294582251452
30
0
10
40.492055914067848
20
-0.21180501872347571
30
0
10
40.696156828726217
20
-0.38929447528570682
30
0
10
40.770608201632584
20
-0.48749894899968549
30
0
10
40.890258711222181
20
-0.71976813877820833
30
0
10
40.930332251245687
20
-0.85139468836319776
30
0
10
40.988743227226379
20
-1.1519239591111634
30
0
10
41
20
-1.3295770016833897
30
0
10
41
20
-1.5000000000000009
30
0
0
ARC
5
139
100
AcDbEntity
8
0
100
AcDbCircle
10
39.5
20
1.4999999999999993
30
0
40
1.4999999999999991
210
0
220
0
230
1
100
AcDbArc
50
180
51
270
0
ARC
5
140
100
AcDbEntity
8
0
100
AcDbCircle
10
36.5
20
1.500000000000006
30
0
40
1.4999999999999991
210
0
220
0
230
1
100
AcDbArc
50
0
51
90
0
ARC
5
141
100
AcDbEntity
8
0
100
AcDbCircle
10
36.5
20
4.5000000000000018
30
0
40
1.4999999999999991
210
0
220
0
230
1
100
AcDbArc
50
180
51
270
0
LINE
5
142
100
AcDbEntity
8
0
100
AcDbLine
10
35.000000000000007
20
4.5000000000000018
30
0
11
35
21
48
31
0
0
ARC
5
143
100
AcDbEntity
8
0
100
AcDbCircle
10
36.5
20
48
30
0
40
1.5000000000000036
210
0
220
0
230
1
100
AcDbArc
50
90.00000000000054
51
180
0
ARC
5
144
100
AcDbEntity
8
0
100
AcDbCircle
10
36.499999999999993
20
50.999999999999986
30
0
40
1.4999999999999858
210
0
220
0
230
1
100
AcDbArc
50
-90.000000000000313
51
0
0
ARC
5
145
100
AcDbEntity
8
0
100
AcDbCircle
10
39.499999999999986
20
51
30
0
40
1.5000000000000036
210
0
220
-0
230
1
100
AcDbArc
50
89.99999999999946
51
180
0
SPLINE
5
146
100
AcDbEntity
8
0
100
AcDbSpline
70
0
71
3
72
16
73
12
74
0
42
0.000000001
43
0.0000000001
44
0.0000000001
40
0
40
0
40
0
40
0
40
0.08727780154296931
40
0.08727780154296931
40
0.14789158875830616
40
0.14789158875830616
40
0.20066427935598477
40
0.20066427935598477
40
0.25748144241147852
40
0.25748144241147852
40
0.3293444138426827
40
0.3293444138426827
40
0.3293444138426827
40
0.3293444138426827
10
41
20
54
30
0
10
41
20
53.709073994856773
30
0
10
40.967196324624922
20
53.468643862202057
30
0
10
40.85447705417748
20
53.135001797771928
30
0
10
40.788194981276511
20
53.007944085932152
30
0
10
40.610705524714305
20
52.803843171273797
30
0
10
40.512501051000356
20
52.729391798367416
30
0
10
40.280231861221765
20
52.609741288777798
30
0
10
40.148605311636743
20
52.569667748754291
30
0
10
39.848076040888827
20
52.511256772773613
30
0
10
39.670422998316582
20
52.5
30
0
10
39.5
20
52.5
30
0
0
LINE
5
147
100
AcDbEntity
8
0
100
AcDbLine
10
41
20
54
30
0
11
41
21
58.5
31
0
0
SPLINE
5
148
100
AcDbEntity
8
0
100
AcDbSpline
70
0
71
3
72
16
73
12
74
0
42
0.000000001
43
0.0000000001
44
0.0000000001
40
0
40
0
40
0
40
0
40
0.087277801542403069
40
0.087277801542403069
40
0.14789158875696776
40
0.14789158875696776
40
0.20066427935395625
40
0.20066427935395625
40
0.25748144240866427
40
0.25748144240866427
40
0.32934441383887347
40
0.32934441383887347
40
0.32934441383887347
40
0.32934441383887347
10
39.5
20
60
30
0
10
39.790926005141344
20
60
30
0
10
40.031356137796656
20
59.967196324625355
30
0
10
40.364998202228122
20
59.854477054177451
30
0
10
40.492055914067855
20
59.78819498127649
30
0
10
40.696156828726146
20
59.610705524714341
30
0
10
40.770608201632513
20
59.512501051000498
30
0
10
40.890258711222188
20
59.280231861221814
30
0
10
40.930332251245702
20
59.148605311636793
30
0
10
40.988743227226372
20
58.848076040888856
30
0
10
41
20
58.670422998316624
30
0
10
41
20
58.5
30
0
0
LINE
5
149
100
AcDbEntity
8
0
100
AcDbLine
10
39.5
20
60
30
0
11
24.500000000006711
21
60
31
0
0
ARC
5
150
100
AcDbEntity
8
0
100
AcDbCircle
10
24.500000000006711
20
61.5
30
0
40
1.4999999999999991
210
0
220
0
230
1
100
AcDbArc
50
180
51
270
0
LINE
5
151
100
AcDbEntity
8
0
100
AcDbLine
10
23.000000000006715
20
61.499999999998984
30
0
11
23.000000000000572
21
70.499999999999574
31
0
0
ARC
5
152
100
AcDbEntity
8
0
100
AcDbCircle
10
24.500000000000568
20
70.500000000000597
30
0
40
1.5000000000000033
210
0
220
0
230
1
100
AcDbArc
50
106.87449429794947
51
180
0
ARC
5
153
100
AcDbEntity
8
0
100
AcDbCircle
10
23.629171306613308
20
73.370828693387523
30
0
40
1.500000000000028
210
0
220
0
230
1
100
AcDbArc
50
286.87449429795021
51
343.12550570205644
0
ARC
5
154
100
AcDbEntity
8
0
100
AcDbCircle
10
26.500000000000327
20
72.500000000000583
30
0
40
1.5000000000000002
210
0
220
0
230
1
100
AcDbArc
50
109.47122063448903
51
163.12550570205661
0
ARC
5
155
100
AcDbEntity
8
0
100
AcDbCircle
10
25.500000000000426
20
75.328427124746781
30
0
40
1.4999999999999876
210
0
220
0
230
1
100
AcDbArc
50
-70.528779365511298
51
0
0
LINE
5
156
100
AcDbEntity
8
0
100
AcDbLine
10
27.000000000000412
20
75.32842712474681
30
0
11
27.000000000000391
21
76.500000000000995
31
0
0
ARC
5
157
100
AcDbEntity
8
0
100
AcDbCircle
10
25.500000000000394
20
76.500000000000966
30
0
40
1.4999999999999991
210
0
220
-0
230
1
100
AcDbArc
50
0
51
89.999999999984809
0
LINE
5
158
100
AcDbEntity
8
0
100
AcDbLine
10
29.500000000000007
20
28.499999999999996
30
0
11
30.500000000000021
21
27.500000000000004
31
0
0
LINE
5
159
100
AcDbEntity
8
0
100
AcDbLine
10
29.500000000000014
20
27.499999999999996
30
0
11
30.500000000000021
21
28.500000000000011
31
0
0
LINE
5
160
100
AcDbEntity
8
0
100
AcDbLine
10
-29.500000000000007
20
28.499999999999996
30
0
11
-30.500000000000021
21
27.5
31
0
0
LINE
5
161
100
AcDbEntity
8
0
100
AcDbLine
10
-29.500000000000014
20
27.499999999999996
30
0
11
-30.500000000000021
21
28.500000000000011
31
0
0
ENDSEC
0
SECTION
2
OBJECTS
0
DICTIONARY
5
C
100
AcDbDictionary
3
ACAD_GROUP
350
D
3
ACAD_MLINESTYLE
350
17
0
DICTIONARY
5
D
100
AcDbDictionary
0
DICTIONARY
5
1A
330
C
100
AcDbDictionary
0
DICTIONARY
5
17
100
AcDbDictionary
0
ENDSEC
0
EOF
