999
"DXF R12 Output" (www.mydxf.blogspot.com)
 0 
SECTION
 2 
HEADER
 9 
$ACADVER
 1 
AC1009
 9 
$EXTMIN
 10 
 0 
 20 
 0 
 9 
$EXTMAX
 10 
 8.5 
 20 
 11 
 0 
ENDSEC
 0 
SECTION
 2 
ENTITIES
0
LINE
8
Layer 1
10
0.793749
20
82.793949
11
-0.793749
21
81.206451
0
LINE
8
Layer 1
10
0.000000
20
83.323115
11
0.000000
21
80.677285
0
LINE
8
Layer 1
10
2.116664
20
80.941868
11
1.058332
21
79.883536
0
LINE
8
Layer 1
10
1.587498
20
81.471034
11
0.529166
21
80.412702
0
LINE
8
Layer 1
10
1.058332
20
82.000200
11
0.000000
21
80.941868
0
LINE
8
Layer 1
10
22.514174
20
75.817009
11
22.514174
21
73.971637
0
LINE
8
Layer 1
10
22.514174
20
73.971637
11
17.854515
21
73.971637
0
LINE
8
Layer 1
10
17.854515
20
73.971637
11
17.854515
21
73.567526
0
LINE
8
Layer 1
10
17.854515
20
73.567526
11
19.824936
21
73.567526
0
LINE
8
Layer 1
10
19.824936
20
73.567526
11
19.827536
21
71.583144
0
LINE
8
Layer 1
10
19.827536
20
71.583144
11
17.854531
21
71.583144
0
LINE
8
Layer 1
10
17.854531
20
71.583144
11
17.854531
21
71.181100
0
LINE
8
Layer 1
10
17.854531
20
71.181100
11
22.514190
21
71.181100
0
LINE
8
Layer 1
10
22.514190
20
71.181100
11
22.514190
21
69.196200
0
LINE
8
Layer 1
10
22.514190
20
69.196200
11
17.854515
21
69.196200
0
LINE
8
Layer 1
10
17.854515
20
69.196200
11
17.854515
21
68.792089
0
LINE
8
Layer 1
10
17.854515
20
68.792089
11
19.824936
21
68.792089
0
LINE
8
Layer 1
10
19.824936
20
68.792089
11
19.827536
21
66.807707
0
LINE
8
Layer 1
10
19.827536
20
66.807707
11
17.854531
21
66.807707
0
LINE
8
Layer 1
10
17.854531
20
66.807707
11
17.854531
21
66.403595
0
LINE
8
Layer 1
10
17.854531
20
66.403595
11
22.514190
21
66.403595
0
LINE
8
Layer 1
10
22.514190
20
66.403595
11
22.514190
21
64.217158
0
LINE
8
Layer 1
10
22.514190
20
64.217158
11
22.713145
21
64.017170
0
LINE
8
Layer 1
10
22.713145
20
64.017170
11
22.910548
21
64.217158
0
LINE
8
Layer 1
10
22.910548
20
64.217158
11
22.910548
21
66.403595
0
LINE
8
Layer 1
10
22.910548
20
66.403595
11
27.726787
21
66.403595
0
LINE
8
Layer 1
10
27.726787
20
66.403595
11
27.726787
21
64.217158
0
LINE
8
Layer 1
10
27.726787
20
64.217158
11
27.924191
21
64.017170
0
LINE
8
Layer 1
10
27.924191
20
64.017170
11
28.123662
21
64.217158
0
LINE
8
Layer 1
10
28.123662
20
64.217158
11
28.123662
21
66.403595
0
LINE
8
Layer 1
10
28.123662
20
66.403595
11
32.937834
21
66.403595
0
LINE
8
Layer 1
10
32.937834
20
66.403595
11
32.937834
21
64.217158
0
LINE
8
Layer 1
10
32.937834
20
64.217158
11
33.136788
21
64.017170
0
LINE
8
Layer 1
10
33.136788
20
64.017170
11
33.336258
21
64.217158
0
LINE
8
Layer 1
10
33.336258
20
64.217158
11
33.336258
21
66.403595
0
LINE
8
Layer 1
10
33.336258
20
66.403595
11
38.150431
21
66.403595
0
LINE
8
Layer 1
10
38.150431
20
66.403595
11
38.150431
21
64.217158
0
LINE
8
Layer 1
10
38.150431
20
64.217158
11
38.349901
21
64.017170
0
LINE
8
Layer 1
10
38.349901
20
64.017170
11
38.547305
21
64.217158
0
LINE
8
Layer 1
10
38.547305
20
64.217158
11
38.547305
21
66.403595
0
LINE
8
Layer 1
10
38.547305
20
66.403595
11
43.363544
21
66.403595
0
LINE
8
Layer 1
10
43.363544
20
66.403595
11
43.363544
21
64.217158
0
LINE
8
Layer 1
10
43.363544
20
64.217158
11
43.560430
21
64.017170
0
LINE
8
Layer 1
10
43.560430
20
64.017170
11
43.759902
21
64.217158
0
LINE
8
Layer 1
10
43.759902
20
64.217158
11
43.759902
21
66.403595
0
LINE
8
Layer 1
10
43.759902
20
66.403595
11
48.574073
21
66.403595
0
LINE
8
Layer 1
10
48.574073
20
66.403595
11
48.574073
21
64.217158
0
LINE
8
Layer 1
10
48.574073
20
64.217158
11
48.773545
21
64.017170
0
LINE
8
Layer 1
10
48.773545
20
64.017170
11
48.972498
21
64.217158
0
LINE
8
Layer 1
10
48.972498
20
64.217158
11
48.972498
21
66.403595
0
LINE
8
Layer 1
10
48.972498
20
66.403595
11
53.787186
21
66.403595
0
LINE
8
Layer 1
10
53.787186
20
66.403595
11
53.787186
21
64.217158
0
LINE
8
Layer 1
10
53.787186
20
64.217158
11
53.986141
21
64.017170
0
LINE
8
Layer 1
10
53.986141
20
64.017170
11
54.183544
21
64.217158
0
LINE
8
Layer 1
10
54.183544
20
64.217158
11
54.183544
21
66.403595
0
LINE
8
Layer 1
10
54.183544
20
66.403595
11
58.999783
21
66.403595
0
LINE
8
Layer 1
10
58.999783
20
66.403595
11
58.999783
21
64.217158
0
LINE
8
Layer 1
10
58.999783
20
64.217158
11
59.197187
21
64.017170
0
LINE
8
Layer 1
10
59.197187
20
64.017170
11
59.396141
21
64.217158
0
LINE
8
Layer 1
10
59.396141
20
64.217158
11
59.396141
21
66.403595
0
LINE
8
Layer 1
10
59.396141
20
66.403595
11
64.158120
21
66.403595
0
LINE
8
Layer 1
10
64.158120
20
66.403595
11
64.158120
21
66.807707
0
LINE
8
Layer 1
10
64.158120
20
66.807707
11
61.952055
21
66.807707
0
LINE
8
Layer 1
10
61.952055
20
66.807707
11
61.948955
21
68.792089
0
LINE
8
Layer 1
10
61.948955
20
68.792089
11
64.158121
21
68.792089
0
LINE
8
Layer 1
10
64.158121
20
68.792089
11
64.158121
21
69.196200
0
LINE
8
Layer 1
10
64.158121
20
69.196200
11
59.396142
21
69.196200
0
LINE
8
Layer 1
10
59.396142
20
69.196200
11
59.396142
21
71.181100
0
LINE
8
Layer 1
10
59.396142
20
71.181100
11
64.158121
21
71.181100
0
LINE
8
Layer 1
10
64.158121
20
71.181100
11
64.158121
21
71.583144
0
LINE
8
Layer 1
10
64.158121
20
71.583144
11
61.952056
21
71.583144
0
LINE
8
Layer 1
10
61.952056
20
71.583144
11
61.948956
21
73.567526
0
LINE
8
Layer 1
10
61.948956
20
73.567526
11
64.158122
21
73.567526
0
LINE
8
Layer 1
10
64.158122
20
73.567526
11
64.158122
21
73.971637
0
LINE
8
Layer 1
10
64.158122
20
73.971637
11
59.396143
21
73.971637
0
LINE
8
Layer 1
10
59.396143
20
73.971637
11
59.396143
21
75.817009
0
LINE
8
Layer 1
10
59.396143
20
75.817009
11
58.999785
21
75.817009
0
LINE
8
Layer 1
10
58.999785
20
75.817009
11
58.999785
21
73.971637
0
LINE
8
Layer 1
10
58.999785
20
73.971637
11
54.183546
21
73.971637
0
LINE
8
Layer 1
10
54.183546
20
73.971637
11
54.183546
21
75.817009
0
LINE
8
Layer 1
10
54.183546
20
75.817009
11
53.787188
21
75.817009
0
LINE
8
Layer 1
10
53.787188
20
75.817009
11
53.787188
21
73.971637
0
LINE
8
Layer 1
10
53.787188
20
73.971637
11
48.972500
21
73.971637
0
LINE
8
Layer 1
10
48.972500
20
73.971637
11
48.972500
21
75.817009
0
LINE
8
Layer 1
10
48.972500
20
75.817009
11
48.574075
21
75.817009
0
LINE
8
Layer 1
10
48.574075
20
75.817009
11
48.574075
21
73.971637
0
LINE
8
Layer 1
10
48.574075
20
73.971637
11
43.759904
21
73.971637
0
LINE
8
Layer 1
10
43.759904
20
73.971637
11
43.759904
21
75.817009
0
LINE
8
Layer 1
10
43.759904
20
75.817009
11
43.363546
21
75.817009
0
LINE
8
Layer 1
10
43.363546
20
75.817009
11
43.363546
21
73.971637
0
LINE
8
Layer 1
10
43.363546
20
73.971637
11
38.547307
21
73.971637
0
LINE
8
Layer 1
10
38.547307
20
73.971637
11
38.547307
21
75.817009
0
LINE
8
Layer 1
10
38.547307
20
75.817009
11
38.150433
21
75.817009
0
LINE
8
Layer 1
10
38.150433
20
75.817009
11
38.150433
21
73.971637
0
LINE
8
Layer 1
10
38.150433
20
73.971637
11
33.336260
21
73.971637
0
LINE
8
Layer 1
10
33.336260
20
73.971637
11
33.336260
21
75.817009
0
LINE
8
Layer 1
10
33.336260
20
75.817009
11
32.937836
21
75.817009
0
LINE
8
Layer 1
10
32.937836
20
75.817009
11
32.937836
21
73.971637
0
LINE
8
Layer 1
10
32.937836
20
73.971637
11
28.123664
21
73.971637
0
LINE
8
Layer 1
10
28.123664
20
73.971637
11
28.123664
21
75.817009
0
LINE
8
Layer 1
10
28.123664
20
75.817009
11
27.726789
21
75.817009
0
LINE
8
Layer 1
10
27.726789
20
75.817009
11
27.726789
21
73.971637
0
LINE
8
Layer 1
10
27.726789
20
73.971637
11
22.910550
21
73.971637
0
LINE
8
Layer 1
10
22.910550
20
73.971637
11
22.910550
21
75.817009
0
LINE
8
Layer 1
10
22.910550
20
75.817009
11
22.514174
21
75.817009
0
LINE
8
Layer 1
10
20.222843
20
73.567526
11
25.041667
21
73.567526
0
LINE
8
Layer 1
10
25.041667
20
73.567526
11
25.044267
21
71.583144
0
LINE
8
Layer 1
10
25.044267
20
71.583144
11
20.224926
21
71.583144
0
LINE
8
Layer 1
10
20.224926
20
71.583144
11
20.222843
21
73.567526
0
LINE
8
Layer 1
10
25.438025
20
73.567526
11
30.256330
21
73.567526
0
LINE
8
Layer 1
10
30.256330
20
73.567526
11
30.259430
21
71.583144
0
LINE
8
Layer 1
10
30.259430
20
71.583144
11
25.441124
21
71.583144
0
LINE
8
Layer 1
10
25.441124
20
71.583144
11
25.438025
21
73.567526
0
LINE
8
Layer 1
10
30.654239
20
73.567526
11
35.473061
21
73.567526
0
LINE
8
Layer 1
10
35.473061
20
73.567526
11
35.475661
21
71.583144
0
LINE
8
Layer 1
10
35.475661
20
71.583144
11
30.656322
21
71.583144
0
LINE
8
Layer 1
10
30.656322
20
71.583144
11
30.654239
21
73.567526
0
LINE
8
Layer 1
10
35.869419
20
73.567526
11
40.687725
21
73.567526
0
LINE
8
Layer 1
10
40.687725
20
73.567526
11
40.690825
21
71.583144
0
LINE
8
Layer 1
10
40.690825
20
71.583144
11
35.872520
21
71.583144
0
LINE
8
Layer 1
10
35.872520
20
71.583144
11
35.869419
21
73.567526
0
LINE
8
Layer 1
10
41.085633
20
73.567526
11
45.904455
21
73.567526
0
LINE
8
Layer 1
10
45.904455
20
73.567526
11
45.907555
21
71.583144
0
LINE
8
Layer 1
10
45.907555
20
71.583144
11
41.087699
21
71.583144
0
LINE
8
Layer 1
10
41.087699
20
71.583144
11
41.085633
21
73.567526
0
LINE
8
Layer 1
10
46.300813
20
73.567526
11
51.119119
21
73.567526
0
LINE
8
Layer 1
10
51.119119
20
73.567526
11
51.122219
21
71.583144
0
LINE
8
Layer 1
10
51.122219
20
71.583144
11
46.303914
21
71.583144
0
LINE
8
Layer 1
10
46.303914
20
71.583144
11
46.300813
21
73.567526
0
LINE
8
Layer 1
10
51.517544
20
73.567526
11
56.335849
21
73.567526
0
LINE
8
Layer 1
10
56.335849
20
73.567526
11
56.338949
21
71.583144
0
LINE
8
Layer 1
10
56.338949
20
71.583144
11
51.520644
21
71.583144
0
LINE
8
Layer 1
10
51.520644
20
71.583144
11
51.517544
21
73.567526
0
LINE
8
Layer 1
10
56.732207
20
73.567526
11
61.550514
21
73.567526
0
LINE
8
Layer 1
10
61.550514
20
73.567526
11
61.553613
21
71.583144
0
LINE
8
Layer 1
10
61.553613
20
71.583144
11
56.735307
21
71.583144
0
LINE
8
Layer 1
10
56.735307
20
71.583144
11
56.732207
21
73.567526
0
LINE
8
Layer 1
10
22.910532
20
71.181100
11
27.726771
21
71.181100
0
LINE
8
Layer 1
10
27.726771
20
71.181100
11
27.726771
21
69.196200
0
LINE
8
Layer 1
10
27.726771
20
69.196200
11
22.910532
21
69.196200
0
LINE
8
Layer 1
10
22.910532
20
69.196200
11
22.910532
21
71.181100
0
LINE
8
Layer 1
10
28.123646
20
71.181100
11
32.937818
21
71.181100
0
LINE
8
Layer 1
10
32.937818
20
71.181100
11
32.937818
21
69.196200
0
LINE
8
Layer 1
10
32.937818
20
69.196200
11
28.123646
21
69.196200
0
LINE
8
Layer 1
10
28.123646
20
69.196200
11
28.123646
21
71.181100
0
LINE
8
Layer 1
10
33.336242
20
71.181100
11
38.150415
21
71.181100
0
LINE
8
Layer 1
10
38.150415
20
71.181100
11
38.150415
21
69.196200
0
LINE
8
Layer 1
10
38.150415
20
69.196200
11
33.336242
21
69.196200
0
LINE
8
Layer 1
10
33.336242
20
69.196200
11
33.336242
21
71.181100
0
LINE
8
Layer 1
10
38.547289
20
71.181100
11
43.363528
21
71.181100
0
LINE
8
Layer 1
10
43.363528
20
71.181100
11
43.363528
21
69.196200
0
LINE
8
Layer 1
10
43.363528
20
69.196200
11
38.547289
21
69.196200
0
LINE
8
Layer 1
10
38.547289
20
69.196200
11
38.547289
21
71.181100
0
LINE
8
Layer 1
10
43.759886
20
71.181100
11
48.574057
21
71.181100
0
LINE
8
Layer 1
10
48.574057
20
71.181100
11
48.574057
21
69.196200
0
LINE
8
Layer 1
10
48.574057
20
69.196200
11
43.759886
21
69.196200
0
LINE
8
Layer 1
10
43.759886
20
69.196200
11
43.759886
21
71.181100
0
LINE
8
Layer 1
10
48.972482
20
71.181100
11
53.787170
21
71.181100
0
LINE
8
Layer 1
10
53.787170
20
71.181100
11
53.787170
21
69.196200
0
LINE
8
Layer 1
10
53.787170
20
69.196200
11
48.972482
21
69.196200
0
LINE
8
Layer 1
10
48.972482
20
69.196200
11
48.972482
21
71.181100
0
LINE
8
Layer 1
10
54.183528
20
71.181100
11
58.999767
21
71.181100
0
LINE
8
Layer 1
10
58.999767
20
71.181100
11
58.999767
21
69.196200
0
LINE
8
Layer 1
10
58.999767
20
69.196200
11
54.183528
21
69.196200
0
LINE
8
Layer 1
10
54.183528
20
69.196200
11
54.183528
21
71.181100
0
LINE
8
Layer 1
10
20.222843
20
68.792089
11
25.041667
21
68.792089
0
LINE
8
Layer 1
10
25.041667
20
68.792089
11
25.044267
21
66.807707
0
LINE
8
Layer 1
10
25.044267
20
66.807707
11
20.224926
21
66.807707
0
LINE
8
Layer 1
10
20.224926
20
66.807707
11
20.222843
21
68.792089
0
LINE
8
Layer 1
10
25.438025
20
68.792089
11
30.256330
21
68.792089
0
LINE
8
Layer 1
10
30.256330
20
68.792089
11
30.259430
21
66.807707
0
LINE
8
Layer 1
10
30.259430
20
66.807707
11
25.441124
21
66.807707
0
LINE
8
Layer 1
10
25.441124
20
66.807707
11
25.438025
21
68.792089
0
LINE
8
Layer 1
10
30.654239
20
68.792089
11
35.473061
21
68.792089
0
LINE
8
Layer 1
10
35.473061
20
68.792089
11
35.475661
21
66.807707
0
LINE
8
Layer 1
10
35.475661
20
66.807707
11
30.656322
21
66.807707
0
LINE
8
Layer 1
10
30.656322
20
66.807707
11
30.654239
21
68.792089
0
LINE
8
Layer 1
10
35.869419
20
68.792089
11
40.687725
21
68.792089
0
LINE
8
Layer 1
10
40.687725
20
68.792089
11
40.690825
21
66.807707
0
LINE
8
Layer 1
10
40.690825
20
66.807707
11
35.872520
21
66.807707
0
LINE
8
Layer 1
10
35.872520
20
66.807707
11
35.869419
21
68.792089
0
LINE
8
Layer 1
10
41.085633
20
68.792089
11
45.904455
21
68.792089
0
LINE
8
Layer 1
10
45.904455
20
68.792089
11
45.907555
21
66.807707
0
LINE
8
Layer 1
10
45.907555
20
66.807707
11
41.087699
21
66.807707
0
LINE
8
Layer 1
10
41.087699
20
66.807707
11
41.085633
21
68.792089
0
LINE
8
Layer 1
10
46.300813
20
68.792089
11
51.119119
21
68.792089
0
LINE
8
Layer 1
10
51.119119
20
68.792089
11
51.122219
21
66.807707
0
LINE
8
Layer 1
10
51.122219
20
66.807707
11
46.303914
21
66.807707
0
LINE
8
Layer 1
10
46.303914
20
66.807707
11
46.300813
21
68.792089
0
LINE
8
Layer 1
10
51.517544
20
68.792089
11
56.335849
21
68.792089
0
LINE
8
Layer 1
10
56.335849
20
68.792089
11
56.338949
21
66.807707
0
LINE
8
Layer 1
10
56.338949
20
66.807707
11
51.520644
21
66.807707
0
LINE
8
Layer 1
10
51.520644
20
66.807707
11
51.517544
21
68.792089
0
LINE
8
Layer 1
10
56.732207
20
68.792089
11
61.550514
21
68.792089
0
LINE
8
Layer 1
10
61.550514
20
68.792089
11
61.553613
21
66.807707
0
LINE
8
Layer 1
10
61.553613
20
66.807707
11
56.735307
21
66.807707
0
LINE
8
Layer 1
10
56.735307
20
66.807707
11
56.732207
21
68.792089
0
LINE
8
0
10
17.900344
20
64.693743
11
64.021132
21
64.693743
0
LINE
8
0
10
15.069163
20
64.317405
11
67.674261
21
64.317405
0
LINE
8
0
10
16.073768
20
78.027519
11
16.110760
21
77.373951
0
LINE
8
0
10
16.110760
20
77.373951
11
16.370293
21
76.737507
0
LINE
8
0
10
16.370293
20
76.737507
11
16.869708
21
76.255179
0
LINE
8
0
10
16.869708
20
76.255179
11
17.626349
21
76.063961
0
LINE
8
0
10
17.626349
20
76.063961
11
64.203778
21
76.063961
0
LINE
8
0
10
64.203778
20
76.063961
11
65.046043
21
76.217769
0
LINE
8
0
10
65.046043
20
76.217769
11
65.562583
21
76.633940
0
LINE
8
0
10
65.562583
20
76.633940
11
65.822114
21
77.244595
0
LINE
8
0
10
65.822114
20
77.244595
11
65.893354
21
77.981855
0
LINE
8
0
10
15.297477
20
81.680651
11
66.623981
21
81.680651
0
LINE
8
0
10
66.623981
20
81.680651
11
67.025904
21
81.600704
0
LINE
8
0
10
67.025904
20
81.600704
11
67.366637
21
81.373032
0
LINE
8
0
10
67.366637
20
81.373032
11
67.594309
21
81.032299
0
LINE
8
0
10
67.594309
20
81.032299
11
67.674256
21
80.630376
0
LINE
8
0
10
67.674256
20
80.630376
11
67.674256
21
79.169123
0
LINE
8
0
10
67.674256
20
79.169123
11
67.594309
21
78.767200
0
LINE
8
0
10
67.594309
20
78.767200
11
67.366637
21
78.426466
0
LINE
8
0
10
67.366637
20
78.426466
11
67.025904
21
78.198795
0
LINE
8
0
10
67.025904
20
78.198795
11
66.623981
21
78.118847
0
LINE
8
0
10
66.623981
20
78.118847
11
15.297477
21
78.118847
0
LINE
8
0
10
15.297477
20
78.118847
11
14.895554
21
78.198795
0
LINE
8
0
10
14.895554
20
78.198795
11
14.554820
21
78.426466
0
LINE
8
0
10
14.554820
20
78.426466
11
14.327149
21
78.767200
0
LINE
8
0
10
14.327149
20
78.767200
11
14.247201
21
79.169123
0
LINE
8
0
10
14.247201
20
79.169123
11
14.247201
21
80.630376
0
LINE
8
0
10
14.247201
20
80.630376
11
14.327149
21
81.032299
0
LINE
8
0
10
14.327149
20
81.032299
11
14.554820
21
81.373032
0
LINE
8
0
10
14.554820
20
81.373032
11
14.895554
21
81.600704
0
LINE
8
0
10
14.895554
20
81.600704
11
15.297477
21
81.680651
0
LINE
8
0
10
15.297477
20
81.680651
11
15.297477
21
81.680651
0
LINE
8
Layer 1
10
24.322113
20
76.675023
11
24.831361
21
75.223737
0
LINE
8
Layer 1
10
24.831361
20
75.223737
11
25.216572
21
73.843250
0
LINE
8
Layer 1
10
25.216572
20
73.843250
11
25.260746
21
72.581251
0
LINE
8
Layer 1
10
25.260746
20
72.581251
11
25.087133
21
72.009588
0
LINE
8
Layer 1
10
25.087133
20
72.009588
11
24.746886
21
71.485430
0
LINE
8
Layer 1
10
24.746886
20
71.485430
11
23.984077
21
70.371503
0
LINE
8
Layer 1
10
23.984077
20
70.371503
11
23.686159
21
69.336767
0
LINE
8
Layer 1
10
23.686159
20
69.336767
11
23.881445
21
68.434406
0
LINE
8
Layer 1
10
23.881445
20
68.434406
11
24.598244
21
67.717600
0
LINE
8
Layer 1
10
24.598244
20
67.717600
11
25.216094
21
67.442890
0
LINE
8
Layer 1
10
25.216094
20
67.442890
11
25.841787
21
67.366183
0
LINE
8
Layer 1
10
25.841787
20
67.366183
11
26.474634
21
67.477638
0
LINE
8
Layer 1
10
26.474634
20
67.477638
11
27.113944
21
67.767417
0
LINE
8
Layer 1
10
27.113944
20
67.767417
11
28.409196
21
68.842589
0
LINE
8
Layer 1
10
28.409196
20
68.842589
11
29.722022
21
70.512987
0
LINE
8
Layer 1
10
29.722022
20
70.512987
11
30.246893
21
71.426497
0
LINE
8
Layer 1
10
30.246893
20
71.426497
11
30.550289
21
72.288251
0
LINE
8
Layer 1
10
30.550289
20
72.288251
11
30.662928
21
73.130785
0
LINE
8
Layer 1
10
30.662928
20
73.130785
11
30.615531
21
73.986637
0
LINE
8
Layer 1
10
30.615531
20
73.986637
11
30.163504
21
75.868435
0
LINE
8
Layer 1
10
30.163504
20
75.868435
11
29.439963
21
78.193933
0
LINE
8
Layer 1
10
22.764872
20
78.998042
11
29.004192
21
81.059400
0
LINE
8
Layer 1
10
29.004192
20
81.059400
11
29.703315
21
81.011266
0
LINE
8
Layer 1
10
29.703315
20
81.011266
11
30.163182
21
80.489364
0
LINE
8
Layer 1
10
30.163182
20
80.489364
11
30.422410
21
79.725193
0
LINE
8
Layer 1
10
30.422410
20
79.725193
11
30.373637
21
79.035246
0
LINE
8
Layer 1
10
30.373637
20
79.035246
11
29.844795
21
78.581415
0
LINE
8
Layer 1
10
29.844795
20
78.581415
11
23.605475
21
76.520057
0
LINE
8
Layer 1
10
23.605475
20
76.520057
11
22.906352
21
76.568190
0
LINE
8
Layer 1
10
22.906352
20
76.568190
11
22.446485
21
77.090092
0
LINE
8
Layer 1
10
22.446485
20
77.090092
11
22.187257
21
77.854263
0
LINE
8
Layer 1
10
22.187257
20
77.854263
11
22.236030
21
78.544211
0
LINE
8
Layer 1
10
22.236030
20
78.544211
11
22.764872
21
78.998042
0
LINE
8
Layer 1
10
22.764872
20
78.998042
11
22.764872
21
78.998042
0
LINE
8
Layer 1
10
39.005039
20
76.641945
11
39.523391
21
75.164711
0
LINE
8
Layer 1
10
39.523391
20
75.164711
11
39.915488
21
73.759540
0
LINE
8
Layer 1
10
39.915488
20
73.759540
11
39.960451
21
72.474976
0
LINE
8
Layer 1
10
39.960451
20
72.474976
11
39.783733
21
71.893091
0
LINE
8
Layer 1
10
39.783733
20
71.893091
11
39.437400
21
71.359561
0
LINE
8
Layer 1
10
39.437400
20
71.359561
11
38.660948
21
70.225715
0
LINE
8
Layer 1
10
38.660948
20
70.225715
11
38.357702
21
69.172478
0
LINE
8
Layer 1
10
38.357702
20
69.172478
11
38.556478
21
68.253982
0
LINE
8
Layer 1
10
38.556478
20
68.253982
11
39.286095
21
67.524360
0
LINE
8
Layer 1
10
39.286095
20
67.524360
11
39.914993
21
67.244739
0
LINE
8
Layer 1
10
39.914993
20
67.244739
11
40.551875
21
67.166661
0
LINE
8
Layer 1
10
40.551875
20
67.166661
11
41.196040
21
67.280109
0
LINE
8
Layer 1
10
41.196040
20
67.280109
11
41.846783
21
67.575070
0
LINE
8
Layer 1
10
41.846783
20
67.575070
11
43.165199
21
68.669469
0
LINE
8
Layer 1
10
43.165199
20
68.669469
11
44.501504
21
70.369735
0
LINE
8
Layer 1
10
44.501504
20
70.369735
11
45.035763
21
71.299579
0
LINE
8
Layer 1
10
45.035763
20
71.299579
11
45.344585
21
72.176742
0
LINE
8
Layer 1
10
45.344585
20
72.176742
11
45.459240
21
73.034341
0
LINE
8
Layer 1
10
45.459240
20
73.034341
11
45.410996
21
73.905496
0
LINE
8
Layer 1
10
45.410996
20
73.905496
11
44.950889
21
75.820941
0
LINE
8
Layer 1
10
44.950889
20
75.820941
11
44.214413
21
78.188019
0
LINE
8
Layer 1
10
37.419953
20
79.006499
11
43.770852
21
81.104721
0
LINE
8
Layer 1
10
43.770852
20
81.104721
11
44.482478
21
81.055727
0
LINE
8
Layer 1
10
44.482478
20
81.055727
11
44.950568
21
80.524494
0
LINE
8
Layer 1
10
44.950568
20
80.524494
11
45.214431
21
79.746660
0
LINE
8
Layer 1
10
45.214431
20
79.746660
11
45.164785
21
79.044376
0
LINE
8
Layer 1
10
45.164785
20
79.044376
11
44.626485
21
78.582430
0
LINE
8
Layer 1
10
44.626485
20
78.582430
11
38.275585
21
76.484207
0
LINE
8
Layer 1
10
38.275585
20
76.484207
11
37.563960
21
76.533201
0
LINE
8
Layer 1
10
37.563960
20
76.533201
11
37.095870
21
77.064434
0
LINE
8
Layer 1
10
37.095870
20
77.064434
11
36.832006
21
77.842269
0
LINE
8
Layer 1
10
36.832006
20
77.842269
11
36.881652
21
78.544553
0
LINE
8
Layer 1
10
36.881652
20
78.544553
11
37.419953
21
79.006499
0
LINE
8
Layer 1
10
37.419953
20
79.006499
11
37.419953
21
79.006499
0
LINE
8
Layer 1
10
53.444124
20
76.671983
11
53.967031
21
75.181772
0
LINE
8
Layer 1
10
53.967031
20
75.181772
11
54.362574
21
73.764258
0
LINE
8
Layer 1
10
54.362574
20
73.764258
11
54.407935
21
72.468409
0
LINE
8
Layer 1
10
54.407935
20
72.468409
11
54.229666
21
71.881412
0
LINE
8
Layer 1
10
54.229666
20
71.881412
11
53.880294
21
71.343195
0
LINE
8
Layer 1
10
53.880294
20
71.343195
11
53.097027
21
70.199388
0
LINE
8
Layer 1
10
53.097027
20
70.199388
11
52.791120
21
69.136898
0
LINE
8
Layer 1
10
52.791120
20
69.136898
11
52.991644
21
68.210334
0
LINE
8
Layer 1
10
52.991644
20
68.210334
11
53.727669
21
67.474302
0
LINE
8
Layer 1
10
53.727669
20
67.474302
11
54.362089
21
67.192225
0
LINE
8
Layer 1
10
54.362089
20
67.192225
11
55.004564
21
67.113461
0
LINE
8
Layer 1
10
55.004564
20
67.113461
11
55.654384
21
67.227907
0
LINE
8
Layer 1
10
55.654384
20
67.227907
11
56.310841
21
67.525459
0
LINE
8
Layer 1
10
56.310841
20
67.525459
11
57.640831
21
68.629472
0
LINE
8
Layer 1
10
57.640831
20
68.629472
11
58.988865
21
70.344676
0
LINE
8
Layer 1
10
58.988865
20
70.344676
11
59.527813
21
71.282688
0
LINE
8
Layer 1
10
59.527813
20
71.282688
11
59.839345
21
72.167557
0
LINE
8
Layer 1
10
59.839345
20
72.167557
11
59.955004
21
73.032690
0
LINE
8
Layer 1
10
59.955004
20
73.032690
11
59.906335
21
73.911498
0
LINE
8
Layer 1
10
59.906335
20
73.911498
11
59.442183
21
75.843769
0
LINE
8
Layer 1
10
59.442183
20
75.843769
11
58.699235
21
78.231641
0
LINE
8
Layer 1
10
51.845115
20
79.057308
11
58.251774
21
81.173966
0
LINE
8
Layer 1
10
58.251774
20
81.173966
11
58.969647
21
81.124542
0
LINE
8
Layer 1
10
58.969647
20
81.124542
11
59.441848
21
80.588642
0
LINE
8
Layer 1
10
59.441848
20
80.588642
11
59.708030
21
79.803975
0
LINE
8
Layer 1
10
59.708030
20
79.803975
11
59.657950
21
79.095521
0
LINE
8
Layer 1
10
59.657950
20
79.095521
11
59.114924
21
78.629517
0
LINE
8
Layer 1
10
59.114924
20
78.629517
11
52.708266
21
76.512860
0
LINE
8
Layer 1
10
52.708266
20
76.512860
11
51.990392
21
76.562283
0
LINE
8
Layer 1
10
51.990392
20
76.562283
11
51.518191
21
77.098183
0
LINE
8
Layer 1
10
51.518191
20
77.098183
11
51.252009
21
77.882850
0
LINE
8
Layer 1
10
51.252009
20
77.882850
11
51.302089
21
78.591304
0
LINE
8
Layer 1
10
51.302089
20
78.591304
11
51.845115
21
79.057308
0
LINE
8
Layer 1
10
51.845115
20
79.057308
11
51.845115
21
79.057308
0
LINE
8
1
10
-0.000003
20
82.000456
11
-0.000003
21
62.500379
0
LINE
8
1
10
-0.000003
20
62.500379
11
0.043922
21
63.016625
0
LINE
8
1
10
0.043922
20
63.016625
11
0.172080
21
63.401096
0
LINE
8
1
10
0.172080
20
63.401096
11
0.398939
21
63.694103
0
LINE
8
1
10
0.398939
20
63.694103
11
0.772042
21
63.901325
0
LINE
8
1
10
0.772042
20
63.901325
11
1.500162
21
64.000543
0
LINE
8
1
10
1.500162
20
64.000543
11
16.500260
21
64.000543
0
LINE
8
1
10
16.500260
20
64.000543
11
17.084055
21
64.118538
0
LINE
8
1
10
17.084055
20
64.118538
11
17.560752
21
64.440065
0
LINE
8
1
10
17.560752
20
64.440065
11
17.882115
21
64.916872
0
LINE
8
1
10
17.882115
20
64.916872
11
17.999909
21
65.500708
0
LINE
8
1
10
17.999909
20
65.500708
11
17.999909
21
74.500665
0
LINE
8
1
10
17.999909
20
74.500665
11
17.922403
21
74.976601
0
LINE
8
1
10
17.922403
20
74.976601
11
17.704630
21
75.393989
0
LINE
8
1
10
17.704630
20
75.393989
11
17.368364
21
75.723478
0
LINE
8
1
10
17.368364
20
75.723478
11
16.935378
21
75.935716
0
LINE
8
1
10
16.935378
20
75.935716
11
16.310077
21
76.310677
0
LINE
8
1
10
16.310077
20
76.310677
11
15.935439
21
76.936170
0
LINE
8
1
10
15.935439
20
76.936170
11
15.584468
21
77.537070
0
LINE
8
1
10
15.584468
20
77.537070
11
15.000096
21
77.914921
0
LINE
8
1
10
15.000096
20
77.914921
11
14.275489
21
78.462981
0
LINE
8
1
10
14.275489
20
78.462981
11
14.000160
21
79.328786
0
LINE
8
1
10
14.000160
20
79.328786
11
14.000160
21
80.500291
0
LINE
8
1
10
14.000160
20
80.500291
11
14.117954
21
81.084126
0
LINE
8
1
10
14.117954
20
81.084126
11
14.439316
21
81.560933
0
LINE
8
1
10
14.439316
20
81.560933
11
14.916012
21
81.882460
0
LINE
8
1
10
14.916012
20
81.882460
11
15.499806
21
82.000456
0
LINE
8
1
10
15.499806
20
82.000456
11
-0.000003
21
82.000456
0
LINE
8
1
10
66.500248
20
82.000456
11
67.084043
21
81.882461
0
LINE
8
1
10
67.084043
20
81.882461
11
67.560740
21
81.560934
0
LINE
8
1
10
67.560740
20
81.560934
11
67.882103
21
81.084127
0
LINE
8
1
10
67.882103
20
81.084127
11
67.999897
21
80.500291
0
LINE
8
1
10
67.999897
20
80.500291
11
67.999897
21
79.328786
0
LINE
8
1
10
67.999897
20
79.328786
11
67.724566
21
78.462981
0
LINE
8
1
10
67.724566
20
78.462981
11
66.999958
21
77.914921
0
LINE
8
1
10
66.999958
20
77.914921
11
66.415586
21
77.537070
0
LINE
8
1
10
66.415586
20
77.537070
11
66.064615
21
76.936170
0
LINE
8
1
10
66.064615
20
76.936170
11
65.689978
21
76.310677
0
LINE
8
1
10
65.689978
20
76.310677
11
65.064679
21
75.935716
0
LINE
8
1
10
65.064679
20
75.935716
11
64.631692
21
75.723479
0
LINE
8
1
10
64.631692
20
75.723479
11
64.295425
21
75.393990
0
LINE
8
1
10
64.295425
20
75.393990
11
64.077651
21
74.976601
0
LINE
8
1
10
64.077651
20
74.976601
11
64.000145
21
74.500665
0
LINE
8
1
10
64.000145
20
74.500665
11
64.000145
21
65.500708
0
LINE
8
1
10
64.000145
20
65.500708
11
64.117939
21
64.916872
0
LINE
8
1
10
64.117939
20
64.916872
11
64.439302
21
64.440065
0
LINE
8
1
10
64.439302
20
64.440065
11
64.915999
21
64.118538
0
LINE
8
1
10
64.915999
20
64.118538
11
65.499794
21
64.000543
0
LINE
8
1
10
65.499794
20
64.000543
11
80.499893
21
64.000543
0
LINE
8
1
10
80.499893
20
64.000543
11
81.228012
21
63.901325
0
LINE
8
1
10
81.228012
20
63.901325
11
81.601116
21
63.694103
0
LINE
8
1
10
81.601116
20
63.694103
11
81.827975
21
63.401096
0
LINE
8
1
10
81.827975
20
63.401096
11
81.956131
21
63.016625
0
LINE
8
1
10
81.956131
20
63.016625
11
82.000057
21
62.500379
0
LINE
8
1
10
82.000057
20
62.500379
11
82.000057
21
82.000456
0
LINE
8
1
10
82.000057
20
82.000456
11
66.500248
21
82.000456
0
LINE
8
1
10
-0.000003
20
58.000402
11
-0.000003
21
2.500490
0
LINE
8
1
10
-0.000003
20
2.500490
11
0.043922
21
3.016744
0
LINE
8
1
10
0.043922
20
3.016744
11
0.172080
21
3.401210
0
LINE
8
1
10
0.172080
20
3.401210
11
0.398939
21
3.693706
0
LINE
8
1
10
0.398939
20
3.693706
11
0.772042
21
3.901457
0
LINE
8
1
10
0.772042
20
3.901457
11
1.500162
21
4.000676
0
LINE
8
1
10
1.500162
20
4.000676
11
2.074275
21
4.114824
0
LINE
8
1
10
2.074275
20
4.114824
11
2.560986
21
4.440013
0
LINE
8
1
10
2.560986
20
4.440013
11
2.886177
21
4.926722
0
LINE
8
1
10
2.886177
20
4.926722
11
3.000327
21
5.500835
0
LINE
8
1
10
3.000327
20
5.500835
11
3.118275
21
6.084499
0
LINE
8
1
10
3.118275
20
6.084499
11
3.439673
21
6.561132
0
LINE
8
1
10
3.439673
20
6.561132
11
3.916310
21
6.882524
0
LINE
8
1
10
3.916310
20
6.882524
11
4.499976
21
7.000465
0
LINE
8
1
10
4.499976
20
7.000465
11
5.074211
21
7.114663
0
LINE
8
1
10
5.074211
20
7.114663
11
5.560986
21
7.439989
0
LINE
8
1
10
5.560986
20
7.439989
11
5.886142
21
7.926878
0
LINE
8
1
10
5.886142
20
7.926878
11
6.000140
21
8.501153
0
LINE
8
1
10
6.000140
20
8.501153
11
6.000140
21
52.000773
0
LINE
8
1
10
6.000140
20
52.000773
11
5.882145
21
52.584568
0
LINE
8
1
10
5.882145
20
52.584568
11
5.560619
21
53.061265
0
LINE
8
1
10
5.560619
20
53.061265
11
5.083811
21
53.382628
0
LINE
8
1
10
5.083811
20
53.382628
11
4.499976
21
53.500422
0
LINE
8
1
10
4.499976
20
53.500422
11
3.916181
21
53.618416
0
LINE
8
1
10
3.916181
20
53.618416
11
3.439484
21
53.939943
0
LINE
8
1
10
3.439484
20
53.939943
11
3.118121
21
54.416750
0
LINE
8
1
10
3.118121
20
54.416750
11
3.000327
21
55.000586
0
LINE
8
1
10
3.000327
20
55.000586
11
2.886179
21
55.574701
0
LINE
8
1
10
2.886179
20
55.574701
11
2.560989
21
56.061413
0
LINE
8
1
10
2.560989
20
56.061413
11
2.074277
21
56.386604
0
LINE
8
1
10
2.074277
20
56.386604
11
1.500162
21
56.500753
0
LINE
8
1
10
1.500162
20
56.500753
11
0.983915
21
56.544676
0
LINE
8
1
10
0.983915
20
56.544676
11
0.599443
21
56.672317
0
LINE
8
1
10
0.599443
20
56.672317
11
0.306955
21
56.899178
0
LINE
8
1
10
0.306955
20
56.899178
11
0.099216
21
57.272280
0
LINE
8
1
10
0.099216
20
57.272280
11
-0.000003
21
58.000402
0
LINE
8
1
10
-0.000003
20
58.000402
11
-0.000003
21
58.000402
0
LINE
8
1
10
82.000057
20
58.000402
11
81.900839
21
57.272280
0
LINE
8
1
10
81.900839
20
57.272280
11
81.693099
21
56.899178
0
LINE
8
1
10
81.693099
20
56.899178
11
81.400610
21
56.672317
0
LINE
8
1
10
81.400610
20
56.672317
11
81.016139
21
56.544676
0
LINE
8
1
10
81.016139
20
56.544676
11
80.499893
21
56.500753
0
LINE
8
1
10
80.499893
20
56.500753
11
79.925778
21
56.386605
0
LINE
8
1
10
79.925778
20
56.386605
11
79.439065
21
56.061414
0
LINE
8
1
10
79.439065
20
56.061414
11
79.113874
21
55.574701
0
LINE
8
1
10
79.113874
20
55.574701
11
78.999726
21
55.000586
0
LINE
8
1
10
78.999726
20
55.000586
11
78.881932
21
54.416751
0
LINE
8
1
10
78.881932
20
54.416751
11
78.560570
21
53.939944
0
LINE
8
1
10
78.560570
20
53.939944
11
78.083874
21
53.618417
0
LINE
8
1
10
78.083874
20
53.618417
11
77.500080
21
53.500422
0
LINE
8
1
10
77.500080
20
53.500422
11
76.916243
21
53.382628
0
LINE
8
1
10
76.916243
20
53.382628
11
76.439435
21
53.061266
0
LINE
8
1
10
76.439435
20
53.061266
11
76.117908
21
52.584569
0
LINE
8
1
10
76.117908
20
52.584569
11
75.999913
21
52.000773
0
LINE
8
1
10
75.999913
20
52.000773
11
75.999913
21
8.501153
0
LINE
8
1
10
75.999913
20
8.501153
11
76.114063
21
7.927040
0
LINE
8
1
10
76.114063
20
7.927040
11
76.439255
21
7.440330
0
LINE
8
1
10
76.439255
20
7.440330
11
76.925966
21
7.115141
0
LINE
8
1
10
76.925966
20
7.115141
11
77.500080
21
7.000994
0
LINE
8
1
10
77.500080
20
7.000994
11
78.083751
21
6.883050
0
LINE
8
1
10
78.083751
20
6.883050
11
78.560390
21
6.561651
0
LINE
8
1
10
78.560390
20
6.561651
11
78.881786
21
6.085009
0
LINE
8
1
10
78.881786
20
6.085009
11
78.999726
21
5.501337
0
LINE
8
1
10
78.999726
20
5.501337
11
79.113876
21
4.927224
0
LINE
8
1
10
79.113876
20
4.927224
11
79.439068
21
4.440515
0
LINE
8
1
10
79.439068
20
4.440515
11
79.925779
21
4.115326
0
LINE
8
1
10
79.925779
20
4.115326
11
80.499893
21
4.001178
0
LINE
8
1
10
80.499893
20
4.001178
11
81.228012
21
3.901960
0
LINE
8
1
10
81.228012
20
3.901960
11
81.601116
21
3.694738
0
LINE
8
1
10
81.601116
20
3.694738
11
81.827975
21
3.401739
0
LINE
8
1
10
81.827975
20
3.401739
11
81.956131
21
3.017273
0
LINE
8
1
10
81.956131
20
3.017273
11
82.000057
21
2.501019
0
LINE
8
1
10
82.000057
20
2.501019
11
82.000057
21
58.000402
0
LINE
8
1
10
38.262731
20
53.942773
11
32.803286
21
53.481513
0
LINE
8
1
10
32.803286
20
53.481513
11
27.411549
21
52.564142
0
LINE
8
1
10
27.411549
20
52.564142
11
22.116018
21
51.196751
0
LINE
8
1
10
22.116018
20
51.196751
11
16.945194
21
49.385434
0
LINE
8
1
10
16.945194
20
49.385434
11
16.543670
21
49.188028
0
LINE
8
1
10
16.543670
20
49.188028
11
16.289422
21
48.980807
0
LINE
8
1
10
16.289422
20
48.980807
11
16.090985
21
48.650078
0
LINE
8
1
10
16.090985
20
48.650078
11
16.000034
21
47.992237
0
LINE
8
1
10
16.000034
20
47.992237
11
16.000034
21
5.500835
0
LINE
8
1
10
16.000034
20
5.500835
11
16.043958
21
4.984580
0
LINE
8
1
10
16.043958
20
4.984580
11
16.171601
21
4.600115
0
LINE
8
1
10
16.171601
20
4.600115
11
16.398975
21
4.307116
0
LINE
8
1
10
16.398975
20
4.307116
11
16.771561
21
4.099894
0
LINE
8
1
10
16.771561
20
4.099894
11
17.500199
21
4.000676
0
LINE
8
1
10
17.500199
20
4.000676
11
64.499855
21
4.000676
0
LINE
8
1
10
64.499855
20
4.000676
11
65.228493
21
4.099894
0
LINE
8
1
10
65.228493
20
4.099894
11
65.601079
21
4.307116
0
LINE
8
1
10
65.601079
20
4.307116
11
65.828453
21
4.600115
0
LINE
8
1
10
65.828453
20
4.600115
11
65.956096
21
4.984580
0
LINE
8
1
10
65.956096
20
4.984580
11
66.000020
21
5.500835
0
LINE
8
1
10
66.000020
20
5.500835
11
66.000020
21
47.991721
0
LINE
8
1
10
66.000020
20
47.991721
11
65.909069
21
48.650078
0
LINE
8
1
10
65.909069
20
48.650078
11
65.710632
21
48.980807
0
LINE
8
1
10
65.710632
20
48.980807
11
65.456383
21
49.188028
0
LINE
8
1
10
65.456383
20
49.188028
11
65.054860
21
49.385434
0
LINE
8
1
10
65.054860
20
49.385434
11
61.835765
21
50.570377
0
LINE
8
1
10
61.835765
20
50.570377
11
58.565520
21
51.581915
0
LINE
8
1
10
58.565520
20
51.581915
11
55.251139
21
52.418852
0
LINE
8
1
10
55.251139
20
52.418852
11
51.899639
21
53.079995
0
LINE
8
1
10
51.899639
20
53.079995
11
48.518032
21
53.564152
0
LINE
8
1
10
48.518032
20
53.564152
11
45.113336
21
53.870130
0
LINE
8
1
10
45.113336
20
53.870130
11
41.692563
21
53.996734
0
LINE
8
1
10
41.692563
20
53.996734
11
38.262731
21
53.942773
0
LINE
8
1
10
38.262731
20
53.942773
11
38.262731
21
53.942773
0
LINE
8
1
10
82.000057
20
1.501081
11
81.900839
21
0.772948
0
LINE
8
1
10
81.900839
20
0.772948
11
81.693099
21
0.399860
0
LINE
8
1
10
81.693099
20
0.399860
11
81.400610
21
0.173006
0
LINE
8
1
10
81.400610
20
0.173006
11
81.016139
21
0.044842
0
LINE
8
1
10
81.016139
20
0.044842
11
80.499893
21
0.000392
0
LINE
8
1
10
80.499893
20
0.000392
11
82.000057
21
0.000392
0
LINE
8
1
10
82.000057
20
0.000392
11
82.000057
21
1.501081
0
LINE
8
1
10
-0.000003
20
1.501081
11
-0.000003
21
0.001424
0
LINE
8
1
10
-0.000003
20
0.001424
11
1.500162
21
0.001424
0
LINE
8
1
10
1.500162
20
0.001424
11
0.983915
21
0.045345
0
LINE
8
1
10
0.983915
20
0.045345
11
0.599443
21
0.173509
0
LINE
8
1
10
0.599443
20
0.173509
11
0.306955
21
0.400362
0
LINE
8
1
10
0.306955
20
0.400362
11
0.099216
21
0.773477
0
LINE
8
1
10
0.099216
20
0.773477
11
-0.000003
21
1.501081
0
LINE
8
1
10
-0.000003
20
1.501081
11
-0.000003
21
1.501081
0
LINE
8
1
10
-0.000003
20
82.000456
11
-0.000003
21
62.500379
0
LINE
8
1
10
-0.000003
20
62.500379
11
0.043922
21
63.016625
0
LINE
8
1
10
0.043922
20
63.016625
11
0.172080
21
63.401096
0
LINE
8
1
10
0.172080
20
63.401096
11
0.398939
21
63.694103
0
LINE
8
1
10
0.398939
20
63.694103
11
0.772042
21
63.901325
0
LINE
8
1
10
0.772042
20
63.901325
11
1.500162
21
64.000543
0
LINE
8
1
10
1.500162
20
64.000543
11
16.500260
21
64.000543
0
LINE
8
1
10
16.500260
20
64.000543
11
17.084055
21
64.118538
0
LINE
8
1
10
17.084055
20
64.118538
11
17.560752
21
64.440065
0
LINE
8
1
10
17.560752
20
64.440065
11
17.882115
21
64.916872
0
LINE
8
1
10
17.882115
20
64.916872
11
17.999909
21
65.500708
0
LINE
8
1
10
17.999909
20
65.500708
11
17.999909
21
74.500665
0
LINE
8
1
10
17.999909
20
74.500665
11
17.922403
21
74.976601
0
LINE
8
1
10
17.922403
20
74.976601
11
17.704630
21
75.393989
0
LINE
8
1
10
17.704630
20
75.393989
11
17.368364
21
75.723478
0
LINE
8
1
10
17.368364
20
75.723478
11
16.935378
21
75.935716
0
LINE
8
1
10
16.935378
20
75.935716
11
16.310077
21
76.310677
0
LINE
8
1
10
16.310077
20
76.310677
11
15.935439
21
76.936170
0
LINE
8
1
10
15.935439
20
76.936170
11
15.584468
21
77.537070
0
LINE
8
1
10
15.584468
20
77.537070
11
15.000096
21
77.914921
0
LINE
8
1
10
15.000096
20
77.914921
11
14.275489
21
78.462981
0
LINE
8
1
10
14.275489
20
78.462981
11
14.000160
21
79.328786
0
LINE
8
1
10
14.000160
20
79.328786
11
14.000160
21
80.500291
0
LINE
8
1
10
14.000160
20
80.500291
11
14.117954
21
81.084126
0
LINE
8
1
10
14.117954
20
81.084126
11
14.439316
21
81.560933
0
LINE
8
1
10
14.439316
20
81.560933
11
14.916012
21
81.882460
0
LINE
8
1
10
14.916012
20
81.882460
11
15.499806
21
82.000456
0
LINE
8
1
10
15.499806
20
82.000456
11
-0.000003
21
82.000456
0
LINE
8
1
10
66.500248
20
82.000456
11
67.084043
21
81.882461
0
LINE
8
1
10
67.084043
20
81.882461
11
67.560740
21
81.560934
0
LINE
8
1
10
67.560740
20
81.560934
11
67.882103
21
81.084127
0
LINE
8
1
10
67.882103
20
81.084127
11
67.999897
21
80.500291
0
LINE
8
1
10
67.999897
20
80.500291
11
67.999897
21
79.328786
0
LINE
8
1
10
67.999897
20
79.328786
11
67.724566
21
78.462981
0
LINE
8
1
10
67.724566
20
78.462981
11
66.999958
21
77.914921
0
LINE
8
1
10
66.999958
20
77.914921
11
66.415586
21
77.537070
0
LINE
8
1
10
66.415586
20
77.537070
11
66.064615
21
76.936170
0
LINE
8
1
10
66.064615
20
76.936170
11
65.689978
21
76.310677
0
LINE
8
1
10
65.689978
20
76.310677
11
65.064679
21
75.935716
0
LINE
8
1
10
65.064679
20
75.935716
11
64.631692
21
75.723479
0
LINE
8
1
10
64.631692
20
75.723479
11
64.295425
21
75.393990
0
LINE
8
1
10
64.295425
20
75.393990
11
64.077651
21
74.976601
0
LINE
8
1
10
64.077651
20
74.976601
11
64.000145
21
74.500665
0
LINE
8
1
10
64.000145
20
74.500665
11
64.000145
21
65.500708
0
LINE
8
1
10
64.000145
20
65.500708
11
64.117939
21
64.916872
0
LINE
8
1
10
64.117939
20
64.916872
11
64.439302
21
64.440065
0
LINE
8
1
10
64.439302
20
64.440065
11
64.915999
21
64.118538
0
LINE
8
1
10
64.915999
20
64.118538
11
65.499794
21
64.000543
0
LINE
8
1
10
65.499794
20
64.000543
11
80.499893
21
64.000543
0
LINE
8
1
10
80.499893
20
64.000543
11
81.228012
21
63.901325
0
LINE
8
1
10
81.228012
20
63.901325
11
81.601116
21
63.694103
0
LINE
8
1
10
81.601116
20
63.694103
11
81.827975
21
63.401096
0
LINE
8
1
10
81.827975
20
63.401096
11
81.956131
21
63.016625
0
LINE
8
1
10
81.956131
20
63.016625
11
82.000057
21
62.500379
0
LINE
8
1
10
82.000057
20
62.500379
11
82.000057
21
82.000456
0
LINE
8
1
10
82.000057
20
82.000456
11
66.500248
21
82.000456
0
LINE
8
1
10
-0.000003
20
58.000402
11
-0.000003
21
2.500490
0
LINE
8
1
10
-0.000003
20
2.500490
11
0.043922
21
3.016744
0
LINE
8
1
10
0.043922
20
3.016744
11
0.172080
21
3.401210
0
LINE
8
1
10
0.172080
20
3.401210
11
0.398939
21
3.693706
0
LINE
8
1
10
0.398939
20
3.693706
11
0.772042
21
3.901457
0
LINE
8
1
10
0.772042
20
3.901457
11
1.500162
21
4.000676
0
LINE
8
1
10
1.500162
20
4.000676
11
2.074275
21
4.114824
0
LINE
8
1
10
2.074275
20
4.114824
11
2.560986
21
4.440013
0
LINE
8
1
10
2.560986
20
4.440013
11
2.886177
21
4.926722
0
LINE
8
1
10
2.886177
20
4.926722
11
3.000327
21
5.500835
0
LINE
8
1
10
3.000327
20
5.500835
11
3.118275
21
6.084499
0
LINE
8
1
10
3.118275
20
6.084499
11
3.439673
21
6.561132
0
LINE
8
1
10
3.439673
20
6.561132
11
3.916310
21
6.882524
0
LINE
8
1
10
3.916310
20
6.882524
11
4.499976
21
7.000465
0
LINE
8
1
10
4.499976
20
7.000465
11
5.074211
21
7.114663
0
LINE
8
1
10
5.074211
20
7.114663
11
5.560986
21
7.439989
0
LINE
8
1
10
5.560986
20
7.439989
11
5.886142
21
7.926878
0
LINE
8
1
10
5.886142
20
7.926878
11
6.000140
21
8.501153
0
LINE
8
1
10
6.000140
20
8.501153
11
6.000140
21
52.000773
0
LINE
8
1
10
6.000140
20
52.000773
11
5.882145
21
52.584568
0
LINE
8
1
10
5.882145
20
52.584568
11
5.560619
21
53.061265
0
LINE
8
1
10
5.560619
20
53.061265
11
5.083811
21
53.382628
0
LINE
8
1
10
5.083811
20
53.382628
11
4.499976
21
53.500422
0
LINE
8
1
10
4.499976
20
53.500422
11
3.916181
21
53.618416
0
LINE
8
1
10
3.916181
20
53.618416
11
3.439484
21
53.939943
0
LINE
8
1
10
3.439484
20
53.939943
11
3.118121
21
54.416750
0
LINE
8
1
10
3.118121
20
54.416750
11
3.000327
21
55.000586
0
LINE
8
1
10
3.000327
20
55.000586
11
2.886179
21
55.574701
0
LINE
8
1
10
2.886179
20
55.574701
11
2.560989
21
56.061413
0
LINE
8
1
10
2.560989
20
56.061413
11
2.074277
21
56.386604
0
LINE
8
1
10
2.074277
20
56.386604
11
1.500162
21
56.500753
0
LINE
8
1
10
1.500162
20
56.500753
11
0.983915
21
56.544676
0
LINE
8
1
10
0.983915
20
56.544676
11
0.599443
21
56.672317
0
LINE
8
1
10
0.599443
20
56.672317
11
0.306955
21
56.899178
0
LINE
8
1
10
0.306955
20
56.899178
11
0.099216
21
57.272280
0
LINE
8
1
10
0.099216
20
57.272280
11
-0.000003
21
58.000402
0
LINE
8
1
10
-0.000003
20
58.000402
11
-0.000003
21
58.000402
0
LINE
8
1
10
82.000057
20
58.000402
11
81.900839
21
57.272280
0
LINE
8
1
10
81.900839
20
57.272280
11
81.693099
21
56.899178
0
LINE
8
1
10
81.693099
20
56.899178
11
81.400610
21
56.672317
0
LINE
8
1
10
81.400610
20
56.672317
11
81.016139
21
56.544676
0
LINE
8
1
10
81.016139
20
56.544676
11
80.499893
21
56.500753
0
LINE
8
1
10
80.499893
20
56.500753
11
79.925778
21
56.386605
0
LINE
8
1
10
79.925778
20
56.386605
11
79.439065
21
56.061414
0
LINE
8
1
10
79.439065
20
56.061414
11
79.113874
21
55.574701
0
LINE
8
1
10
79.113874
20
55.574701
11
78.999726
21
55.000586
0
LINE
8
1
10
78.999726
20
55.000586
11
78.881932
21
54.416751
0
LINE
8
1
10
78.881932
20
54.416751
11
78.560570
21
53.939944
0
LINE
8
1
10
78.560570
20
53.939944
11
78.083874
21
53.618417
0
LINE
8
1
10
78.083874
20
53.618417
11
77.500080
21
53.500422
0
LINE
8
1
10
77.500080
20
53.500422
11
76.916243
21
53.382628
0
LINE
8
1
10
76.916243
20
53.382628
11
76.439435
21
53.061266
0
LINE
8
1
10
76.439435
20
53.061266
11
76.117908
21
52.584569
0
LINE
8
1
10
76.117908
20
52.584569
11
75.999913
21
52.000773
0
LINE
8
1
10
75.999913
20
52.000773
11
75.999913
21
8.501153
0
LINE
8
1
10
75.999913
20
8.501153
11
76.114063
21
7.927040
0
LINE
8
1
10
76.114063
20
7.927040
11
76.439255
21
7.440330
0
LINE
8
1
10
76.439255
20
7.440330
11
76.925966
21
7.115141
0
LINE
8
1
10
76.925966
20
7.115141
11
77.500080
21
7.000994
0
LINE
8
1
10
77.500080
20
7.000994
11
78.083751
21
6.883050
0
LINE
8
1
10
78.083751
20
6.883050
11
78.560390
21
6.561651
0
LINE
8
1
10
78.560390
20
6.561651
11
78.881786
21
6.085009
0
LINE
8
1
10
78.881786
20
6.085009
11
78.999726
21
5.501337
0
LINE
8
1
10
78.999726
20
5.501337
11
79.113876
21
4.927224
0
LINE
8
1
10
79.113876
20
4.927224
11
79.439068
21
4.440515
0
LINE
8
1
10
79.439068
20
4.440515
11
79.925779
21
4.115326
0
LINE
8
1
10
79.925779
20
4.115326
11
80.499893
21
4.001178
0
LINE
8
1
10
80.499893
20
4.001178
11
81.228012
21
3.901960
0
LINE
8
1
10
81.228012
20
3.901960
11
81.601116
21
3.694738
0
LINE
8
1
10
81.601116
20
3.694738
11
81.827975
21
3.401739
0
LINE
8
1
10
81.827975
20
3.401739
11
81.956131
21
3.017273
0
LINE
8
1
10
81.956131
20
3.017273
11
82.000057
21
2.501019
0
LINE
8
1
10
82.000057
20
2.501019
11
82.000057
21
58.000402
0
LINE
8
1
10
38.262731
20
53.942773
11
32.803286
21
53.481513
0
LINE
8
1
10
32.803286
20
53.481513
11
27.411549
21
52.564142
0
LINE
8
1
10
27.411549
20
52.564142
11
22.116018
21
51.196751
0
LINE
8
1
10
22.116018
20
51.196751
11
16.945194
21
49.385434
0
LINE
8
1
10
16.945194
20
49.385434
11
16.543670
21
49.188028
0
LINE
8
1
10
16.543670
20
49.188028
11
16.289422
21
48.980807
0
LINE
8
1
10
16.289422
20
48.980807
11
16.090985
21
48.650078
0
LINE
8
1
10
16.090985
20
48.650078
11
16.000034
21
47.992237
0
LINE
8
1
10
16.000034
20
47.992237
11
16.000034
21
5.500835
0
LINE
8
1
10
16.000034
20
5.500835
11
16.043958
21
4.984580
0
LINE
8
1
10
16.043958
20
4.984580
11
16.171601
21
4.600115
0
LINE
8
1
10
16.171601
20
4.600115
11
16.398975
21
4.307116
0
LINE
8
1
10
16.398975
20
4.307116
11
16.771561
21
4.099894
0
LINE
8
1
10
16.771561
20
4.099894
11
17.500199
21
4.000676
0
LINE
8
1
10
17.500199
20
4.000676
11
64.499855
21
4.000676
0
LINE
8
1
10
64.499855
20
4.000676
11
65.228493
21
4.099894
0
LINE
8
1
10
65.228493
20
4.099894
11
65.601079
21
4.307116
0
LINE
8
1
10
65.601079
20
4.307116
11
65.828453
21
4.600115
0
LINE
8
1
10
65.828453
20
4.600115
11
65.956096
21
4.984580
0
LINE
8
1
10
65.956096
20
4.984580
11
66.000020
21
5.500835
0
LINE
8
1
10
66.000020
20
5.500835
11
66.000020
21
47.991721
0
LINE
8
1
10
66.000020
20
47.991721
11
65.909069
21
48.650078
0
LINE
8
1
10
65.909069
20
48.650078
11
65.710632
21
48.980807
0
LINE
8
1
10
65.710632
20
48.980807
11
65.456383
21
49.188028
0
LINE
8
1
10
65.456383
20
49.188028
11
65.054860
21
49.385434
0
LINE
8
1
10
65.054860
20
49.385434
11
61.835765
21
50.570377
0
LINE
8
1
10
61.835765
20
50.570377
11
58.565520
21
51.581915
0
LINE
8
1
10
58.565520
20
51.581915
11
55.251139
21
52.418852
0
LINE
8
1
10
55.251139
20
52.418852
11
51.899639
21
53.079995
0
LINE
8
1
10
51.899639
20
53.079995
11
48.518032
21
53.564152
0
LINE
8
1
10
48.518032
20
53.564152
11
45.113336
21
53.870130
0
LINE
8
1
10
45.113336
20
53.870130
11
41.692563
21
53.996734
0
LINE
8
1
10
41.692563
20
53.996734
11
38.262731
21
53.942773
0
LINE
8
1
10
38.262731
20
53.942773
11
38.262731
21
53.942773
0
LINE
8
1
10
82.000057
20
1.501081
11
81.900839
21
0.772948
0
LINE
8
1
10
81.900839
20
0.772948
11
81.693099
21
0.399860
0
LINE
8
1
10
81.693099
20
0.399860
11
81.400610
21
0.173006
0
LINE
8
1
10
81.400610
20
0.173006
11
81.016139
21
0.044842
0
LINE
8
1
10
81.016139
20
0.044842
11
80.499893
21
0.000392
0
LINE
8
1
10
80.499893
20
0.000392
11
82.000057
21
0.000392
0
LINE
8
1
10
82.000057
20
0.000392
11
82.000057
21
1.501081
0
LINE
8
1
10
-0.000003
20
1.501081
11
-0.000003
21
0.001424
0
LINE
8
1
10
-0.000003
20
0.001424
11
1.500162
21
0.001424
0
LINE
8
1
10
1.500162
20
0.001424
11
0.983915
21
0.045345
0
LINE
8
1
10
0.983915
20
0.045345
11
0.599443
21
0.173509
0
LINE
8
1
10
0.599443
20
0.173509
11
0.306955
21
0.400362
0
LINE
8
1
10
0.306955
20
0.400362
11
0.099216
21
0.773477
0
LINE
8
1
10
0.099216
20
0.773477
11
-0.000003
21
1.501081
0
LINE
8
1
10
-0.000003
20
1.501081
11
-0.000003
21
1.501081
 0 
ENDSEC
 0 
EOF