0
SECTION
2
HEADER
9
$INSUNITS
70
4
9
$ACADVER
1
AC1014
9
$HANDSEED
5
FFFF
0
ENDSEC
0
SECTION
2
TABLES
0
TABLE
2
VPORT
5
8
100
AcDbSymbolTable
0
ENDTAB
0
TABLE
2
LTYPE
5
5
100
AcDbSymbolTable
0
LTYPE
5
14
100
AcDbSymbolTableRecord
100
AcDbLinetypeTableRecord
2
BYBLOCK
70
0
0
LTYPE
5
15
100
AcDbSymbolTableRecord
100
AcDbLinetypeTableRecord
2
BYLAYER
70
0
0
ENDTAB
0
TABLE
2
LAYER
5
2
100
AcDbSymbolTable
70
2
0
LAYER
5
50
100
AcDbSymbolTableRecord
100
AcDbLayerTableRecord
2
0
70
0
6
CONTINUOUS
0
ENDTAB
0
TABLE
2
STYLE
5
3
100
AcDbSymbolTable
70
1
0
STYLE
5
11
100
AcDbSymbolTableRecord
100
AcDbTextStyleTableRecord
2
STANDARD
70
0
0
ENDTAB
0
TABLE
2
VIEW
5
6
100
AcDbSymbolTable
70
0
0
ENDTAB
0
TABLE
2
UCS
5
7
100
AcDbSymbolTable
70
0
0
ENDTAB
0
TABLE
2
APPID
5
9
100
AcDbSymbolTable
70
2
0
APPID
5
12
100
AcDbSymbolTableRecord
100
AcDbRegAppTableRecord
2
ACAD
70
0
0
ENDTAB
0
TABLE
2
DIMSTYLE
5
A
100
AcDbSymbolTable
70
1
0
ENDTAB
0
TABLE
2
BLOCK_RECORD
5
1
100
AcDbSymbolTable
70
1
0
BLOCK_RECORD
5
1F
100
AcDbSymbolTableRecord
100
AcDbBlockTableRecord
2
*MODEL_SPACE
0
BLOCK_RECORD
5
1B
100
AcDbSymbolTableRecord
100
AcDbBlockTableRecord
2
*PAPER_SPACE
0
ENDTAB
0
ENDSEC
0
SECTION
2
BLOCKS
0
BLOCK
5
20
100
AcDbEntity
100
AcDbBlockBegin
2
*MODEL_SPACE
0
ENDBLK
5
21
100
AcDbEntity
100
AcDbBlockEnd
0
BLOCK
5
1C
100
AcDbEntity
100
AcDbBlockBegin
2
*PAPER_SPACE
0
ENDBLK
5
1D
100
AcDbEntity
100
AcDbBlockEnd
0
ENDSEC
0
SECTION
2
ENTITIES
0
LINE
5
100
100
AcDbEntity
8
0
100
AcDbLine
10
28.409169000000006
20
806.84669300000007
30
0
11
29.721995000000003
21
808.51709100000005
31
0
0
LINE
5
101
100
AcDbEntity
8
0
100
AcDbLine
10
30.246866000000008
20
809.43060100000002
30
0
11
30.550262000000007
21
810.29235500000004
31
0
0
LINE
5
102
100
AcDbEntity
8
0
100
AcDbLine
10
25.216545000000004
20
811.84735400000011
30
0
11
25.260719000000002
21
810.58535500000005
31
0
0
LINE
5
103
100
AcDbEntity
8
0
100
AcDbLine
10
27.113917000000004
20
805.77152100000012
30
0
11
28.409169000000006
21
806.84669300000007
31
0
0
LINE
5
104
100
AcDbEntity
8
0
100
AcDbLine
10
30.163477000000007
20
813.87253900000007
30
0
11
29.439936000000007
21
816.19803700000011
31
0
0
LWPOLYLINE
5
105
100
AcDbEntity
8
0
100
AcDbPolyline
90
12
70
1
43
0.0
10
29.703288000000008
20
819.01537000000008
10
30.163155000000007
20
818.49346800000012
10
30.422383000000007
20
817.72929700000009
10
30.373610000000006
20
817.03935000000001
10
29.844768000000009
20
816.58551900000009
10
23.605448000000003
20
814.52416100000005
10
22.906325000000006
20
814.57229400000006
10
22.446458000000003
20
815.09419600000001
10
22.187230000000007
20
815.85836700000004
10
22.236003000000007
20
816.548315
10
22.764845000000005
20
817.00214600000004
10
29.004165000000004
20
819.06350400000008
0
LINE
5
106
100
AcDbEntity
8
0
100
AcDbLine
10
30.615504000000008
20
811.99074100000007
30
0
11
30.163477000000007
21
813.87253900000007
31
0
0
LINE
5
107
100
AcDbEntity
8
0
100
AcDbLine
10
25.21606700000001
20
805.44699400000002
30
0
11
25.841760000000008
21
805.37028700000008
31
0
0
LINE
5
108
100
AcDbEntity
8
0
100
AcDbLine
10
30.550262000000007
20
810.29235500000004
30
0
11
30.662901000000012
21
811.13488900000004
31
0
0
LINE
5
109
100
AcDbEntity
8
0
100
AcDbLine
10
29.721995000000003
20
808.51709100000005
30
0
11
30.246866000000008
21
809.43060100000002
31
0
0
LINE
5
110
100
AcDbEntity
8
0
100
AcDbLine
10
24.322086000000009
20
814.67912699999999
30
0
11
24.831334000000002
21
813.22784100000013
31
0
0
LINE
5
111
100
AcDbEntity
8
0
100
AcDbLine
10
23.881418000000011
20
806.43851000000018
30
0
11
24.598217000000009
21
805.72170400000005
31
0
0
LINE
5
112
100
AcDbEntity
8
0
100
AcDbLine
10
30.662901000000012
20
811.13488900000004
30
0
11
30.615504000000008
21
811.99074100000007
31
0
0
LINE
5
113
100
AcDbEntity
8
0
100
AcDbLine
10
24.831334000000002
20
813.22784100000013
30
0
11
25.216545000000004
21
811.84735400000011
31
0
0
LINE
5
114
100
AcDbEntity
8
0
100
AcDbLine
10
24.598217000000009
20
805.72170400000005
30
0
11
25.21606700000001
21
805.44699400000002
31
0
0
LINE
5
115
100
AcDbEntity
8
0
100
AcDbLine
10
25.087106000000006
20
810.01369199999999
30
0
11
24.746859000000008
21
809.48953400000005
31
0
0
LINE
5
116
100
AcDbEntity
8
0
100
AcDbLine
10
25.260719000000002
20
810.58535500000005
30
0
11
25.087106000000006
21
810.01369199999999
31
0
0
LINE
5
117
100
AcDbEntity
8
0
100
AcDbLine
10
23.984050000000003
20
808.37560700000017
30
0
11
23.686132000000004
21
807.34087100000011
31
0
0
LINE
5
118
100
AcDbEntity
8
0
100
AcDbLine
10
26.474607000000006
20
805.48174200000005
30
0
11
27.113917000000004
21
805.77152100000012
31
0
0
LINE
5
119
100
AcDbEntity
8
0
100
AcDbLine
10
24.746859000000008
20
809.48953400000005
30
0
11
23.984050000000003
21
808.37560700000017
31
0
0
LINE
5
120
100
AcDbEntity
8
0
100
AcDbLine
10
23.686132000000004
20
807.34087100000011
30
0
11
23.881418000000011
21
806.43851000000018
31
0
0
LINE
5
121
100
AcDbEntity
8
0
100
AcDbLine
10
25.841760000000008
20
805.37028700000008
30
0
11
26.474607000000006
21
805.48174200000005
31
0
0
LINE
5
122
100
AcDbEntity
8
0
100
AcDbLine
10
29.439936000000007
20
816.19803700000011
30
0
11
29.364356894112138
21
816.4267998965704
31
0
0
LINE
5
123
100
AcDbEntity
8
0
100
AcDbLine
10
24.322086000000009
20
814.67912699999999
30
0
11
24.297720873671128
21
814.75287538335033
31
0
0
ENDSEC
0
SECTION
2
OBJECTS
0
DICTIONARY
5
C
100
AcDbDictionary
3
ACAD_GROUP
350
D
3
ACAD_MLINESTYLE
350
17
0
DICTIONARY
5
D
100
AcDbDictionary
0
DICTIONARY
5
1A
330
C
100
AcDbDictionary
0
DICTIONARY
5
17
100
AcDbDictionary
0
ENDSEC
0
EOF
