%TF.GenerationSoftware,KiCad,Pcbnew,(7.0.0)*%
%TF.CreationDate,2023-11-19T14:20:11+01:00*%
%TF.ProjectId,Middle,4d696464-6c65-42e6-9b69-6361645f7063,rev?*%
%TF.SameCoordinates,Original*%
%TF.FileFunction,Drillmap*%
%TF.FilePolarity,Positive*%
%FSLAX45Y45*%
G04 Gerber Fmt 4.5, Leading zero omitted, Abs format (unit mm)*
G04 Created by KiCad (PCBNEW (7.0.0)) date 2023-11-19 14:20:11*
%MOMM*%
%LPD*%
G01*
G04 APERTURE LIST*
%ADD10C,0.200000*%
G04 APERTURE END LIST*
D10*
X9350000Y-13500000D02*
G75*
G03*
X9500000Y-13350000I0J150000D01*
G01*
X10300000Y-6150000D02*
X10300000Y-6267157D01*
X16950000Y-13800000D02*
X16970884Y-13800616D01*
X16992195Y-13802791D01*
X17013274Y-13807061D01*
X17022825Y-13809932D01*
X8904388Y-13898409D02*
X8901402Y-13919236D01*
X8900125Y-13940349D01*
X8900000Y-13950000D01*
X8909933Y-8472825D02*
X8917841Y-8491331D01*
X8928923Y-8508050D01*
X8930669Y-8510116D01*
X15599999Y-6408575D02*
G75*
G03*
X15700000Y-6267157I-49989J141415D01*
G01*
X8900000Y-14050000D02*
X8900617Y-14070883D01*
X8902791Y-14092195D01*
X8907061Y-14113274D01*
X8909933Y-14122825D01*
X8900000Y-13950000D02*
X8900000Y-14050000D01*
X10300003Y-6267157D02*
G75*
G03*
X10400000Y-6408579I149997J-3D01*
G01*
X15600000Y-6408579D02*
G75*
G03*
X15506459Y-6506459I50000J-141421D01*
G01*
X9500000Y-9000000D02*
X9500000Y-13350000D01*
X8998409Y-8545612D02*
X9019236Y-8548598D01*
X9040349Y-8549875D01*
X9050000Y-8550000D01*
X16100000Y-9400000D02*
G75*
G03*
X16100000Y-9400000I-100000J0D01*
G01*
X17001591Y-14195612D02*
X16980764Y-14198598D01*
X16959651Y-14199875D01*
X16950000Y-14200000D01*
X17082823Y-13859935D02*
X17090577Y-13878711D01*
X17095612Y-13898409D01*
X8977175Y-7809932D02*
X8958669Y-7817841D01*
X8941950Y-7828923D01*
X8939884Y-7830669D01*
X16800000Y-13650000D02*
G75*
G03*
X16650000Y-13500000I-150000J0D01*
G01*
X10100000Y-12600000D02*
G75*
G03*
X10100000Y-12600000I-100000J0D01*
G01*
X8998409Y-14195612D02*
X9019236Y-14198598D01*
X9040349Y-14199875D01*
X9050000Y-14200000D01*
X15700000Y-6267157D02*
X15700000Y-6150000D01*
X8959935Y-8532823D02*
X8978712Y-8540577D01*
X8998409Y-8545612D01*
X8900000Y-8400000D02*
X8900617Y-8420884D01*
X8902791Y-8442195D01*
X8907061Y-8463274D01*
X8909933Y-8472825D01*
X17069331Y-14160116D02*
X17053946Y-14174262D01*
X17040065Y-14182823D01*
X17040065Y-14182823D02*
X17021288Y-14190576D01*
X17001591Y-14195612D01*
X10550000Y-7800000D02*
G75*
G03*
X10700000Y-7650000I0J150000D01*
G01*
X17069331Y-8510116D02*
X17053946Y-8524263D01*
X17040065Y-8532823D01*
X17100000Y-14050000D02*
X17100000Y-13950000D01*
X15300000Y-7650000D02*
X15300000Y-6750000D01*
X10493542Y-6506459D02*
G75*
G03*
X10593541Y-6606458I143539J43539D01*
G01*
X10700000Y-6750000D02*
X10700000Y-7650000D01*
X9050000Y-14200000D02*
X16950000Y-14200000D01*
X16950000Y-8550000D02*
G75*
G03*
X16800000Y-8700000I0J-150000D01*
G01*
X17001591Y-8545612D02*
X16980764Y-8548598D01*
X16959651Y-8549875D01*
X16950000Y-8550000D01*
X15300000Y-7650000D02*
G75*
G03*
X15450000Y-7800000I150000J0D01*
G01*
X10450000Y-6000000D02*
G75*
G03*
X10300000Y-6150000I0J-150000D01*
G01*
X17100000Y-14050000D02*
X17099383Y-14070883D01*
X17097209Y-14092195D01*
X17092939Y-14113274D01*
X17090068Y-14122825D01*
X8959935Y-14182823D02*
X8978712Y-14190576D01*
X8998409Y-14195612D01*
X16650000Y-8850000D02*
G75*
G03*
X16500000Y-9000000I0J-150000D01*
G01*
X17022825Y-13809932D02*
X17041331Y-13817841D01*
X17058050Y-13828923D01*
X17060116Y-13830669D01*
X15700000Y-6150000D02*
G75*
G03*
X15550000Y-6000000I-150000J0D01*
G01*
X10493541Y-6506459D02*
G75*
G03*
X10400000Y-6408579I-143541J-43541D01*
G01*
X9050000Y-7800000D02*
X9029116Y-7800616D01*
X9007805Y-7802791D01*
X8986726Y-7807061D01*
X8977175Y-7809932D01*
X10700000Y-6750000D02*
G75*
G03*
X10593541Y-6606459I-150000J0D01*
G01*
X17100000Y-8400000D02*
X17099383Y-8420884D01*
X17097209Y-8442195D01*
X17092939Y-8463274D01*
X17090068Y-8472825D01*
X17095612Y-7898409D02*
X17098598Y-7919236D01*
X17099875Y-7940349D01*
X17100000Y-7950000D01*
X15406459Y-6606458D02*
G75*
G03*
X15506458Y-6506459I-43539J143539D01*
G01*
X16650000Y-8850000D02*
G75*
G03*
X16800000Y-8700000I0J150000D01*
G01*
X17090068Y-8472825D02*
X17082159Y-8491331D01*
X17071077Y-8508050D01*
X17069331Y-8510116D01*
X17082823Y-7859935D02*
X17090577Y-7878711D01*
X17095612Y-7898409D01*
X15550000Y-6000000D02*
X10450000Y-6000000D01*
X8900000Y-7950000D02*
X8900000Y-8400000D01*
X15406459Y-6606459D02*
G75*
G03*
X15300000Y-6750000I43541J-143541D01*
G01*
X9050000Y-13800000D02*
X9029116Y-13800616D01*
X9007805Y-13802791D01*
X8986726Y-13807061D01*
X8977175Y-13809932D01*
X17060116Y-7830669D02*
X17074263Y-7846054D01*
X17082823Y-7859935D01*
X17040065Y-8532823D02*
X17021288Y-8540577D01*
X17001591Y-8545612D01*
X17090068Y-14122825D02*
X17082159Y-14141331D01*
X17071077Y-14158050D01*
X17069331Y-14160116D01*
X17095612Y-13898409D02*
X17098598Y-13919236D01*
X17099875Y-13940349D01*
X17100000Y-13950000D01*
X17100000Y-8400000D02*
X17100000Y-7950000D01*
X9200000Y-8700000D02*
G75*
G03*
X9350000Y-8850000I150000J0D01*
G01*
X8904388Y-7898409D02*
X8901402Y-7919236D01*
X8900125Y-7940349D01*
X8900000Y-7950000D01*
X16950000Y-7800000D02*
X16970884Y-7800616D01*
X16992195Y-7802791D01*
X17013274Y-7807061D01*
X17022825Y-7809932D01*
X8930669Y-8510116D02*
X8946054Y-8524263D01*
X8959935Y-8532823D01*
X17060116Y-13830669D02*
X17074263Y-13846054D01*
X17082823Y-13859935D01*
X8930669Y-14160116D02*
X8946054Y-14174262D01*
X8959935Y-14182823D01*
X9050000Y-13800000D02*
G75*
G03*
X9200000Y-13650000I0J150000D01*
G01*
X8939884Y-7830669D02*
X8925737Y-7846054D01*
X8917177Y-7859935D01*
X16500000Y-13350000D02*
X16500000Y-9000000D01*
X17022825Y-7809932D02*
X17041331Y-7817841D01*
X17058050Y-7828923D01*
X17060116Y-7830669D01*
X16500000Y-13350000D02*
G75*
G03*
X16650000Y-13500000I150000J0D01*
G01*
X8977175Y-13809932D02*
X8958669Y-13817841D01*
X8941950Y-13828923D01*
X8939884Y-13830669D01*
X10550000Y-7800000D02*
X9050000Y-7800000D01*
X16100000Y-12600000D02*
G75*
G03*
X16100000Y-12600000I-100000J0D01*
G01*
X8917177Y-7859935D02*
X8909423Y-7878711D01*
X8904388Y-7898409D01*
X9200000Y-8700000D02*
G75*
G03*
X9050000Y-8550000I-150000J0D01*
G01*
X16800000Y-13650000D02*
G75*
G03*
X16950000Y-13800000I150000J0D01*
G01*
X9500000Y-9000000D02*
G75*
G03*
X9350000Y-8850000I-150000J0D01*
G01*
X8939884Y-13830669D02*
X8925737Y-13846054D01*
X8917177Y-13859935D01*
X16950000Y-7800000D02*
X15450000Y-7800000D01*
X10100000Y-9400000D02*
G75*
G03*
X10100000Y-9400000I-100000J0D01*
G01*
X8909933Y-14122825D02*
X8917841Y-14141331D01*
X8928923Y-14158050D01*
X8930669Y-14160116D01*
X9350000Y-13500000D02*
G75*
G03*
X9200000Y-13650000I0J-150000D01*
G01*
X8917177Y-13859935D02*
X8909423Y-13878711D01*
X8904388Y-13898409D01*
X9137619Y-14503476D02*
X9137619Y-14303476D01*
X9137619Y-14303476D02*
X9185238Y-14303476D01*
X9185238Y-14303476D02*
X9213810Y-14313000D01*
X9213810Y-14313000D02*
X9232857Y-14332048D01*
X9232857Y-14332048D02*
X9242381Y-14351095D01*
X9242381Y-14351095D02*
X9251905Y-14389190D01*
X9251905Y-14389190D02*
X9251905Y-14417762D01*
X9251905Y-14417762D02*
X9242381Y-14455857D01*
X9242381Y-14455857D02*
X9232857Y-14474905D01*
X9232857Y-14474905D02*
X9213810Y-14493952D01*
X9213810Y-14493952D02*
X9185238Y-14503476D01*
X9185238Y-14503476D02*
X9137619Y-14503476D01*
X9337619Y-14503476D02*
X9337619Y-14370143D01*
X9337619Y-14408238D02*
X9347143Y-14389190D01*
X9347143Y-14389190D02*
X9356667Y-14379667D01*
X9356667Y-14379667D02*
X9375714Y-14370143D01*
X9375714Y-14370143D02*
X9394762Y-14370143D01*
X9461429Y-14503476D02*
X9461429Y-14370143D01*
X9461429Y-14303476D02*
X9451905Y-14313000D01*
X9451905Y-14313000D02*
X9461429Y-14322524D01*
X9461429Y-14322524D02*
X9470952Y-14313000D01*
X9470952Y-14313000D02*
X9461429Y-14303476D01*
X9461429Y-14303476D02*
X9461429Y-14322524D01*
X9585238Y-14503476D02*
X9566190Y-14493952D01*
X9566190Y-14493952D02*
X9556667Y-14474905D01*
X9556667Y-14474905D02*
X9556667Y-14303476D01*
X9690000Y-14503476D02*
X9670952Y-14493952D01*
X9670952Y-14493952D02*
X9661429Y-14474905D01*
X9661429Y-14474905D02*
X9661429Y-14303476D01*
X9886190Y-14503476D02*
X9886190Y-14303476D01*
X9886190Y-14303476D02*
X9952857Y-14446333D01*
X9952857Y-14446333D02*
X10019524Y-14303476D01*
X10019524Y-14303476D02*
X10019524Y-14503476D01*
X10200476Y-14503476D02*
X10200476Y-14398714D01*
X10200476Y-14398714D02*
X10190952Y-14379667D01*
X10190952Y-14379667D02*
X10171905Y-14370143D01*
X10171905Y-14370143D02*
X10133809Y-14370143D01*
X10133809Y-14370143D02*
X10114762Y-14379667D01*
X10200476Y-14493952D02*
X10181429Y-14503476D01*
X10181429Y-14503476D02*
X10133809Y-14503476D01*
X10133809Y-14503476D02*
X10114762Y-14493952D01*
X10114762Y-14493952D02*
X10105238Y-14474905D01*
X10105238Y-14474905D02*
X10105238Y-14455857D01*
X10105238Y-14455857D02*
X10114762Y-14436809D01*
X10114762Y-14436809D02*
X10133809Y-14427286D01*
X10133809Y-14427286D02*
X10181429Y-14427286D01*
X10181429Y-14427286D02*
X10200476Y-14417762D01*
X10295714Y-14370143D02*
X10295714Y-14570143D01*
X10295714Y-14379667D02*
X10314762Y-14370143D01*
X10314762Y-14370143D02*
X10352857Y-14370143D01*
X10352857Y-14370143D02*
X10371905Y-14379667D01*
X10371905Y-14379667D02*
X10381429Y-14389190D01*
X10381429Y-14389190D02*
X10390952Y-14408238D01*
X10390952Y-14408238D02*
X10390952Y-14465381D01*
X10390952Y-14465381D02*
X10381429Y-14484428D01*
X10381429Y-14484428D02*
X10371905Y-14493952D01*
X10371905Y-14493952D02*
X10352857Y-14503476D01*
X10352857Y-14503476D02*
X10314762Y-14503476D01*
X10314762Y-14503476D02*
X10295714Y-14493952D01*
X10476667Y-14484428D02*
X10486190Y-14493952D01*
X10486190Y-14493952D02*
X10476667Y-14503476D01*
X10476667Y-14503476D02*
X10467143Y-14493952D01*
X10467143Y-14493952D02*
X10476667Y-14484428D01*
X10476667Y-14484428D02*
X10476667Y-14503476D01*
X10476667Y-14379667D02*
X10486190Y-14389190D01*
X10486190Y-14389190D02*
X10476667Y-14398714D01*
X10476667Y-14398714D02*
X10467143Y-14389190D01*
X10467143Y-14389190D02*
X10476667Y-14379667D01*
X10476667Y-14379667D02*
X10476667Y-14398714D01*
M02*
