G04 #@! TF.GenerationSoftware,KiCad,Pcbnew,(7.0.0)*
G04 #@! TF.CreationDate,2023-11-19T14:20:01+01:00*
G04 #@! TF.ProjectId,Middle,4d696464-6c65-42e6-9b69-6361645f7063,rev?*
G04 #@! TF.SameCoordinates,Original*
G04 #@! TF.FileFunction,Legend,Bot*
G04 #@! TF.FilePolarity,Positive*
%FSLAX46Y46*%
G04 Gerber Fmt 4.6, Leading zero omitted, Abs format (unit mm)*
G04 Created by KiCad (PCBNEW (7.0.0)) date 2023-11-19 14:20:01*
%MOMM*%
%LPD*%
G01*
G04 APERTURE LIST*
G04 Aperture macros list*
%AMRoundRect*
0 Rectangle with rounded corners*
0 $1 Rounding radius*
0 $2 $3 $4 $5 $6 $7 $8 $9 X,Y pos of 4 corners*
0 Add a 4 corners polygon primitive as box body*
4,1,4,$2,$3,$4,$5,$6,$7,$8,$9,$2,$3,0*
0 Add four circle primitives for the rounded corners*
1,1,$1+$1,$2,$3*
1,1,$1+$1,$4,$5*
1,1,$1+$1,$6,$7*
1,1,$1+$1,$8,$9*
0 Add four rect primitives between the rounded corners*
20,1,$1+$1,$2,$3,$4,$5,0*
20,1,$1+$1,$4,$5,$6,$7,0*
20,1,$1+$1,$6,$7,$8,$9,0*
20,1,$1+$1,$8,$9,$2,$3,0*%
G04 Aperture macros list end*
%ADD10C,0.200000*%
%ADD11C,0.150000*%
%ADD12C,0.100000*%
%ADD13R,1.700000X1.700000*%
%ADD14O,1.700000X1.700000*%
%ADD15RoundRect,0.205000X0.557000X-0.205000X0.557000X0.205000X-0.557000X0.205000X-0.557000X-0.205000X0*%
%ADD16RoundRect,0.215500X0.546500X-0.215500X0.546500X0.215500X-0.546500X0.215500X-0.546500X-0.215500X0*%
%ADD17RoundRect,0.250000X0.512000X-0.250000X0.512000X0.250000X-0.512000X0.250000X-0.512000X-0.250000X0*%
%ADD18O,2.200000X1.000000*%
G04 APERTURE END LIST*
D10*
X154276190Y-138582380D02*
X154276190Y-139296666D01*
X154276190Y-139296666D02*
X154323809Y-139439523D01*
X154323809Y-139439523D02*
X154419047Y-139534761D01*
X154419047Y-139534761D02*
X154561904Y-139582380D01*
X154561904Y-139582380D02*
X154657142Y-139582380D01*
X153323809Y-139582380D02*
X153799999Y-139582380D01*
X153799999Y-139582380D02*
X153799999Y-138582380D01*
X152419047Y-139487142D02*
X152466666Y-139534761D01*
X152466666Y-139534761D02*
X152609523Y-139582380D01*
X152609523Y-139582380D02*
X152704761Y-139582380D01*
X152704761Y-139582380D02*
X152847618Y-139534761D01*
X152847618Y-139534761D02*
X152942856Y-139439523D01*
X152942856Y-139439523D02*
X152990475Y-139344285D01*
X152990475Y-139344285D02*
X153038094Y-139153809D01*
X153038094Y-139153809D02*
X153038094Y-139010952D01*
X153038094Y-139010952D02*
X152990475Y-138820476D01*
X152990475Y-138820476D02*
X152942856Y-138725238D01*
X152942856Y-138725238D02*
X152847618Y-138630000D01*
X152847618Y-138630000D02*
X152704761Y-138582380D01*
X152704761Y-138582380D02*
X152609523Y-138582380D01*
X152609523Y-138582380D02*
X152466666Y-138630000D01*
X152466666Y-138630000D02*
X152419047Y-138677619D01*
X151704761Y-138582380D02*
X151704761Y-139296666D01*
X151704761Y-139296666D02*
X151752380Y-139439523D01*
X151752380Y-139439523D02*
X151847618Y-139534761D01*
X151847618Y-139534761D02*
X151990475Y-139582380D01*
X151990475Y-139582380D02*
X152085713Y-139582380D01*
X150752380Y-139582380D02*
X151228570Y-139582380D01*
X151228570Y-139582380D02*
X151228570Y-138582380D01*
X149847618Y-139487142D02*
X149895237Y-139534761D01*
X149895237Y-139534761D02*
X150038094Y-139582380D01*
X150038094Y-139582380D02*
X150133332Y-139582380D01*
X150133332Y-139582380D02*
X150276189Y-139534761D01*
X150276189Y-139534761D02*
X150371427Y-139439523D01*
X150371427Y-139439523D02*
X150419046Y-139344285D01*
X150419046Y-139344285D02*
X150466665Y-139153809D01*
X150466665Y-139153809D02*
X150466665Y-139010952D01*
X150466665Y-139010952D02*
X150419046Y-138820476D01*
X150419046Y-138820476D02*
X150371427Y-138725238D01*
X150371427Y-138725238D02*
X150276189Y-138630000D01*
X150276189Y-138630000D02*
X150133332Y-138582380D01*
X150133332Y-138582380D02*
X150038094Y-138582380D01*
X150038094Y-138582380D02*
X149895237Y-138630000D01*
X149895237Y-138630000D02*
X149847618Y-138677619D01*
X149133332Y-138582380D02*
X149133332Y-139296666D01*
X149133332Y-139296666D02*
X149180951Y-139439523D01*
X149180951Y-139439523D02*
X149276189Y-139534761D01*
X149276189Y-139534761D02*
X149419046Y-139582380D01*
X149419046Y-139582380D02*
X149514284Y-139582380D01*
X148180951Y-139582380D02*
X148657141Y-139582380D01*
X148657141Y-139582380D02*
X148657141Y-138582380D01*
X147276189Y-139487142D02*
X147323808Y-139534761D01*
X147323808Y-139534761D02*
X147466665Y-139582380D01*
X147466665Y-139582380D02*
X147561903Y-139582380D01*
X147561903Y-139582380D02*
X147704760Y-139534761D01*
X147704760Y-139534761D02*
X147799998Y-139439523D01*
X147799998Y-139439523D02*
X147847617Y-139344285D01*
X147847617Y-139344285D02*
X147895236Y-139153809D01*
X147895236Y-139153809D02*
X147895236Y-139010952D01*
X147895236Y-139010952D02*
X147847617Y-138820476D01*
X147847617Y-138820476D02*
X147799998Y-138725238D01*
X147799998Y-138725238D02*
X147704760Y-138630000D01*
X147704760Y-138630000D02*
X147561903Y-138582380D01*
X147561903Y-138582380D02*
X147466665Y-138582380D01*
X147466665Y-138582380D02*
X147323808Y-138630000D01*
X147323808Y-138630000D02*
X147276189Y-138677619D01*
X146561903Y-138582380D02*
X146561903Y-139296666D01*
X146561903Y-139296666D02*
X146609522Y-139439523D01*
X146609522Y-139439523D02*
X146704760Y-139534761D01*
X146704760Y-139534761D02*
X146847617Y-139582380D01*
X146847617Y-139582380D02*
X146942855Y-139582380D01*
X145609522Y-139582380D02*
X146085712Y-139582380D01*
X146085712Y-139582380D02*
X146085712Y-138582380D01*
X144704760Y-139487142D02*
X144752379Y-139534761D01*
X144752379Y-139534761D02*
X144895236Y-139582380D01*
X144895236Y-139582380D02*
X144990474Y-139582380D01*
X144990474Y-139582380D02*
X145133331Y-139534761D01*
X145133331Y-139534761D02*
X145228569Y-139439523D01*
X145228569Y-139439523D02*
X145276188Y-139344285D01*
X145276188Y-139344285D02*
X145323807Y-139153809D01*
X145323807Y-139153809D02*
X145323807Y-139010952D01*
X145323807Y-139010952D02*
X145276188Y-138820476D01*
X145276188Y-138820476D02*
X145228569Y-138725238D01*
X145228569Y-138725238D02*
X145133331Y-138630000D01*
X145133331Y-138630000D02*
X144990474Y-138582380D01*
X144990474Y-138582380D02*
X144895236Y-138582380D01*
X144895236Y-138582380D02*
X144752379Y-138630000D01*
X144752379Y-138630000D02*
X144704760Y-138677619D01*
D11*
X163832619Y-134433333D02*
X163118333Y-134433333D01*
X163118333Y-134433333D02*
X162975476Y-134480952D01*
X162975476Y-134480952D02*
X162880238Y-134576190D01*
X162880238Y-134576190D02*
X162832619Y-134719047D01*
X162832619Y-134719047D02*
X162832619Y-134814285D01*
X162832619Y-133433333D02*
X162832619Y-134004761D01*
X162832619Y-133719047D02*
X163832619Y-133719047D01*
X163832619Y-133719047D02*
X163689761Y-133814285D01*
X163689761Y-133814285D02*
X163594523Y-133909523D01*
X163594523Y-133909523D02*
X163546904Y-134004761D01*
D12*
X159750000Y-138470000D02*
X160310000Y-138470000D01*
X161610000Y-137170000D02*
X161610000Y-130830000D01*
X158450000Y-130830000D02*
X158450000Y-137170000D01*
X160310000Y-129530000D02*
X159750000Y-129530000D01*
X158450000Y-137170000D02*
G75*
G03*
X159750000Y-138470000I1299999J-1D01*
G01*
X160310000Y-138470000D02*
G75*
G03*
X161610000Y-137170000I1J1299999D01*
G01*
X159750000Y-129530000D02*
G75*
G03*
X158450000Y-130830000I0J-1300000D01*
G01*
X161610000Y-130830000D02*
G75*
G03*
X160310000Y-129530000I-1300000J0D01*
G01*
%LPC*%
D13*
X159999999Y-106199999D03*
D14*
X159999999Y-108739999D03*
X159999999Y-111279999D03*
X159999999Y-113819999D03*
D13*
X99999999Y-106199999D03*
D14*
X99999999Y-108739999D03*
X99999999Y-111279999D03*
X99999999Y-113819999D03*
D15*
X159900000Y-134500000D03*
D16*
X159900000Y-132480000D03*
D17*
X159900000Y-131250000D03*
D15*
X159900000Y-133500000D03*
D16*
X159900000Y-135520000D03*
D17*
X159900000Y-136750000D03*
D18*
X159779999Y-138319999D03*
X159779999Y-129679999D03*
G36*
X154938000Y-88016613D02*
G01*
X154983387Y-88062000D01*
X155000000Y-88124000D01*
X155000000Y-137876000D01*
X154983387Y-137938000D01*
X154938000Y-137983387D01*
X154876000Y-138000000D01*
X105124000Y-138000000D01*
X105062000Y-137983387D01*
X105016613Y-137938000D01*
X105000000Y-137876000D01*
X105000000Y-88124000D01*
X105016613Y-88062000D01*
X105062000Y-88016613D01*
X105124000Y-88000000D01*
X154876000Y-88000000D01*
X154938000Y-88016613D01*
G37*
M02*
