G04 #@! TF.GenerationSoftware,KiCad,Pcbnew,(7.0.0)*
G04 #@! TF.CreationDate,2023-11-19T14:20:01+01:00*
G04 #@! TF.ProjectId,Middle,4d696464-6c65-42e6-9b69-6361645f7063,rev?*
G04 #@! TF.SameCoordinates,Original*
G04 #@! TF.FileFunction,Copper,L2,Bot*
G04 #@! TF.FilePolarity,Positive*
%FSLAX46Y46*%
G04 Gerber Fmt 4.6, Leading zero omitted, Abs format (unit mm)*
G04 Created by KiCad (PCBNEW (7.0.0)) date 2023-11-19 14:20:01*
%MOMM*%
%LPD*%
G01*
G04 APERTURE LIST*
G04 Aperture macros list*
%AMRoundRect*
0 Rectangle with rounded corners*
0 $1 Rounding radius*
0 $2 $3 $4 $5 $6 $7 $8 $9 X,Y pos of 4 corners*
0 Add a 4 corners polygon primitive as box body*
4,1,4,$2,$3,$4,$5,$6,$7,$8,$9,$2,$3,0*
0 Add four circle primitives for the rounded corners*
1,1,$1+$1,$2,$3*
1,1,$1+$1,$4,$5*
1,1,$1+$1,$6,$7*
1,1,$1+$1,$8,$9*
0 Add four rect primitives between the rounded corners*
20,1,$1+$1,$2,$3,$4,$5,0*
20,1,$1+$1,$4,$5,$6,$7,0*
20,1,$1+$1,$6,$7,$8,$9,0*
20,1,$1+$1,$8,$9,$2,$3,0*%
G04 Aperture macros list end*
G04 #@! TA.AperFunction,ComponentPad*
%ADD10R,1.700000X1.700000*%
G04 #@! TD*
G04 #@! TA.AperFunction,ComponentPad*
%ADD11O,1.700000X1.700000*%
G04 #@! TD*
G04 #@! TA.AperFunction,ComponentPad*
%ADD12RoundRect,0.205000X0.557000X-0.205000X0.557000X0.205000X-0.557000X0.205000X-0.557000X-0.205000X0*%
G04 #@! TD*
G04 #@! TA.AperFunction,ComponentPad*
%ADD13RoundRect,0.215500X0.546500X-0.215500X0.546500X0.215500X-0.546500X0.215500X-0.546500X-0.215500X0*%
G04 #@! TD*
G04 #@! TA.AperFunction,ComponentPad*
%ADD14RoundRect,0.250000X0.512000X-0.250000X0.512000X0.250000X-0.512000X0.250000X-0.512000X-0.250000X0*%
G04 #@! TD*
G04 #@! TA.AperFunction,ComponentPad*
%ADD15O,2.200000X1.000000*%
G04 #@! TD*
G04 APERTURE END LIST*
D10*
X159999999Y-106199999D03*
D11*
X159999999Y-108739999D03*
X159999999Y-111279999D03*
X159999999Y-113819999D03*
D10*
X99999999Y-106199999D03*
D11*
X99999999Y-108739999D03*
X99999999Y-111279999D03*
X99999999Y-113819999D03*
D12*
X159900000Y-134500000D03*
D13*
X159900000Y-132480000D03*
D14*
X159900000Y-131250000D03*
D12*
X159900000Y-133500000D03*
D13*
X159900000Y-135520000D03*
D14*
X159900000Y-136750000D03*
D15*
X159779999Y-138319999D03*
X159779999Y-129679999D03*
G04 #@! TA.AperFunction,Conductor*
G36*
X116347192Y-60019738D02*
G01*
X116392947Y-60071482D01*
X116403921Y-60139677D01*
X116376708Y-60203163D01*
X116319752Y-60242241D01*
X111265683Y-61912013D01*
X111265680Y-61912014D01*
X111254165Y-61915819D01*
X111244961Y-61923716D01*
X111244958Y-61923719D01*
X110267889Y-62762201D01*
X110267887Y-62762203D01*
X110258556Y-62770211D01*
X110257688Y-62782476D01*
X110257688Y-62782480D01*
X110167008Y-64065255D01*
X110166136Y-64077594D01*
X110170108Y-64089304D01*
X110170109Y-64089308D01*
X110499489Y-65060277D01*
X110554412Y-65222182D01*
X110562539Y-65231405D01*
X110562540Y-65231407D01*
X110935227Y-65654368D01*
X111418318Y-66202627D01*
X112633064Y-66286259D01*
X112682782Y-66300492D01*
X112722372Y-66333770D01*
X112744944Y-66380303D01*
X112867314Y-66877012D01*
X112867323Y-66877046D01*
X112867539Y-66877923D01*
X112867786Y-66878808D01*
X112867792Y-66878831D01*
X113207977Y-68097955D01*
X113212464Y-68126945D01*
X113245411Y-69068180D01*
X113240136Y-69108552D01*
X113167063Y-69349158D01*
X113152422Y-69380639D01*
X112906253Y-69759868D01*
X112904555Y-69762414D01*
X112063996Y-70989880D01*
X112063993Y-70989885D01*
X112058377Y-70998087D01*
X112055625Y-71007641D01*
X112055625Y-71007644D01*
X111650361Y-72415213D01*
X111650360Y-72415215D01*
X111646107Y-72429990D01*
X111649359Y-72445016D01*
X111649359Y-72445019D01*
X111879738Y-73509533D01*
X111877502Y-73570759D01*
X111846225Y-73623442D01*
X96739145Y-88730524D01*
X96739140Y-88730529D01*
X96734835Y-88734835D01*
X96731452Y-88739896D01*
X96731445Y-88739906D01*
X96718725Y-88758941D01*
X96710780Y-88769555D01*
X96696101Y-88787120D01*
X96696096Y-88787125D01*
X96692195Y-88791795D01*
X96689278Y-88797135D01*
X96689274Y-88797142D01*
X96683766Y-88807229D01*
X96679257Y-88814826D01*
X96669749Y-88829624D01*
X96668092Y-88833833D01*
X96665070Y-88837198D01*
X96661656Y-88846870D01*
X96661652Y-88846880D01*
X96661540Y-88847199D01*
X96660168Y-88850731D01*
X96659711Y-88851280D01*
X96658403Y-88853677D01*
X96656590Y-88859471D01*
X96656584Y-88859486D01*
X96655706Y-88862295D01*
X96647903Y-88880226D01*
X96646692Y-88883861D01*
X96640653Y-88894468D01*
X96639130Y-88906580D01*
X96638310Y-88909045D01*
X96636832Y-88913116D01*
X96636731Y-88913540D01*
X96634035Y-88920396D01*
X96634115Y-88924919D01*
X96632611Y-88929184D01*
X96631712Y-88935433D01*
X96631875Y-88938481D01*
X96629281Y-88946774D01*
X96629296Y-88946941D01*
X96628268Y-88950013D01*
X96629588Y-88950203D01*
X96628410Y-88958395D01*
X96628409Y-88958403D01*
X96627544Y-88964428D01*
X96627870Y-88970510D01*
X96627599Y-88976593D01*
X96626977Y-88976565D01*
X96626166Y-88987904D01*
X96626785Y-88987965D01*
X96626188Y-88994026D01*
X96625000Y-89000000D01*
X96625000Y-103200000D01*
X96626187Y-103205970D01*
X96626188Y-103205974D01*
X96630655Y-103228428D01*
X96632543Y-103241563D01*
X96635127Y-103270433D01*
X96636841Y-103276271D01*
X96636843Y-103276281D01*
X96640076Y-103287292D01*
X96642263Y-103295861D01*
X96644707Y-103307094D01*
X96644709Y-103307100D01*
X96646003Y-103313048D01*
X96647810Y-103317201D01*
X96648053Y-103321721D01*
X96652481Y-103330978D01*
X96652482Y-103330980D01*
X96652641Y-103331312D01*
X96654152Y-103334742D01*
X96654217Y-103335452D01*
X96654987Y-103338072D01*
X96657813Y-103343471D01*
X96659176Y-103346075D01*
X96666351Y-103364303D01*
X96668058Y-103367713D01*
X96671290Y-103379491D01*
X96678784Y-103389137D01*
X96679900Y-103391366D01*
X96681780Y-103395389D01*
X96682001Y-103395746D01*
X96684935Y-103402487D01*
X96688194Y-103405631D01*
X96690148Y-103409716D01*
X96693931Y-103414770D01*
X96696195Y-103416804D01*
X96700221Y-103424495D01*
X96700339Y-103424594D01*
X96701791Y-103427504D01*
X96702864Y-103426702D01*
X96711479Y-103438210D01*
X96716010Y-103442280D01*
X96720123Y-103446777D01*
X96719663Y-103447197D01*
X96727104Y-103455784D01*
X96727586Y-103455390D01*
X96731448Y-103460096D01*
X96734835Y-103465165D01*
X96739145Y-103469475D01*
X98163681Y-104894011D01*
X98190561Y-104934239D01*
X98200000Y-104981692D01*
X98200000Y-112500000D01*
X99138225Y-112500000D01*
X99198341Y-112515547D01*
X99243383Y-112558290D01*
X99262055Y-112617510D01*
X99249676Y-112678358D01*
X99209349Y-112725575D01*
X99133352Y-112778788D01*
X99125092Y-112785719D01*
X98965719Y-112945092D01*
X98958784Y-112953357D01*
X98829508Y-113137982D01*
X98824110Y-113147332D01*
X98728858Y-113351599D01*
X98725166Y-113361741D01*
X98686454Y-113506219D01*
X98686086Y-113517448D01*
X98697029Y-113520000D01*
X101302971Y-113520000D01*
X101313913Y-113517448D01*
X101313545Y-113506219D01*
X101274833Y-113361741D01*
X101271141Y-113351599D01*
X101175889Y-113147332D01*
X101170491Y-113137982D01*
X101041215Y-112953357D01*
X101034280Y-112945092D01*
X100874909Y-112785721D01*
X100866643Y-112778784D01*
X100790652Y-112725575D01*
X100750325Y-112678358D01*
X100737946Y-112617510D01*
X100756618Y-112558290D01*
X100801660Y-112515547D01*
X100861776Y-112500000D01*
X101783674Y-112500000D01*
X101800000Y-112500000D01*
X101800000Y-111071692D01*
X101809439Y-111024239D01*
X101836319Y-110984011D01*
X103103727Y-109716603D01*
X104465165Y-108355165D01*
X104481266Y-108331065D01*
X104489215Y-108320445D01*
X104507812Y-108298194D01*
X104516229Y-108282777D01*
X104520743Y-108275168D01*
X104530246Y-108260384D01*
X104531915Y-108256142D01*
X104534962Y-108252749D01*
X104538607Y-108242409D01*
X104539789Y-108239364D01*
X104540204Y-108238870D01*
X104541512Y-108236477D01*
X104544253Y-108227735D01*
X104552151Y-108209602D01*
X104553304Y-108206134D01*
X104559350Y-108195520D01*
X104560871Y-108183400D01*
X104561655Y-108181046D01*
X104563164Y-108176885D01*
X104563258Y-108176483D01*
X104565963Y-108169613D01*
X104565881Y-108165055D01*
X104567398Y-108160755D01*
X104568296Y-108154502D01*
X104568138Y-108151567D01*
X104570699Y-108143401D01*
X104570688Y-108143281D01*
X104571742Y-108140130D01*
X104570390Y-108139936D01*
X104571588Y-108131605D01*
X104572455Y-108125578D01*
X104572128Y-108119495D01*
X104572401Y-108113407D01*
X104573026Y-108113434D01*
X104573838Y-108102097D01*
X104573214Y-108102036D01*
X104573810Y-108095978D01*
X104575000Y-108090000D01*
X104575000Y-88000000D01*
X105000000Y-88000000D01*
X105000000Y-138000000D01*
X154983674Y-138000000D01*
X155000000Y-138000000D01*
X155000000Y-135780076D01*
X158637500Y-135780076D01*
X158637501Y-135783206D01*
X158637819Y-135786319D01*
X158637820Y-135786338D01*
X158646830Y-135874533D01*
X158647519Y-135881273D01*
X158700166Y-136040155D01*
X158703956Y-136046299D01*
X158703958Y-136046303D01*
X158705153Y-136048240D01*
X158705605Y-136049835D01*
X158707010Y-136052847D01*
X158706524Y-136053073D01*
X158723612Y-136113307D01*
X158708350Y-136167191D01*
X158710485Y-136168187D01*
X158701370Y-136187732D01*
X158650624Y-136340874D01*
X158647805Y-136354041D01*
X158639770Y-136432692D01*
X158642189Y-136446219D01*
X158655398Y-136450000D01*
X159284792Y-136450000D01*
X159297394Y-136450641D01*
X159305793Y-136451500D01*
X160494206Y-136451499D01*
X160502596Y-136450641D01*
X160515196Y-136450000D01*
X161144601Y-136450000D01*
X161157810Y-136446219D01*
X161160228Y-136432692D01*
X161152194Y-136354040D01*
X161149375Y-136340875D01*
X161098629Y-136187732D01*
X161089514Y-136168184D01*
X161091660Y-136167183D01*
X161076387Y-136113327D01*
X161093478Y-136053077D01*
X161092989Y-136052849D01*
X161094404Y-136049813D01*
X161094853Y-136048229D01*
X161099834Y-136040155D01*
X161152481Y-135881273D01*
X161162500Y-135783207D01*
X161162499Y-135256794D01*
X161152481Y-135158727D01*
X161114561Y-135044288D01*
X161108272Y-135006395D01*
X161113882Y-134968396D01*
X161156041Y-134833104D01*
X161162500Y-134762026D01*
X161162500Y-134237974D01*
X161156041Y-134166896D01*
X161115528Y-134036885D01*
X161109914Y-134000000D01*
X161115528Y-133963114D01*
X161156041Y-133833104D01*
X161162500Y-133762026D01*
X161162500Y-133237974D01*
X161156041Y-133166896D01*
X161113882Y-133031602D01*
X161108272Y-132993602D01*
X161114561Y-132955711D01*
X161152481Y-132841273D01*
X161162500Y-132743207D01*
X161162499Y-132216794D01*
X161152481Y-132118727D01*
X161099834Y-131959845D01*
X161094847Y-131951761D01*
X161094396Y-131950168D01*
X161092989Y-131947151D01*
X161093476Y-131946923D01*
X161076387Y-131886659D01*
X161091661Y-131832813D01*
X161089515Y-131831812D01*
X161098629Y-131812266D01*
X161149375Y-131659125D01*
X161152194Y-131645958D01*
X161160229Y-131567307D01*
X161157810Y-131553780D01*
X161144602Y-131550000D01*
X160515208Y-131550000D01*
X160502605Y-131549358D01*
X160497336Y-131548819D01*
X160497322Y-131548818D01*
X160494207Y-131548500D01*
X160491059Y-131548500D01*
X159308942Y-131548500D01*
X159308922Y-131548500D01*
X159305794Y-131548501D01*
X159302679Y-131548819D01*
X159302663Y-131548820D01*
X159298091Y-131549287D01*
X159297403Y-131549358D01*
X159284804Y-131550000D01*
X158655399Y-131550000D01*
X158642189Y-131553780D01*
X158639771Y-131567307D01*
X158647805Y-131645959D01*
X158650624Y-131659124D01*
X158701370Y-131812267D01*
X158710485Y-131831813D01*
X158708342Y-131832812D01*
X158723612Y-131886667D01*
X158706524Y-131946923D01*
X158707011Y-131947150D01*
X158705605Y-131950165D01*
X158705154Y-131951756D01*
X158703962Y-131953687D01*
X158703954Y-131953702D01*
X158700166Y-131959845D01*
X158697895Y-131966698D01*
X158697892Y-131966705D01*
X158649647Y-132112302D01*
X158649645Y-132112310D01*
X158647519Y-132118727D01*
X158646831Y-132125455D01*
X158646831Y-132125458D01*
X158637819Y-132213663D01*
X158637818Y-132213678D01*
X158637500Y-132216793D01*
X158637500Y-132219939D01*
X158637500Y-132219940D01*
X158637500Y-132740057D01*
X158637500Y-132740076D01*
X158637501Y-132743206D01*
X158637819Y-132746319D01*
X158637820Y-132746338D01*
X158646830Y-132834533D01*
X158647519Y-132841273D01*
X158649647Y-132847694D01*
X158649650Y-132847707D01*
X158685438Y-132955711D01*
X158691727Y-132993603D01*
X158686118Y-133031602D01*
X158643959Y-133166896D01*
X158637500Y-133237974D01*
X158637500Y-133762026D01*
X158643959Y-133833104D01*
X158684471Y-133963113D01*
X158690085Y-134000000D01*
X158684471Y-134036886D01*
X158643959Y-134166896D01*
X158643365Y-134173431D01*
X158643365Y-134173432D01*
X158639414Y-134216915D01*
X158637500Y-134237974D01*
X158637500Y-134762026D01*
X158643959Y-134833104D01*
X158686118Y-134968396D01*
X158691727Y-135006395D01*
X158685439Y-135044286D01*
X158647519Y-135158727D01*
X158646831Y-135165458D01*
X158646831Y-135165460D01*
X158637819Y-135253663D01*
X158637818Y-135253678D01*
X158637500Y-135256793D01*
X158637500Y-135259939D01*
X158637500Y-135259940D01*
X158637500Y-135780057D01*
X158637500Y-135780076D01*
X155000000Y-135780076D01*
X155000000Y-129982720D01*
X158228637Y-129982720D01*
X158229936Y-129994062D01*
X158275379Y-130116763D01*
X158280893Y-130128005D01*
X158381819Y-130289926D01*
X158389478Y-130299820D01*
X158520936Y-130438114D01*
X158530427Y-130446261D01*
X158658849Y-130535646D01*
X158697045Y-130578363D01*
X158711956Y-130633691D01*
X158702329Y-130680442D01*
X158703642Y-130680878D01*
X158650624Y-130840874D01*
X158647805Y-130854041D01*
X158639770Y-130932692D01*
X158642189Y-130946219D01*
X158655398Y-130950000D01*
X159583674Y-130950000D01*
X159596549Y-130946549D01*
X159600000Y-130933674D01*
X159600000Y-130736326D01*
X159596549Y-130723449D01*
X159571907Y-130716847D01*
X159524294Y-130692062D01*
X159491618Y-130649477D01*
X159480000Y-130597072D01*
X159480000Y-130193674D01*
X160080000Y-130193674D01*
X160083450Y-130206550D01*
X160108093Y-130213153D01*
X160155706Y-130237938D01*
X160188382Y-130280523D01*
X160200000Y-130332928D01*
X160200000Y-130933674D01*
X160203450Y-130946549D01*
X160216326Y-130950000D01*
X161144601Y-130950000D01*
X161157810Y-130946219D01*
X161160228Y-130932692D01*
X161152194Y-130854040D01*
X161149375Y-130840875D01*
X161098629Y-130687732D01*
X161092567Y-130674733D01*
X161031839Y-130576276D01*
X161013788Y-130521251D01*
X161022692Y-130464030D01*
X161056609Y-130417092D01*
X161103755Y-130376619D01*
X161112385Y-130367541D01*
X161229167Y-130216670D01*
X161235792Y-130206042D01*
X161319817Y-130034743D01*
X161324165Y-130023002D01*
X161331740Y-129993746D01*
X161332025Y-129982535D01*
X161321100Y-129980000D01*
X160096326Y-129980000D01*
X160083450Y-129983450D01*
X160080000Y-129996326D01*
X160080000Y-130193674D01*
X159480000Y-130193674D01*
X159480000Y-129996326D01*
X159476549Y-129983450D01*
X159463674Y-129980000D01*
X158239723Y-129980000D01*
X158228637Y-129982720D01*
X155000000Y-129982720D01*
X155000000Y-129377464D01*
X158227974Y-129377464D01*
X158238900Y-129380000D01*
X159463674Y-129380000D01*
X159476549Y-129376549D01*
X159480000Y-129363674D01*
X160080000Y-129363674D01*
X160083450Y-129376549D01*
X160096326Y-129380000D01*
X161320277Y-129380000D01*
X161331362Y-129377279D01*
X161330063Y-129365937D01*
X161284620Y-129243236D01*
X161279106Y-129231994D01*
X161178180Y-129070073D01*
X161170521Y-129060179D01*
X161039063Y-128921885D01*
X161029572Y-128913737D01*
X160872963Y-128804734D01*
X160862029Y-128798665D01*
X160686681Y-128723418D01*
X160674752Y-128719675D01*
X160487847Y-128681265D01*
X160475402Y-128680000D01*
X160096326Y-128680000D01*
X160083450Y-128683450D01*
X160080000Y-128696326D01*
X160080000Y-129363674D01*
X159480000Y-129363674D01*
X159480000Y-128696326D01*
X159476549Y-128683450D01*
X159463674Y-128680000D01*
X159132430Y-128680000D01*
X159126164Y-128680317D01*
X158983915Y-128694783D01*
X158971664Y-128697301D01*
X158789614Y-128754419D01*
X158778110Y-128759355D01*
X158611279Y-128851954D01*
X158601017Y-128859097D01*
X158456245Y-128983379D01*
X158447614Y-128992458D01*
X158330832Y-129143329D01*
X158324207Y-129153957D01*
X158240182Y-129325256D01*
X158235834Y-129336997D01*
X158228259Y-129366253D01*
X158227974Y-129377464D01*
X155000000Y-129377464D01*
X155000000Y-126000000D01*
X158994659Y-126000000D01*
X158995256Y-126006062D01*
X159013378Y-126190067D01*
X159013379Y-126190073D01*
X159013976Y-126196132D01*
X159015743Y-126201957D01*
X159015744Y-126201962D01*
X159069418Y-126378899D01*
X159071186Y-126384727D01*
X159074055Y-126390095D01*
X159074057Y-126390099D01*
X159161215Y-126553161D01*
X159161219Y-126553167D01*
X159164090Y-126558538D01*
X159289117Y-126710883D01*
X159441462Y-126835910D01*
X159446834Y-126838781D01*
X159446838Y-126838784D01*
X159588839Y-126914684D01*
X159615273Y-126928814D01*
X159803868Y-126986024D01*
X160000000Y-127005341D01*
X160196132Y-126986024D01*
X160384727Y-126928814D01*
X160558538Y-126835910D01*
X160710883Y-126710883D01*
X160835910Y-126558538D01*
X160928814Y-126384727D01*
X160986024Y-126196132D01*
X161005341Y-126000000D01*
X160986024Y-125803868D01*
X160928814Y-125615273D01*
X160835910Y-125441462D01*
X160710883Y-125289117D01*
X160558538Y-125164090D01*
X160553167Y-125161219D01*
X160553161Y-125161215D01*
X160390099Y-125074057D01*
X160390095Y-125074055D01*
X160384727Y-125071186D01*
X160378899Y-125069418D01*
X160201962Y-125015744D01*
X160201957Y-125015743D01*
X160196132Y-125013976D01*
X160190073Y-125013379D01*
X160190067Y-125013378D01*
X160006062Y-124995256D01*
X160000000Y-124994659D01*
X159993938Y-124995256D01*
X159809932Y-125013378D01*
X159809924Y-125013379D01*
X159803868Y-125013976D01*
X159798044Y-125015742D01*
X159798037Y-125015744D01*
X159621100Y-125069418D01*
X159621096Y-125069419D01*
X159615273Y-125071186D01*
X159609907Y-125074053D01*
X159609900Y-125074057D01*
X159446838Y-125161215D01*
X159446827Y-125161222D01*
X159441462Y-125164090D01*
X159436754Y-125167953D01*
X159436749Y-125167957D01*
X159293823Y-125285254D01*
X159293818Y-125285258D01*
X159289117Y-125289117D01*
X159285258Y-125293818D01*
X159285254Y-125293823D01*
X159167957Y-125436749D01*
X159167953Y-125436754D01*
X159164090Y-125441462D01*
X159161222Y-125446827D01*
X159161215Y-125446838D01*
X159074057Y-125609900D01*
X159074053Y-125609907D01*
X159071186Y-125615273D01*
X159069419Y-125621096D01*
X159069418Y-125621100D01*
X159015744Y-125798037D01*
X159015742Y-125798044D01*
X159013976Y-125803868D01*
X159013379Y-125809924D01*
X159013378Y-125809932D01*
X158995256Y-125993938D01*
X158994659Y-126000000D01*
X155000000Y-126000000D01*
X155000000Y-113820000D01*
X158644341Y-113820000D01*
X158664937Y-114055408D01*
X158666336Y-114060630D01*
X158666337Y-114060634D01*
X158724694Y-114278430D01*
X158724697Y-114278438D01*
X158726097Y-114283663D01*
X158728385Y-114288570D01*
X158728386Y-114288572D01*
X158823678Y-114492927D01*
X158823681Y-114492933D01*
X158825965Y-114497830D01*
X158829064Y-114502257D01*
X158829066Y-114502259D01*
X158958399Y-114686966D01*
X158958402Y-114686970D01*
X158961505Y-114691401D01*
X159128599Y-114858495D01*
X159322170Y-114994035D01*
X159536337Y-115093903D01*
X159764592Y-115155063D01*
X160000000Y-115175659D01*
X160235408Y-115155063D01*
X160463663Y-115093903D01*
X160677830Y-114994035D01*
X160871401Y-114858495D01*
X161038495Y-114691401D01*
X161174035Y-114497830D01*
X161273903Y-114283663D01*
X161335063Y-114055408D01*
X161355659Y-113820000D01*
X161335063Y-113584592D01*
X161273903Y-113356337D01*
X161174035Y-113142171D01*
X161038495Y-112948599D01*
X160871401Y-112781505D01*
X160866970Y-112778402D01*
X160866966Y-112778399D01*
X160685841Y-112651574D01*
X160646976Y-112607256D01*
X160632965Y-112549999D01*
X160646976Y-112492742D01*
X160685839Y-112448426D01*
X160871401Y-112318495D01*
X161038495Y-112151401D01*
X161174035Y-111957830D01*
X161273903Y-111743663D01*
X161335063Y-111515408D01*
X161355659Y-111280000D01*
X161335063Y-111044592D01*
X161273903Y-110816337D01*
X161174035Y-110602171D01*
X161038495Y-110408599D01*
X160871401Y-110241505D01*
X160866970Y-110238402D01*
X160866966Y-110238399D01*
X160685405Y-110111269D01*
X160646540Y-110066951D01*
X160632529Y-110009694D01*
X160646540Y-109952437D01*
X160685406Y-109908119D01*
X160866638Y-109781219D01*
X160874909Y-109774278D01*
X161034278Y-109614909D01*
X161041215Y-109606643D01*
X161170498Y-109422008D01*
X161175886Y-109412676D01*
X161271141Y-109208400D01*
X161274833Y-109198258D01*
X161313545Y-109053780D01*
X161313913Y-109042551D01*
X161302971Y-109040000D01*
X158697029Y-109040000D01*
X158686086Y-109042551D01*
X158686454Y-109053780D01*
X158725166Y-109198258D01*
X158728858Y-109208400D01*
X158824113Y-109412676D01*
X158829501Y-109422008D01*
X158958784Y-109606643D01*
X158965721Y-109614909D01*
X159125090Y-109774278D01*
X159133356Y-109781215D01*
X159314595Y-109908120D01*
X159353460Y-109952438D01*
X159367471Y-110009695D01*
X159353460Y-110066952D01*
X159314594Y-110111270D01*
X159133034Y-110238399D01*
X159133029Y-110238402D01*
X159128599Y-110241505D01*
X159124775Y-110245328D01*
X159124769Y-110245334D01*
X158965334Y-110404769D01*
X158965328Y-110404775D01*
X158961505Y-110408599D01*
X158958402Y-110413029D01*
X158958399Y-110413034D01*
X158829073Y-110597731D01*
X158829068Y-110597738D01*
X158825965Y-110602171D01*
X158823677Y-110607077D01*
X158823675Y-110607081D01*
X158728386Y-110811427D01*
X158728383Y-110811432D01*
X158726097Y-110816337D01*
X158724698Y-110821557D01*
X158724694Y-110821569D01*
X158666337Y-111039365D01*
X158666335Y-111039371D01*
X158664937Y-111044592D01*
X158644341Y-111280000D01*
X158664937Y-111515408D01*
X158666336Y-111520630D01*
X158666337Y-111520634D01*
X158724694Y-111738430D01*
X158724697Y-111738438D01*
X158726097Y-111743663D01*
X158728385Y-111748570D01*
X158728386Y-111748572D01*
X158823678Y-111952927D01*
X158823681Y-111952933D01*
X158825965Y-111957830D01*
X158829064Y-111962257D01*
X158829066Y-111962259D01*
X158958399Y-112146966D01*
X158958402Y-112146970D01*
X158961505Y-112151401D01*
X159128599Y-112318495D01*
X159133032Y-112321599D01*
X159133038Y-112321604D01*
X159314158Y-112448425D01*
X159353024Y-112492743D01*
X159367035Y-112550000D01*
X159353024Y-112607257D01*
X159314160Y-112651574D01*
X159128599Y-112781505D01*
X159124775Y-112785328D01*
X159124769Y-112785334D01*
X158965334Y-112944769D01*
X158965328Y-112944775D01*
X158961505Y-112948599D01*
X158958402Y-112953029D01*
X158958399Y-112953034D01*
X158829073Y-113137731D01*
X158829068Y-113137738D01*
X158825965Y-113142171D01*
X158823677Y-113147077D01*
X158823675Y-113147081D01*
X158728386Y-113351427D01*
X158728383Y-113351432D01*
X158726097Y-113356337D01*
X158724698Y-113361557D01*
X158724694Y-113361569D01*
X158666337Y-113579365D01*
X158666335Y-113579371D01*
X158664937Y-113584592D01*
X158644341Y-113820000D01*
X155000000Y-113820000D01*
X155000000Y-107094578D01*
X158649500Y-107094578D01*
X158649501Y-107097872D01*
X158649853Y-107101150D01*
X158649854Y-107101161D01*
X158655079Y-107149768D01*
X158655080Y-107149773D01*
X158655909Y-107157483D01*
X158658619Y-107164749D01*
X158658620Y-107164753D01*
X158692217Y-107254831D01*
X158706204Y-107292331D01*
X158792454Y-107407546D01*
X158907669Y-107493796D01*
X159039598Y-107543002D01*
X159089977Y-107577981D01*
X159117431Y-107632825D01*
X159115242Y-107694118D01*
X159083947Y-107746865D01*
X158965714Y-107865098D01*
X158958784Y-107873357D01*
X158829508Y-108057982D01*
X158824110Y-108067332D01*
X158728858Y-108271599D01*
X158725166Y-108281741D01*
X158686454Y-108426219D01*
X158686086Y-108437448D01*
X158697029Y-108440000D01*
X161302971Y-108440000D01*
X161313913Y-108437448D01*
X161313545Y-108426219D01*
X161274833Y-108281741D01*
X161271141Y-108271599D01*
X161175889Y-108067332D01*
X161170491Y-108057982D01*
X161041215Y-107873357D01*
X161034280Y-107865092D01*
X160916053Y-107746865D01*
X160884757Y-107694119D01*
X160882568Y-107632825D01*
X160910022Y-107577981D01*
X160960398Y-107543003D01*
X161092331Y-107493796D01*
X161207546Y-107407546D01*
X161293796Y-107292331D01*
X161344091Y-107157483D01*
X161350500Y-107097873D01*
X161350499Y-105302128D01*
X161344091Y-105242517D01*
X161293796Y-105107669D01*
X161207546Y-104992454D01*
X161092331Y-104906204D01*
X160957483Y-104855909D01*
X160949770Y-104855079D01*
X160949767Y-104855079D01*
X160901180Y-104849855D01*
X160901169Y-104849854D01*
X160897873Y-104849500D01*
X160894550Y-104849500D01*
X159105439Y-104849500D01*
X159105420Y-104849500D01*
X159102128Y-104849501D01*
X159098850Y-104849853D01*
X159098838Y-104849854D01*
X159050231Y-104855079D01*
X159050225Y-104855080D01*
X159042517Y-104855909D01*
X159035252Y-104858618D01*
X159035246Y-104858620D01*
X158915980Y-104903104D01*
X158915978Y-104903104D01*
X158907669Y-104906204D01*
X158900572Y-104911516D01*
X158900568Y-104911519D01*
X158799550Y-104987141D01*
X158799546Y-104987144D01*
X158792454Y-104992454D01*
X158787144Y-104999546D01*
X158787141Y-104999550D01*
X158711519Y-105100568D01*
X158711516Y-105100572D01*
X158706204Y-105107669D01*
X158703104Y-105115978D01*
X158703104Y-105115980D01*
X158658620Y-105235247D01*
X158658619Y-105235250D01*
X158655909Y-105242517D01*
X158655079Y-105250227D01*
X158655079Y-105250232D01*
X158649855Y-105298819D01*
X158649854Y-105298831D01*
X158649500Y-105302127D01*
X158649500Y-105305448D01*
X158649500Y-105305449D01*
X158649500Y-107094560D01*
X158649500Y-107094578D01*
X155000000Y-107094578D01*
X155000000Y-94000000D01*
X158994659Y-94000000D01*
X158995256Y-94006062D01*
X159013378Y-94190067D01*
X159013379Y-94190073D01*
X159013976Y-94196132D01*
X159015743Y-94201957D01*
X159015744Y-94201962D01*
X159069418Y-94378899D01*
X159071186Y-94384727D01*
X159074055Y-94390095D01*
X159074057Y-94390099D01*
X159161215Y-94553161D01*
X159161219Y-94553167D01*
X159164090Y-94558538D01*
X159289117Y-94710883D01*
X159441462Y-94835910D01*
X159446834Y-94838781D01*
X159446838Y-94838784D01*
X159588839Y-94914684D01*
X159615273Y-94928814D01*
X159803868Y-94986024D01*
X160000000Y-95005341D01*
X160196132Y-94986024D01*
X160384727Y-94928814D01*
X160558538Y-94835910D01*
X160710883Y-94710883D01*
X160835910Y-94558538D01*
X160928814Y-94384727D01*
X160986024Y-94196132D01*
X161005341Y-94000000D01*
X160986024Y-93803868D01*
X160928814Y-93615273D01*
X160835910Y-93441462D01*
X160710883Y-93289117D01*
X160558538Y-93164090D01*
X160553167Y-93161219D01*
X160553161Y-93161215D01*
X160390099Y-93074057D01*
X160390095Y-93074055D01*
X160384727Y-93071186D01*
X160378899Y-93069418D01*
X160201962Y-93015744D01*
X160201957Y-93015743D01*
X160196132Y-93013976D01*
X160190073Y-93013379D01*
X160190067Y-93013378D01*
X160006062Y-92995256D01*
X160000000Y-92994659D01*
X159993938Y-92995256D01*
X159809932Y-93013378D01*
X159809924Y-93013379D01*
X159803868Y-93013976D01*
X159798044Y-93015742D01*
X159798037Y-93015744D01*
X159621100Y-93069418D01*
X159621096Y-93069419D01*
X159615273Y-93071186D01*
X159609907Y-93074053D01*
X159609900Y-93074057D01*
X159446838Y-93161215D01*
X159446827Y-93161222D01*
X159441462Y-93164090D01*
X159436754Y-93167953D01*
X159436749Y-93167957D01*
X159293823Y-93285254D01*
X159293818Y-93285258D01*
X159289117Y-93289117D01*
X159285258Y-93293818D01*
X159285254Y-93293823D01*
X159167957Y-93436749D01*
X159167953Y-93436754D01*
X159164090Y-93441462D01*
X159161222Y-93446827D01*
X159161215Y-93446838D01*
X159074057Y-93609900D01*
X159074053Y-93609907D01*
X159071186Y-93615273D01*
X159069419Y-93621096D01*
X159069418Y-93621100D01*
X159015744Y-93798037D01*
X159015742Y-93798044D01*
X159013976Y-93803868D01*
X159013379Y-93809924D01*
X159013378Y-93809932D01*
X158995256Y-93993938D01*
X158994659Y-94000000D01*
X155000000Y-94000000D01*
X155000000Y-88000000D01*
X105000000Y-88000000D01*
X104575000Y-88000000D01*
X104575000Y-87906692D01*
X104584439Y-87859239D01*
X104611319Y-87819011D01*
X106119012Y-86311319D01*
X106159240Y-86284439D01*
X106206693Y-86275000D01*
X136093906Y-86275000D01*
X136100000Y-86275000D01*
X136128442Y-86269341D01*
X136141566Y-86267455D01*
X136170441Y-86264871D01*
X136187298Y-86259920D01*
X136195880Y-86257730D01*
X136200397Y-86256747D01*
X136213040Y-86253998D01*
X136217207Y-86252183D01*
X136221752Y-86251940D01*
X136231483Y-86247282D01*
X136234697Y-86245866D01*
X136235368Y-86245807D01*
X136237988Y-86245038D01*
X136246068Y-86240811D01*
X136264435Y-86233584D01*
X136267740Y-86231928D01*
X136279524Y-86228694D01*
X136289171Y-86221195D01*
X136291291Y-86220134D01*
X136295425Y-86218201D01*
X136295761Y-86217993D01*
X136302481Y-86215069D01*
X136305639Y-86211795D01*
X136309741Y-86209833D01*
X136314796Y-86206049D01*
X136316791Y-86203827D01*
X136324427Y-86199834D01*
X136324513Y-86199730D01*
X136327463Y-86198259D01*
X136326650Y-86197173D01*
X136326649Y-86197173D01*
X136338204Y-86188526D01*
X136342278Y-86183990D01*
X136346778Y-86179876D01*
X136347202Y-86180340D01*
X136355787Y-86172902D01*
X136355388Y-86172416D01*
X136360096Y-86168551D01*
X136365165Y-86165165D01*
X145265165Y-77265165D01*
X145281267Y-77241065D01*
X145289211Y-77230451D01*
X145307810Y-77208197D01*
X145316239Y-77192758D01*
X145320727Y-77185194D01*
X145330248Y-77170381D01*
X145331913Y-77166148D01*
X145334953Y-77162764D01*
X145338566Y-77152517D01*
X145339801Y-77149337D01*
X145340228Y-77148828D01*
X145341537Y-77146432D01*
X145344273Y-77137702D01*
X145352159Y-77119585D01*
X145353317Y-77116101D01*
X145359363Y-77105482D01*
X145360882Y-77093357D01*
X145361636Y-77091094D01*
X145363185Y-77086824D01*
X145363275Y-77086441D01*
X145365964Y-77079610D01*
X145365882Y-77075062D01*
X145367396Y-77070772D01*
X145368294Y-77064522D01*
X145368134Y-77061555D01*
X145370706Y-77053350D01*
X145370694Y-77053221D01*
X145371743Y-77050085D01*
X145370397Y-77049892D01*
X145371588Y-77041610D01*
X145372455Y-77035585D01*
X145372129Y-77029501D01*
X145372401Y-77023417D01*
X145373023Y-77023444D01*
X145373835Y-77012097D01*
X145373214Y-77012036D01*
X145373810Y-77005978D01*
X145375000Y-77000000D01*
X145375000Y-75254956D01*
X145383926Y-75208761D01*
X145409419Y-75169217D01*
X145447806Y-75142016D01*
X145825469Y-74970834D01*
X147305974Y-73741886D01*
X148729260Y-71930942D01*
X149335922Y-70875079D01*
X149704050Y-69829465D01*
X149842868Y-68791110D01*
X149785250Y-67750694D01*
X149304397Y-65748894D01*
X148778024Y-64068577D01*
X148772801Y-64021008D01*
X148785981Y-63975001D01*
X148815599Y-63937413D01*
X149517958Y-63334678D01*
X149610378Y-62027295D01*
X149222102Y-60882708D01*
X149199617Y-60857190D01*
X148626250Y-60206477D01*
X148599572Y-60156818D01*
X148597635Y-60100480D01*
X148620839Y-60049106D01*
X148664390Y-60013314D01*
X148719286Y-60000500D01*
X155495574Y-60000500D01*
X155504418Y-60000816D01*
X155569734Y-60005487D01*
X155569740Y-60005488D01*
X155712449Y-60016719D01*
X155729054Y-60019168D01*
X155818500Y-60038625D01*
X155820979Y-60039192D01*
X155932570Y-60065983D01*
X155946925Y-60070365D01*
X156037735Y-60104236D01*
X156041696Y-60105794D01*
X156142794Y-60147670D01*
X156154758Y-60153394D01*
X156241588Y-60200807D01*
X156246915Y-60203892D01*
X156338433Y-60259974D01*
X156347951Y-60266432D01*
X156427845Y-60326241D01*
X156434037Y-60331193D01*
X156515086Y-60400416D01*
X156522235Y-60407025D01*
X156592973Y-60477763D01*
X156599582Y-60484912D01*
X156668793Y-60565947D01*
X156673770Y-60572169D01*
X156733564Y-60652045D01*
X156740024Y-60661565D01*
X156796100Y-60753072D01*
X156799206Y-60758436D01*
X156846602Y-60845237D01*
X156852330Y-60857209D01*
X156875361Y-60912810D01*
X156894181Y-60958245D01*
X156895790Y-60962335D01*
X156929627Y-61053056D01*
X156934019Y-61067442D01*
X156960793Y-61178964D01*
X156961385Y-61181553D01*
X156980828Y-61270933D01*
X156983280Y-61287562D01*
X156994485Y-61429934D01*
X156994551Y-61430815D01*
X156999184Y-61495580D01*
X156999500Y-61504428D01*
X156999500Y-62667333D01*
X156999210Y-62675808D01*
X156995549Y-62729250D01*
X156995472Y-62730303D01*
X156984114Y-62877676D01*
X156981881Y-62893409D01*
X156964472Y-62977073D01*
X156963784Y-62980178D01*
X156937564Y-63091758D01*
X156933673Y-63104972D01*
X156902952Y-63191285D01*
X156901069Y-63196237D01*
X156860330Y-63296866D01*
X156855453Y-63307453D01*
X156812244Y-63390711D01*
X156808630Y-63397192D01*
X156753920Y-63488760D01*
X156748717Y-63496754D01*
X156694232Y-63573803D01*
X156688430Y-63581372D01*
X156620327Y-63663480D01*
X156615422Y-63669047D01*
X156551336Y-63737525D01*
X156542980Y-63745652D01*
X156461682Y-63817603D01*
X156457638Y-63821030D01*
X156386500Y-63878760D01*
X156375340Y-63886831D01*
X156278855Y-63948757D01*
X156276157Y-63950441D01*
X156203073Y-63994743D01*
X156189005Y-64002083D01*
X156057059Y-64060516D01*
X156056068Y-64060950D01*
X156003148Y-64083836D01*
X155995269Y-64086929D01*
X155929038Y-64110349D01*
X155905068Y-64118826D01*
X155901390Y-64120710D01*
X155901383Y-64120714D01*
X155729860Y-64208623D01*
X155729851Y-64208627D01*
X155726164Y-64210518D01*
X155722759Y-64212884D01*
X155722750Y-64212890D01*
X155564501Y-64322880D01*
X155564493Y-64322886D01*
X155561088Y-64325253D01*
X155558033Y-64328048D01*
X155558023Y-64328057D01*
X155415853Y-64458176D01*
X155415840Y-64458188D01*
X155412790Y-64460981D01*
X155410136Y-64464158D01*
X155410127Y-64464168D01*
X155286584Y-64612086D01*
X155286580Y-64612090D01*
X155283921Y-64615275D01*
X155281715Y-64618778D01*
X155281705Y-64618792D01*
X155178993Y-64781869D01*
X155178984Y-64781884D01*
X155176783Y-64785380D01*
X155175068Y-64789134D01*
X155175061Y-64789149D01*
X155095010Y-64964485D01*
X155095006Y-64964494D01*
X155093290Y-64968254D01*
X155092090Y-64972208D01*
X155092087Y-64972217D01*
X155065371Y-65060277D01*
X155062557Y-65068501D01*
X155049158Y-65103599D01*
X155048636Y-65104943D01*
X154984720Y-65266697D01*
X154977925Y-65281109D01*
X154938180Y-65353023D01*
X154936011Y-65356789D01*
X154870297Y-65466430D01*
X154863016Y-65477246D01*
X154808791Y-65549299D01*
X154804267Y-65554958D01*
X154726253Y-65646909D01*
X154719380Y-65654368D01*
X154654368Y-65719380D01*
X154646909Y-65726253D01*
X154554958Y-65804267D01*
X154549299Y-65808791D01*
X154477246Y-65863016D01*
X154466430Y-65870297D01*
X154356789Y-65936011D01*
X154353023Y-65938180D01*
X154281109Y-65977925D01*
X154266697Y-65984720D01*
X154104943Y-66048636D01*
X154103598Y-66049159D01*
X154068544Y-66062541D01*
X154060255Y-66065374D01*
X153966657Y-66093714D01*
X153966646Y-66093718D01*
X153962439Y-66094992D01*
X153958448Y-66096852D01*
X153958440Y-66096856D01*
X153773253Y-66183209D01*
X153773241Y-66183215D01*
X153769260Y-66185072D01*
X153765577Y-66187474D01*
X153765570Y-66187479D01*
X153594439Y-66299142D01*
X153594438Y-66299143D01*
X153590751Y-66301549D01*
X153587445Y-66304447D01*
X153587440Y-66304452D01*
X153433802Y-66439188D01*
X153433796Y-66439193D01*
X153430496Y-66442088D01*
X153427641Y-66445415D01*
X153427633Y-66445424D01*
X153294578Y-66600522D01*
X153294571Y-66600530D01*
X153291712Y-66603864D01*
X153289345Y-66607578D01*
X153289343Y-66607582D01*
X153179556Y-66779913D01*
X153179554Y-66779915D01*
X153177187Y-66783632D01*
X153175375Y-66787630D01*
X153175368Y-66787644D01*
X153091033Y-66973775D01*
X153091030Y-66973781D01*
X153089218Y-66977782D01*
X153087991Y-66981991D01*
X153087986Y-66982005D01*
X153030804Y-67178187D01*
X153030802Y-67178195D01*
X153029572Y-67182416D01*
X152999447Y-67393425D01*
X152999500Y-67500000D01*
X152999500Y-67500500D01*
X152999500Y-76499500D01*
X152999500Y-76500000D01*
X152999500Y-76607318D01*
X153000128Y-76611687D01*
X153000129Y-76611698D01*
X153026241Y-76793307D01*
X153030046Y-76819769D01*
X153031292Y-76824014D01*
X153031294Y-76824021D01*
X153060198Y-76922458D01*
X153090516Y-77025710D01*
X153092354Y-77029736D01*
X153092358Y-77029745D01*
X153166816Y-77192785D01*
X153179679Y-77220950D01*
X153182069Y-77224670D01*
X153182073Y-77224676D01*
X153293328Y-77397793D01*
X153295719Y-77401513D01*
X153436276Y-77563724D01*
X153598487Y-77704281D01*
X153779050Y-77820321D01*
X153974290Y-77909484D01*
X154180231Y-77969954D01*
X154392682Y-78000500D01*
X154499901Y-78000500D01*
X154500000Y-78000500D01*
X154500500Y-78000500D01*
X169498158Y-78000500D01*
X169501817Y-78000554D01*
X169704342Y-78006532D01*
X169713269Y-78007119D01*
X169733841Y-78009218D01*
X169915835Y-78027789D01*
X169927832Y-78029611D01*
X170127034Y-78069962D01*
X170138093Y-78072738D01*
X170221442Y-78097798D01*
X170234453Y-78102517D01*
X170402692Y-78174412D01*
X170402697Y-78174414D01*
X170422481Y-78185084D01*
X170574199Y-78285653D01*
X170585696Y-78294275D01*
X170594841Y-78302000D01*
X170594846Y-78302004D01*
X170606106Y-78312801D01*
X170734190Y-78452109D01*
X170748450Y-78470943D01*
X170822530Y-78591067D01*
X170831598Y-78608825D01*
X170901938Y-78779157D01*
X170907462Y-78795774D01*
X170953972Y-78977700D01*
X170956581Y-78990817D01*
X170984758Y-79187370D01*
X170985787Y-79197481D01*
X170998068Y-79400563D01*
X170998284Y-79406440D01*
X170998746Y-79442064D01*
X170998756Y-79443638D01*
X170999500Y-82167259D01*
X170999500Y-83998157D01*
X170999446Y-84001817D01*
X170993465Y-84204343D01*
X170992879Y-84213267D01*
X170972211Y-84415819D01*
X170970385Y-84427839D01*
X170930036Y-84627028D01*
X170927255Y-84638106D01*
X170902203Y-84721435D01*
X170897481Y-84734454D01*
X170825582Y-84902700D01*
X170814912Y-84922484D01*
X170714344Y-85074198D01*
X170705722Y-85085696D01*
X170698005Y-85094833D01*
X170687199Y-85106105D01*
X170547886Y-85234193D01*
X170529055Y-85248450D01*
X170432056Y-85308269D01*
X170408936Y-85322528D01*
X170391177Y-85331596D01*
X170220840Y-85401938D01*
X170204224Y-85407462D01*
X170022297Y-85453973D01*
X170009179Y-85456582D01*
X169812627Y-85484758D01*
X169802516Y-85485787D01*
X169599434Y-85498068D01*
X169593560Y-85498284D01*
X169500742Y-85499490D01*
X169499131Y-85499500D01*
X169392682Y-85499500D01*
X169388313Y-85500128D01*
X169388301Y-85500129D01*
X169184616Y-85529415D01*
X169184608Y-85529416D01*
X169180231Y-85530046D01*
X169175988Y-85531291D01*
X169175978Y-85531294D01*
X168978543Y-85589267D01*
X168978540Y-85589267D01*
X168974290Y-85590516D01*
X168970268Y-85592352D01*
X168970254Y-85592358D01*
X168783084Y-85677836D01*
X168783075Y-85677840D01*
X168779050Y-85679679D01*
X168775335Y-85682066D01*
X168775323Y-85682073D01*
X168602206Y-85793328D01*
X168602196Y-85793334D01*
X168598487Y-85795719D01*
X168595152Y-85798608D01*
X168595145Y-85798614D01*
X168439617Y-85933380D01*
X168439609Y-85933387D01*
X168436276Y-85936276D01*
X168433387Y-85939609D01*
X168433380Y-85939617D01*
X168298614Y-86095145D01*
X168298608Y-86095152D01*
X168295719Y-86098487D01*
X168293334Y-86102196D01*
X168293328Y-86102206D01*
X168182073Y-86275323D01*
X168182066Y-86275335D01*
X168179679Y-86279050D01*
X168177840Y-86283075D01*
X168177836Y-86283084D01*
X168092358Y-86470254D01*
X168092352Y-86470268D01*
X168090516Y-86474290D01*
X168089267Y-86478540D01*
X168089267Y-86478543D01*
X168031294Y-86675978D01*
X168031291Y-86675988D01*
X168030046Y-86680231D01*
X168029416Y-86684608D01*
X168029415Y-86684616D01*
X168000129Y-86888301D01*
X168000128Y-86888313D01*
X167999500Y-86892682D01*
X167999500Y-86897108D01*
X167999500Y-86995572D01*
X167999184Y-87004420D01*
X167994551Y-87069183D01*
X167994485Y-87070064D01*
X167983280Y-87212438D01*
X167980828Y-87229067D01*
X167961390Y-87318423D01*
X167960798Y-87321012D01*
X167934019Y-87432556D01*
X167929627Y-87446942D01*
X167895790Y-87537663D01*
X167894169Y-87541784D01*
X167852330Y-87642789D01*
X167846602Y-87654761D01*
X167799206Y-87741562D01*
X167796100Y-87746926D01*
X167740024Y-87838433D01*
X167733564Y-87847953D01*
X167673770Y-87927829D01*
X167668793Y-87934051D01*
X167599582Y-88015086D01*
X167592973Y-88022235D01*
X167522235Y-88092973D01*
X167515086Y-88099582D01*
X167434051Y-88168793D01*
X167427829Y-88173770D01*
X167347953Y-88233564D01*
X167338433Y-88240024D01*
X167246926Y-88296100D01*
X167241562Y-88299206D01*
X167154761Y-88346602D01*
X167142789Y-88352330D01*
X167041784Y-88394169D01*
X167037663Y-88395790D01*
X166946942Y-88429627D01*
X166932556Y-88434019D01*
X166821012Y-88460798D01*
X166818423Y-88461390D01*
X166729067Y-88480828D01*
X166712438Y-88483280D01*
X166570064Y-88494485D01*
X166569183Y-88494551D01*
X166513010Y-88498569D01*
X166504416Y-88499184D01*
X166495572Y-88499500D01*
X166392682Y-88499500D01*
X166388313Y-88500128D01*
X166388301Y-88500129D01*
X166184616Y-88529415D01*
X166184608Y-88529416D01*
X166180231Y-88530046D01*
X166175988Y-88531291D01*
X166175978Y-88531294D01*
X165978543Y-88589267D01*
X165978540Y-88589267D01*
X165974290Y-88590516D01*
X165970268Y-88592352D01*
X165970254Y-88592358D01*
X165783084Y-88677836D01*
X165783075Y-88677840D01*
X165779050Y-88679679D01*
X165775335Y-88682066D01*
X165775323Y-88682073D01*
X165602206Y-88793328D01*
X165602196Y-88793334D01*
X165598487Y-88795719D01*
X165595152Y-88798608D01*
X165595145Y-88798614D01*
X165439617Y-88933380D01*
X165439609Y-88933387D01*
X165436276Y-88936276D01*
X165433387Y-88939609D01*
X165433380Y-88939617D01*
X165298614Y-89095145D01*
X165298608Y-89095152D01*
X165295719Y-89098487D01*
X165293334Y-89102196D01*
X165293328Y-89102206D01*
X165182073Y-89275323D01*
X165182066Y-89275335D01*
X165179679Y-89279050D01*
X165177840Y-89283075D01*
X165177836Y-89283084D01*
X165092358Y-89470254D01*
X165092352Y-89470268D01*
X165090516Y-89474290D01*
X165089267Y-89478540D01*
X165089267Y-89478543D01*
X165031294Y-89675978D01*
X165031291Y-89675988D01*
X165030046Y-89680231D01*
X165029416Y-89684608D01*
X165029415Y-89684616D01*
X165000129Y-89888301D01*
X165000128Y-89888313D01*
X164999500Y-89892682D01*
X164999500Y-89999901D01*
X164999500Y-133499500D01*
X164999500Y-133500000D01*
X164999500Y-133607318D01*
X165000128Y-133611687D01*
X165000129Y-133611698D01*
X165029415Y-133815383D01*
X165030046Y-133819769D01*
X165031292Y-133824014D01*
X165031294Y-133824021D01*
X165060198Y-133922458D01*
X165090516Y-134025710D01*
X165092354Y-134029736D01*
X165092358Y-134029745D01*
X165152132Y-134160631D01*
X165179679Y-134220950D01*
X165182069Y-134224670D01*
X165182073Y-134224676D01*
X165293328Y-134397793D01*
X165295719Y-134401513D01*
X165436276Y-134563724D01*
X165598487Y-134704281D01*
X165602206Y-134706671D01*
X165692711Y-134764835D01*
X165779050Y-134820321D01*
X165974290Y-134909484D01*
X166180231Y-134969954D01*
X166392682Y-135000500D01*
X166495574Y-135000500D01*
X166504418Y-135000816D01*
X166569734Y-135005487D01*
X166569740Y-135005488D01*
X166712449Y-135016719D01*
X166729054Y-135019168D01*
X166818500Y-135038625D01*
X166820979Y-135039192D01*
X166932570Y-135065983D01*
X166946925Y-135070365D01*
X167037735Y-135104236D01*
X167041696Y-135105794D01*
X167142794Y-135147670D01*
X167154758Y-135153394D01*
X167241588Y-135200807D01*
X167246915Y-135203892D01*
X167338433Y-135259974D01*
X167347951Y-135266432D01*
X167427845Y-135326241D01*
X167434037Y-135331193D01*
X167515086Y-135400416D01*
X167522235Y-135407025D01*
X167592973Y-135477763D01*
X167599582Y-135484912D01*
X167668793Y-135565947D01*
X167673770Y-135572169D01*
X167733564Y-135652045D01*
X167740024Y-135661565D01*
X167796100Y-135753072D01*
X167799206Y-135758436D01*
X167846602Y-135845237D01*
X167852330Y-135857209D01*
X167864959Y-135887697D01*
X167894181Y-135958245D01*
X167895790Y-135962335D01*
X167929627Y-136053056D01*
X167934019Y-136067442D01*
X167960793Y-136178964D01*
X167961385Y-136181553D01*
X167980828Y-136270933D01*
X167983280Y-136287562D01*
X167994485Y-136429934D01*
X167994551Y-136430815D01*
X167999184Y-136495580D01*
X167999500Y-136504426D01*
X167999500Y-136607318D01*
X168000128Y-136611687D01*
X168000129Y-136611698D01*
X168029415Y-136815383D01*
X168030046Y-136819769D01*
X168031292Y-136824014D01*
X168031294Y-136824021D01*
X168060198Y-136922458D01*
X168090516Y-137025710D01*
X168092354Y-137029736D01*
X168092358Y-137029745D01*
X168177836Y-137216915D01*
X168179679Y-137220950D01*
X168182069Y-137224670D01*
X168182073Y-137224676D01*
X168262950Y-137350523D01*
X168295719Y-137401513D01*
X168436276Y-137563724D01*
X168598487Y-137704281D01*
X168602206Y-137706671D01*
X168738026Y-137793957D01*
X168779050Y-137820321D01*
X168974290Y-137909484D01*
X169180231Y-137969954D01*
X169392682Y-138000500D01*
X169498158Y-138000500D01*
X169501817Y-138000554D01*
X169704342Y-138006532D01*
X169713269Y-138007119D01*
X169733841Y-138009218D01*
X169915835Y-138027789D01*
X169927832Y-138029611D01*
X170127034Y-138069962D01*
X170138093Y-138072738D01*
X170221442Y-138097798D01*
X170234453Y-138102517D01*
X170402692Y-138174412D01*
X170402697Y-138174414D01*
X170422481Y-138185084D01*
X170574199Y-138285653D01*
X170585696Y-138294275D01*
X170594841Y-138302000D01*
X170594846Y-138302004D01*
X170606106Y-138312801D01*
X170734190Y-138452109D01*
X170748450Y-138470943D01*
X170822530Y-138591067D01*
X170831598Y-138608825D01*
X170901938Y-138779157D01*
X170907462Y-138795774D01*
X170953972Y-138977700D01*
X170956581Y-138990817D01*
X170984758Y-139187370D01*
X170985787Y-139197481D01*
X170998068Y-139400563D01*
X170998284Y-139406441D01*
X170998784Y-139445008D01*
X170998794Y-139446473D01*
X170999500Y-140062793D01*
X170999500Y-140498157D01*
X170999446Y-140501817D01*
X170993465Y-140704343D01*
X170992879Y-140713267D01*
X170972211Y-140915819D01*
X170970385Y-140927839D01*
X170930036Y-141127028D01*
X170927255Y-141138106D01*
X170902203Y-141221435D01*
X170897481Y-141234454D01*
X170825582Y-141402700D01*
X170814912Y-141422484D01*
X170714344Y-141574198D01*
X170705722Y-141585696D01*
X170698005Y-141594833D01*
X170687199Y-141606105D01*
X170547886Y-141734193D01*
X170529055Y-141748450D01*
X170432056Y-141808269D01*
X170408936Y-141822528D01*
X170391177Y-141831596D01*
X170220840Y-141901938D01*
X170204224Y-141907462D01*
X170022297Y-141953973D01*
X170009179Y-141956582D01*
X169812627Y-141984758D01*
X169802516Y-141985787D01*
X169599434Y-141998068D01*
X169593558Y-141998284D01*
X169558729Y-141998736D01*
X169557122Y-141998746D01*
X122037685Y-141999500D01*
X90500869Y-141999500D01*
X90499258Y-141999490D01*
X90406437Y-141998284D01*
X90400563Y-141998068D01*
X90197481Y-141985787D01*
X90187370Y-141984758D01*
X89990817Y-141956581D01*
X89977700Y-141953972D01*
X89795774Y-141907462D01*
X89779157Y-141901938D01*
X89608825Y-141831598D01*
X89591067Y-141822530D01*
X89470943Y-141748450D01*
X89452109Y-141734190D01*
X89312801Y-141606106D01*
X89302004Y-141594846D01*
X89301993Y-141594833D01*
X89294275Y-141585696D01*
X89285650Y-141574194D01*
X89185084Y-141422481D01*
X89174414Y-141402697D01*
X89102520Y-141234460D01*
X89097796Y-141221436D01*
X89072738Y-141138093D01*
X89069961Y-141127028D01*
X89029611Y-140927832D01*
X89027789Y-140915835D01*
X89007119Y-140713269D01*
X89006532Y-140704341D01*
X89000554Y-140501817D01*
X89000500Y-140498158D01*
X89000500Y-139500865D01*
X89000510Y-139499258D01*
X89000525Y-139498053D01*
X89001714Y-139406401D01*
X89001927Y-139400603D01*
X89014210Y-139197473D01*
X89015239Y-139187370D01*
X89043418Y-138990801D01*
X89046020Y-138977718D01*
X89092537Y-138795765D01*
X89098055Y-138779168D01*
X89162662Y-138622720D01*
X158228637Y-138622720D01*
X158229936Y-138634062D01*
X158275379Y-138756763D01*
X158280893Y-138768005D01*
X158381819Y-138929926D01*
X158389478Y-138939820D01*
X158520936Y-139078114D01*
X158530427Y-139086262D01*
X158687036Y-139195265D01*
X158697970Y-139201334D01*
X158873318Y-139276581D01*
X158885247Y-139280324D01*
X159072152Y-139318734D01*
X159084598Y-139320000D01*
X159463674Y-139320000D01*
X159476549Y-139316549D01*
X159480000Y-139303674D01*
X160080000Y-139303674D01*
X160083450Y-139316549D01*
X160096326Y-139320000D01*
X160427570Y-139320000D01*
X160433835Y-139319682D01*
X160576084Y-139305216D01*
X160588335Y-139302698D01*
X160770385Y-139245580D01*
X160781889Y-139240644D01*
X160948720Y-139148045D01*
X160958982Y-139140902D01*
X161103754Y-139016620D01*
X161112385Y-139007541D01*
X161229167Y-138856670D01*
X161235792Y-138846042D01*
X161319817Y-138674743D01*
X161324165Y-138663002D01*
X161331740Y-138633746D01*
X161332025Y-138622535D01*
X161321100Y-138620000D01*
X160096326Y-138620000D01*
X160083450Y-138623450D01*
X160080000Y-138636326D01*
X160080000Y-139303674D01*
X159480000Y-139303674D01*
X159480000Y-138636326D01*
X159476549Y-138623450D01*
X159463674Y-138620000D01*
X158239723Y-138620000D01*
X158228637Y-138622720D01*
X89162662Y-138622720D01*
X89168404Y-138608815D01*
X89177469Y-138591066D01*
X89251547Y-138470945D01*
X89265800Y-138452117D01*
X89393908Y-138312783D01*
X89405140Y-138302014D01*
X89414305Y-138294272D01*
X89425803Y-138285652D01*
X89569750Y-138190231D01*
X89577517Y-138185082D01*
X89597293Y-138174416D01*
X89765549Y-138102516D01*
X89778551Y-138097799D01*
X89861906Y-138072738D01*
X89872955Y-138069964D01*
X90072175Y-138029609D01*
X90084152Y-138027789D01*
X90185338Y-138017464D01*
X158227974Y-138017464D01*
X158238900Y-138020000D01*
X159463674Y-138020000D01*
X159476549Y-138016549D01*
X159480000Y-138003674D01*
X160080000Y-138003674D01*
X160083450Y-138016549D01*
X160096326Y-138020000D01*
X161320277Y-138020000D01*
X161331362Y-138017279D01*
X161330063Y-138005937D01*
X161284620Y-137883236D01*
X161279106Y-137871994D01*
X161178180Y-137710073D01*
X161170521Y-137700179D01*
X161048808Y-137572137D01*
X161021074Y-137526003D01*
X161015503Y-137472463D01*
X161033144Y-137421607D01*
X161092566Y-137325268D01*
X161098629Y-137312267D01*
X161149375Y-137159125D01*
X161152194Y-137145958D01*
X161160229Y-137067307D01*
X161157810Y-137053780D01*
X161144602Y-137050000D01*
X160216326Y-137050000D01*
X160203450Y-137053450D01*
X160200000Y-137066326D01*
X160200000Y-137667072D01*
X160188382Y-137719477D01*
X160155706Y-137762062D01*
X160108093Y-137786847D01*
X160083450Y-137793449D01*
X160080000Y-137806326D01*
X160080000Y-138003674D01*
X159480000Y-138003674D01*
X159480000Y-137402928D01*
X159491618Y-137350523D01*
X159524294Y-137307938D01*
X159571907Y-137283153D01*
X159596549Y-137276550D01*
X159600000Y-137263674D01*
X159600000Y-137066326D01*
X159596549Y-137053450D01*
X159583674Y-137050000D01*
X158655399Y-137050000D01*
X158642189Y-137053780D01*
X158639771Y-137067307D01*
X158647805Y-137145959D01*
X158650624Y-137159124D01*
X158703642Y-137319122D01*
X158702270Y-137319576D01*
X158711934Y-137370856D01*
X158692986Y-137429230D01*
X158648366Y-137471369D01*
X158611279Y-137491954D01*
X158601017Y-137499097D01*
X158456245Y-137623379D01*
X158447614Y-137632458D01*
X158330832Y-137783329D01*
X158324207Y-137793957D01*
X158240182Y-137965256D01*
X158235834Y-137976997D01*
X158228259Y-138006253D01*
X158227974Y-138017464D01*
X90185338Y-138017464D01*
X90286759Y-138007115D01*
X90295650Y-138006532D01*
X90498182Y-138000554D01*
X90501842Y-138000500D01*
X90602892Y-138000500D01*
X90607318Y-138000500D01*
X90819769Y-137969954D01*
X91025710Y-137909484D01*
X91220950Y-137820321D01*
X91401513Y-137704281D01*
X91563724Y-137563724D01*
X91704281Y-137401513D01*
X91820321Y-137220950D01*
X91909484Y-137025710D01*
X91969954Y-136819769D01*
X92000500Y-136607318D01*
X92000500Y-136504426D01*
X92000816Y-136495582D01*
X92000859Y-136494968D01*
X92005490Y-136430227D01*
X92016719Y-136287555D01*
X92019170Y-136270935D01*
X92038631Y-136181471D01*
X92039181Y-136179065D01*
X92065984Y-136067424D01*
X92070365Y-136053074D01*
X92104251Y-135962224D01*
X92105778Y-135958341D01*
X92147676Y-135857190D01*
X92153387Y-135845255D01*
X92200826Y-135758376D01*
X92203871Y-135753118D01*
X92259989Y-135661542D01*
X92266418Y-135652068D01*
X92326264Y-135572123D01*
X92331168Y-135565992D01*
X92400440Y-135484885D01*
X92407000Y-135477789D01*
X92477789Y-135407000D01*
X92484885Y-135400440D01*
X92565992Y-135331168D01*
X92572123Y-135326264D01*
X92652068Y-135266418D01*
X92661542Y-135259989D01*
X92753118Y-135203871D01*
X92758376Y-135200826D01*
X92845255Y-135153387D01*
X92857190Y-135147676D01*
X92958341Y-135105778D01*
X92962224Y-135104251D01*
X93053083Y-135070362D01*
X93067420Y-135065985D01*
X93179060Y-135039182D01*
X93181454Y-135038635D01*
X93270949Y-135019167D01*
X93287546Y-135016719D01*
X93430227Y-135005490D01*
X93495581Y-135000816D01*
X93504426Y-135000500D01*
X93602892Y-135000500D01*
X93607318Y-135000500D01*
X93819769Y-134969954D01*
X94025710Y-134909484D01*
X94220950Y-134820321D01*
X94401513Y-134704281D01*
X94563724Y-134563724D01*
X94704281Y-134401513D01*
X94820321Y-134220950D01*
X94909484Y-134025710D01*
X94969954Y-133819769D01*
X95000500Y-133607318D01*
X95000500Y-133500000D01*
X95000500Y-133499500D01*
X95000500Y-126000000D01*
X98994659Y-126000000D01*
X98995256Y-126006062D01*
X99013378Y-126190067D01*
X99013379Y-126190073D01*
X99013976Y-126196132D01*
X99015743Y-126201957D01*
X99015744Y-126201962D01*
X99069418Y-126378899D01*
X99071186Y-126384727D01*
X99074055Y-126390095D01*
X99074057Y-126390099D01*
X99161215Y-126553161D01*
X99161219Y-126553167D01*
X99164090Y-126558538D01*
X99289117Y-126710883D01*
X99441462Y-126835910D01*
X99446834Y-126838781D01*
X99446838Y-126838784D01*
X99588839Y-126914684D01*
X99615273Y-126928814D01*
X99803868Y-126986024D01*
X100000000Y-127005341D01*
X100196132Y-126986024D01*
X100384727Y-126928814D01*
X100558538Y-126835910D01*
X100710883Y-126710883D01*
X100835910Y-126558538D01*
X100928814Y-126384727D01*
X100986024Y-126196132D01*
X101005341Y-126000000D01*
X100986024Y-125803868D01*
X100928814Y-125615273D01*
X100835910Y-125441462D01*
X100710883Y-125289117D01*
X100558538Y-125164090D01*
X100553167Y-125161219D01*
X100553161Y-125161215D01*
X100390099Y-125074057D01*
X100390095Y-125074055D01*
X100384727Y-125071186D01*
X100378899Y-125069418D01*
X100201962Y-125015744D01*
X100201957Y-125015743D01*
X100196132Y-125013976D01*
X100190073Y-125013379D01*
X100190067Y-125013378D01*
X100006062Y-124995256D01*
X100000000Y-124994659D01*
X99993938Y-124995256D01*
X99809932Y-125013378D01*
X99809924Y-125013379D01*
X99803868Y-125013976D01*
X99798044Y-125015742D01*
X99798037Y-125015744D01*
X99621100Y-125069418D01*
X99621096Y-125069419D01*
X99615273Y-125071186D01*
X99609907Y-125074053D01*
X99609900Y-125074057D01*
X99446838Y-125161215D01*
X99446827Y-125161222D01*
X99441462Y-125164090D01*
X99436754Y-125167953D01*
X99436749Y-125167957D01*
X99293823Y-125285254D01*
X99293818Y-125285258D01*
X99289117Y-125289117D01*
X99285258Y-125293818D01*
X99285254Y-125293823D01*
X99167957Y-125436749D01*
X99167953Y-125436754D01*
X99164090Y-125441462D01*
X99161222Y-125446827D01*
X99161215Y-125446838D01*
X99074057Y-125609900D01*
X99074053Y-125609907D01*
X99071186Y-125615273D01*
X99069419Y-125621096D01*
X99069418Y-125621100D01*
X99015744Y-125798037D01*
X99015742Y-125798044D01*
X99013976Y-125803868D01*
X99013379Y-125809924D01*
X99013378Y-125809932D01*
X98995256Y-125993938D01*
X98994659Y-126000000D01*
X95000500Y-126000000D01*
X95000500Y-114122551D01*
X98686086Y-114122551D01*
X98686454Y-114133780D01*
X98725166Y-114278258D01*
X98728858Y-114288400D01*
X98824113Y-114492676D01*
X98829501Y-114502008D01*
X98958784Y-114686643D01*
X98965721Y-114694909D01*
X99125090Y-114854278D01*
X99133356Y-114861215D01*
X99317991Y-114990498D01*
X99327323Y-114995886D01*
X99531599Y-115091141D01*
X99541741Y-115094833D01*
X99686219Y-115133545D01*
X99697448Y-115133913D01*
X99700000Y-115122971D01*
X100300000Y-115122971D01*
X100302551Y-115133913D01*
X100313780Y-115133545D01*
X100458258Y-115094833D01*
X100468400Y-115091141D01*
X100672676Y-114995886D01*
X100682008Y-114990498D01*
X100866643Y-114861215D01*
X100874909Y-114854278D01*
X101034278Y-114694909D01*
X101041215Y-114686643D01*
X101170498Y-114502008D01*
X101175886Y-114492676D01*
X101271141Y-114288400D01*
X101274833Y-114278258D01*
X101313545Y-114133780D01*
X101313913Y-114122551D01*
X101302971Y-114120000D01*
X100316326Y-114120000D01*
X100303450Y-114123450D01*
X100300000Y-114136326D01*
X100300000Y-115122971D01*
X99700000Y-115122971D01*
X99700000Y-114136326D01*
X99696549Y-114123450D01*
X99683674Y-114120000D01*
X98697029Y-114120000D01*
X98686086Y-114122551D01*
X95000500Y-114122551D01*
X95000500Y-89999901D01*
X95000500Y-89892682D01*
X94969954Y-89680231D01*
X94909484Y-89474290D01*
X94820321Y-89279050D01*
X94704281Y-89098487D01*
X94563724Y-88936276D01*
X94555539Y-88929184D01*
X94404854Y-88798614D01*
X94404853Y-88798613D01*
X94401513Y-88795719D01*
X94397793Y-88793328D01*
X94224676Y-88682073D01*
X94224670Y-88682069D01*
X94220950Y-88679679D01*
X94216918Y-88677837D01*
X94216915Y-88677836D01*
X94029745Y-88592358D01*
X94029736Y-88592354D01*
X94025710Y-88590516D01*
X93926006Y-88561240D01*
X93824021Y-88531294D01*
X93824014Y-88531292D01*
X93819769Y-88530046D01*
X93815388Y-88529416D01*
X93815383Y-88529415D01*
X93611698Y-88500129D01*
X93611687Y-88500128D01*
X93607318Y-88499500D01*
X93602892Y-88499500D01*
X93504428Y-88499500D01*
X93495583Y-88499184D01*
X93485521Y-88498464D01*
X93430815Y-88494551D01*
X93429934Y-88494485D01*
X93287560Y-88483280D01*
X93270931Y-88480828D01*
X93181575Y-88461390D01*
X93178986Y-88460798D01*
X93067442Y-88434019D01*
X93053056Y-88429627D01*
X92999050Y-88409484D01*
X92962324Y-88395785D01*
X92958245Y-88394181D01*
X92913578Y-88375679D01*
X92857209Y-88352330D01*
X92845237Y-88346602D01*
X92758436Y-88299206D01*
X92753072Y-88296100D01*
X92661565Y-88240024D01*
X92652045Y-88233564D01*
X92572169Y-88173770D01*
X92565955Y-88168799D01*
X92484912Y-88099582D01*
X92477763Y-88092973D01*
X92407025Y-88022235D01*
X92400416Y-88015086D01*
X92387531Y-88000000D01*
X92331193Y-87934037D01*
X92326241Y-87927845D01*
X92266432Y-87847951D01*
X92259974Y-87838433D01*
X92203898Y-87746926D01*
X92200807Y-87741588D01*
X92153394Y-87654758D01*
X92147668Y-87642789D01*
X92145819Y-87638325D01*
X92105794Y-87541696D01*
X92104236Y-87537735D01*
X92070365Y-87446925D01*
X92065983Y-87432570D01*
X92039192Y-87320979D01*
X92038625Y-87318500D01*
X92019168Y-87229054D01*
X92016719Y-87212449D01*
X92005488Y-87069740D01*
X92005487Y-87069734D01*
X92000816Y-87004418D01*
X92000500Y-86995574D01*
X92000500Y-86897108D01*
X92000500Y-86892682D01*
X91969954Y-86680231D01*
X91909484Y-86474290D01*
X91820321Y-86279050D01*
X91814083Y-86269344D01*
X91706671Y-86102206D01*
X91704281Y-86098487D01*
X91563724Y-85936276D01*
X91401513Y-85795719D01*
X91397793Y-85793328D01*
X91224676Y-85682073D01*
X91224670Y-85682069D01*
X91220950Y-85679679D01*
X91216918Y-85677837D01*
X91216915Y-85677836D01*
X91029745Y-85592358D01*
X91029736Y-85592354D01*
X91025710Y-85590516D01*
X90960178Y-85571274D01*
X90824021Y-85531294D01*
X90824014Y-85531292D01*
X90819769Y-85530046D01*
X90815388Y-85529416D01*
X90815383Y-85529415D01*
X90611698Y-85500129D01*
X90611687Y-85500128D01*
X90607318Y-85499500D01*
X90602892Y-85499500D01*
X90500869Y-85499500D01*
X90499258Y-85499490D01*
X90406437Y-85498284D01*
X90400563Y-85498068D01*
X90197481Y-85485787D01*
X90187370Y-85484758D01*
X89990817Y-85456581D01*
X89977700Y-85453972D01*
X89795774Y-85407462D01*
X89779157Y-85401938D01*
X89608825Y-85331598D01*
X89591067Y-85322530D01*
X89470943Y-85248450D01*
X89452109Y-85234190D01*
X89312801Y-85106106D01*
X89302004Y-85094846D01*
X89301993Y-85094833D01*
X89294275Y-85085696D01*
X89285650Y-85074194D01*
X89185084Y-84922481D01*
X89174414Y-84902697D01*
X89102520Y-84734460D01*
X89097796Y-84721436D01*
X89072738Y-84638093D01*
X89069961Y-84627028D01*
X89029611Y-84427832D01*
X89027789Y-84415835D01*
X89007119Y-84213269D01*
X89006532Y-84204341D01*
X89000554Y-84001817D01*
X89000500Y-83998158D01*
X89000500Y-79500865D01*
X89000510Y-79499258D01*
X89001231Y-79443638D01*
X89001714Y-79406401D01*
X89001927Y-79400603D01*
X89014210Y-79197473D01*
X89015239Y-79187370D01*
X89043418Y-78990801D01*
X89046020Y-78977718D01*
X89092537Y-78795765D01*
X89098055Y-78779168D01*
X89168404Y-78608815D01*
X89177469Y-78591066D01*
X89251547Y-78470945D01*
X89265800Y-78452117D01*
X89393908Y-78312783D01*
X89405140Y-78302014D01*
X89414305Y-78294272D01*
X89425803Y-78285652D01*
X89569750Y-78190231D01*
X89577517Y-78185082D01*
X89597293Y-78174416D01*
X89765549Y-78102516D01*
X89778551Y-78097799D01*
X89861906Y-78072738D01*
X89872955Y-78069964D01*
X90072175Y-78029609D01*
X90084152Y-78027789D01*
X90286759Y-78007115D01*
X90295650Y-78006532D01*
X90498182Y-78000554D01*
X90501842Y-78000500D01*
X105602892Y-78000500D01*
X105607318Y-78000500D01*
X105819769Y-77969954D01*
X106025710Y-77909484D01*
X106220950Y-77820321D01*
X106401513Y-77704281D01*
X106563724Y-77563724D01*
X106704281Y-77401513D01*
X106820321Y-77220950D01*
X106909484Y-77025710D01*
X106969954Y-76819769D01*
X107000500Y-76607318D01*
X107000500Y-76500000D01*
X107000500Y-76499500D01*
X107000500Y-67499901D01*
X107000505Y-67499901D01*
X107000499Y-67499833D01*
X107000552Y-67393425D01*
X106970427Y-67182416D01*
X106910781Y-66977782D01*
X106822812Y-66783633D01*
X106708287Y-66603865D01*
X106569503Y-66442088D01*
X106409249Y-66301550D01*
X106230740Y-66185072D01*
X106226761Y-66183216D01*
X106226751Y-66183211D01*
X106041558Y-66096857D01*
X106041555Y-66096855D01*
X106037560Y-66094993D01*
X106033343Y-66093716D01*
X106033335Y-66093713D01*
X105939764Y-66065381D01*
X105931477Y-66062549D01*
X105896355Y-66049142D01*
X105895007Y-66048618D01*
X105733300Y-65984720D01*
X105718889Y-65977925D01*
X105646975Y-65938180D01*
X105643209Y-65936011D01*
X105533568Y-65870297D01*
X105522752Y-65863016D01*
X105450699Y-65808791D01*
X105445040Y-65804267D01*
X105353089Y-65726253D01*
X105345630Y-65719380D01*
X105280618Y-65654368D01*
X105273745Y-65646909D01*
X105195731Y-65554958D01*
X105191207Y-65549299D01*
X105136982Y-65477246D01*
X105129701Y-65466430D01*
X105063987Y-65356789D01*
X105061818Y-65353023D01*
X105022067Y-65281096D01*
X105015281Y-65266705D01*
X104951361Y-65104943D01*
X104950845Y-65103614D01*
X104937435Y-65068482D01*
X104934631Y-65060282D01*
X104934629Y-65060277D01*
X104906711Y-64968254D01*
X104823218Y-64785379D01*
X104716080Y-64615275D01*
X104652178Y-64538766D01*
X104589872Y-64464167D01*
X104589870Y-64464165D01*
X104587210Y-64460980D01*
X104513865Y-64393851D01*
X104441977Y-64328056D01*
X104441974Y-64328053D01*
X104438913Y-64325252D01*
X104273837Y-64210517D01*
X104094933Y-64118825D01*
X104062706Y-64107429D01*
X104004159Y-64086726D01*
X103996273Y-64083630D01*
X103947169Y-64062391D01*
X103946198Y-64061966D01*
X103810979Y-64002103D01*
X103796892Y-63994754D01*
X103723790Y-63950436D01*
X103721092Y-63948752D01*
X103703424Y-63937411D01*
X103624659Y-63886853D01*
X103613511Y-63878789D01*
X103584610Y-63855333D01*
X103542359Y-63821041D01*
X103538318Y-63817615D01*
X103457020Y-63745658D01*
X103448664Y-63737531D01*
X103384579Y-63669049D01*
X103379690Y-63663501D01*
X103311568Y-63581366D01*
X103305786Y-63573821D01*
X103251281Y-63496737D01*
X103246092Y-63488764D01*
X103191382Y-63397189D01*
X103187770Y-63390711D01*
X103144563Y-63307453D01*
X103139689Y-63296872D01*
X103125226Y-63261146D01*
X103098947Y-63196232D01*
X103097071Y-63191295D01*
X103097067Y-63191285D01*
X103090225Y-63172058D01*
X103066345Y-63104959D01*
X103062455Y-63091748D01*
X103036227Y-62980127D01*
X103035566Y-62977143D01*
X103018135Y-62893373D01*
X103015908Y-62877689D01*
X103004681Y-62732231D01*
X103004650Y-62731803D01*
X103000790Y-62675428D01*
X103000500Y-62666959D01*
X103000500Y-61504426D01*
X103000816Y-61495582D01*
X103000859Y-61494968D01*
X103005490Y-61430227D01*
X103016719Y-61287555D01*
X103019170Y-61270935D01*
X103038631Y-61181471D01*
X103039181Y-61179065D01*
X103065984Y-61067424D01*
X103070365Y-61053074D01*
X103104251Y-60962224D01*
X103105778Y-60958341D01*
X103147676Y-60857190D01*
X103153387Y-60845255D01*
X103200826Y-60758376D01*
X103203871Y-60753118D01*
X103259989Y-60661542D01*
X103266418Y-60652068D01*
X103326264Y-60572123D01*
X103331168Y-60565992D01*
X103400440Y-60484885D01*
X103407000Y-60477789D01*
X103477789Y-60407000D01*
X103484885Y-60400440D01*
X103565992Y-60331168D01*
X103572123Y-60326264D01*
X103652068Y-60266418D01*
X103661542Y-60259989D01*
X103753118Y-60203871D01*
X103758376Y-60200826D01*
X103845255Y-60153387D01*
X103857190Y-60147676D01*
X103958341Y-60105778D01*
X103962224Y-60104251D01*
X104053083Y-60070362D01*
X104067420Y-60065985D01*
X104179060Y-60039182D01*
X104181454Y-60038635D01*
X104270949Y-60019167D01*
X104287546Y-60016719D01*
X104430227Y-60005490D01*
X104495581Y-60000816D01*
X104504426Y-60000500D01*
X116280853Y-60000500D01*
X116347192Y-60019738D01*
G37*
G04 #@! TD.AperFunction*
G04 #@! TA.AperFunction,NonConductor*
G36*
X131399872Y-60019738D02*
G01*
X131445627Y-60071482D01*
X131456601Y-60139677D01*
X131429388Y-60203163D01*
X131372432Y-60242241D01*
X126015683Y-62012013D01*
X126015680Y-62012014D01*
X126004165Y-62015819D01*
X125994961Y-62023716D01*
X125994958Y-62023719D01*
X125017889Y-62862201D01*
X125017887Y-62862203D01*
X125008556Y-62870211D01*
X125007688Y-62882476D01*
X125007688Y-62882480D01*
X124922545Y-64086929D01*
X124916136Y-64177594D01*
X124920108Y-64189304D01*
X124920109Y-64189308D01*
X125251288Y-65165579D01*
X125304412Y-65322182D01*
X125312539Y-65331405D01*
X125312540Y-65331407D01*
X125694911Y-65765359D01*
X126168318Y-66302627D01*
X127383064Y-66386259D01*
X127432782Y-66400492D01*
X127472372Y-66433770D01*
X127494944Y-66480303D01*
X127617314Y-66977012D01*
X127617323Y-66977046D01*
X127617539Y-66977923D01*
X127617786Y-66978808D01*
X127617792Y-66978831D01*
X127957977Y-68197955D01*
X127962464Y-68226945D01*
X127995411Y-69168180D01*
X127990136Y-69208552D01*
X127917063Y-69449158D01*
X127902422Y-69480639D01*
X127656253Y-69859868D01*
X127654555Y-69862414D01*
X126813996Y-71089880D01*
X126813993Y-71089885D01*
X126808377Y-71098087D01*
X126805625Y-71107641D01*
X126805625Y-71107644D01*
X126400361Y-72515213D01*
X126400360Y-72515215D01*
X126396107Y-72529990D01*
X126399359Y-72545016D01*
X126399359Y-72545019D01*
X126705018Y-73957380D01*
X126705019Y-73957384D01*
X126706898Y-73966064D01*
X126713182Y-73972348D01*
X127711657Y-74970834D01*
X127762971Y-75022148D01*
X127773395Y-75026782D01*
X127773397Y-75026784D01*
X128032566Y-75142016D01*
X128686828Y-75432915D01*
X129608842Y-75545950D01*
X130299007Y-75424400D01*
X130479493Y-75392614D01*
X130533112Y-75394965D01*
X130580715Y-75419754D01*
X130613385Y-75462336D01*
X130625000Y-75514735D01*
X130625000Y-76793307D01*
X130615561Y-76840760D01*
X130588681Y-76880988D01*
X127880989Y-79588681D01*
X127840761Y-79615561D01*
X127793308Y-79625000D01*
X109000000Y-79625000D01*
X108994037Y-79626185D01*
X108994027Y-79626187D01*
X108971563Y-79630655D01*
X108958435Y-79632542D01*
X108936871Y-79634472D01*
X108929569Y-79635126D01*
X108923726Y-79636841D01*
X108923723Y-79636842D01*
X108912697Y-79640079D01*
X108904138Y-79642263D01*
X108892904Y-79644707D01*
X108892888Y-79644712D01*
X108886950Y-79646004D01*
X108882810Y-79647805D01*
X108878302Y-79648047D01*
X108869072Y-79652460D01*
X108869060Y-79652465D01*
X108868755Y-79652612D01*
X108865244Y-79654158D01*
X108864522Y-79654224D01*
X108861903Y-79654994D01*
X108856513Y-79657815D01*
X108856502Y-79657820D01*
X108853932Y-79659166D01*
X108835795Y-79666304D01*
X108832319Y-79668043D01*
X108820547Y-79671271D01*
X108810906Y-79678756D01*
X108808532Y-79679945D01*
X108804641Y-79681764D01*
X108804268Y-79681993D01*
X108797511Y-79684936D01*
X108794375Y-79688185D01*
X108790303Y-79690133D01*
X108785248Y-79693916D01*
X108783195Y-79696200D01*
X108775485Y-79700237D01*
X108775372Y-79700371D01*
X108772484Y-79701811D01*
X108773281Y-79702874D01*
X108773281Y-79702875D01*
X108761784Y-79711483D01*
X108757714Y-79716012D01*
X108753221Y-79720123D01*
X108752803Y-79719666D01*
X108744216Y-79727107D01*
X108744608Y-79727585D01*
X108739890Y-79731456D01*
X108734835Y-79734835D01*
X108730536Y-79739133D01*
X108730531Y-79739138D01*
X101739145Y-86730524D01*
X101739140Y-86730529D01*
X101734835Y-86734835D01*
X101731452Y-86739896D01*
X101731445Y-86739906D01*
X101718725Y-86758941D01*
X101710780Y-86769555D01*
X101696101Y-86787120D01*
X101696096Y-86787125D01*
X101692195Y-86791795D01*
X101689278Y-86797135D01*
X101689274Y-86797142D01*
X101683766Y-86807229D01*
X101679257Y-86814826D01*
X101669749Y-86829624D01*
X101668092Y-86833833D01*
X101665070Y-86837198D01*
X101661656Y-86846870D01*
X101661652Y-86846880D01*
X101661540Y-86847199D01*
X101660168Y-86850731D01*
X101659711Y-86851280D01*
X101658403Y-86853677D01*
X101656590Y-86859471D01*
X101656584Y-86859486D01*
X101655706Y-86862295D01*
X101647903Y-86880226D01*
X101646692Y-86883861D01*
X101640653Y-86894468D01*
X101639130Y-86906580D01*
X101638310Y-86909045D01*
X101636832Y-86913116D01*
X101636731Y-86913540D01*
X101634035Y-86920396D01*
X101634115Y-86924919D01*
X101632611Y-86929184D01*
X101631712Y-86935433D01*
X101631875Y-86938481D01*
X101629281Y-86946774D01*
X101629296Y-86946941D01*
X101628268Y-86950013D01*
X101629588Y-86950203D01*
X101628410Y-86958395D01*
X101628409Y-86958403D01*
X101627544Y-86964428D01*
X101627870Y-86970510D01*
X101627599Y-86976593D01*
X101626977Y-86976565D01*
X101626166Y-86987904D01*
X101626785Y-86987965D01*
X101626188Y-86994026D01*
X101625000Y-87000000D01*
X101625000Y-87006091D01*
X101625000Y-104376000D01*
X101608387Y-104438000D01*
X101563000Y-104483387D01*
X101501000Y-104500000D01*
X98881693Y-104500000D01*
X98834240Y-104490561D01*
X98794012Y-104463681D01*
X97411319Y-103080988D01*
X97384439Y-103040760D01*
X97375000Y-102993307D01*
X97375000Y-94000000D01*
X98994659Y-94000000D01*
X98995256Y-94006062D01*
X99013378Y-94190067D01*
X99013379Y-94190073D01*
X99013976Y-94196132D01*
X99015743Y-94201957D01*
X99015744Y-94201962D01*
X99069418Y-94378899D01*
X99071186Y-94384727D01*
X99074055Y-94390095D01*
X99074057Y-94390099D01*
X99161215Y-94553161D01*
X99161219Y-94553167D01*
X99164090Y-94558538D01*
X99289117Y-94710883D01*
X99441462Y-94835910D01*
X99446834Y-94838781D01*
X99446838Y-94838784D01*
X99588839Y-94914684D01*
X99615273Y-94928814D01*
X99803868Y-94986024D01*
X100000000Y-95005341D01*
X100196132Y-94986024D01*
X100384727Y-94928814D01*
X100558538Y-94835910D01*
X100710883Y-94710883D01*
X100835910Y-94558538D01*
X100928814Y-94384727D01*
X100986024Y-94196132D01*
X101005341Y-94000000D01*
X100986024Y-93803868D01*
X100928814Y-93615273D01*
X100835910Y-93441462D01*
X100710883Y-93289117D01*
X100558538Y-93164090D01*
X100553167Y-93161219D01*
X100553161Y-93161215D01*
X100390099Y-93074057D01*
X100390095Y-93074055D01*
X100384727Y-93071186D01*
X100378899Y-93069418D01*
X100201962Y-93015744D01*
X100201957Y-93015743D01*
X100196132Y-93013976D01*
X100190073Y-93013379D01*
X100190067Y-93013378D01*
X100006062Y-92995256D01*
X100000000Y-92994659D01*
X99993938Y-92995256D01*
X99809932Y-93013378D01*
X99809924Y-93013379D01*
X99803868Y-93013976D01*
X99798044Y-93015742D01*
X99798037Y-93015744D01*
X99621100Y-93069418D01*
X99621096Y-93069419D01*
X99615273Y-93071186D01*
X99609907Y-93074053D01*
X99609900Y-93074057D01*
X99446838Y-93161215D01*
X99446827Y-93161222D01*
X99441462Y-93164090D01*
X99436754Y-93167953D01*
X99436749Y-93167957D01*
X99293823Y-93285254D01*
X99293818Y-93285258D01*
X99289117Y-93289117D01*
X99285258Y-93293818D01*
X99285254Y-93293823D01*
X99167957Y-93436749D01*
X99167953Y-93436754D01*
X99164090Y-93441462D01*
X99161222Y-93446827D01*
X99161215Y-93446838D01*
X99074057Y-93609900D01*
X99074053Y-93609907D01*
X99071186Y-93615273D01*
X99069419Y-93621096D01*
X99069418Y-93621100D01*
X99015744Y-93798037D01*
X99015742Y-93798044D01*
X99013976Y-93803868D01*
X99013379Y-93809924D01*
X99013378Y-93809932D01*
X98995256Y-93993938D01*
X98994659Y-94000000D01*
X97375000Y-94000000D01*
X97375000Y-89206692D01*
X97384439Y-89159239D01*
X97411319Y-89119011D01*
X104363071Y-82167259D01*
X112222900Y-74307429D01*
X112278486Y-74275337D01*
X112342673Y-74275337D01*
X112398258Y-74307429D01*
X113012971Y-74922148D01*
X113023395Y-74926782D01*
X113023397Y-74926784D01*
X113219735Y-75014080D01*
X113936828Y-75332915D01*
X114858842Y-75445950D01*
X115763049Y-75286704D01*
X116639815Y-74889293D01*
X118120320Y-73660345D01*
X119543606Y-71849401D01*
X120150268Y-70793538D01*
X120518396Y-69747924D01*
X120657214Y-68709569D01*
X120599596Y-67669153D01*
X120118743Y-65667353D01*
X119592370Y-63987036D01*
X119587147Y-63939467D01*
X119600327Y-63893460D01*
X119629945Y-63855872D01*
X120332304Y-63253137D01*
X120424724Y-61945754D01*
X120036448Y-60801167D01*
X119998796Y-60758436D01*
X119512445Y-60206477D01*
X119485767Y-60156818D01*
X119483830Y-60100480D01*
X119507034Y-60049106D01*
X119550585Y-60013314D01*
X119605481Y-60000500D01*
X131333533Y-60000500D01*
X131399872Y-60019738D01*
G37*
G04 #@! TD.AperFunction*
G04 #@! TA.AperFunction,NonConductor*
G36*
X145779654Y-60019738D02*
G01*
X145825409Y-60071482D01*
X145836383Y-60139677D01*
X145809170Y-60203163D01*
X145752214Y-60242241D01*
X140451337Y-61993554D01*
X140451334Y-61993555D01*
X140439819Y-61997360D01*
X140430615Y-62005257D01*
X140430612Y-62005260D01*
X139453543Y-62843742D01*
X139453541Y-62843744D01*
X139444210Y-62851752D01*
X139443342Y-62864017D01*
X139443342Y-62864021D01*
X139354639Y-64118826D01*
X139351790Y-64159135D01*
X139355762Y-64170845D01*
X139355763Y-64170849D01*
X139657482Y-65060277D01*
X139740066Y-65303723D01*
X139748193Y-65312946D01*
X139748194Y-65312948D01*
X140112373Y-65726253D01*
X140603972Y-66284168D01*
X141818718Y-66367800D01*
X141868436Y-66382033D01*
X141908026Y-66415311D01*
X141930598Y-66461844D01*
X142052968Y-66958553D01*
X142052977Y-66958587D01*
X142053193Y-66959464D01*
X142053440Y-66960349D01*
X142053446Y-66960372D01*
X142393631Y-68179496D01*
X142398118Y-68208486D01*
X142431065Y-69149721D01*
X142425790Y-69190093D01*
X142352717Y-69430699D01*
X142338076Y-69462180D01*
X142091907Y-69841409D01*
X142090209Y-69843955D01*
X141249650Y-71071421D01*
X141249647Y-71071426D01*
X141244031Y-71079628D01*
X141241279Y-71089182D01*
X141241279Y-71089185D01*
X140836015Y-72496754D01*
X140836014Y-72496756D01*
X140831761Y-72511531D01*
X140835013Y-72526557D01*
X140835013Y-72526560D01*
X141140672Y-73938921D01*
X141140673Y-73938925D01*
X141142552Y-73947605D01*
X142198625Y-75003689D01*
X142209049Y-75008323D01*
X142209051Y-75008325D01*
X142570914Y-75169217D01*
X143122482Y-75414456D01*
X144044496Y-75527491D01*
X144479493Y-75450881D01*
X144533112Y-75453232D01*
X144580715Y-75478021D01*
X144613385Y-75520603D01*
X144625000Y-75573002D01*
X144625000Y-76793307D01*
X144615561Y-76840760D01*
X144588681Y-76880988D01*
X135980989Y-85488681D01*
X135940761Y-85515561D01*
X135893308Y-85525000D01*
X106000000Y-85525000D01*
X105994037Y-85526185D01*
X105994027Y-85526187D01*
X105971563Y-85530655D01*
X105958435Y-85532542D01*
X105936871Y-85534472D01*
X105929569Y-85535126D01*
X105923726Y-85536841D01*
X105923723Y-85536842D01*
X105912697Y-85540079D01*
X105904138Y-85542263D01*
X105892904Y-85544707D01*
X105892888Y-85544712D01*
X105886950Y-85546004D01*
X105882810Y-85547805D01*
X105878302Y-85548047D01*
X105869072Y-85552460D01*
X105869060Y-85552465D01*
X105868755Y-85552612D01*
X105865244Y-85554158D01*
X105864522Y-85554224D01*
X105861903Y-85554994D01*
X105856512Y-85557816D01*
X105856505Y-85557819D01*
X105853927Y-85559169D01*
X105835777Y-85566312D01*
X105832311Y-85568046D01*
X105820541Y-85571274D01*
X105810900Y-85578760D01*
X105808539Y-85579942D01*
X105804648Y-85581760D01*
X105804270Y-85581993D01*
X105797511Y-85584936D01*
X105794375Y-85588185D01*
X105790303Y-85590133D01*
X105785248Y-85593916D01*
X105783195Y-85596200D01*
X105775485Y-85600237D01*
X105775372Y-85600371D01*
X105772486Y-85601810D01*
X105773282Y-85602873D01*
X105761787Y-85611480D01*
X105757721Y-85616005D01*
X105753223Y-85620120D01*
X105752804Y-85619662D01*
X105744214Y-85627106D01*
X105744608Y-85627586D01*
X105739899Y-85631450D01*
X105734834Y-85634835D01*
X105730528Y-85639140D01*
X105730523Y-85639145D01*
X103939145Y-87430524D01*
X103939140Y-87430529D01*
X103934835Y-87434835D01*
X103931452Y-87439896D01*
X103931445Y-87439906D01*
X103918725Y-87458941D01*
X103910780Y-87469555D01*
X103896101Y-87487120D01*
X103896096Y-87487125D01*
X103892195Y-87491795D01*
X103889278Y-87497135D01*
X103889274Y-87497142D01*
X103883766Y-87507229D01*
X103879257Y-87514826D01*
X103869749Y-87529624D01*
X103868092Y-87533833D01*
X103865070Y-87537198D01*
X103861656Y-87546870D01*
X103861652Y-87546880D01*
X103861540Y-87547199D01*
X103860168Y-87550731D01*
X103859711Y-87551280D01*
X103858403Y-87553677D01*
X103856590Y-87559471D01*
X103856584Y-87559486D01*
X103855706Y-87562295D01*
X103847903Y-87580226D01*
X103846692Y-87583861D01*
X103840653Y-87594468D01*
X103839130Y-87606580D01*
X103838310Y-87609045D01*
X103836832Y-87613116D01*
X103836731Y-87613540D01*
X103834035Y-87620396D01*
X103834115Y-87624919D01*
X103832611Y-87629184D01*
X103831712Y-87635433D01*
X103831875Y-87638481D01*
X103829281Y-87646774D01*
X103829296Y-87646941D01*
X103828268Y-87650013D01*
X103829588Y-87650203D01*
X103828410Y-87658395D01*
X103828409Y-87658403D01*
X103827544Y-87664428D01*
X103827870Y-87670510D01*
X103827599Y-87676593D01*
X103826977Y-87676565D01*
X103826166Y-87687904D01*
X103826785Y-87687965D01*
X103826188Y-87694026D01*
X103825000Y-87700000D01*
X103825000Y-87706091D01*
X103825000Y-107883308D01*
X103815561Y-107930761D01*
X103788681Y-107970989D01*
X102011681Y-109747989D01*
X101962318Y-109778239D01*
X101904602Y-109782781D01*
X101851115Y-109760626D01*
X101813515Y-109716603D01*
X101800000Y-109660308D01*
X101800000Y-107521692D01*
X101809439Y-107474239D01*
X101836319Y-107434011D01*
X101986311Y-107284019D01*
X102265165Y-107005165D01*
X102281269Y-106981063D01*
X102289222Y-106970437D01*
X102307811Y-106948194D01*
X102316233Y-106932767D01*
X102320729Y-106925190D01*
X102330246Y-106910384D01*
X102331915Y-106906142D01*
X102334962Y-106902749D01*
X102338607Y-106892409D01*
X102339789Y-106889364D01*
X102340204Y-106888870D01*
X102341512Y-106886477D01*
X102344253Y-106877735D01*
X102352149Y-106859607D01*
X102353303Y-106856136D01*
X102359350Y-106845520D01*
X102360871Y-106833395D01*
X102361648Y-106831064D01*
X102363162Y-106826890D01*
X102363256Y-106826491D01*
X102365963Y-106819614D01*
X102365881Y-106815055D01*
X102367398Y-106810755D01*
X102368296Y-106804502D01*
X102368138Y-106801567D01*
X102370699Y-106793401D01*
X102370688Y-106793281D01*
X102371742Y-106790130D01*
X102370390Y-106789936D01*
X102371588Y-106781605D01*
X102372455Y-106775578D01*
X102372128Y-106769495D01*
X102372401Y-106763407D01*
X102373026Y-106763434D01*
X102373838Y-106752097D01*
X102373214Y-106752036D01*
X102373810Y-106745978D01*
X102375000Y-106740000D01*
X102375000Y-87206691D01*
X102384439Y-87159238D01*
X102411319Y-87119010D01*
X109119010Y-80411319D01*
X109159238Y-80384439D01*
X109206691Y-80375000D01*
X127993906Y-80375000D01*
X128000000Y-80375000D01*
X128028442Y-80369341D01*
X128041566Y-80367455D01*
X128070441Y-80364871D01*
X128087298Y-80359920D01*
X128095880Y-80357730D01*
X128100397Y-80356747D01*
X128113040Y-80353998D01*
X128117207Y-80352183D01*
X128121752Y-80351940D01*
X128131483Y-80347282D01*
X128134697Y-80345866D01*
X128135368Y-80345807D01*
X128137988Y-80345038D01*
X128146068Y-80340811D01*
X128164435Y-80333584D01*
X128167740Y-80331928D01*
X128179524Y-80328694D01*
X128189171Y-80321195D01*
X128191291Y-80320134D01*
X128195425Y-80318201D01*
X128195761Y-80317993D01*
X128202481Y-80315069D01*
X128205639Y-80311795D01*
X128209741Y-80309833D01*
X128214796Y-80306049D01*
X128216791Y-80303827D01*
X128224427Y-80299834D01*
X128224513Y-80299730D01*
X128227463Y-80298259D01*
X128226650Y-80297173D01*
X128226649Y-80297173D01*
X128238204Y-80288526D01*
X128242278Y-80283990D01*
X128246778Y-80279876D01*
X128247202Y-80280340D01*
X128255787Y-80272902D01*
X128255388Y-80272416D01*
X128260096Y-80268551D01*
X128265165Y-80265165D01*
X131265165Y-77265165D01*
X131281267Y-77241065D01*
X131289211Y-77230451D01*
X131307810Y-77208197D01*
X131316239Y-77192758D01*
X131320727Y-77185194D01*
X131330248Y-77170381D01*
X131331913Y-77166148D01*
X131334953Y-77162764D01*
X131338566Y-77152517D01*
X131339801Y-77149337D01*
X131340228Y-77148828D01*
X131341537Y-77146432D01*
X131344273Y-77137702D01*
X131352159Y-77119585D01*
X131353317Y-77116101D01*
X131359363Y-77105482D01*
X131360882Y-77093357D01*
X131361636Y-77091094D01*
X131363185Y-77086824D01*
X131363275Y-77086441D01*
X131365964Y-77079610D01*
X131365882Y-77075062D01*
X131367396Y-77070772D01*
X131368294Y-77064522D01*
X131368134Y-77061555D01*
X131370706Y-77053350D01*
X131370694Y-77053221D01*
X131371743Y-77050085D01*
X131370397Y-77049892D01*
X131371588Y-77041610D01*
X131372455Y-77035585D01*
X131372129Y-77029501D01*
X131372401Y-77023417D01*
X131373023Y-77023444D01*
X131373835Y-77012097D01*
X131373214Y-77012036D01*
X131373810Y-77005978D01*
X131375000Y-77000000D01*
X131375000Y-75059815D01*
X131386757Y-75007112D01*
X131419800Y-74964403D01*
X132211249Y-74307431D01*
X132870320Y-73760345D01*
X134293606Y-71949401D01*
X134900268Y-70893538D01*
X135268396Y-69847924D01*
X135407214Y-68809569D01*
X135349596Y-67769153D01*
X134868743Y-65767353D01*
X134342370Y-64087036D01*
X134337147Y-64039467D01*
X134350327Y-63993460D01*
X134379945Y-63955872D01*
X135082304Y-63353137D01*
X135174724Y-62045754D01*
X134786448Y-60901167D01*
X134765228Y-60877085D01*
X134174331Y-60206477D01*
X134147653Y-60156818D01*
X134145716Y-60100480D01*
X134168920Y-60049106D01*
X134212471Y-60013314D01*
X134267367Y-60000500D01*
X145713315Y-60000500D01*
X145779654Y-60019738D01*
G37*
G04 #@! TD.AperFunction*
M02*
