G04 #@! TF.GenerationSoftware,KiCad,Pcbnew,(7.0.0)*
G04 #@! TF.CreationDate,2023-11-19T14:20:01+01:00*
G04 #@! TF.ProjectId,Middle,4d696464-6c65-42e6-9b69-6361645f7063,rev?*
G04 #@! TF.SameCoordinates,Original*
G04 #@! TF.FileFunction,Copper,L1,Top*
G04 #@! TF.FilePolarity,Positive*
%FSLAX46Y46*%
G04 Gerber Fmt 4.6, Leading zero omitted, Abs format (unit mm)*
G04 Created by KiCad (PCBNEW (7.0.0)) date 2023-11-19 14:20:01*
%MOMM*%
%LPD*%
G01*
G04 APERTURE LIST*
G04 Aperture macros list*
%AMRoundRect*
0 Rectangle with rounded corners*
0 $1 Rounding radius*
0 $2 $3 $4 $5 $6 $7 $8 $9 X,Y pos of 4 corners*
0 Add a 4 corners polygon primitive as box body*
4,1,4,$2,$3,$4,$5,$6,$7,$8,$9,$2,$3,0*
0 Add four circle primitives for the rounded corners*
1,1,$1+$1,$2,$3*
1,1,$1+$1,$4,$5*
1,1,$1+$1,$6,$7*
1,1,$1+$1,$8,$9*
0 Add four rect primitives between the rounded corners*
20,1,$1+$1,$2,$3,$4,$5,0*
20,1,$1+$1,$4,$5,$6,$7,0*
20,1,$1+$1,$6,$7,$8,$9,0*
20,1,$1+$1,$8,$9,$2,$3,0*%
%AMFreePoly0*
4,1,108,2.249438,10.029779,2.256659,10.026870,2.264410,10.027601,2.284792,10.015539,2.306766,10.006689,2.310899,10.000090,2.317598,9.996126,2.777465,9.474224,2.785310,9.456080,2.797136,9.440238,3.056364,8.676066,3.056620,8.656183,3.061415,8.636891,3.012642,7.946944,3.009508,7.939204,3.010183,7.930879,2.998134,7.911113,2.989447,7.889658,2.982360,7.885237,2.978014,7.878107,
2.449173,7.424276,2.431152,7.416762,2.415419,7.405212,2.029960,7.277863,2.074169,7.144052,2.074173,7.143137,2.074702,7.142391,2.798243,4.816893,2.798200,4.813464,2.799992,4.810541,3.252019,2.928743,3.251295,2.919532,3.254632,2.910916,3.302029,2.055064,3.299564,2.045754,3.301300,2.036283,3.188661,1.193749,3.184123,1.184284,3.183868,1.173791,2.880472,0.312037,
2.874782,0.304594,2.872854,0.295428,2.347983,-0.618083,2.342463,-0.623073,2.339899,-0.630057,1.027073,-2.300455,1.018097,-2.306472,1.012321,-2.315607,-0.282931,-3.390779,-0.295515,-3.395785,-0.305518,-3.404914,-0.944828,-3.694693,-0.957503,-3.696111,-0.968767,-3.702097,-1.601614,-3.813552,-1.616435,-3.811466,-1.631128,-3.814325,-2.256820,-3.737618,-2.270389,-3.731293,-2.285279,-3.729736,
-2.903129,-3.455026,-2.916813,-3.442717,-2.933213,-3.434361,-3.650012,-2.717555,-3.662827,-2.692403,-3.677038,-2.667997,-3.872324,-1.765636,-3.869855,-1.741284,-3.870683,-1.716816,-3.572765,-0.682080,-3.563731,-0.668718,-3.559177,-0.653247,-2.797084,0.459633,-2.465188,0.970926,-2.300521,1.513135,-2.343696,2.746598,-2.724822,4.112448,-3.226205,5.541321,-3.823901,5.343854,-3.843309,5.343758,
-3.862139,5.339042,-4.561263,5.387175,-4.568484,5.390083,-4.576235,5.389353,-4.596617,5.401414,-4.618591,5.410265,-4.622724,5.416863,-4.629423,5.420828,-5.089290,5.942730,-5.097136,5.960875,-5.108960,5.976716,-5.368189,6.740887,-5.368445,6.760769,-5.373240,6.780063,-5.324467,7.470012,-5.321333,7.477751,-5.322008,7.486076,-5.309959,7.505841,-5.301272,7.527298,-5.294185,7.531718,
-5.289840,7.538848,-4.760998,7.992678,-4.742980,8.000190,-4.727244,8.011743,1.512076,10.073101,1.531485,10.073196,1.550315,10.077913,2.249438,10.029779,2.249438,10.029779,$1*%
G04 Aperture macros list end*
G04 #@! TA.AperFunction,ComponentPad*
%ADD10R,1.700000X1.700000*%
G04 #@! TD*
G04 #@! TA.AperFunction,ComponentPad*
%ADD11O,1.700000X1.700000*%
G04 #@! TD*
G04 #@! TA.AperFunction,SMDPad,CuDef*
%ADD12FreePoly0,0.000000*%
G04 #@! TD*
G04 #@! TA.AperFunction,ComponentPad*
%ADD13RoundRect,0.205000X0.557000X-0.205000X0.557000X0.205000X-0.557000X0.205000X-0.557000X-0.205000X0*%
G04 #@! TD*
G04 #@! TA.AperFunction,ComponentPad*
%ADD14RoundRect,0.215500X0.546500X-0.215500X0.546500X0.215500X-0.546500X0.215500X-0.546500X-0.215500X0*%
G04 #@! TD*
G04 #@! TA.AperFunction,ComponentPad*
%ADD15RoundRect,0.250000X0.512000X-0.250000X0.512000X0.250000X-0.512000X0.250000X-0.512000X-0.250000X0*%
G04 #@! TD*
G04 #@! TA.AperFunction,ComponentPad*
%ADD16O,2.200000X1.000000*%
G04 #@! TD*
G04 #@! TA.AperFunction,Conductor*
%ADD17C,0.250000*%
G04 #@! TD*
G04 APERTURE END LIST*
D10*
X159999999Y-106199999D03*
D11*
X159999999Y-108739999D03*
X159999999Y-111279999D03*
X159999999Y-113819999D03*
D12*
X145635654Y-70931541D03*
X116450000Y-70850000D03*
D10*
X99999999Y-106199999D03*
D11*
X99999999Y-108739999D03*
X99999999Y-111279999D03*
X99999999Y-113819999D03*
D12*
X131200000Y-70950000D03*
D13*
X159900000Y-134500000D03*
D14*
X159900000Y-132480000D03*
D15*
X159900000Y-131250000D03*
D13*
X159900000Y-133500000D03*
D14*
X159900000Y-135520000D03*
D15*
X159900000Y-136750000D03*
D16*
X159779999Y-138319999D03*
X159779999Y-129679999D03*
D17*
X159785000Y-134185000D02*
X157585000Y-134185000D01*
X155860000Y-132460000D02*
X155860000Y-115420000D01*
X155860000Y-115420000D02*
X160000000Y-111280000D01*
X157585000Y-134185000D02*
X155860000Y-132460000D01*
X160100000Y-134500000D02*
X159785000Y-134185000D01*
X157150000Y-132630000D02*
X157150000Y-116670000D01*
X157150000Y-116670000D02*
X160000000Y-113820000D01*
X160100000Y-133500000D02*
X158020000Y-133500000D01*
X158020000Y-133500000D02*
X157150000Y-132630000D01*
X100000000Y-106200000D02*
X97000000Y-103200000D01*
X97000000Y-103200000D02*
X97000000Y-89000000D01*
X116000000Y-70000000D02*
X116000000Y-68000000D01*
X97000000Y-89000000D02*
X116000000Y-70000000D01*
X102000000Y-106740000D02*
X102000000Y-87000000D01*
X102000000Y-87000000D02*
X109000000Y-80000000D01*
X128000000Y-80000000D02*
X131000000Y-77000000D01*
X100000000Y-108740000D02*
X102000000Y-106740000D01*
X131000000Y-77000000D02*
X131000000Y-68000000D01*
X109000000Y-80000000D02*
X128000000Y-80000000D01*
X100000000Y-111280000D02*
X101010000Y-111280000D01*
X145000000Y-77000000D02*
X145000000Y-68000000D01*
X106000000Y-85900000D02*
X136100000Y-85900000D01*
X104200000Y-108090000D02*
X104200000Y-87700000D01*
X136100000Y-85900000D02*
X145000000Y-77000000D01*
X101010000Y-111280000D02*
X104200000Y-108090000D01*
X104200000Y-87700000D02*
X106000000Y-85900000D01*
G04 #@! TA.AperFunction,Conductor*
G36*
X164937500Y-104016613D02*
G01*
X164982887Y-104062000D01*
X164999500Y-104124000D01*
X164999500Y-133499500D01*
X164999500Y-133500000D01*
X164999500Y-133607318D01*
X164999832Y-133609634D01*
X165000000Y-133614309D01*
X165000000Y-139876000D01*
X164983387Y-139938000D01*
X164938000Y-139983387D01*
X164876000Y-140000000D01*
X157124000Y-140000000D01*
X157062000Y-139983387D01*
X157016613Y-139938000D01*
X157000000Y-139876000D01*
X157000000Y-138320000D01*
X158374435Y-138320000D01*
X158394632Y-138499255D01*
X158396928Y-138505819D01*
X158396930Y-138505824D01*
X158451913Y-138662956D01*
X158454211Y-138669522D01*
X158550184Y-138822262D01*
X158677738Y-138949816D01*
X158830478Y-139045789D01*
X159000745Y-139105368D01*
X159135046Y-139120500D01*
X160421470Y-139120500D01*
X160424954Y-139120500D01*
X160559255Y-139105368D01*
X160729522Y-139045789D01*
X160882262Y-138949816D01*
X161009816Y-138822262D01*
X161105789Y-138669522D01*
X161165368Y-138499255D01*
X161185565Y-138320000D01*
X161165368Y-138140745D01*
X161105789Y-137970478D01*
X161009816Y-137817738D01*
X160882262Y-137690184D01*
X160777461Y-137624333D01*
X160736248Y-137581688D01*
X160719552Y-137524781D01*
X160731194Y-137466629D01*
X160768507Y-137420536D01*
X160804922Y-137392922D01*
X160896361Y-137272342D01*
X160951877Y-137131564D01*
X160962500Y-137043102D01*
X160962500Y-136456898D01*
X160951877Y-136368436D01*
X160945953Y-136353414D01*
X160937315Y-136306515D01*
X160947018Y-136259821D01*
X160973627Y-136220243D01*
X161006461Y-136187408D01*
X161015361Y-136176152D01*
X161095585Y-136046090D01*
X161101649Y-136033086D01*
X161149858Y-135887600D01*
X161152677Y-135874435D01*
X161156470Y-135837305D01*
X161154051Y-135823780D01*
X161140842Y-135820000D01*
X158659158Y-135820000D01*
X158645948Y-135823780D01*
X158643529Y-135837305D01*
X158647322Y-135874435D01*
X158650141Y-135887600D01*
X158698350Y-136033086D01*
X158704414Y-136046090D01*
X158784635Y-136176148D01*
X158793540Y-136187410D01*
X158826373Y-136220243D01*
X158852981Y-136259819D01*
X158862684Y-136306511D01*
X158854047Y-136353412D01*
X158851040Y-136361037D01*
X158851039Y-136361041D01*
X158848123Y-136368436D01*
X158847175Y-136376324D01*
X158847174Y-136376331D01*
X158837941Y-136453218D01*
X158837940Y-136453233D01*
X158837500Y-136456898D01*
X158837500Y-137043102D01*
X158837940Y-137046767D01*
X158837941Y-137046781D01*
X158847174Y-137123668D01*
X158847175Y-137123674D01*
X158848123Y-137131564D01*
X158903639Y-137272342D01*
X158908765Y-137279101D01*
X158978278Y-137370768D01*
X159001513Y-137423730D01*
X158998200Y-137481471D01*
X158969059Y-137531428D01*
X158920430Y-137562734D01*
X158837048Y-137591911D01*
X158837039Y-137591914D01*
X158830478Y-137594211D01*
X158824590Y-137597910D01*
X158824587Y-137597912D01*
X158683638Y-137686476D01*
X158683633Y-137686479D01*
X158677738Y-137690184D01*
X158672813Y-137695108D01*
X158672809Y-137695112D01*
X158555112Y-137812809D01*
X158555108Y-137812813D01*
X158550184Y-137817738D01*
X158546479Y-137823633D01*
X158546476Y-137823638D01*
X158457912Y-137964587D01*
X158457910Y-137964590D01*
X158454211Y-137970478D01*
X158451915Y-137977036D01*
X158451913Y-137977043D01*
X158396930Y-138134175D01*
X158396928Y-138134182D01*
X158394632Y-138140745D01*
X158374435Y-138320000D01*
X157000000Y-138320000D01*
X157000000Y-134501110D01*
X157013515Y-134444815D01*
X157051115Y-134400792D01*
X157104602Y-134378637D01*
X157162318Y-134383179D01*
X157211681Y-134413429D01*
X157236472Y-134438220D01*
X157331780Y-134533528D01*
X157353296Y-134544491D01*
X157369880Y-134554653D01*
X157389419Y-134568849D01*
X157412383Y-134576310D01*
X157430356Y-134583754D01*
X157451874Y-134594719D01*
X157461511Y-134596245D01*
X157475719Y-134598495D01*
X157494646Y-134603039D01*
X157498121Y-134604168D01*
X157517607Y-134610500D01*
X157551512Y-134610500D01*
X157652393Y-134610500D01*
X158713501Y-134610500D01*
X158775501Y-134627113D01*
X158820888Y-134672500D01*
X158837501Y-134734500D01*
X158837501Y-134750581D01*
X158837501Y-134753348D01*
X158837065Y-134753348D01*
X158829489Y-134801439D01*
X158801385Y-134844745D01*
X158793533Y-134852596D01*
X158784638Y-134863846D01*
X158704414Y-134993909D01*
X158698350Y-135006913D01*
X158650141Y-135152399D01*
X158647322Y-135165564D01*
X158643529Y-135202694D01*
X158645948Y-135216219D01*
X158659158Y-135220000D01*
X161140842Y-135220000D01*
X161154051Y-135216219D01*
X161156470Y-135202694D01*
X161152677Y-135165564D01*
X161149858Y-135152399D01*
X161101649Y-135006913D01*
X161095585Y-134993909D01*
X161015364Y-134863851D01*
X161006459Y-134852589D01*
X160998619Y-134844749D01*
X160970506Y-134801427D01*
X160962942Y-134753349D01*
X160962500Y-134753349D01*
X160962499Y-134246652D01*
X160956027Y-134186443D01*
X160905229Y-134050249D01*
X160906353Y-134049829D01*
X160893635Y-134000000D01*
X160906353Y-133950170D01*
X160905229Y-133949751D01*
X160953318Y-133820819D01*
X160956027Y-133813557D01*
X160962500Y-133753349D01*
X160962499Y-133246652D01*
X160962940Y-133246652D01*
X160970506Y-133198570D01*
X160998621Y-133155247D01*
X161006468Y-133147399D01*
X161015361Y-133136153D01*
X161095585Y-133006090D01*
X161101649Y-132993086D01*
X161149858Y-132847600D01*
X161152677Y-132834435D01*
X161156470Y-132797305D01*
X161154051Y-132783780D01*
X161140842Y-132780000D01*
X158659158Y-132780000D01*
X158645948Y-132783780D01*
X158643529Y-132797305D01*
X158647322Y-132834435D01*
X158650141Y-132847600D01*
X158671314Y-132911496D01*
X158676165Y-132969363D01*
X158654138Y-133023093D01*
X158610064Y-133060903D01*
X158553608Y-133074500D01*
X158247610Y-133074500D01*
X158200157Y-133065061D01*
X158159929Y-133038181D01*
X157611819Y-132490071D01*
X157584939Y-132449843D01*
X157575500Y-132402390D01*
X157575500Y-129680000D01*
X158374435Y-129680000D01*
X158394632Y-129859255D01*
X158396928Y-129865819D01*
X158396930Y-129865824D01*
X158451913Y-130022956D01*
X158454211Y-130029522D01*
X158550184Y-130182262D01*
X158677738Y-130309816D01*
X158830478Y-130405789D01*
X158837044Y-130408086D01*
X158837045Y-130408087D01*
X158920428Y-130437264D01*
X158969059Y-130468570D01*
X158998200Y-130518527D01*
X159001514Y-130576268D01*
X158978278Y-130629231D01*
X158908765Y-130720897D01*
X158908762Y-130720902D01*
X158903639Y-130727658D01*
X158848123Y-130868436D01*
X158847175Y-130876324D01*
X158847174Y-130876331D01*
X158837941Y-130953218D01*
X158837940Y-130953233D01*
X158837500Y-130956898D01*
X158837500Y-131543102D01*
X158837940Y-131546767D01*
X158837941Y-131546781D01*
X158847174Y-131623663D01*
X158848123Y-131631564D01*
X158851035Y-131638950D01*
X158851038Y-131638959D01*
X158854047Y-131646588D01*
X158862683Y-131693488D01*
X158852980Y-131740179D01*
X158826373Y-131779755D01*
X158793539Y-131812589D01*
X158784637Y-131823848D01*
X158704414Y-131953909D01*
X158698350Y-131966913D01*
X158650141Y-132112399D01*
X158647322Y-132125564D01*
X158643529Y-132162694D01*
X158645948Y-132176219D01*
X158659158Y-132180000D01*
X161140842Y-132180000D01*
X161154051Y-132176219D01*
X161156470Y-132162694D01*
X161152677Y-132125564D01*
X161149858Y-132112399D01*
X161101649Y-131966913D01*
X161095585Y-131953909D01*
X161015364Y-131823851D01*
X161006459Y-131812589D01*
X160973626Y-131779756D01*
X160947017Y-131740177D01*
X160937315Y-131693482D01*
X160945954Y-131646582D01*
X160951877Y-131631564D01*
X160962500Y-131543102D01*
X160962500Y-130956898D01*
X160951877Y-130868436D01*
X160896361Y-130727658D01*
X160804922Y-130607078D01*
X160798164Y-130601953D01*
X160798163Y-130601952D01*
X160768507Y-130579463D01*
X160731193Y-130533368D01*
X160719553Y-130475217D01*
X160736248Y-130418310D01*
X160777462Y-130375666D01*
X160876358Y-130313526D01*
X160876362Y-130313523D01*
X160882262Y-130309816D01*
X161009816Y-130182262D01*
X161105789Y-130029522D01*
X161165368Y-129859255D01*
X161185565Y-129680000D01*
X161165368Y-129500745D01*
X161105789Y-129330478D01*
X161009816Y-129177738D01*
X160882262Y-129050184D01*
X160729522Y-128954211D01*
X160722959Y-128951914D01*
X160722956Y-128951913D01*
X160565825Y-128896931D01*
X160559255Y-128894632D01*
X160552333Y-128893852D01*
X160428418Y-128879890D01*
X160428412Y-128879889D01*
X160424954Y-128879500D01*
X159135046Y-128879500D01*
X159131588Y-128879889D01*
X159131581Y-128879890D01*
X159007666Y-128893852D01*
X159007664Y-128893852D01*
X159000745Y-128894632D01*
X158994176Y-128896930D01*
X158994174Y-128896931D01*
X158837043Y-128951913D01*
X158837036Y-128951915D01*
X158830478Y-128954211D01*
X158824590Y-128957910D01*
X158824587Y-128957912D01*
X158683638Y-129046476D01*
X158683633Y-129046479D01*
X158677738Y-129050184D01*
X158672813Y-129055108D01*
X158672809Y-129055112D01*
X158555112Y-129172809D01*
X158555108Y-129172813D01*
X158550184Y-129177738D01*
X158546479Y-129183633D01*
X158546476Y-129183638D01*
X158457912Y-129324587D01*
X158457910Y-129324590D01*
X158454211Y-129330478D01*
X158451915Y-129337036D01*
X158451913Y-129337043D01*
X158396930Y-129494175D01*
X158396928Y-129494182D01*
X158394632Y-129500745D01*
X158374435Y-129680000D01*
X157575500Y-129680000D01*
X157575500Y-126000000D01*
X158994659Y-126000000D01*
X158995256Y-126006062D01*
X159013378Y-126190067D01*
X159013379Y-126190073D01*
X159013976Y-126196132D01*
X159015743Y-126201957D01*
X159015744Y-126201962D01*
X159069418Y-126378899D01*
X159071186Y-126384727D01*
X159074055Y-126390095D01*
X159074057Y-126390099D01*
X159161215Y-126553161D01*
X159161219Y-126553167D01*
X159164090Y-126558538D01*
X159289117Y-126710883D01*
X159441462Y-126835910D01*
X159446834Y-126838781D01*
X159446838Y-126838784D01*
X159588839Y-126914684D01*
X159615273Y-126928814D01*
X159803868Y-126986024D01*
X160000000Y-127005341D01*
X160196132Y-126986024D01*
X160384727Y-126928814D01*
X160558538Y-126835910D01*
X160710883Y-126710883D01*
X160835910Y-126558538D01*
X160928814Y-126384727D01*
X160986024Y-126196132D01*
X161005341Y-126000000D01*
X160986024Y-125803868D01*
X160928814Y-125615273D01*
X160835910Y-125441462D01*
X160710883Y-125289117D01*
X160558538Y-125164090D01*
X160553167Y-125161219D01*
X160553161Y-125161215D01*
X160390099Y-125074057D01*
X160390095Y-125074055D01*
X160384727Y-125071186D01*
X160378899Y-125069418D01*
X160201962Y-125015744D01*
X160201957Y-125015743D01*
X160196132Y-125013976D01*
X160190073Y-125013379D01*
X160190067Y-125013378D01*
X160006062Y-124995256D01*
X160000000Y-124994659D01*
X159993938Y-124995256D01*
X159809932Y-125013378D01*
X159809924Y-125013379D01*
X159803868Y-125013976D01*
X159798044Y-125015742D01*
X159798037Y-125015744D01*
X159621100Y-125069418D01*
X159621096Y-125069419D01*
X159615273Y-125071186D01*
X159609907Y-125074053D01*
X159609900Y-125074057D01*
X159446838Y-125161215D01*
X159446827Y-125161222D01*
X159441462Y-125164090D01*
X159436754Y-125167953D01*
X159436749Y-125167957D01*
X159293823Y-125285254D01*
X159293818Y-125285258D01*
X159289117Y-125289117D01*
X159285258Y-125293818D01*
X159285254Y-125293823D01*
X159167957Y-125436749D01*
X159167953Y-125436754D01*
X159164090Y-125441462D01*
X159161222Y-125446827D01*
X159161215Y-125446838D01*
X159074057Y-125609900D01*
X159074053Y-125609907D01*
X159071186Y-125615273D01*
X159069419Y-125621096D01*
X159069418Y-125621100D01*
X159015744Y-125798037D01*
X159015742Y-125798044D01*
X159013976Y-125803868D01*
X159013379Y-125809924D01*
X159013378Y-125809932D01*
X158995256Y-125993938D01*
X158994659Y-126000000D01*
X157575500Y-126000000D01*
X157575500Y-116897610D01*
X157584939Y-116850157D01*
X157611819Y-116809929D01*
X158004968Y-116416780D01*
X159487291Y-114934455D01*
X159526636Y-114907947D01*
X159573060Y-114898154D01*
X159619763Y-114906513D01*
X159678445Y-114929246D01*
X159678448Y-114929246D01*
X159683802Y-114931321D01*
X159893390Y-114970500D01*
X160100881Y-114970500D01*
X160106610Y-114970500D01*
X160316198Y-114931321D01*
X160515019Y-114854298D01*
X160696302Y-114742052D01*
X160853872Y-114598407D01*
X160982366Y-114428255D01*
X161077405Y-114237389D01*
X161135756Y-114032310D01*
X161155429Y-113820000D01*
X161135756Y-113607690D01*
X161095603Y-113466571D01*
X161078975Y-113408129D01*
X161077405Y-113402611D01*
X160982366Y-113211745D01*
X160853872Y-113041593D01*
X160832676Y-113022270D01*
X160700531Y-112901803D01*
X160700529Y-112901801D01*
X160696302Y-112897948D01*
X160691438Y-112894936D01*
X160691435Y-112894934D01*
X160519890Y-112788718D01*
X160519889Y-112788717D01*
X160515019Y-112785702D01*
X160509681Y-112783634D01*
X160509677Y-112783632D01*
X160321545Y-112710750D01*
X160321540Y-112710748D01*
X160316198Y-112708679D01*
X160310566Y-112707626D01*
X160310562Y-112707625D01*
X160119388Y-112671888D01*
X160058635Y-112641636D01*
X160022907Y-112583933D01*
X160022908Y-112516064D01*
X160058636Y-112458361D01*
X160119386Y-112428111D01*
X160316198Y-112391321D01*
X160515019Y-112314298D01*
X160696302Y-112202052D01*
X160853872Y-112058407D01*
X160982366Y-111888255D01*
X161077405Y-111697389D01*
X161135756Y-111492310D01*
X161155429Y-111280000D01*
X161135756Y-111067690D01*
X161077405Y-110862611D01*
X160982366Y-110671745D01*
X160853872Y-110501593D01*
X160696302Y-110357948D01*
X160691438Y-110354936D01*
X160691435Y-110354934D01*
X160519890Y-110248718D01*
X160519889Y-110248717D01*
X160515019Y-110245702D01*
X160509677Y-110243632D01*
X160509670Y-110243629D01*
X160499339Y-110239627D01*
X160445178Y-110198728D01*
X160420660Y-110135442D01*
X160433130Y-110068729D01*
X160478853Y-110018573D01*
X160544131Y-110000000D01*
X161283674Y-110000000D01*
X161300000Y-110000000D01*
X161300000Y-107500000D01*
X161294025Y-107500000D01*
X161280607Y-107486582D01*
X161250175Y-107436656D01*
X161246005Y-107378335D01*
X161269024Y-107324587D01*
X161288036Y-107299191D01*
X161296452Y-107283777D01*
X161340888Y-107164641D01*
X161344426Y-107149667D01*
X161349646Y-107101114D01*
X161350000Y-107094518D01*
X161350000Y-106516326D01*
X161346549Y-106503450D01*
X161333674Y-106500000D01*
X158666326Y-106500000D01*
X158653450Y-106503450D01*
X158650000Y-106516326D01*
X158650000Y-107094518D01*
X158650353Y-107101114D01*
X158655573Y-107149667D01*
X158659111Y-107164641D01*
X158703547Y-107283777D01*
X158711962Y-107299189D01*
X158730977Y-107324589D01*
X158753994Y-107378336D01*
X158749824Y-107436655D01*
X158719393Y-107486581D01*
X158705974Y-107500000D01*
X158700000Y-107500000D01*
X158700000Y-110000000D01*
X158716326Y-110000000D01*
X159455869Y-110000000D01*
X159521147Y-110018573D01*
X159566870Y-110068729D01*
X159579340Y-110135442D01*
X159554822Y-110198728D01*
X159500661Y-110239627D01*
X159490329Y-110243629D01*
X159490318Y-110243634D01*
X159484981Y-110245702D01*
X159480114Y-110248715D01*
X159480109Y-110248718D01*
X159308564Y-110354934D01*
X159308555Y-110354940D01*
X159303698Y-110357948D01*
X159299475Y-110361797D01*
X159299468Y-110361803D01*
X159150360Y-110497734D01*
X159150354Y-110497739D01*
X159146128Y-110501593D01*
X159142681Y-110506156D01*
X159142675Y-110506164D01*
X159021086Y-110667173D01*
X159021083Y-110667177D01*
X159017634Y-110671745D01*
X159015082Y-110676870D01*
X159015079Y-110676875D01*
X158925153Y-110857473D01*
X158922595Y-110862611D01*
X158921027Y-110868119D01*
X158921024Y-110868129D01*
X158865814Y-111062168D01*
X158865811Y-111062179D01*
X158864244Y-111067690D01*
X158844571Y-111280000D01*
X158864244Y-111492310D01*
X158865812Y-111497821D01*
X158865814Y-111497831D01*
X158915559Y-111672661D01*
X158916311Y-111737766D01*
X158883974Y-111794277D01*
X157211681Y-113466571D01*
X157162318Y-113496821D01*
X157104602Y-113501363D01*
X157051115Y-113479208D01*
X157013515Y-113435185D01*
X157000000Y-113378890D01*
X157000000Y-105883674D01*
X158650000Y-105883674D01*
X158653450Y-105896549D01*
X158666326Y-105900000D01*
X159683674Y-105900000D01*
X159696549Y-105896549D01*
X159700000Y-105883674D01*
X160300000Y-105883674D01*
X160303450Y-105896549D01*
X160316326Y-105900000D01*
X161333674Y-105900000D01*
X161346549Y-105896549D01*
X161350000Y-105883674D01*
X161350000Y-105305482D01*
X161349646Y-105298885D01*
X161344426Y-105250332D01*
X161340888Y-105235358D01*
X161296452Y-105116222D01*
X161288037Y-105100810D01*
X161212501Y-104999907D01*
X161200092Y-104987498D01*
X161099189Y-104911962D01*
X161083777Y-104903547D01*
X160964641Y-104859111D01*
X160949667Y-104855573D01*
X160901114Y-104850353D01*
X160894518Y-104850000D01*
X160316326Y-104850000D01*
X160303450Y-104853450D01*
X160300000Y-104866326D01*
X160300000Y-105883674D01*
X159700000Y-105883674D01*
X159700000Y-104866326D01*
X159696549Y-104853450D01*
X159683674Y-104850000D01*
X159105482Y-104850000D01*
X159098885Y-104850353D01*
X159050332Y-104855573D01*
X159035358Y-104859111D01*
X158916222Y-104903547D01*
X158900810Y-104911962D01*
X158799907Y-104987498D01*
X158787498Y-104999907D01*
X158711962Y-105100810D01*
X158703547Y-105116222D01*
X158659111Y-105235358D01*
X158655573Y-105250332D01*
X158650353Y-105298885D01*
X158650000Y-105305482D01*
X158650000Y-105883674D01*
X157000000Y-105883674D01*
X157000000Y-104124000D01*
X157016613Y-104062000D01*
X157062000Y-104016613D01*
X157124000Y-104000000D01*
X164875500Y-104000000D01*
X164937500Y-104016613D01*
G37*
G04 #@! TD.AperFunction*
G04 #@! TA.AperFunction,Conductor*
G36*
X116347192Y-60019738D02*
G01*
X116392947Y-60071482D01*
X116403921Y-60139677D01*
X116376708Y-60203163D01*
X116319752Y-60242241D01*
X111265683Y-61912013D01*
X111265680Y-61912014D01*
X111254165Y-61915819D01*
X111244961Y-61923716D01*
X111244958Y-61923719D01*
X110267889Y-62762201D01*
X110267887Y-62762203D01*
X110258556Y-62770211D01*
X110257688Y-62782476D01*
X110257688Y-62782480D01*
X110167008Y-64065255D01*
X110166136Y-64077594D01*
X110170108Y-64089304D01*
X110170109Y-64089308D01*
X110499489Y-65060277D01*
X110554412Y-65222182D01*
X110562539Y-65231405D01*
X110562540Y-65231407D01*
X110935227Y-65654368D01*
X111418318Y-66202627D01*
X112633064Y-66286259D01*
X112682782Y-66300492D01*
X112722372Y-66333770D01*
X112744944Y-66380303D01*
X112867314Y-66877012D01*
X112867323Y-66877046D01*
X112867539Y-66877923D01*
X112867786Y-66878808D01*
X112867792Y-66878831D01*
X113207977Y-68097955D01*
X113212464Y-68126945D01*
X113245411Y-69068180D01*
X113240136Y-69108552D01*
X113167063Y-69349158D01*
X113152422Y-69380639D01*
X112906253Y-69759868D01*
X112904555Y-69762414D01*
X112063996Y-70989880D01*
X112063993Y-70989885D01*
X112058377Y-70998087D01*
X112055625Y-71007641D01*
X112055625Y-71007644D01*
X111650361Y-72415213D01*
X111650360Y-72415215D01*
X111646107Y-72429990D01*
X111649359Y-72445016D01*
X111649359Y-72445019D01*
X111816710Y-73218301D01*
X111814474Y-73279528D01*
X111783197Y-73332210D01*
X96612696Y-88502711D01*
X96604511Y-88510159D01*
X96598123Y-88514214D01*
X96592788Y-88519894D01*
X96592783Y-88519899D01*
X96552096Y-88563225D01*
X96549392Y-88566016D01*
X96532628Y-88582780D01*
X96532621Y-88582787D01*
X96529880Y-88585529D01*
X96527500Y-88588596D01*
X96527489Y-88588609D01*
X96527400Y-88588725D01*
X96519842Y-88597570D01*
X96495280Y-88623727D01*
X96495273Y-88623736D01*
X96489938Y-88629418D01*
X96486182Y-88636249D01*
X96486179Y-88636254D01*
X96480285Y-88646975D01*
X96469609Y-88663227D01*
X96462109Y-88672896D01*
X96462101Y-88672907D01*
X96457327Y-88679064D01*
X96454234Y-88686208D01*
X96454229Y-88686219D01*
X96439974Y-88719160D01*
X96434838Y-88729643D01*
X96413803Y-88767908D01*
X96411864Y-88775456D01*
X96411863Y-88775461D01*
X96408822Y-88787307D01*
X96402521Y-88805711D01*
X96397658Y-88816948D01*
X96397656Y-88816952D01*
X96394562Y-88824104D01*
X96393342Y-88831803D01*
X96393342Y-88831805D01*
X96387729Y-88867241D01*
X96385361Y-88878676D01*
X96376438Y-88913428D01*
X96376436Y-88913436D01*
X96374500Y-88920981D01*
X96374500Y-88928777D01*
X96374500Y-88941017D01*
X96372974Y-88960402D01*
X96369840Y-88980196D01*
X96370574Y-88987961D01*
X96370574Y-88987964D01*
X96373950Y-89023676D01*
X96374500Y-89035345D01*
X96374500Y-103122225D01*
X96373978Y-103133280D01*
X96372327Y-103140667D01*
X96372571Y-103148453D01*
X96372571Y-103148461D01*
X96374439Y-103207873D01*
X96374500Y-103211768D01*
X96374500Y-103239350D01*
X96374988Y-103243219D01*
X96374989Y-103243225D01*
X96375004Y-103243343D01*
X96375918Y-103254966D01*
X96377045Y-103290830D01*
X96377046Y-103290837D01*
X96377291Y-103298627D01*
X96379467Y-103306119D01*
X96379468Y-103306121D01*
X96382879Y-103317862D01*
X96386825Y-103336915D01*
X96389336Y-103356792D01*
X96392206Y-103364042D01*
X96392208Y-103364048D01*
X96405414Y-103397404D01*
X96409197Y-103408451D01*
X96421382Y-103450390D01*
X96425353Y-103457105D01*
X96425354Y-103457107D01*
X96431581Y-103467637D01*
X96440136Y-103485099D01*
X96444642Y-103496480D01*
X96444643Y-103496483D01*
X96447514Y-103503732D01*
X96464627Y-103527286D01*
X96473181Y-103539060D01*
X96479593Y-103548822D01*
X96497856Y-103579702D01*
X96497859Y-103579707D01*
X96501830Y-103586420D01*
X96507344Y-103591934D01*
X96507345Y-103591935D01*
X96515990Y-103600580D01*
X96528626Y-103615374D01*
X96535819Y-103625275D01*
X96535823Y-103625279D01*
X96540406Y-103631587D01*
X96546415Y-103636558D01*
X96546416Y-103636559D01*
X96574058Y-103659426D01*
X96582699Y-103667289D01*
X98163681Y-105248271D01*
X98190561Y-105288499D01*
X98200000Y-105335952D01*
X98200000Y-112500000D01*
X99138225Y-112500000D01*
X99198341Y-112515547D01*
X99243383Y-112558290D01*
X99262055Y-112617510D01*
X99249676Y-112678358D01*
X99209349Y-112725575D01*
X99133352Y-112778788D01*
X99125092Y-112785719D01*
X98965719Y-112945092D01*
X98958784Y-112953357D01*
X98829508Y-113137982D01*
X98824110Y-113147332D01*
X98728858Y-113351599D01*
X98725166Y-113361741D01*
X98686454Y-113506219D01*
X98686086Y-113517448D01*
X98697029Y-113520000D01*
X101302971Y-113520000D01*
X101313913Y-113517448D01*
X101313545Y-113506219D01*
X101274833Y-113361741D01*
X101271141Y-113351599D01*
X101175889Y-113147332D01*
X101170491Y-113137982D01*
X101041215Y-112953357D01*
X101034280Y-112945092D01*
X100874909Y-112785721D01*
X100866643Y-112778784D01*
X100790652Y-112725575D01*
X100750325Y-112678358D01*
X100737946Y-112617510D01*
X100756618Y-112558290D01*
X100801660Y-112515547D01*
X100861776Y-112500000D01*
X101783674Y-112500000D01*
X101800000Y-112500000D01*
X101800000Y-111425952D01*
X101809439Y-111378499D01*
X101836319Y-111338271D01*
X101894590Y-111280000D01*
X104587311Y-108587278D01*
X104595481Y-108579844D01*
X104601877Y-108575786D01*
X104647918Y-108526756D01*
X104650535Y-108524054D01*
X104670120Y-108504471D01*
X104672585Y-108501292D01*
X104680167Y-108492416D01*
X104710062Y-108460582D01*
X104719713Y-108443023D01*
X104730390Y-108426770D01*
X104742673Y-108410936D01*
X104760018Y-108370852D01*
X104765163Y-108360351D01*
X104767342Y-108356388D01*
X104812215Y-108309796D01*
X104874446Y-108292142D01*
X104937101Y-108308231D01*
X104983127Y-108353684D01*
X105000000Y-108416132D01*
X105000000Y-138000000D01*
X154983674Y-138000000D01*
X155000000Y-138000000D01*
X155000000Y-132614015D01*
X155015338Y-132554277D01*
X155057558Y-132509318D01*
X155116214Y-132490260D01*
X155176797Y-132501817D01*
X155224318Y-132541130D01*
X155247022Y-132598474D01*
X155249336Y-132616792D01*
X155252206Y-132624042D01*
X155252208Y-132624048D01*
X155265414Y-132657404D01*
X155269197Y-132668451D01*
X155281382Y-132710390D01*
X155285353Y-132717105D01*
X155285354Y-132717107D01*
X155291581Y-132727637D01*
X155300136Y-132745099D01*
X155304642Y-132756480D01*
X155304643Y-132756483D01*
X155307514Y-132763732D01*
X155329440Y-132793912D01*
X155333181Y-132799060D01*
X155339593Y-132808822D01*
X155357856Y-132839702D01*
X155357859Y-132839707D01*
X155361830Y-132846420D01*
X155367344Y-132851934D01*
X155367345Y-132851935D01*
X155375990Y-132860580D01*
X155388626Y-132875374D01*
X155395819Y-132885275D01*
X155395823Y-132885279D01*
X155400406Y-132891587D01*
X155406415Y-132896558D01*
X155406416Y-132896559D01*
X155434058Y-132919426D01*
X155442699Y-132927289D01*
X156558292Y-134042883D01*
X156588030Y-134090705D01*
X156593550Y-134146748D01*
X156573714Y-134199453D01*
X156567177Y-134209235D01*
X156567171Y-134209245D01*
X156563112Y-134215321D01*
X156560581Y-134222179D01*
X156560580Y-134222183D01*
X156523247Y-134323379D01*
X156523243Y-134323390D01*
X156521982Y-134326810D01*
X156521130Y-134330356D01*
X156521128Y-134330365D01*
X156509321Y-134379544D01*
X156509318Y-134379558D01*
X156508467Y-134383105D01*
X156508036Y-134386742D01*
X156508036Y-134386745D01*
X156494930Y-134497471D01*
X156494929Y-134497482D01*
X156494500Y-134501110D01*
X156494500Y-138320000D01*
X156494500Y-139876000D01*
X156495028Y-139880017D01*
X156495029Y-139880019D01*
X156511194Y-140002807D01*
X156511196Y-140002819D01*
X156511725Y-140006834D01*
X156528338Y-140068834D01*
X156578837Y-140190750D01*
X156583783Y-140197196D01*
X156583785Y-140197199D01*
X156652731Y-140287049D01*
X156659171Y-140295442D01*
X156704558Y-140340829D01*
X156809250Y-140421163D01*
X156931166Y-140471662D01*
X156993166Y-140488275D01*
X157124000Y-140505500D01*
X164871947Y-140505500D01*
X164876000Y-140505500D01*
X165006834Y-140488275D01*
X165068834Y-140471662D01*
X165190750Y-140421163D01*
X165295442Y-140340829D01*
X165340829Y-140295442D01*
X165421163Y-140190750D01*
X165471662Y-140068834D01*
X165488275Y-140006834D01*
X165505500Y-139876000D01*
X165505500Y-134871611D01*
X165522858Y-134808338D01*
X165570073Y-134762779D01*
X165633925Y-134747690D01*
X165696539Y-134767295D01*
X165779050Y-134820321D01*
X165974290Y-134909484D01*
X166180231Y-134969954D01*
X166392682Y-135000500D01*
X166495574Y-135000500D01*
X166504418Y-135000816D01*
X166569734Y-135005487D01*
X166569740Y-135005488D01*
X166712449Y-135016719D01*
X166729054Y-135019168D01*
X166818500Y-135038625D01*
X166820979Y-135039192D01*
X166932570Y-135065983D01*
X166946925Y-135070365D01*
X167037735Y-135104236D01*
X167041696Y-135105794D01*
X167142794Y-135147670D01*
X167154758Y-135153394D01*
X167241588Y-135200807D01*
X167246915Y-135203892D01*
X167338433Y-135259974D01*
X167347951Y-135266432D01*
X167427845Y-135326241D01*
X167434037Y-135331193D01*
X167515086Y-135400416D01*
X167522235Y-135407025D01*
X167592973Y-135477763D01*
X167599582Y-135484912D01*
X167668793Y-135565947D01*
X167673770Y-135572169D01*
X167733564Y-135652045D01*
X167740024Y-135661565D01*
X167796100Y-135753072D01*
X167799206Y-135758436D01*
X167846602Y-135845237D01*
X167852330Y-135857209D01*
X167875679Y-135913578D01*
X167894181Y-135958245D01*
X167895790Y-135962335D01*
X167929627Y-136053056D01*
X167934019Y-136067442D01*
X167960793Y-136178964D01*
X167961385Y-136181553D01*
X167980828Y-136270933D01*
X167983280Y-136287562D01*
X167994485Y-136429934D01*
X167994551Y-136430815D01*
X167999184Y-136495580D01*
X167999500Y-136504426D01*
X167999500Y-136607318D01*
X168000128Y-136611687D01*
X168000129Y-136611698D01*
X168029415Y-136815383D01*
X168030046Y-136819769D01*
X168031292Y-136824014D01*
X168031294Y-136824021D01*
X168060198Y-136922458D01*
X168090516Y-137025710D01*
X168092354Y-137029736D01*
X168092358Y-137029745D01*
X168155353Y-137167684D01*
X168179679Y-137220950D01*
X168182069Y-137224670D01*
X168182073Y-137224676D01*
X168273794Y-137367397D01*
X168295719Y-137401513D01*
X168436276Y-137563724D01*
X168598487Y-137704281D01*
X168602206Y-137706671D01*
X168688396Y-137762062D01*
X168779050Y-137820321D01*
X168895072Y-137873306D01*
X168911778Y-137880936D01*
X168974290Y-137909484D01*
X169180231Y-137969954D01*
X169392682Y-138000500D01*
X169498158Y-138000500D01*
X169501817Y-138000554D01*
X169704342Y-138006532D01*
X169713269Y-138007119D01*
X169733841Y-138009218D01*
X169915835Y-138027789D01*
X169927832Y-138029611D01*
X170127034Y-138069962D01*
X170138093Y-138072738D01*
X170221442Y-138097798D01*
X170234453Y-138102517D01*
X170402692Y-138174412D01*
X170402697Y-138174414D01*
X170422481Y-138185084D01*
X170574199Y-138285653D01*
X170585696Y-138294275D01*
X170594841Y-138302000D01*
X170594846Y-138302004D01*
X170606106Y-138312801D01*
X170734190Y-138452109D01*
X170748450Y-138470943D01*
X170822530Y-138591067D01*
X170831598Y-138608825D01*
X170901938Y-138779157D01*
X170907462Y-138795774D01*
X170953972Y-138977700D01*
X170956581Y-138990817D01*
X170984758Y-139187370D01*
X170985787Y-139197481D01*
X170998068Y-139400563D01*
X170998284Y-139406441D01*
X170998784Y-139445008D01*
X170998794Y-139446473D01*
X170999500Y-140062793D01*
X170999500Y-140498157D01*
X170999446Y-140501817D01*
X170993465Y-140704343D01*
X170992879Y-140713267D01*
X170972211Y-140915819D01*
X170970385Y-140927839D01*
X170930036Y-141127028D01*
X170927255Y-141138106D01*
X170902203Y-141221435D01*
X170897481Y-141234454D01*
X170825582Y-141402700D01*
X170814912Y-141422484D01*
X170714344Y-141574198D01*
X170705722Y-141585696D01*
X170698005Y-141594833D01*
X170687199Y-141606105D01*
X170547886Y-141734193D01*
X170529055Y-141748450D01*
X170432056Y-141808269D01*
X170408936Y-141822528D01*
X170391177Y-141831596D01*
X170220840Y-141901938D01*
X170204224Y-141907462D01*
X170022297Y-141953973D01*
X170009179Y-141956582D01*
X169812627Y-141984758D01*
X169802516Y-141985787D01*
X169599434Y-141998068D01*
X169593558Y-141998284D01*
X169558729Y-141998736D01*
X169557122Y-141998746D01*
X122037685Y-141999500D01*
X90500869Y-141999500D01*
X90499258Y-141999490D01*
X90406437Y-141998284D01*
X90400563Y-141998068D01*
X90197481Y-141985787D01*
X90187370Y-141984758D01*
X89990817Y-141956581D01*
X89977700Y-141953972D01*
X89795774Y-141907462D01*
X89779157Y-141901938D01*
X89608825Y-141831598D01*
X89591067Y-141822530D01*
X89470943Y-141748450D01*
X89452109Y-141734190D01*
X89312801Y-141606106D01*
X89302004Y-141594846D01*
X89301993Y-141594833D01*
X89294275Y-141585696D01*
X89285650Y-141574194D01*
X89185084Y-141422481D01*
X89174414Y-141402697D01*
X89102520Y-141234460D01*
X89097796Y-141221436D01*
X89072738Y-141138093D01*
X89069961Y-141127028D01*
X89029611Y-140927832D01*
X89027789Y-140915835D01*
X89007119Y-140713269D01*
X89006532Y-140704341D01*
X89000554Y-140501817D01*
X89000500Y-140498158D01*
X89000500Y-139500865D01*
X89000510Y-139499258D01*
X89000525Y-139498053D01*
X89001714Y-139406401D01*
X89001927Y-139400603D01*
X89014210Y-139197473D01*
X89015239Y-139187370D01*
X89043418Y-138990801D01*
X89046020Y-138977718D01*
X89092537Y-138795765D01*
X89098055Y-138779168D01*
X89168404Y-138608815D01*
X89177469Y-138591066D01*
X89251547Y-138470945D01*
X89265800Y-138452117D01*
X89393908Y-138312783D01*
X89405140Y-138302014D01*
X89414305Y-138294272D01*
X89425803Y-138285652D01*
X89569750Y-138190231D01*
X89577517Y-138185082D01*
X89597293Y-138174416D01*
X89765549Y-138102516D01*
X89778551Y-138097799D01*
X89861906Y-138072738D01*
X89872955Y-138069964D01*
X90072175Y-138029609D01*
X90084152Y-138027789D01*
X90286759Y-138007115D01*
X90295650Y-138006532D01*
X90498182Y-138000554D01*
X90501842Y-138000500D01*
X90602892Y-138000500D01*
X90607318Y-138000500D01*
X90819769Y-137969954D01*
X91025710Y-137909484D01*
X91220950Y-137820321D01*
X91401513Y-137704281D01*
X91563724Y-137563724D01*
X91704281Y-137401513D01*
X91820321Y-137220950D01*
X91909484Y-137025710D01*
X91969954Y-136819769D01*
X92000500Y-136607318D01*
X92000500Y-136504426D01*
X92000816Y-136495582D01*
X92001420Y-136487139D01*
X92005490Y-136430227D01*
X92016719Y-136287555D01*
X92019170Y-136270935D01*
X92038631Y-136181471D01*
X92039181Y-136179065D01*
X92065984Y-136067424D01*
X92070365Y-136053074D01*
X92104251Y-135962224D01*
X92105778Y-135958341D01*
X92147676Y-135857190D01*
X92153387Y-135845255D01*
X92200826Y-135758376D01*
X92203871Y-135753118D01*
X92259989Y-135661542D01*
X92266418Y-135652068D01*
X92326264Y-135572123D01*
X92331168Y-135565992D01*
X92400440Y-135484885D01*
X92407000Y-135477789D01*
X92477789Y-135407000D01*
X92484885Y-135400440D01*
X92565992Y-135331168D01*
X92572123Y-135326264D01*
X92652068Y-135266418D01*
X92661542Y-135259989D01*
X92753118Y-135203871D01*
X92758376Y-135200826D01*
X92845255Y-135153387D01*
X92857190Y-135147676D01*
X92958341Y-135105778D01*
X92962224Y-135104251D01*
X93053083Y-135070362D01*
X93067420Y-135065985D01*
X93179060Y-135039182D01*
X93181454Y-135038635D01*
X93270949Y-135019167D01*
X93287546Y-135016719D01*
X93430227Y-135005490D01*
X93495581Y-135000816D01*
X93504426Y-135000500D01*
X93602892Y-135000500D01*
X93607318Y-135000500D01*
X93819769Y-134969954D01*
X94025710Y-134909484D01*
X94220950Y-134820321D01*
X94401513Y-134704281D01*
X94563724Y-134563724D01*
X94704281Y-134401513D01*
X94820321Y-134220950D01*
X94909484Y-134025710D01*
X94969954Y-133819769D01*
X95000500Y-133607318D01*
X95000500Y-133500000D01*
X95000500Y-133499500D01*
X95000500Y-126000000D01*
X98994659Y-126000000D01*
X98995256Y-126006062D01*
X99013378Y-126190067D01*
X99013379Y-126190073D01*
X99013976Y-126196132D01*
X99015743Y-126201957D01*
X99015744Y-126201962D01*
X99061170Y-126351710D01*
X99071186Y-126384727D01*
X99074055Y-126390095D01*
X99074057Y-126390099D01*
X99161215Y-126553161D01*
X99161219Y-126553167D01*
X99164090Y-126558538D01*
X99289117Y-126710883D01*
X99441462Y-126835910D01*
X99446834Y-126838781D01*
X99446838Y-126838784D01*
X99588839Y-126914684D01*
X99615273Y-126928814D01*
X99803868Y-126986024D01*
X100000000Y-127005341D01*
X100196132Y-126986024D01*
X100384727Y-126928814D01*
X100558538Y-126835910D01*
X100710883Y-126710883D01*
X100835910Y-126558538D01*
X100928814Y-126384727D01*
X100986024Y-126196132D01*
X101005341Y-126000000D01*
X100986024Y-125803868D01*
X100928814Y-125615273D01*
X100835910Y-125441462D01*
X100710883Y-125289117D01*
X100558538Y-125164090D01*
X100553167Y-125161219D01*
X100553161Y-125161215D01*
X100390099Y-125074057D01*
X100390095Y-125074055D01*
X100384727Y-125071186D01*
X100378899Y-125069418D01*
X100201962Y-125015744D01*
X100201957Y-125015743D01*
X100196132Y-125013976D01*
X100190073Y-125013379D01*
X100190067Y-125013378D01*
X100006062Y-124995256D01*
X100000000Y-124994659D01*
X99993938Y-124995256D01*
X99809932Y-125013378D01*
X99809924Y-125013379D01*
X99803868Y-125013976D01*
X99798044Y-125015742D01*
X99798037Y-125015744D01*
X99621100Y-125069418D01*
X99621096Y-125069419D01*
X99615273Y-125071186D01*
X99609907Y-125074053D01*
X99609900Y-125074057D01*
X99446838Y-125161215D01*
X99446827Y-125161222D01*
X99441462Y-125164090D01*
X99436754Y-125167953D01*
X99436749Y-125167957D01*
X99293823Y-125285254D01*
X99293818Y-125285258D01*
X99289117Y-125289117D01*
X99285258Y-125293818D01*
X99285254Y-125293823D01*
X99167957Y-125436749D01*
X99167953Y-125436754D01*
X99164090Y-125441462D01*
X99161222Y-125446827D01*
X99161215Y-125446838D01*
X99074057Y-125609900D01*
X99074053Y-125609907D01*
X99071186Y-125615273D01*
X99069419Y-125621096D01*
X99069418Y-125621100D01*
X99015744Y-125798037D01*
X99015742Y-125798044D01*
X99013976Y-125803868D01*
X99013379Y-125809924D01*
X99013378Y-125809932D01*
X99004216Y-125902963D01*
X98994659Y-126000000D01*
X95000500Y-126000000D01*
X95000500Y-114122551D01*
X98686086Y-114122551D01*
X98686454Y-114133780D01*
X98725166Y-114278258D01*
X98728858Y-114288400D01*
X98824113Y-114492676D01*
X98829501Y-114502008D01*
X98958784Y-114686643D01*
X98965721Y-114694909D01*
X99125090Y-114854278D01*
X99133356Y-114861215D01*
X99317991Y-114990498D01*
X99327323Y-114995886D01*
X99531599Y-115091141D01*
X99541741Y-115094833D01*
X99686219Y-115133545D01*
X99697448Y-115133913D01*
X99700000Y-115122971D01*
X100300000Y-115122971D01*
X100302551Y-115133913D01*
X100313780Y-115133545D01*
X100458258Y-115094833D01*
X100468400Y-115091141D01*
X100672676Y-114995886D01*
X100682008Y-114990498D01*
X100866643Y-114861215D01*
X100874909Y-114854278D01*
X101034278Y-114694909D01*
X101041215Y-114686643D01*
X101170498Y-114502008D01*
X101175886Y-114492676D01*
X101271141Y-114288400D01*
X101274833Y-114278258D01*
X101313545Y-114133780D01*
X101313913Y-114122551D01*
X101302971Y-114120000D01*
X100316326Y-114120000D01*
X100303450Y-114123450D01*
X100300000Y-114136326D01*
X100300000Y-115122971D01*
X99700000Y-115122971D01*
X99700000Y-114136326D01*
X99696549Y-114123450D01*
X99683674Y-114120000D01*
X98697029Y-114120000D01*
X98686086Y-114122551D01*
X95000500Y-114122551D01*
X95000500Y-89999901D01*
X95000500Y-89892682D01*
X94969954Y-89680231D01*
X94909484Y-89474290D01*
X94820321Y-89279050D01*
X94704281Y-89098487D01*
X94563724Y-88936276D01*
X94401513Y-88795719D01*
X94369991Y-88775461D01*
X94224676Y-88682073D01*
X94224670Y-88682069D01*
X94220950Y-88679679D01*
X94216918Y-88677837D01*
X94216915Y-88677836D01*
X94029745Y-88592358D01*
X94029736Y-88592354D01*
X94025710Y-88590516D01*
X93990879Y-88580288D01*
X93824021Y-88531294D01*
X93824014Y-88531292D01*
X93819769Y-88530046D01*
X93815388Y-88529416D01*
X93815383Y-88529415D01*
X93611698Y-88500129D01*
X93611687Y-88500128D01*
X93607318Y-88499500D01*
X93602892Y-88499500D01*
X93504428Y-88499500D01*
X93495583Y-88499184D01*
X93485521Y-88498464D01*
X93430815Y-88494551D01*
X93429934Y-88494485D01*
X93287560Y-88483280D01*
X93270931Y-88480828D01*
X93181575Y-88461390D01*
X93178986Y-88460798D01*
X93067442Y-88434019D01*
X93053056Y-88429627D01*
X92999050Y-88409484D01*
X92962324Y-88395785D01*
X92958245Y-88394181D01*
X92913578Y-88375679D01*
X92857209Y-88352330D01*
X92845237Y-88346602D01*
X92758436Y-88299206D01*
X92753072Y-88296100D01*
X92661565Y-88240024D01*
X92652045Y-88233564D01*
X92572169Y-88173770D01*
X92565955Y-88168799D01*
X92484912Y-88099582D01*
X92477763Y-88092973D01*
X92407025Y-88022235D01*
X92400416Y-88015086D01*
X92387531Y-88000000D01*
X92331193Y-87934037D01*
X92326241Y-87927845D01*
X92266432Y-87847951D01*
X92259974Y-87838433D01*
X92203898Y-87746926D01*
X92200807Y-87741588D01*
X92153394Y-87654758D01*
X92147668Y-87642789D01*
X92141864Y-87628777D01*
X92105794Y-87541696D01*
X92104236Y-87537735D01*
X92070365Y-87446925D01*
X92065983Y-87432570D01*
X92039192Y-87320979D01*
X92038625Y-87318500D01*
X92019168Y-87229054D01*
X92016719Y-87212449D01*
X92005488Y-87069740D01*
X92005487Y-87069734D01*
X92000816Y-87004418D01*
X92000500Y-86995574D01*
X92000500Y-86897108D01*
X92000500Y-86892682D01*
X91969954Y-86680231D01*
X91909484Y-86474290D01*
X91899526Y-86452486D01*
X91862480Y-86371365D01*
X91820321Y-86279050D01*
X91704281Y-86098487D01*
X91563724Y-85936276D01*
X91401513Y-85795719D01*
X91397793Y-85793328D01*
X91224676Y-85682073D01*
X91224670Y-85682069D01*
X91220950Y-85679679D01*
X91216918Y-85677837D01*
X91216915Y-85677836D01*
X91029745Y-85592358D01*
X91029736Y-85592354D01*
X91025710Y-85590516D01*
X90926006Y-85561240D01*
X90824021Y-85531294D01*
X90824014Y-85531292D01*
X90819769Y-85530046D01*
X90815388Y-85529416D01*
X90815383Y-85529415D01*
X90611698Y-85500129D01*
X90611687Y-85500128D01*
X90607318Y-85499500D01*
X90602892Y-85499500D01*
X90500869Y-85499500D01*
X90499258Y-85499490D01*
X90406437Y-85498284D01*
X90400563Y-85498068D01*
X90197481Y-85485787D01*
X90187370Y-85484758D01*
X89990817Y-85456581D01*
X89977700Y-85453972D01*
X89795774Y-85407462D01*
X89779157Y-85401938D01*
X89608825Y-85331598D01*
X89591067Y-85322530D01*
X89470943Y-85248450D01*
X89452109Y-85234190D01*
X89312801Y-85106106D01*
X89302004Y-85094846D01*
X89301993Y-85094833D01*
X89294275Y-85085696D01*
X89285650Y-85074194D01*
X89185084Y-84922481D01*
X89174414Y-84902697D01*
X89102520Y-84734460D01*
X89097796Y-84721436D01*
X89072738Y-84638093D01*
X89069961Y-84627028D01*
X89029611Y-84427832D01*
X89027789Y-84415835D01*
X89007119Y-84213269D01*
X89006532Y-84204341D01*
X89000554Y-84001817D01*
X89000500Y-83998158D01*
X89000500Y-79500865D01*
X89000510Y-79499258D01*
X89000765Y-79479595D01*
X89001714Y-79406401D01*
X89001927Y-79400603D01*
X89014210Y-79197473D01*
X89015239Y-79187370D01*
X89043418Y-78990801D01*
X89046020Y-78977718D01*
X89092537Y-78795765D01*
X89098055Y-78779168D01*
X89168404Y-78608815D01*
X89177469Y-78591066D01*
X89251547Y-78470945D01*
X89265800Y-78452117D01*
X89393908Y-78312783D01*
X89405140Y-78302014D01*
X89414305Y-78294272D01*
X89425803Y-78285652D01*
X89569750Y-78190231D01*
X89577517Y-78185082D01*
X89597293Y-78174416D01*
X89765549Y-78102516D01*
X89778551Y-78097799D01*
X89861906Y-78072738D01*
X89872955Y-78069964D01*
X90072175Y-78029609D01*
X90084152Y-78027789D01*
X90286759Y-78007115D01*
X90295650Y-78006532D01*
X90498182Y-78000554D01*
X90501842Y-78000500D01*
X105602892Y-78000500D01*
X105607318Y-78000500D01*
X105819769Y-77969954D01*
X106025710Y-77909484D01*
X106220950Y-77820321D01*
X106401513Y-77704281D01*
X106563724Y-77563724D01*
X106704281Y-77401513D01*
X106820321Y-77220950D01*
X106909484Y-77025710D01*
X106969954Y-76819769D01*
X107000500Y-76607318D01*
X107000500Y-76500000D01*
X107000500Y-76499500D01*
X107000500Y-67499901D01*
X107000505Y-67499901D01*
X107000499Y-67499833D01*
X107000552Y-67393425D01*
X106970427Y-67182416D01*
X106910781Y-66977782D01*
X106822812Y-66783633D01*
X106708287Y-66603865D01*
X106569503Y-66442088D01*
X106409249Y-66301550D01*
X106230740Y-66185072D01*
X106226761Y-66183216D01*
X106226751Y-66183211D01*
X106041558Y-66096857D01*
X106041555Y-66096855D01*
X106037560Y-66094993D01*
X106033343Y-66093716D01*
X106033335Y-66093713D01*
X105939764Y-66065381D01*
X105931477Y-66062549D01*
X105896355Y-66049142D01*
X105895007Y-66048618D01*
X105733300Y-65984720D01*
X105718889Y-65977925D01*
X105646975Y-65938180D01*
X105643209Y-65936011D01*
X105533568Y-65870297D01*
X105522752Y-65863016D01*
X105450699Y-65808791D01*
X105445040Y-65804267D01*
X105353089Y-65726253D01*
X105345630Y-65719380D01*
X105280618Y-65654368D01*
X105273745Y-65646909D01*
X105195731Y-65554958D01*
X105191207Y-65549299D01*
X105136982Y-65477246D01*
X105129701Y-65466430D01*
X105063987Y-65356789D01*
X105061818Y-65353023D01*
X105022067Y-65281096D01*
X105015281Y-65266705D01*
X104951361Y-65104943D01*
X104950845Y-65103614D01*
X104937435Y-65068482D01*
X104934631Y-65060282D01*
X104934629Y-65060277D01*
X104906711Y-64968254D01*
X104823218Y-64785379D01*
X104716080Y-64615275D01*
X104652178Y-64538766D01*
X104589872Y-64464167D01*
X104589870Y-64464165D01*
X104587210Y-64460980D01*
X104513865Y-64393851D01*
X104441977Y-64328056D01*
X104441974Y-64328053D01*
X104438913Y-64325252D01*
X104273837Y-64210517D01*
X104094933Y-64118825D01*
X104062706Y-64107429D01*
X104004159Y-64086726D01*
X103996273Y-64083630D01*
X103947169Y-64062391D01*
X103946198Y-64061966D01*
X103810979Y-64002103D01*
X103796892Y-63994754D01*
X103723790Y-63950436D01*
X103721092Y-63948752D01*
X103703424Y-63937411D01*
X103624659Y-63886853D01*
X103613511Y-63878789D01*
X103584610Y-63855333D01*
X103542359Y-63821041D01*
X103538318Y-63817615D01*
X103457020Y-63745658D01*
X103448664Y-63737531D01*
X103384579Y-63669049D01*
X103379690Y-63663501D01*
X103311568Y-63581366D01*
X103305786Y-63573821D01*
X103251281Y-63496737D01*
X103246092Y-63488764D01*
X103191382Y-63397189D01*
X103187770Y-63390711D01*
X103144563Y-63307453D01*
X103139689Y-63296872D01*
X103125226Y-63261146D01*
X103098947Y-63196232D01*
X103097071Y-63191295D01*
X103097067Y-63191285D01*
X103090225Y-63172058D01*
X103066345Y-63104959D01*
X103062455Y-63091748D01*
X103036227Y-62980127D01*
X103035566Y-62977143D01*
X103018135Y-62893373D01*
X103015908Y-62877689D01*
X103004681Y-62732231D01*
X103004650Y-62731803D01*
X103000790Y-62675428D01*
X103000500Y-62666959D01*
X103000500Y-61504426D01*
X103000816Y-61495582D01*
X103000859Y-61494968D01*
X103005490Y-61430227D01*
X103016719Y-61287555D01*
X103019170Y-61270935D01*
X103038631Y-61181471D01*
X103039181Y-61179065D01*
X103065984Y-61067424D01*
X103070365Y-61053074D01*
X103104251Y-60962224D01*
X103105778Y-60958341D01*
X103147676Y-60857190D01*
X103153387Y-60845255D01*
X103200826Y-60758376D01*
X103203871Y-60753118D01*
X103259989Y-60661542D01*
X103266418Y-60652068D01*
X103326264Y-60572123D01*
X103331168Y-60565992D01*
X103400440Y-60484885D01*
X103407000Y-60477789D01*
X103477789Y-60407000D01*
X103484885Y-60400440D01*
X103565992Y-60331168D01*
X103572123Y-60326264D01*
X103652068Y-60266418D01*
X103661542Y-60259989D01*
X103753118Y-60203871D01*
X103758376Y-60200826D01*
X103845255Y-60153387D01*
X103857190Y-60147676D01*
X103958341Y-60105778D01*
X103962224Y-60104251D01*
X104053083Y-60070362D01*
X104067420Y-60065985D01*
X104179060Y-60039182D01*
X104181454Y-60038635D01*
X104270949Y-60019167D01*
X104287546Y-60016719D01*
X104430227Y-60005490D01*
X104495581Y-60000816D01*
X104504426Y-60000500D01*
X116280853Y-60000500D01*
X116347192Y-60019738D01*
G37*
G04 #@! TD.AperFunction*
G04 #@! TA.AperFunction,Conductor*
G36*
X160138000Y-136468112D02*
G01*
X160183387Y-136513499D01*
X160200000Y-136575499D01*
X160200000Y-137667072D01*
X160188382Y-137719477D01*
X160155706Y-137762062D01*
X160108093Y-137786847D01*
X160083450Y-137793449D01*
X160080000Y-137806326D01*
X160080000Y-138491000D01*
X160063387Y-138553000D01*
X160018000Y-138598387D01*
X159956000Y-138615000D01*
X159604000Y-138615000D01*
X159542000Y-138598387D01*
X159496613Y-138553000D01*
X159480000Y-138491000D01*
X159480000Y-137649933D01*
X159483304Y-137627516D01*
X159482202Y-137627322D01*
X159493447Y-137563724D01*
X159502870Y-137510427D01*
X159506183Y-137452686D01*
X159503254Y-137404236D01*
X159512628Y-137348917D01*
X159545428Y-137303390D01*
X159594937Y-137276982D01*
X159596549Y-137276549D01*
X159600000Y-137263674D01*
X159600000Y-136575499D01*
X159616613Y-136513499D01*
X159662000Y-136468112D01*
X159724000Y-136451499D01*
X160076000Y-136451499D01*
X160138000Y-136468112D01*
G37*
G04 #@! TD.AperFunction*
G04 #@! TA.AperFunction,Conductor*
G36*
X160018000Y-129401613D02*
G01*
X160063387Y-129447000D01*
X160080000Y-129509000D01*
X160080000Y-130193674D01*
X160083450Y-130206550D01*
X160108093Y-130213153D01*
X160155706Y-130237938D01*
X160188382Y-130280523D01*
X160200000Y-130332928D01*
X160200000Y-131424500D01*
X160183387Y-131486500D01*
X160138000Y-131531887D01*
X160076000Y-131548500D01*
X159724000Y-131548500D01*
X159662000Y-131531887D01*
X159616613Y-131486500D01*
X159600000Y-131424500D01*
X159600000Y-130736326D01*
X159596549Y-130723449D01*
X159594934Y-130723017D01*
X159545427Y-130696608D01*
X159512628Y-130651082D01*
X159503254Y-130595763D01*
X159506183Y-130547303D01*
X159502869Y-130489562D01*
X159482200Y-130372672D01*
X159482200Y-130372671D01*
X159483304Y-130372476D01*
X159480000Y-130350066D01*
X159480000Y-129509000D01*
X159496613Y-129447000D01*
X159542000Y-129401613D01*
X159604000Y-129385000D01*
X159956000Y-129385000D01*
X160018000Y-129401613D01*
G37*
G04 #@! TD.AperFunction*
G04 #@! TA.AperFunction,NonConductor*
G36*
X131399872Y-60019738D02*
G01*
X131445627Y-60071482D01*
X131456601Y-60139677D01*
X131429388Y-60203163D01*
X131372432Y-60242241D01*
X126015683Y-62012013D01*
X126015680Y-62012014D01*
X126004165Y-62015819D01*
X125994961Y-62023716D01*
X125994958Y-62023719D01*
X125017889Y-62862201D01*
X125017887Y-62862203D01*
X125008556Y-62870211D01*
X125007688Y-62882476D01*
X125007688Y-62882480D01*
X124922545Y-64086929D01*
X124916136Y-64177594D01*
X124920108Y-64189304D01*
X124920109Y-64189308D01*
X125251288Y-65165579D01*
X125304412Y-65322182D01*
X125312539Y-65331405D01*
X125312540Y-65331407D01*
X125694911Y-65765359D01*
X126168318Y-66302627D01*
X127383064Y-66386259D01*
X127432782Y-66400492D01*
X127472372Y-66433770D01*
X127494944Y-66480303D01*
X127617314Y-66977012D01*
X127617323Y-66977046D01*
X127617539Y-66977923D01*
X127617786Y-66978808D01*
X127617792Y-66978831D01*
X127957977Y-68197955D01*
X127962464Y-68226945D01*
X127995411Y-69168180D01*
X127990136Y-69208552D01*
X127917063Y-69449158D01*
X127902422Y-69480639D01*
X127656253Y-69859868D01*
X127654555Y-69862414D01*
X126813996Y-71089880D01*
X126813993Y-71089885D01*
X126808377Y-71098087D01*
X126805625Y-71107641D01*
X126805625Y-71107644D01*
X126400361Y-72515213D01*
X126400360Y-72515215D01*
X126396107Y-72529990D01*
X126399359Y-72545016D01*
X126399359Y-72545019D01*
X126705018Y-73957380D01*
X126705019Y-73957384D01*
X126706898Y-73966064D01*
X126713182Y-73972348D01*
X127711657Y-74970834D01*
X127762971Y-75022148D01*
X127773395Y-75026782D01*
X127773397Y-75026784D01*
X128031208Y-75141412D01*
X128686828Y-75432915D01*
X129608842Y-75545950D01*
X130228993Y-75436731D01*
X130282612Y-75439082D01*
X130330215Y-75463871D01*
X130362885Y-75506453D01*
X130374500Y-75558852D01*
X130374500Y-76689548D01*
X130365061Y-76737001D01*
X130338181Y-76777229D01*
X127777228Y-79338181D01*
X127737000Y-79365061D01*
X127689547Y-79374500D01*
X109077775Y-79374500D01*
X109066719Y-79373978D01*
X109059333Y-79372327D01*
X109051545Y-79372571D01*
X109051538Y-79372571D01*
X108992127Y-79374439D01*
X108988232Y-79374500D01*
X108960650Y-79374500D01*
X108956805Y-79374985D01*
X108956780Y-79374987D01*
X108956653Y-79375004D01*
X108945034Y-79375918D01*
X108909172Y-79377045D01*
X108909165Y-79377046D01*
X108901373Y-79377291D01*
X108893888Y-79379465D01*
X108893872Y-79379468D01*
X108882126Y-79382881D01*
X108863083Y-79386825D01*
X108850949Y-79388358D01*
X108850948Y-79388358D01*
X108843208Y-79389336D01*
X108835958Y-79392205D01*
X108835951Y-79392208D01*
X108802598Y-79405413D01*
X108791554Y-79409194D01*
X108757101Y-79419204D01*
X108757090Y-79419208D01*
X108749610Y-79421382D01*
X108742898Y-79425351D01*
X108742896Y-79425352D01*
X108732364Y-79431580D01*
X108714904Y-79440134D01*
X108703519Y-79444642D01*
X108703513Y-79444644D01*
X108696268Y-79447514D01*
X108689963Y-79452094D01*
X108689955Y-79452099D01*
X108660932Y-79473185D01*
X108651174Y-79479595D01*
X108620296Y-79497857D01*
X108620290Y-79497861D01*
X108613580Y-79501830D01*
X108608067Y-79507341D01*
X108608060Y-79507348D01*
X108599410Y-79515998D01*
X108584627Y-79528624D01*
X108574726Y-79535817D01*
X108574716Y-79535826D01*
X108568413Y-79540406D01*
X108563444Y-79546411D01*
X108563441Y-79546415D01*
X108540572Y-79574059D01*
X108532711Y-79582697D01*
X101612696Y-86502711D01*
X101604511Y-86510159D01*
X101598123Y-86514214D01*
X101592788Y-86519894D01*
X101592783Y-86519899D01*
X101552096Y-86563225D01*
X101549392Y-86566016D01*
X101532628Y-86582780D01*
X101532621Y-86582787D01*
X101529880Y-86585529D01*
X101527500Y-86588596D01*
X101527489Y-86588609D01*
X101527400Y-86588725D01*
X101519842Y-86597570D01*
X101495280Y-86623727D01*
X101495273Y-86623736D01*
X101489938Y-86629418D01*
X101486182Y-86636249D01*
X101486179Y-86636254D01*
X101480285Y-86646975D01*
X101469609Y-86663227D01*
X101462109Y-86672896D01*
X101462101Y-86672907D01*
X101457327Y-86679064D01*
X101454234Y-86686208D01*
X101454229Y-86686219D01*
X101439974Y-86719160D01*
X101434838Y-86729643D01*
X101413803Y-86767908D01*
X101411864Y-86775456D01*
X101411863Y-86775461D01*
X101408822Y-86787307D01*
X101402521Y-86805711D01*
X101397658Y-86816948D01*
X101397656Y-86816952D01*
X101394562Y-86824104D01*
X101393342Y-86831803D01*
X101393342Y-86831805D01*
X101387729Y-86867241D01*
X101385361Y-86878676D01*
X101376438Y-86913428D01*
X101376436Y-86913436D01*
X101374500Y-86920981D01*
X101374500Y-86928777D01*
X101374500Y-86941017D01*
X101372974Y-86960402D01*
X101369840Y-86980196D01*
X101370574Y-86987961D01*
X101370574Y-86987964D01*
X101373950Y-87023676D01*
X101374500Y-87035345D01*
X101374500Y-104376000D01*
X101357887Y-104438000D01*
X101312500Y-104483387D01*
X101250500Y-104500000D01*
X99235952Y-104500000D01*
X99188499Y-104490561D01*
X99148271Y-104463681D01*
X97661819Y-102977228D01*
X97634939Y-102937000D01*
X97625500Y-102889547D01*
X97625500Y-94000000D01*
X98994659Y-94000000D01*
X98995256Y-94006062D01*
X99013378Y-94190067D01*
X99013379Y-94190073D01*
X99013976Y-94196132D01*
X99015743Y-94201957D01*
X99015744Y-94201962D01*
X99069418Y-94378899D01*
X99071186Y-94384727D01*
X99074055Y-94390095D01*
X99074057Y-94390099D01*
X99161215Y-94553161D01*
X99161219Y-94553167D01*
X99164090Y-94558538D01*
X99289117Y-94710883D01*
X99441462Y-94835910D01*
X99446834Y-94838781D01*
X99446838Y-94838784D01*
X99588839Y-94914684D01*
X99615273Y-94928814D01*
X99803868Y-94986024D01*
X100000000Y-95005341D01*
X100196132Y-94986024D01*
X100384727Y-94928814D01*
X100558538Y-94835910D01*
X100710883Y-94710883D01*
X100835910Y-94558538D01*
X100928814Y-94384727D01*
X100986024Y-94196132D01*
X101005341Y-94000000D01*
X100986024Y-93803868D01*
X100928814Y-93615273D01*
X100835910Y-93441462D01*
X100710883Y-93289117D01*
X100558538Y-93164090D01*
X100553167Y-93161219D01*
X100553161Y-93161215D01*
X100390099Y-93074057D01*
X100390095Y-93074055D01*
X100384727Y-93071186D01*
X100378899Y-93069418D01*
X100201962Y-93015744D01*
X100201957Y-93015743D01*
X100196132Y-93013976D01*
X100190073Y-93013379D01*
X100190067Y-93013378D01*
X100006062Y-92995256D01*
X100000000Y-92994659D01*
X99993938Y-92995256D01*
X99809932Y-93013378D01*
X99809924Y-93013379D01*
X99803868Y-93013976D01*
X99798044Y-93015742D01*
X99798037Y-93015744D01*
X99621100Y-93069418D01*
X99621096Y-93069419D01*
X99615273Y-93071186D01*
X99609907Y-93074053D01*
X99609900Y-93074057D01*
X99446838Y-93161215D01*
X99446827Y-93161222D01*
X99441462Y-93164090D01*
X99436754Y-93167953D01*
X99436749Y-93167957D01*
X99293823Y-93285254D01*
X99293818Y-93285258D01*
X99289117Y-93289117D01*
X99285258Y-93293818D01*
X99285254Y-93293823D01*
X99167957Y-93436749D01*
X99167953Y-93436754D01*
X99164090Y-93441462D01*
X99161222Y-93446827D01*
X99161215Y-93446838D01*
X99074057Y-93609900D01*
X99074053Y-93609907D01*
X99071186Y-93615273D01*
X99069419Y-93621096D01*
X99069418Y-93621100D01*
X99015744Y-93798037D01*
X99015742Y-93798044D01*
X99013976Y-93803868D01*
X99013379Y-93809924D01*
X99013378Y-93809932D01*
X98995256Y-93993938D01*
X98994659Y-94000000D01*
X97625500Y-94000000D01*
X97625500Y-89310452D01*
X97634939Y-89262999D01*
X97661819Y-89222771D01*
X112400027Y-74484562D01*
X112455615Y-74452468D01*
X112519802Y-74452468D01*
X112575389Y-74484561D01*
X113012971Y-74922148D01*
X113023395Y-74926782D01*
X113023397Y-74926784D01*
X113313282Y-75055673D01*
X113936828Y-75332915D01*
X114858842Y-75445950D01*
X115763049Y-75286704D01*
X116639815Y-74889293D01*
X118120320Y-73660345D01*
X119543606Y-71849401D01*
X120150268Y-70793538D01*
X120518396Y-69747924D01*
X120657214Y-68709569D01*
X120599596Y-67669153D01*
X120118743Y-65667353D01*
X119592370Y-63987036D01*
X119587147Y-63939467D01*
X119600327Y-63893460D01*
X119629945Y-63855872D01*
X120332304Y-63253137D01*
X120424724Y-61945754D01*
X120036448Y-60801167D01*
X119998796Y-60758436D01*
X119512445Y-60206477D01*
X119485767Y-60156818D01*
X119483830Y-60100480D01*
X119507034Y-60049106D01*
X119550585Y-60013314D01*
X119605481Y-60000500D01*
X131333533Y-60000500D01*
X131399872Y-60019738D01*
G37*
G04 #@! TD.AperFunction*
G04 #@! TA.AperFunction,NonConductor*
G36*
X145779654Y-60019738D02*
G01*
X145825409Y-60071482D01*
X145836383Y-60139677D01*
X145809170Y-60203163D01*
X145752214Y-60242241D01*
X140451337Y-61993554D01*
X140451334Y-61993555D01*
X140439819Y-61997360D01*
X140430615Y-62005257D01*
X140430612Y-62005260D01*
X139453543Y-62843742D01*
X139453541Y-62843744D01*
X139444210Y-62851752D01*
X139443342Y-62864017D01*
X139443342Y-62864021D01*
X139354639Y-64118826D01*
X139351790Y-64159135D01*
X139355762Y-64170845D01*
X139355763Y-64170849D01*
X139657482Y-65060277D01*
X139740066Y-65303723D01*
X139748193Y-65312946D01*
X139748194Y-65312948D01*
X140112373Y-65726253D01*
X140603972Y-66284168D01*
X141818718Y-66367800D01*
X141868436Y-66382033D01*
X141908026Y-66415311D01*
X141930598Y-66461844D01*
X142052968Y-66958553D01*
X142052977Y-66958587D01*
X142053193Y-66959464D01*
X142053440Y-66960349D01*
X142053446Y-66960372D01*
X142393631Y-68179496D01*
X142398118Y-68208486D01*
X142431065Y-69149721D01*
X142425790Y-69190093D01*
X142352717Y-69430699D01*
X142338076Y-69462180D01*
X142091907Y-69841409D01*
X142090209Y-69843955D01*
X141249650Y-71071421D01*
X141249647Y-71071426D01*
X141244031Y-71079628D01*
X141241279Y-71089182D01*
X141241279Y-71089185D01*
X140836015Y-72496754D01*
X140836014Y-72496756D01*
X140831761Y-72511531D01*
X140835013Y-72526557D01*
X140835013Y-72526560D01*
X141140672Y-73938921D01*
X141140673Y-73938925D01*
X141142552Y-73947605D01*
X142198625Y-75003689D01*
X142209049Y-75008323D01*
X142209051Y-75008325D01*
X142508378Y-75141412D01*
X143122482Y-75414456D01*
X144044496Y-75527491D01*
X144228993Y-75494998D01*
X144282612Y-75497349D01*
X144330215Y-75522138D01*
X144362885Y-75564720D01*
X144374500Y-75617119D01*
X144374500Y-76689548D01*
X144365061Y-76737001D01*
X144338181Y-76777229D01*
X135877228Y-85238181D01*
X135837000Y-85265061D01*
X135789547Y-85274500D01*
X106077771Y-85274500D01*
X106066718Y-85273979D01*
X106059332Y-85272328D01*
X106051534Y-85272573D01*
X105992144Y-85274439D01*
X105988250Y-85274500D01*
X105960650Y-85274500D01*
X105956799Y-85274986D01*
X105956768Y-85274988D01*
X105956640Y-85275005D01*
X105945029Y-85275918D01*
X105909171Y-85277045D01*
X105909164Y-85277046D01*
X105901372Y-85277291D01*
X105893888Y-85279465D01*
X105893877Y-85279467D01*
X105882128Y-85282881D01*
X105863083Y-85286825D01*
X105850947Y-85288358D01*
X105850944Y-85288358D01*
X105843208Y-85289336D01*
X105835960Y-85292205D01*
X105835950Y-85292208D01*
X105802592Y-85305415D01*
X105791550Y-85309196D01*
X105757097Y-85319207D01*
X105757092Y-85319208D01*
X105749610Y-85321383D01*
X105742902Y-85325349D01*
X105742897Y-85325352D01*
X105732364Y-85331581D01*
X105714900Y-85340136D01*
X105703524Y-85344640D01*
X105703517Y-85344643D01*
X105696268Y-85347514D01*
X105689962Y-85352094D01*
X105689957Y-85352098D01*
X105660927Y-85373189D01*
X105651169Y-85379598D01*
X105620298Y-85397856D01*
X105613579Y-85401830D01*
X105608063Y-85407344D01*
X105608056Y-85407351D01*
X105599407Y-85416000D01*
X105584624Y-85428626D01*
X105574727Y-85435817D01*
X105574720Y-85435823D01*
X105568413Y-85440406D01*
X105563446Y-85446408D01*
X105563435Y-85446420D01*
X105540570Y-85474059D01*
X105532710Y-85482697D01*
X103812696Y-87202711D01*
X103804511Y-87210159D01*
X103798123Y-87214214D01*
X103792788Y-87219894D01*
X103792783Y-87219899D01*
X103752096Y-87263225D01*
X103749392Y-87266016D01*
X103732628Y-87282780D01*
X103732621Y-87282787D01*
X103729880Y-87285529D01*
X103727500Y-87288596D01*
X103727489Y-87288609D01*
X103727400Y-87288725D01*
X103719842Y-87297570D01*
X103695280Y-87323727D01*
X103695273Y-87323736D01*
X103689938Y-87329418D01*
X103686182Y-87336249D01*
X103686179Y-87336254D01*
X103680285Y-87346975D01*
X103669609Y-87363227D01*
X103662109Y-87372896D01*
X103662101Y-87372907D01*
X103657327Y-87379064D01*
X103654234Y-87386208D01*
X103654229Y-87386219D01*
X103639974Y-87419160D01*
X103634838Y-87429643D01*
X103617560Y-87461073D01*
X103613803Y-87467908D01*
X103611864Y-87475456D01*
X103611863Y-87475461D01*
X103608822Y-87487307D01*
X103602521Y-87505711D01*
X103597658Y-87516948D01*
X103597656Y-87516952D01*
X103594562Y-87524104D01*
X103593342Y-87531803D01*
X103593342Y-87531805D01*
X103587729Y-87567241D01*
X103585361Y-87578676D01*
X103576438Y-87613428D01*
X103576436Y-87613436D01*
X103574500Y-87620981D01*
X103574500Y-87628777D01*
X103574500Y-87641017D01*
X103572974Y-87660402D01*
X103569840Y-87680196D01*
X103570574Y-87687961D01*
X103570574Y-87687964D01*
X103573950Y-87723676D01*
X103574500Y-87735345D01*
X103574500Y-107779547D01*
X103565061Y-107827000D01*
X103538181Y-107867228D01*
X102011681Y-109393728D01*
X101962318Y-109423978D01*
X101904602Y-109428520D01*
X101851115Y-109406365D01*
X101813515Y-109362342D01*
X101800000Y-109306047D01*
X101800000Y-107875953D01*
X101809439Y-107828500D01*
X101836319Y-107788272D01*
X101867785Y-107756805D01*
X102387311Y-107237278D01*
X102395481Y-107229844D01*
X102401877Y-107225786D01*
X102447918Y-107176756D01*
X102450535Y-107174054D01*
X102470120Y-107154471D01*
X102472585Y-107151292D01*
X102480167Y-107142416D01*
X102510062Y-107110582D01*
X102519713Y-107093023D01*
X102530390Y-107076770D01*
X102542673Y-107060936D01*
X102560018Y-107020852D01*
X102565151Y-107010371D01*
X102586197Y-106972092D01*
X102591179Y-106952684D01*
X102597482Y-106934276D01*
X102605437Y-106915896D01*
X102612271Y-106872744D01*
X102614633Y-106861338D01*
X102625500Y-106819019D01*
X102625500Y-106798983D01*
X102627027Y-106779585D01*
X102628939Y-106767513D01*
X102628938Y-106767513D01*
X102630160Y-106759804D01*
X102626050Y-106716324D01*
X102625500Y-106704655D01*
X102625500Y-87310452D01*
X102634939Y-87262999D01*
X102661819Y-87222771D01*
X109222772Y-80661819D01*
X109263000Y-80634939D01*
X109310453Y-80625500D01*
X127922225Y-80625500D01*
X127933280Y-80626021D01*
X127940667Y-80627673D01*
X128007872Y-80625561D01*
X128011768Y-80625500D01*
X128035448Y-80625500D01*
X128039350Y-80625500D01*
X128043313Y-80624999D01*
X128054963Y-80624080D01*
X128098627Y-80622709D01*
X128117861Y-80617119D01*
X128136917Y-80613174D01*
X128156792Y-80610664D01*
X128197395Y-80594587D01*
X128208450Y-80590802D01*
X128250390Y-80578618D01*
X128267629Y-80568422D01*
X128285103Y-80559862D01*
X128296474Y-80555360D01*
X128296476Y-80555358D01*
X128303732Y-80552486D01*
X128339069Y-80526811D01*
X128348824Y-80520403D01*
X128386420Y-80498170D01*
X128400584Y-80484005D01*
X128415379Y-80471368D01*
X128431587Y-80459594D01*
X128459428Y-80425938D01*
X128467279Y-80417309D01*
X131387306Y-77497282D01*
X131395482Y-77489843D01*
X131401877Y-77485786D01*
X131447933Y-77436740D01*
X131450550Y-77434038D01*
X131470120Y-77414470D01*
X131472565Y-77411316D01*
X131480155Y-77402428D01*
X131510062Y-77370582D01*
X131519709Y-77353032D01*
X131530393Y-77336766D01*
X131542674Y-77320936D01*
X131560018Y-77280851D01*
X131565160Y-77270356D01*
X131586197Y-77232092D01*
X131591179Y-77212689D01*
X131597480Y-77194283D01*
X131605438Y-77175895D01*
X131612269Y-77132756D01*
X131614639Y-77121315D01*
X131623560Y-77086574D01*
X131623559Y-77086574D01*
X131625500Y-77079019D01*
X131625500Y-77058983D01*
X131627025Y-77039597D01*
X131630160Y-77019804D01*
X131626050Y-76976324D01*
X131625500Y-76964655D01*
X131625500Y-74851878D01*
X131637257Y-74799175D01*
X131670300Y-74756466D01*
X132036524Y-74452468D01*
X132870320Y-73760345D01*
X134293606Y-71949401D01*
X134900268Y-70893538D01*
X135268396Y-69847924D01*
X135407214Y-68809569D01*
X135349596Y-67769153D01*
X134868743Y-65767353D01*
X134342370Y-64087036D01*
X134337147Y-64039467D01*
X134350327Y-63993460D01*
X134379945Y-63955872D01*
X135082304Y-63353137D01*
X135174724Y-62045754D01*
X134786448Y-60901167D01*
X134765228Y-60877085D01*
X134174331Y-60206477D01*
X134147653Y-60156818D01*
X134145716Y-60100480D01*
X134168920Y-60049106D01*
X134212471Y-60013314D01*
X134267367Y-60000500D01*
X145713315Y-60000500D01*
X145779654Y-60019738D01*
G37*
G04 #@! TD.AperFunction*
G04 #@! TA.AperFunction,NonConductor*
G36*
X155504418Y-60000816D02*
G01*
X155569734Y-60005487D01*
X155569740Y-60005488D01*
X155712449Y-60016719D01*
X155729054Y-60019168D01*
X155818500Y-60038625D01*
X155820979Y-60039192D01*
X155932570Y-60065983D01*
X155946925Y-60070365D01*
X156037735Y-60104236D01*
X156041696Y-60105794D01*
X156142794Y-60147670D01*
X156154758Y-60153394D01*
X156241588Y-60200807D01*
X156246915Y-60203892D01*
X156338433Y-60259974D01*
X156347951Y-60266432D01*
X156427845Y-60326241D01*
X156434037Y-60331193D01*
X156515086Y-60400416D01*
X156522235Y-60407025D01*
X156592973Y-60477763D01*
X156599582Y-60484912D01*
X156668793Y-60565947D01*
X156673770Y-60572169D01*
X156733564Y-60652045D01*
X156740024Y-60661565D01*
X156796100Y-60753072D01*
X156799206Y-60758436D01*
X156846602Y-60845237D01*
X156852330Y-60857209D01*
X156875361Y-60912810D01*
X156894181Y-60958245D01*
X156895790Y-60962335D01*
X156929627Y-61053056D01*
X156934019Y-61067442D01*
X156960793Y-61178964D01*
X156961385Y-61181553D01*
X156980828Y-61270933D01*
X156983280Y-61287562D01*
X156994485Y-61429934D01*
X156994551Y-61430815D01*
X156999184Y-61495580D01*
X156999500Y-61504428D01*
X156999500Y-62667333D01*
X156999210Y-62675808D01*
X156995549Y-62729250D01*
X156995472Y-62730303D01*
X156984114Y-62877676D01*
X156981881Y-62893409D01*
X156964472Y-62977073D01*
X156963784Y-62980178D01*
X156937564Y-63091758D01*
X156933673Y-63104972D01*
X156902952Y-63191285D01*
X156901069Y-63196237D01*
X156860330Y-63296866D01*
X156855453Y-63307453D01*
X156812244Y-63390711D01*
X156808630Y-63397192D01*
X156753920Y-63488760D01*
X156748717Y-63496754D01*
X156694232Y-63573803D01*
X156688430Y-63581372D01*
X156620327Y-63663480D01*
X156615422Y-63669047D01*
X156551336Y-63737525D01*
X156542980Y-63745652D01*
X156461682Y-63817603D01*
X156457638Y-63821030D01*
X156386500Y-63878760D01*
X156375340Y-63886831D01*
X156278855Y-63948757D01*
X156276157Y-63950441D01*
X156203073Y-63994743D01*
X156189005Y-64002083D01*
X156057059Y-64060516D01*
X156056068Y-64060950D01*
X156003148Y-64083836D01*
X155995269Y-64086929D01*
X155929038Y-64110349D01*
X155905068Y-64118826D01*
X155901390Y-64120710D01*
X155901383Y-64120714D01*
X155729860Y-64208623D01*
X155729851Y-64208627D01*
X155726164Y-64210518D01*
X155722759Y-64212884D01*
X155722750Y-64212890D01*
X155564501Y-64322880D01*
X155564493Y-64322886D01*
X155561088Y-64325253D01*
X155558033Y-64328048D01*
X155558023Y-64328057D01*
X155415853Y-64458176D01*
X155415840Y-64458188D01*
X155412790Y-64460981D01*
X155410136Y-64464158D01*
X155410127Y-64464168D01*
X155286584Y-64612086D01*
X155286580Y-64612090D01*
X155283921Y-64615275D01*
X155281715Y-64618778D01*
X155281705Y-64618792D01*
X155178993Y-64781869D01*
X155178984Y-64781884D01*
X155176783Y-64785380D01*
X155175068Y-64789134D01*
X155175061Y-64789149D01*
X155095010Y-64964485D01*
X155095006Y-64964494D01*
X155093290Y-64968254D01*
X155092090Y-64972208D01*
X155092087Y-64972217D01*
X155065371Y-65060277D01*
X155062557Y-65068501D01*
X155049158Y-65103599D01*
X155048636Y-65104943D01*
X154984720Y-65266697D01*
X154977925Y-65281109D01*
X154938180Y-65353023D01*
X154936011Y-65356789D01*
X154870297Y-65466430D01*
X154863016Y-65477246D01*
X154808791Y-65549299D01*
X154804267Y-65554958D01*
X154726253Y-65646909D01*
X154719380Y-65654368D01*
X154654368Y-65719380D01*
X154646909Y-65726253D01*
X154554958Y-65804267D01*
X154549299Y-65808791D01*
X154477246Y-65863016D01*
X154466430Y-65870297D01*
X154356789Y-65936011D01*
X154353023Y-65938180D01*
X154281109Y-65977925D01*
X154266697Y-65984720D01*
X154104943Y-66048636D01*
X154103598Y-66049159D01*
X154068544Y-66062541D01*
X154060255Y-66065374D01*
X153966657Y-66093714D01*
X153966646Y-66093718D01*
X153962439Y-66094992D01*
X153958448Y-66096852D01*
X153958440Y-66096856D01*
X153773253Y-66183209D01*
X153773241Y-66183215D01*
X153769260Y-66185072D01*
X153765577Y-66187474D01*
X153765570Y-66187479D01*
X153594439Y-66299142D01*
X153594438Y-66299143D01*
X153590751Y-66301549D01*
X153587445Y-66304447D01*
X153587440Y-66304452D01*
X153433802Y-66439188D01*
X153433796Y-66439193D01*
X153430496Y-66442088D01*
X153427641Y-66445415D01*
X153427633Y-66445424D01*
X153294578Y-66600522D01*
X153294571Y-66600530D01*
X153291712Y-66603864D01*
X153289345Y-66607578D01*
X153289343Y-66607582D01*
X153179556Y-66779913D01*
X153179554Y-66779915D01*
X153177187Y-66783632D01*
X153175375Y-66787630D01*
X153175368Y-66787644D01*
X153091033Y-66973775D01*
X153091030Y-66973781D01*
X153089218Y-66977782D01*
X153087991Y-66981991D01*
X153087986Y-66982005D01*
X153030804Y-67178187D01*
X153030802Y-67178195D01*
X153029572Y-67182416D01*
X152999447Y-67393425D01*
X152999500Y-67500000D01*
X152999500Y-67500500D01*
X152999500Y-76499500D01*
X152999500Y-76500000D01*
X152999500Y-76607318D01*
X153000128Y-76611687D01*
X153000129Y-76611698D01*
X153029415Y-76815383D01*
X153030046Y-76819769D01*
X153031292Y-76824014D01*
X153031294Y-76824021D01*
X153074307Y-76970507D01*
X153090516Y-77025710D01*
X153092354Y-77029736D01*
X153092358Y-77029745D01*
X153175906Y-77212689D01*
X153179679Y-77220950D01*
X153182069Y-77224670D01*
X153182073Y-77224676D01*
X153275841Y-77370582D01*
X153295719Y-77401513D01*
X153298613Y-77404853D01*
X153298614Y-77404854D01*
X153326275Y-77436777D01*
X153436276Y-77563724D01*
X153598487Y-77704281D01*
X153779050Y-77820321D01*
X153974290Y-77909484D01*
X154180231Y-77969954D01*
X154392682Y-78000500D01*
X154499901Y-78000500D01*
X154500000Y-78000500D01*
X154500500Y-78000500D01*
X169498158Y-78000500D01*
X169501817Y-78000554D01*
X169704342Y-78006532D01*
X169713269Y-78007119D01*
X169733841Y-78009218D01*
X169915835Y-78027789D01*
X169927832Y-78029611D01*
X170127034Y-78069962D01*
X170138093Y-78072738D01*
X170221442Y-78097798D01*
X170234453Y-78102517D01*
X170402692Y-78174412D01*
X170402697Y-78174414D01*
X170422481Y-78185084D01*
X170574199Y-78285653D01*
X170585696Y-78294275D01*
X170594841Y-78302000D01*
X170594846Y-78302004D01*
X170606106Y-78312801D01*
X170734190Y-78452109D01*
X170748450Y-78470943D01*
X170822530Y-78591067D01*
X170831598Y-78608825D01*
X170901938Y-78779157D01*
X170907462Y-78795774D01*
X170953972Y-78977700D01*
X170956581Y-78990817D01*
X170984758Y-79187370D01*
X170985787Y-79197481D01*
X170998068Y-79400563D01*
X170998284Y-79406440D01*
X170998746Y-79442064D01*
X170998756Y-79443638D01*
X170999500Y-82167259D01*
X170999500Y-83998157D01*
X170999446Y-84001817D01*
X170993465Y-84204343D01*
X170992879Y-84213267D01*
X170972211Y-84415819D01*
X170970385Y-84427839D01*
X170930036Y-84627028D01*
X170927255Y-84638106D01*
X170902203Y-84721435D01*
X170897481Y-84734454D01*
X170825582Y-84902700D01*
X170814912Y-84922484D01*
X170714344Y-85074198D01*
X170705722Y-85085696D01*
X170698005Y-85094833D01*
X170687199Y-85106105D01*
X170547886Y-85234193D01*
X170529055Y-85248450D01*
X170464344Y-85288358D01*
X170408936Y-85322528D01*
X170391177Y-85331596D01*
X170220840Y-85401938D01*
X170204224Y-85407462D01*
X170022297Y-85453973D01*
X170009179Y-85456582D01*
X169812627Y-85484758D01*
X169802516Y-85485787D01*
X169599434Y-85498068D01*
X169593560Y-85498284D01*
X169500742Y-85499490D01*
X169499131Y-85499500D01*
X169392682Y-85499500D01*
X169388313Y-85500128D01*
X169388301Y-85500129D01*
X169184616Y-85529415D01*
X169184608Y-85529416D01*
X169180231Y-85530046D01*
X169175988Y-85531291D01*
X169175978Y-85531294D01*
X168978543Y-85589267D01*
X168978540Y-85589267D01*
X168974290Y-85590516D01*
X168970268Y-85592352D01*
X168970254Y-85592358D01*
X168783084Y-85677836D01*
X168783075Y-85677840D01*
X168779050Y-85679679D01*
X168775335Y-85682066D01*
X168775323Y-85682073D01*
X168602206Y-85793328D01*
X168602196Y-85793334D01*
X168598487Y-85795719D01*
X168595152Y-85798608D01*
X168595145Y-85798614D01*
X168439617Y-85933380D01*
X168439609Y-85933387D01*
X168436276Y-85936276D01*
X168433387Y-85939609D01*
X168433380Y-85939617D01*
X168298614Y-86095145D01*
X168298608Y-86095152D01*
X168295719Y-86098487D01*
X168293334Y-86102196D01*
X168293328Y-86102206D01*
X168182073Y-86275323D01*
X168182066Y-86275335D01*
X168179679Y-86279050D01*
X168177840Y-86283075D01*
X168177836Y-86283084D01*
X168092358Y-86470254D01*
X168092352Y-86470268D01*
X168090516Y-86474290D01*
X168089267Y-86478540D01*
X168089267Y-86478543D01*
X168031294Y-86675978D01*
X168031291Y-86675988D01*
X168030046Y-86680231D01*
X168029416Y-86684608D01*
X168029415Y-86684616D01*
X168000129Y-86888301D01*
X168000128Y-86888313D01*
X167999500Y-86892682D01*
X167999500Y-86897108D01*
X167999500Y-86995572D01*
X167999184Y-87004420D01*
X167994551Y-87069183D01*
X167994485Y-87070064D01*
X167983280Y-87212438D01*
X167980828Y-87229067D01*
X167961390Y-87318423D01*
X167960798Y-87321012D01*
X167934019Y-87432556D01*
X167929627Y-87446942D01*
X167895790Y-87537663D01*
X167894169Y-87541784D01*
X167852330Y-87642789D01*
X167846602Y-87654761D01*
X167799206Y-87741562D01*
X167796100Y-87746926D01*
X167740024Y-87838433D01*
X167733564Y-87847953D01*
X167673770Y-87927829D01*
X167668793Y-87934051D01*
X167599582Y-88015086D01*
X167592973Y-88022235D01*
X167522235Y-88092973D01*
X167515086Y-88099582D01*
X167434051Y-88168793D01*
X167427829Y-88173770D01*
X167347953Y-88233564D01*
X167338433Y-88240024D01*
X167246926Y-88296100D01*
X167241562Y-88299206D01*
X167154761Y-88346602D01*
X167142789Y-88352330D01*
X167041784Y-88394169D01*
X167037663Y-88395790D01*
X166946942Y-88429627D01*
X166932556Y-88434019D01*
X166821012Y-88460798D01*
X166818423Y-88461390D01*
X166729067Y-88480828D01*
X166712438Y-88483280D01*
X166570064Y-88494485D01*
X166569183Y-88494551D01*
X166513010Y-88498569D01*
X166504416Y-88499184D01*
X166495572Y-88499500D01*
X166392682Y-88499500D01*
X166388313Y-88500128D01*
X166388301Y-88500129D01*
X166184616Y-88529415D01*
X166184608Y-88529416D01*
X166180231Y-88530046D01*
X166175988Y-88531291D01*
X166175978Y-88531294D01*
X165978543Y-88589267D01*
X165978540Y-88589267D01*
X165974290Y-88590516D01*
X165970268Y-88592352D01*
X165970254Y-88592358D01*
X165783084Y-88677836D01*
X165783075Y-88677840D01*
X165779050Y-88679679D01*
X165775335Y-88682066D01*
X165775323Y-88682073D01*
X165602206Y-88793328D01*
X165602196Y-88793334D01*
X165598487Y-88795719D01*
X165595152Y-88798608D01*
X165595145Y-88798614D01*
X165439617Y-88933380D01*
X165439609Y-88933387D01*
X165436276Y-88936276D01*
X165433387Y-88939609D01*
X165433380Y-88939617D01*
X165298614Y-89095145D01*
X165298608Y-89095152D01*
X165295719Y-89098487D01*
X165293334Y-89102196D01*
X165293328Y-89102206D01*
X165182073Y-89275323D01*
X165182066Y-89275335D01*
X165179679Y-89279050D01*
X165177840Y-89283075D01*
X165177836Y-89283084D01*
X165092358Y-89470254D01*
X165092352Y-89470268D01*
X165090516Y-89474290D01*
X165089267Y-89478540D01*
X165089267Y-89478543D01*
X165031294Y-89675978D01*
X165031291Y-89675988D01*
X165030046Y-89680231D01*
X165029416Y-89684608D01*
X165029415Y-89684616D01*
X165000129Y-89888301D01*
X165000128Y-89888313D01*
X164999500Y-89892682D01*
X164999500Y-89897108D01*
X164999500Y-103370500D01*
X164982887Y-103432500D01*
X164937500Y-103477887D01*
X164875500Y-103494500D01*
X157124000Y-103494500D01*
X157119983Y-103495028D01*
X157119980Y-103495029D01*
X156997192Y-103511194D01*
X156997177Y-103511196D01*
X156993166Y-103511725D01*
X156989254Y-103512773D01*
X156989245Y-103512775D01*
X156935090Y-103527286D01*
X156935082Y-103527288D01*
X156931166Y-103528338D01*
X156927420Y-103529889D01*
X156927410Y-103529893D01*
X156816759Y-103575726D01*
X156816754Y-103575728D01*
X156809250Y-103578837D01*
X156802806Y-103583780D01*
X156802800Y-103583785D01*
X156707789Y-103656691D01*
X156707782Y-103656696D01*
X156704558Y-103659171D01*
X156701685Y-103662043D01*
X156701677Y-103662051D01*
X156662051Y-103701677D01*
X156662043Y-103701685D01*
X156659171Y-103704558D01*
X156656696Y-103707782D01*
X156656691Y-103707789D01*
X156583785Y-103802800D01*
X156583780Y-103802806D01*
X156578837Y-103809250D01*
X156575728Y-103816754D01*
X156575726Y-103816759D01*
X156529893Y-103927410D01*
X156529889Y-103927420D01*
X156528338Y-103931166D01*
X156527288Y-103935082D01*
X156527286Y-103935090D01*
X156512775Y-103989245D01*
X156512773Y-103989254D01*
X156511725Y-103993166D01*
X156511196Y-103997177D01*
X156511194Y-103997192D01*
X156495029Y-104119980D01*
X156494500Y-104124000D01*
X156494500Y-105355500D01*
X156494500Y-107005500D01*
X156494500Y-111280000D01*
X156494500Y-113378890D01*
X156494929Y-113382518D01*
X156494930Y-113382528D01*
X156508036Y-113493254D01*
X156508467Y-113496895D01*
X156509319Y-113500444D01*
X156509321Y-113500455D01*
X156521128Y-113549634D01*
X156521982Y-113553190D01*
X156563112Y-113664679D01*
X156567171Y-113670755D01*
X156567176Y-113670763D01*
X156573714Y-113680547D01*
X156593549Y-113733252D01*
X156588029Y-113789295D01*
X156558291Y-113837116D01*
X155472696Y-114922711D01*
X155464511Y-114930159D01*
X155458123Y-114934214D01*
X155452788Y-114939894D01*
X155452783Y-114939899D01*
X155412096Y-114983225D01*
X155409392Y-114986016D01*
X155392628Y-115002780D01*
X155392621Y-115002787D01*
X155389880Y-115005529D01*
X155387500Y-115008596D01*
X155387489Y-115008609D01*
X155387400Y-115008725D01*
X155379842Y-115017570D01*
X155355280Y-115043727D01*
X155355273Y-115043736D01*
X155349938Y-115049418D01*
X155346182Y-115056249D01*
X155346179Y-115056254D01*
X155340285Y-115066975D01*
X155329609Y-115083227D01*
X155322109Y-115092896D01*
X155322101Y-115092907D01*
X155317327Y-115099064D01*
X155314234Y-115106208D01*
X155314229Y-115106219D01*
X155299974Y-115139160D01*
X155294838Y-115149643D01*
X155273803Y-115187908D01*
X155271864Y-115195456D01*
X155271863Y-115195461D01*
X155268822Y-115207307D01*
X155262521Y-115225711D01*
X155257658Y-115236948D01*
X155257656Y-115236952D01*
X155254562Y-115244104D01*
X155253342Y-115251803D01*
X155253342Y-115251805D01*
X155247729Y-115287241D01*
X155245362Y-115298671D01*
X155244106Y-115303564D01*
X155216154Y-115355702D01*
X155167228Y-115388955D01*
X155108462Y-115395757D01*
X155053234Y-115374558D01*
X155014111Y-115330184D01*
X155000000Y-115272734D01*
X155000000Y-94000000D01*
X158994659Y-94000000D01*
X158995256Y-94006062D01*
X159013378Y-94190067D01*
X159013379Y-94190073D01*
X159013976Y-94196132D01*
X159015743Y-94201957D01*
X159015744Y-94201962D01*
X159069418Y-94378899D01*
X159071186Y-94384727D01*
X159074055Y-94390095D01*
X159074057Y-94390099D01*
X159161215Y-94553161D01*
X159161219Y-94553167D01*
X159164090Y-94558538D01*
X159289117Y-94710883D01*
X159441462Y-94835910D01*
X159446834Y-94838781D01*
X159446838Y-94838784D01*
X159588839Y-94914684D01*
X159615273Y-94928814D01*
X159803868Y-94986024D01*
X160000000Y-95005341D01*
X160196132Y-94986024D01*
X160384727Y-94928814D01*
X160558538Y-94835910D01*
X160710883Y-94710883D01*
X160835910Y-94558538D01*
X160928814Y-94384727D01*
X160986024Y-94196132D01*
X161005341Y-94000000D01*
X160986024Y-93803868D01*
X160928814Y-93615273D01*
X160835910Y-93441462D01*
X160710883Y-93289117D01*
X160558538Y-93164090D01*
X160553167Y-93161219D01*
X160553161Y-93161215D01*
X160390099Y-93074057D01*
X160390095Y-93074055D01*
X160384727Y-93071186D01*
X160378899Y-93069418D01*
X160201962Y-93015744D01*
X160201957Y-93015743D01*
X160196132Y-93013976D01*
X160190073Y-93013379D01*
X160190067Y-93013378D01*
X160006062Y-92995256D01*
X160000000Y-92994659D01*
X159993938Y-92995256D01*
X159809932Y-93013378D01*
X159809924Y-93013379D01*
X159803868Y-93013976D01*
X159798044Y-93015742D01*
X159798037Y-93015744D01*
X159621100Y-93069418D01*
X159621096Y-93069419D01*
X159615273Y-93071186D01*
X159609907Y-93074053D01*
X159609900Y-93074057D01*
X159446838Y-93161215D01*
X159446827Y-93161222D01*
X159441462Y-93164090D01*
X159436754Y-93167953D01*
X159436749Y-93167957D01*
X159293823Y-93285254D01*
X159293818Y-93285258D01*
X159289117Y-93289117D01*
X159285258Y-93293818D01*
X159285254Y-93293823D01*
X159167957Y-93436749D01*
X159167953Y-93436754D01*
X159164090Y-93441462D01*
X159161222Y-93446827D01*
X159161215Y-93446838D01*
X159074057Y-93609900D01*
X159074053Y-93609907D01*
X159071186Y-93615273D01*
X159069419Y-93621096D01*
X159069418Y-93621100D01*
X159015744Y-93798037D01*
X159015742Y-93798044D01*
X159013976Y-93803868D01*
X159013379Y-93809924D01*
X159013378Y-93809932D01*
X158995256Y-93993938D01*
X158994659Y-94000000D01*
X155000000Y-94000000D01*
X155000000Y-88016326D01*
X155000000Y-88000000D01*
X105083952Y-88000000D01*
X105027657Y-87986485D01*
X104983634Y-87948885D01*
X104961479Y-87895398D01*
X104966021Y-87837682D01*
X104996271Y-87788319D01*
X105555524Y-87229067D01*
X106222771Y-86561819D01*
X106263000Y-86534939D01*
X106310453Y-86525500D01*
X136022225Y-86525500D01*
X136033280Y-86526021D01*
X136040667Y-86527673D01*
X136107872Y-86525561D01*
X136111768Y-86525500D01*
X136135448Y-86525500D01*
X136139350Y-86525500D01*
X136143313Y-86524999D01*
X136154963Y-86524080D01*
X136198627Y-86522709D01*
X136217861Y-86517119D01*
X136236917Y-86513174D01*
X136256792Y-86510664D01*
X136297395Y-86494587D01*
X136308450Y-86490802D01*
X136350390Y-86478618D01*
X136367629Y-86468422D01*
X136385103Y-86459862D01*
X136396474Y-86455360D01*
X136396476Y-86455358D01*
X136403732Y-86452486D01*
X136439069Y-86426811D01*
X136448824Y-86420403D01*
X136486420Y-86398170D01*
X136500584Y-86384005D01*
X136515379Y-86371368D01*
X136531587Y-86359594D01*
X136559428Y-86325938D01*
X136567279Y-86317309D01*
X145387306Y-77497282D01*
X145395482Y-77489843D01*
X145401877Y-77485786D01*
X145447933Y-77436740D01*
X145450550Y-77434038D01*
X145470120Y-77414470D01*
X145472565Y-77411316D01*
X145480155Y-77402428D01*
X145510062Y-77370582D01*
X145519709Y-77353032D01*
X145530393Y-77336766D01*
X145542674Y-77320936D01*
X145560018Y-77280851D01*
X145565160Y-77270356D01*
X145586197Y-77232092D01*
X145591179Y-77212689D01*
X145597480Y-77194283D01*
X145605438Y-77175895D01*
X145612269Y-77132756D01*
X145614639Y-77121315D01*
X145623560Y-77086574D01*
X145623559Y-77086574D01*
X145625500Y-77079019D01*
X145625500Y-77058983D01*
X145627025Y-77039597D01*
X145630160Y-77019804D01*
X145626050Y-76976324D01*
X145625500Y-76964655D01*
X145625500Y-75141412D01*
X145634426Y-75095217D01*
X145659919Y-75055673D01*
X145698306Y-75028472D01*
X145825469Y-74970834D01*
X147305974Y-73741886D01*
X148729260Y-71930942D01*
X149335922Y-70875079D01*
X149704050Y-69829465D01*
X149842868Y-68791110D01*
X149785250Y-67750694D01*
X149304397Y-65748894D01*
X148778024Y-64068577D01*
X148772801Y-64021008D01*
X148785981Y-63975001D01*
X148815599Y-63937413D01*
X149517958Y-63334678D01*
X149610378Y-62027295D01*
X149222102Y-60882708D01*
X149199617Y-60857190D01*
X148626250Y-60206477D01*
X148599572Y-60156818D01*
X148597635Y-60100480D01*
X148620839Y-60049106D01*
X148664390Y-60013314D01*
X148719286Y-60000500D01*
X155495574Y-60000500D01*
X155504418Y-60000816D01*
G37*
G04 #@! TD.AperFunction*
M02*
