G04 #@! TF.GenerationSoftware,KiCad,Pcbnew,7.0.8*
G04 #@! TF.CreationDate,2023-11-05T16:12:15+01:00*
G04 #@! TF.ProjectId,Front,46726f6e-742e-46b6-9963-61645f706362,rev?*
G04 #@! TF.SameCoordinates,Original*
G04 #@! TF.FileFunction,Legend,Bot*
G04 #@! TF.FilePolarity,Positive*
%FSLAX46Y46*%
G04 Gerber Fmt 4.6, Leading zero omitted, Abs format (unit mm)*
G04 Created by KiCad (PCBNEW 7.0.8) date 2023-11-05 16:12:15*
%MOMM*%
%LPD*%
G01*
G04 APERTURE LIST*
%ADD10C,0.160000*%
%ADD11C,0.100000*%
%ADD12C,0.120000*%
%ADD13R,7.200000X1.000000*%
G04 APERTURE END LIST*
D10*
X168790927Y-129339299D02*
X168790927Y-130053584D01*
X168790927Y-130053584D02*
X168838546Y-130196441D01*
X168838546Y-130196441D02*
X168933784Y-130291680D01*
X168933784Y-130291680D02*
X169076641Y-130339299D01*
X169076641Y-130339299D02*
X169171879Y-130339299D01*
X167838546Y-130339299D02*
X168314736Y-130339299D01*
X168314736Y-130339299D02*
X168314736Y-129339299D01*
X166933784Y-130244060D02*
X166981403Y-130291680D01*
X166981403Y-130291680D02*
X167124260Y-130339299D01*
X167124260Y-130339299D02*
X167219498Y-130339299D01*
X167219498Y-130339299D02*
X167362355Y-130291680D01*
X167362355Y-130291680D02*
X167457593Y-130196441D01*
X167457593Y-130196441D02*
X167505212Y-130101203D01*
X167505212Y-130101203D02*
X167552831Y-129910727D01*
X167552831Y-129910727D02*
X167552831Y-129767870D01*
X167552831Y-129767870D02*
X167505212Y-129577394D01*
X167505212Y-129577394D02*
X167457593Y-129482156D01*
X167457593Y-129482156D02*
X167362355Y-129386918D01*
X167362355Y-129386918D02*
X167219498Y-129339299D01*
X167219498Y-129339299D02*
X167124260Y-129339299D01*
X167124260Y-129339299D02*
X166981403Y-129386918D01*
X166981403Y-129386918D02*
X166933784Y-129434537D01*
X166219498Y-129339299D02*
X166219498Y-130053584D01*
X166219498Y-130053584D02*
X166267117Y-130196441D01*
X166267117Y-130196441D02*
X166362355Y-130291680D01*
X166362355Y-130291680D02*
X166505212Y-130339299D01*
X166505212Y-130339299D02*
X166600450Y-130339299D01*
X165267117Y-130339299D02*
X165743307Y-130339299D01*
X165743307Y-130339299D02*
X165743307Y-129339299D01*
X164362355Y-130244060D02*
X164409974Y-130291680D01*
X164409974Y-130291680D02*
X164552831Y-130339299D01*
X164552831Y-130339299D02*
X164648069Y-130339299D01*
X164648069Y-130339299D02*
X164790926Y-130291680D01*
X164790926Y-130291680D02*
X164886164Y-130196441D01*
X164886164Y-130196441D02*
X164933783Y-130101203D01*
X164933783Y-130101203D02*
X164981402Y-129910727D01*
X164981402Y-129910727D02*
X164981402Y-129767870D01*
X164981402Y-129767870D02*
X164933783Y-129577394D01*
X164933783Y-129577394D02*
X164886164Y-129482156D01*
X164886164Y-129482156D02*
X164790926Y-129386918D01*
X164790926Y-129386918D02*
X164648069Y-129339299D01*
X164648069Y-129339299D02*
X164552831Y-129339299D01*
X164552831Y-129339299D02*
X164409974Y-129386918D01*
X164409974Y-129386918D02*
X164362355Y-129434537D01*
X163648069Y-129339299D02*
X163648069Y-130053584D01*
X163648069Y-130053584D02*
X163695688Y-130196441D01*
X163695688Y-130196441D02*
X163790926Y-130291680D01*
X163790926Y-130291680D02*
X163933783Y-130339299D01*
X163933783Y-130339299D02*
X164029021Y-130339299D01*
X162695688Y-130339299D02*
X163171878Y-130339299D01*
X163171878Y-130339299D02*
X163171878Y-129339299D01*
X161790926Y-130244060D02*
X161838545Y-130291680D01*
X161838545Y-130291680D02*
X161981402Y-130339299D01*
X161981402Y-130339299D02*
X162076640Y-130339299D01*
X162076640Y-130339299D02*
X162219497Y-130291680D01*
X162219497Y-130291680D02*
X162314735Y-130196441D01*
X162314735Y-130196441D02*
X162362354Y-130101203D01*
X162362354Y-130101203D02*
X162409973Y-129910727D01*
X162409973Y-129910727D02*
X162409973Y-129767870D01*
X162409973Y-129767870D02*
X162362354Y-129577394D01*
X162362354Y-129577394D02*
X162314735Y-129482156D01*
X162314735Y-129482156D02*
X162219497Y-129386918D01*
X162219497Y-129386918D02*
X162076640Y-129339299D01*
X162076640Y-129339299D02*
X161981402Y-129339299D01*
X161981402Y-129339299D02*
X161838545Y-129386918D01*
X161838545Y-129386918D02*
X161790926Y-129434537D01*
X161076640Y-129339299D02*
X161076640Y-130053584D01*
X161076640Y-130053584D02*
X161124259Y-130196441D01*
X161124259Y-130196441D02*
X161219497Y-130291680D01*
X161219497Y-130291680D02*
X161362354Y-130339299D01*
X161362354Y-130339299D02*
X161457592Y-130339299D01*
X160124259Y-130339299D02*
X160600449Y-130339299D01*
X160600449Y-130339299D02*
X160600449Y-129339299D01*
X159219497Y-130244060D02*
X159267116Y-130291680D01*
X159267116Y-130291680D02*
X159409973Y-130339299D01*
X159409973Y-130339299D02*
X159505211Y-130339299D01*
X159505211Y-130339299D02*
X159648068Y-130291680D01*
X159648068Y-130291680D02*
X159743306Y-130196441D01*
X159743306Y-130196441D02*
X159790925Y-130101203D01*
X159790925Y-130101203D02*
X159838544Y-129910727D01*
X159838544Y-129910727D02*
X159838544Y-129767870D01*
X159838544Y-129767870D02*
X159790925Y-129577394D01*
X159790925Y-129577394D02*
X159743306Y-129482156D01*
X159743306Y-129482156D02*
X159648068Y-129386918D01*
X159648068Y-129386918D02*
X159505211Y-129339299D01*
X159505211Y-129339299D02*
X159409973Y-129339299D01*
X159409973Y-129339299D02*
X159267116Y-129386918D01*
X159267116Y-129386918D02*
X159219497Y-129434537D01*
D11*
X100333333Y-93157419D02*
X100333333Y-93871704D01*
X100333333Y-93871704D02*
X100380952Y-94014561D01*
X100380952Y-94014561D02*
X100476190Y-94109800D01*
X100476190Y-94109800D02*
X100619047Y-94157419D01*
X100619047Y-94157419D02*
X100714285Y-94157419D01*
X99904761Y-93252657D02*
X99857142Y-93205038D01*
X99857142Y-93205038D02*
X99761904Y-93157419D01*
X99761904Y-93157419D02*
X99523809Y-93157419D01*
X99523809Y-93157419D02*
X99428571Y-93205038D01*
X99428571Y-93205038D02*
X99380952Y-93252657D01*
X99380952Y-93252657D02*
X99333333Y-93347895D01*
X99333333Y-93347895D02*
X99333333Y-93443133D01*
X99333333Y-93443133D02*
X99380952Y-93585990D01*
X99380952Y-93585990D02*
X99952380Y-94157419D01*
X99952380Y-94157419D02*
X99333333Y-94157419D01*
X160333333Y-93157419D02*
X160333333Y-93871704D01*
X160333333Y-93871704D02*
X160380952Y-94014561D01*
X160380952Y-94014561D02*
X160476190Y-94109800D01*
X160476190Y-94109800D02*
X160619047Y-94157419D01*
X160619047Y-94157419D02*
X160714285Y-94157419D01*
X159333333Y-94157419D02*
X159904761Y-94157419D01*
X159619047Y-94157419D02*
X159619047Y-93157419D01*
X159619047Y-93157419D02*
X159714285Y-93300276D01*
X159714285Y-93300276D02*
X159809523Y-93395514D01*
X159809523Y-93395514D02*
X159904761Y-93443133D01*
D12*
X102540000Y-95430000D02*
X101330000Y-95430000D01*
X101330000Y-105240000D02*
X98670000Y-105240000D01*
X101330000Y-104600000D02*
X101330000Y-105240000D01*
X101330000Y-102000000D02*
X101330000Y-103100000D01*
X101330000Y-99450000D02*
X101330000Y-100550000D01*
X101330000Y-96900000D02*
X101330000Y-98000000D01*
X101330000Y-94760000D02*
X101330000Y-95430000D01*
X101330000Y-94760000D02*
X98670000Y-94760000D01*
X98700000Y-102000000D02*
X98700000Y-103100000D01*
X98700000Y-99450000D02*
X98700000Y-100550000D01*
X98700000Y-96900000D02*
X98700000Y-98000000D01*
X98670000Y-104570000D02*
X98670000Y-105240000D01*
X98670000Y-94760000D02*
X98670000Y-95400000D01*
X162540000Y-95430000D02*
X161330000Y-95430000D01*
X161330000Y-105240000D02*
X158670000Y-105240000D01*
X161330000Y-104600000D02*
X161330000Y-105240000D01*
X161330000Y-102000000D02*
X161330000Y-103100000D01*
X161330000Y-99450000D02*
X161330000Y-100550000D01*
X161330000Y-96900000D02*
X161330000Y-98000000D01*
X161330000Y-94760000D02*
X161330000Y-95430000D01*
X161330000Y-94760000D02*
X158670000Y-94760000D01*
X158700000Y-102000000D02*
X158700000Y-103100000D01*
X158700000Y-99450000D02*
X158700000Y-100550000D01*
X158700000Y-96900000D02*
X158700000Y-98000000D01*
X158670000Y-104570000D02*
X158670000Y-105240000D01*
X158670000Y-94760000D02*
X158670000Y-95400000D01*
%LPC*%
D13*
X100000000Y-96190000D03*
X100000000Y-98730000D03*
X100000000Y-101270000D03*
X100000000Y-103810000D03*
X160000000Y-96190000D03*
X160000000Y-98730000D03*
X160000000Y-101270000D03*
X160000000Y-103810000D03*
%LPD*%
M02*
