G04 #@! TF.GenerationSoftware,KiCad,Pcbnew,7.0.8*
G04 #@! TF.CreationDate,2023-11-05T16:12:15+01:00*
G04 #@! TF.ProjectId,Front,46726f6e-742e-46b6-9963-61645f706362,rev?*
G04 #@! TF.SameCoordinates,Original*
G04 #@! TF.FileFunction,Profile,NP*
%FSLAX46Y46*%
G04 Gerber Fmt 4.6, Leading zero omitted, Abs format (unit mm)*
G04 Created by KiCad (PCBNEW 7.0.8) date 2023-11-05 16:12:15*
%MOMM*%
%LPD*%
G01*
G04 APERTURE LIST*
%ADD10C,0.200000*%
G04 #@! TA.AperFunction,Profile*
%ADD11C,0.200000*%
G04 #@! TD*
G04 APERTURE END LIST*
D10*
X170015910Y-131956123D02*
X169807643Y-131985979D01*
X169596513Y-131998746D01*
X169500000Y-132000000D01*
D11*
X105000000Y-126500000D02*
X105000000Y-84008475D01*
D10*
X90500000Y-68000000D02*
X90291164Y-68006165D01*
X90078046Y-68027911D01*
X89867256Y-68070609D01*
X89771746Y-68099325D01*
X94400652Y-127828226D02*
X94212884Y-127905765D01*
X94015910Y-127956123D01*
X154710687Y-83019653D02*
X154557983Y-82882206D01*
X154456352Y-82812393D01*
X154601164Y-127693313D02*
X154742625Y-127539455D01*
X154828226Y-127400652D01*
X94956123Y-76484090D02*
X94985979Y-76692356D01*
X94998746Y-76903486D01*
X95000000Y-77000000D01*
X170400652Y-75328226D02*
X170212884Y-75405765D01*
X170015910Y-75456123D01*
X165171774Y-76099348D02*
X165094234Y-76287115D01*
X165043877Y-76484090D01*
X170693313Y-75101164D02*
X170539455Y-75242625D01*
X170400652Y-75328226D01*
X94900675Y-127228254D02*
X94821592Y-127413314D01*
X94710770Y-127580497D01*
X94693313Y-127601164D01*
X105043877Y-127015910D02*
X105014020Y-126807643D01*
X105001253Y-126596513D01*
X105000000Y-126500000D01*
X106500000Y-128000000D02*
X106291164Y-127993834D01*
X106078046Y-127972088D01*
X105867256Y-127929390D01*
X105771746Y-127900675D01*
X169500000Y-68000000D02*
X169708835Y-68006165D01*
X169921953Y-68027911D01*
X170132743Y-68070609D01*
X170228254Y-68099325D01*
D11*
X166500000Y-75500000D02*
X169500000Y-75500000D01*
X89000000Y-129500000D02*
X89000000Y-130500000D01*
X89000000Y-69500000D02*
X89000000Y-74000000D01*
D10*
X89000000Y-130500000D02*
X89006165Y-130708835D01*
X89027911Y-130921953D01*
X89070609Y-131132743D01*
X89099325Y-131228254D01*
X89398836Y-68306687D02*
X89257374Y-68460544D01*
X89171774Y-68599348D01*
X94601164Y-75806687D02*
X94742625Y-75960544D01*
X94828226Y-76099348D01*
D11*
X90500000Y-132000000D02*
X169500000Y-132000000D01*
D10*
X165771746Y-75599325D02*
X165586685Y-75678407D01*
X165419502Y-75789229D01*
X165398836Y-75806687D01*
X105398836Y-127693313D02*
X105257374Y-127539455D01*
X105171774Y-127400652D01*
X89099325Y-74728254D02*
X89178407Y-74913314D01*
X89289229Y-75080497D01*
X89306687Y-75101164D01*
X171000000Y-74000000D02*
X170993834Y-74208835D01*
X170972088Y-74421953D01*
X170929390Y-74632743D01*
X170900675Y-74728254D01*
X170828226Y-128599348D02*
X170905765Y-128787115D01*
X170956123Y-128984090D01*
X170900675Y-131228254D02*
X170821592Y-131413314D01*
X170710770Y-131580497D01*
X170693313Y-131601164D01*
X170601164Y-68306687D02*
X170742625Y-68460544D01*
X170828226Y-68599348D01*
D11*
X155000000Y-84008475D02*
X155000000Y-126500000D01*
D10*
X89000000Y-74000000D02*
X89006165Y-74208835D01*
X89027911Y-74421953D01*
X89070609Y-74632743D01*
X89099325Y-74728254D01*
X93500000Y-75500000D02*
X93708835Y-75506165D01*
X93921953Y-75527911D01*
X94132743Y-75570609D01*
X94228254Y-75599325D01*
X169500000Y-128000000D02*
X169708835Y-128006165D01*
X169921953Y-128027911D01*
X170132743Y-128070609D01*
X170228254Y-128099325D01*
X89984090Y-131956123D02*
X90192356Y-131985979D01*
X90403486Y-131998746D01*
X90500000Y-132000000D01*
X89043877Y-68984090D02*
X89014020Y-69192356D01*
X89001253Y-69403486D01*
X89000000Y-69500000D01*
X165984090Y-127956123D02*
X166192356Y-127985979D01*
X166403486Y-127998746D01*
X166500000Y-128000000D01*
X90500000Y-128000000D02*
X90291164Y-128006165D01*
X90078046Y-128027911D01*
X89867256Y-128070609D01*
X89771746Y-128099325D01*
D11*
X169500000Y-128000000D02*
X166500000Y-128000000D01*
D10*
X89599348Y-75328226D02*
X89787115Y-75405765D01*
X89984090Y-75456123D01*
D11*
X90500000Y-75500000D02*
X93500000Y-75500000D01*
D10*
X171000000Y-130500000D02*
X170993834Y-130708835D01*
X170972088Y-130921953D01*
X170929390Y-131132743D01*
X170900675Y-131228254D01*
X89771746Y-68099325D02*
X89586685Y-68178407D01*
X89419502Y-68289229D01*
X89398836Y-68306687D01*
X89306687Y-131601164D02*
X89460544Y-131742625D01*
X89599348Y-131828226D01*
X170956123Y-128984090D02*
X170985979Y-129192356D01*
X170998746Y-129403486D01*
X171000000Y-129500000D01*
D11*
X169500000Y-68000000D02*
X90500000Y-68000000D01*
D10*
X153500000Y-128000000D02*
X153708835Y-127993834D01*
X153921953Y-127972088D01*
X154132743Y-127929390D01*
X154228254Y-127900675D01*
X170601164Y-128306687D02*
X170742625Y-128460544D01*
X170828226Y-128599348D01*
X165398836Y-75806687D02*
X165257374Y-75960544D01*
X165171774Y-76099348D01*
X170228254Y-68099325D02*
X170413314Y-68178407D01*
X170580497Y-68289229D01*
X170601164Y-68306687D01*
X94228254Y-75599325D02*
X94413314Y-75678407D01*
X94580497Y-75789229D01*
X94601164Y-75806687D01*
X89099325Y-131228254D02*
X89178407Y-131413314D01*
X89289229Y-131580497D01*
X89306687Y-131601164D01*
X105091027Y-83350727D02*
X105179606Y-83164878D01*
X105289313Y-83019653D01*
X170956123Y-68984090D02*
X170985979Y-69192356D01*
X170998746Y-69403486D01*
X171000000Y-69500000D01*
X165000000Y-126500000D02*
X165006165Y-126708835D01*
X165027911Y-126921953D01*
X165070609Y-127132743D01*
X165099325Y-127228254D01*
X165099325Y-127228254D02*
X165178407Y-127413314D01*
X165289229Y-127580497D01*
X165306687Y-127601164D01*
X154908973Y-83350727D02*
X154820393Y-83164878D01*
X154710687Y-83019653D01*
D11*
X93500000Y-128000000D02*
X90500000Y-128000000D01*
X154055118Y-82614975D02*
G75*
G03*
X105944882Y-82614975I-24055118J-60385019D01*
G01*
D10*
X155000000Y-84008475D02*
X154993971Y-83804981D01*
X154970861Y-83595496D01*
X154921128Y-83386287D01*
X154908973Y-83350727D01*
X154228254Y-127900675D02*
X154413314Y-127821592D01*
X154580497Y-127710770D01*
X154601164Y-127693313D01*
X89171774Y-68599348D02*
X89094234Y-68787115D01*
X89043877Y-68984090D01*
D11*
X171000000Y-130500000D02*
X171000000Y-129500000D01*
D10*
X94693313Y-127601164D02*
X94539455Y-127742625D01*
X94400652Y-127828226D01*
X170015910Y-75456123D02*
X169807643Y-75485979D01*
X169596513Y-75498746D01*
X169500000Y-75500000D01*
X89171774Y-128599348D02*
X89094234Y-128787115D01*
X89043877Y-128984090D01*
X94828226Y-76099348D02*
X94905765Y-76287115D01*
X94956123Y-76484090D01*
X89771746Y-128099325D02*
X89586685Y-128178407D01*
X89419502Y-128289229D01*
X89398836Y-128306687D01*
X89306687Y-75101164D02*
X89460544Y-75242625D01*
X89599348Y-75328226D01*
X89398836Y-128306687D02*
X89257374Y-128460544D01*
X89171774Y-128599348D01*
X165043877Y-76484090D02*
X165014020Y-76692356D01*
X165001253Y-76903486D01*
X165000000Y-77000000D01*
X105171774Y-127400652D02*
X105094234Y-127212884D01*
X105043877Y-127015910D01*
X105289313Y-83019653D02*
X105442016Y-82882206D01*
X105543648Y-82812393D01*
X105771746Y-127900675D02*
X105586685Y-127821592D01*
X105419502Y-127710770D01*
X105398836Y-127693313D01*
X89599348Y-131828226D02*
X89787115Y-131905765D01*
X89984090Y-131956123D01*
X170693313Y-131601164D02*
X170539455Y-131742625D01*
X170400652Y-131828226D01*
X166500000Y-75500000D02*
X166291164Y-75506165D01*
X166078046Y-75527911D01*
X165867256Y-75570609D01*
X165771746Y-75599325D01*
X105000000Y-84008475D02*
X105006028Y-83804981D01*
X105029138Y-83595496D01*
X105078871Y-83386287D01*
X105091027Y-83350727D01*
X154456352Y-82812393D02*
X154272427Y-82710691D01*
X154080557Y-82625215D01*
X154055118Y-82614975D01*
X170828226Y-68599348D02*
X170905765Y-68787115D01*
X170956123Y-68984090D01*
X170228254Y-128099325D02*
X170413314Y-128178407D01*
X170580497Y-128289229D01*
X170601164Y-128306687D01*
X95000000Y-126500000D02*
X94993834Y-126708835D01*
X94972088Y-126921953D01*
X94929390Y-127132743D01*
X94900675Y-127228254D01*
X94015910Y-127956123D02*
X93807643Y-127985979D01*
X93596513Y-127998746D01*
X93500000Y-128000000D01*
D11*
X153500000Y-128000000D02*
X106500000Y-128000000D01*
X165000000Y-126500000D02*
X165000000Y-77000000D01*
X95000000Y-77000000D02*
X95000000Y-126500000D01*
D10*
X89043877Y-128984090D02*
X89014020Y-129192356D01*
X89001253Y-129403486D01*
X89000000Y-129500000D01*
X170900675Y-74728254D02*
X170821592Y-74913314D01*
X170710770Y-75080497D01*
X170693313Y-75101164D01*
X170400652Y-131828226D02*
X170212884Y-131905765D01*
X170015910Y-131956123D01*
X154828226Y-127400652D02*
X154905765Y-127212884D01*
X154956123Y-127015910D01*
X165306687Y-127601164D02*
X165460544Y-127742625D01*
X165599348Y-127828226D01*
X165599348Y-127828226D02*
X165787115Y-127905765D01*
X165984090Y-127956123D01*
X89984090Y-75456123D02*
X90192356Y-75485979D01*
X90403486Y-75498746D01*
X90500000Y-75500000D01*
X154956123Y-127015910D02*
X154985979Y-126807643D01*
X154998746Y-126596513D01*
X155000000Y-126500000D01*
D11*
X171000000Y-74000000D02*
X171000000Y-69500000D01*
D10*
X105543648Y-82812393D02*
X105727572Y-82710691D01*
X105919442Y-82625215D01*
X105944882Y-82614975D01*
M02*
