0
SECTION
2
HEADER
9
$INSUNITS
70
4
9
$ACADVER
1
AC1014
9
$HANDSEED
5
FFFF
0
ENDSEC
0
SECTION
2
TABLES
0
TABLE
2
VPORT
5
8
100
AcDbSymbolTable
0
ENDTAB
0
TABLE
2
LTYPE
5
5
100
AcDbSymbolTable
0
LTYPE
5
14
100
AcDbSymbolTableRecord
100
AcDbLinetypeTableRecord
2
BYBLOCK
70
0
0
LTYPE
5
15
100
AcDbSymbolTableRecord
100
AcDbLinetypeTableRecord
2
BYLAYER
70
0
0
ENDTAB
0
TABLE
2
LAYER
5
2
100
AcDbSymbolTable
70
2
0
LAYER
5
50
100
AcDbSymbolTableRecord
100
AcDbLayerTableRecord
2
0
70
0
6
CONTINUOUS
0
ENDTAB
0
TABLE
2
STYLE
5
3
100
AcDbSymbolTable
70
1
0
STYLE
5
11
100
AcDbSymbolTableRecord
100
AcDbTextStyleTableRecord
2
STANDARD
70
0
0
ENDTAB
0
TABLE
2
VIEW
5
6
100
AcDbSymbolTable
70
0
0
ENDTAB
0
TABLE
2
UCS
5
7
100
AcDbSymbolTable
70
0
0
ENDTAB
0
TABLE
2
APPID
5
9
100
AcDbSymbolTable
70
2
0
APPID
5
12
100
AcDbSymbolTableRecord
100
AcDbRegAppTableRecord
2
ACAD
70
0
0
ENDTAB
0
TABLE
2
DIMSTYLE
5
A
100
AcDbSymbolTable
70
1
0
ENDTAB
0
TABLE
2
BLOCK_RECORD
5
1
100
AcDbSymbolTable
70
1
0
BLOCK_RECORD
5
1F
100
AcDbSymbolTableRecord
100
AcDbBlockTableRecord
2
*MODEL_SPACE
0
BLOCK_RECORD
5
1B
100
AcDbSymbolTableRecord
100
AcDbBlockTableRecord
2
*PAPER_SPACE
0
ENDTAB
0
ENDSEC
0
SECTION
2
BLOCKS
0
BLOCK
5
20
100
AcDbEntity
100
AcDbBlockBegin
2
*MODEL_SPACE
0
ENDBLK
5
21
100
AcDbEntity
100
AcDbBlockEnd
0
BLOCK
5
1C
100
AcDbEntity
100
AcDbBlockBegin
2
*PAPER_SPACE
0
ENDBLK
5
1D
100
AcDbEntity
100
AcDbBlockEnd
0
ENDSEC
0
SECTION
2
ENTITIES
0
CIRCLE
5
100
100
AcDbEntity
8
0
100
AcDbCircle
10
-53.786513090495845
20
49.739640715031605
30
0
40
1.0000000000000053
210
0
220
-0
230
1
0
CIRCLE
5
101
100
AcDbEntity
8
0
100
AcDbCircle
10
-113.7865130904959
20
49.73964071503157
30
0
40
0.99999999999999645
210
0
220
-0
230
1
0
CIRCLE
5
102
100
AcDbEntity
8
0
100
AcDbCircle
10
-113.78651309049587
20
17.739640715031598
30
0
40
0.99999999999999645
210
0
220
-0
230
1
0
CIRCLE
5
103
100
AcDbEntity
8
0
100
AcDbCircle
10
-53.786513090495802
20
17.739640715031644
30
0
40
1.0000000000000053
210
0
220
-0
230
1
0
LWPOLYLINE
5
104
100
AcDbEntity
8
0
100
AcDbPolyline
90
27
70
1
43
0.0
10
-55.597513090495809
20
6.5696407150316602
10
-55.597513090495809
20
12.909640715031653
10
-55.579046090495801
20
13.144292715031655
10
-55.524098090495819
20
13.373165715031654
10
-55.43402309049582
20
13.590626715031656
10
-55.311038090495821
20
13.791318715031656
10
-55.158173090495808
20
13.970300715031653
10
-54.979191090495817
20
14.123165715031655
10
-54.877262836252669
20
14.185627827861726
10
-54.875062090495803
20
14.19336271503165
10
-54.808622090495803
20
14.28134371503165
10
-54.714885090495791
20
14.33938271503165
10
-54.606513090495802
20
14.359640715031647
10
-54.46350840251813
20
14.359640715031647
10
-54.332165090495806
20
14.391173715031654
10
-54.097513090495816
20
14.409640715031655
10
-53.537513090495814
20
14.409640715031655
42
0.39337685650972187
10
-51.216512983682811
20
16.90322429511524
10
-51.216513078091836
20
52.984151009768006
42
0.31621277245645718
10
-52.86927740525033
20
55.336212166263067
42
0.17461356119600213
10
-114.70374876948667
20
55.3362120853512
42
0.31621277245645391
10
-116.35651309049581
20
52.984150924545624
10
-116.35651309049581
20
6.2396407150316247
42
0.41421356237309492
10
-113.85651309049581
20
3.7396407150316255
10
-60.256993820466832
20
3.7396407765927249
10
-58.097513055399517
20
3.7396407393831637
42
0.41421356237309631
10
-55.59751308640331
20
6.2396407703869539
0
LWPOLYLINE
5
105
100
AcDbEntity
8
0
100
AcDbPolyline
90
4
70
1
43
0.0
10
-55.35651300923945
20
26.669640789420246
10
-55.356513046239257
20
40.80964071503162
10
-52.216513046238177
20
40.80964071503162
10
-52.216513009238795
20
26.669640797636522
0
CIRCLE
5
106
100
AcDbEntity
8
0
100
AcDbCircle
10
-53.786513090495845
20
49.739640715031605
30
0
40
0.90000000000000524
210
0
220
-0
230
1
0
CIRCLE
5
107
100
AcDbEntity
8
0
100
AcDbCircle
10
-53.786513090495802
20
17.739640715031644
30
0
40
0.90000000000000524
210
0
220
-0
230
1
0
CIRCLE
5
108
100
AcDbEntity
8
0
100
AcDbCircle
10
-113.78651309049587
20
17.739640715031598
30
0
40
0.89999999999999636
210
0
220
-0
230
1
0
CIRCLE
5
109
100
AcDbEntity
8
0
100
AcDbCircle
10
-113.7865130904959
20
49.73964071503157
30
0
40
0.89999999999999636
210
0
220
-0
230
1
0
LWPOLYLINE
5
110
100
AcDbEntity
8
0
100
AcDbPolyline
90
4
70
1
43
0.0
10
-112.21651309049513
20
26.669640715029029
10
-115.35651309049582
20
26.669640715028976
10
-115.35651309049582
20
40.80964071503162
10
-112.21651309049474
20
40.80964071503162
0
ENDSEC
0
SECTION
2
OBJECTS
0
DICTIONARY
5
C
100
AcDbDictionary
3
ACAD_GROUP
350
D
3
ACAD_MLINESTYLE
350
17
0
DICTIONARY
5
D
100
AcDbDictionary
0
DICTIONARY
5
1A
330
C
100
AcDbDictionary
0
DICTIONARY
5
17
100
AcDbDictionary
0
ENDSEC
0
EOF
