0
SECTION
2
HEADER
9
$INSUNITS
70
4
9
$ACADVER
1
AC1014
9
$HANDSEED
5
FFFF
0
ENDSEC
0
SECTION
2
TABLES
0
TABLE
2
VPORT
5
8
100
AcDbSymbolTable
0
ENDTAB
0
TABLE
2
LTYPE
5
5
100
AcDbSymbolTable
0
LTYPE
5
14
100
AcDbSymbolTableRecord
100
AcDbLinetypeTableRecord
2
BYBLOCK
70
0
0
LTYPE
5
15
100
AcDbSymbolTableRecord
100
AcDbLinetypeTableRecord
2
BYLAYER
70
0
0
ENDTAB
0
TABLE
2
LAYER
5
2
100
AcDbSymbolTable
70
2
0
LAYER
5
50
100
AcDbSymbolTableRecord
100
AcDbLayerTableRecord
2
0
70
0
6
CONTINUOUS
0
ENDTAB
0
TABLE
2
STYLE
5
3
100
AcDbSymbolTable
70
1
0
STYLE
5
11
100
AcDbSymbolTableRecord
100
AcDbTextStyleTableRecord
2
STANDARD
70
0
0
ENDTAB
0
TABLE
2
VIEW
5
6
100
AcDbSymbolTable
70
0
0
ENDTAB
0
TABLE
2
UCS
5
7
100
AcDbSymbolTable
70
0
0
ENDTAB
0
TABLE
2
APPID
5
9
100
AcDbSymbolTable
70
2
0
APPID
5
12
100
AcDbSymbolTableRecord
100
AcDbRegAppTableRecord
2
ACAD
70
0
0
ENDTAB
0
TABLE
2
DIMSTYLE
5
A
100
AcDbSymbolTable
70
1
0
ENDTAB
0
TABLE
2
BLOCK_RECORD
5
1
100
AcDbSymbolTable
70
1
0
BLOCK_RECORD
5
1F
100
AcDbSymbolTableRecord
100
AcDbBlockTableRecord
2
*MODEL_SPACE
0
BLOCK_RECORD
5
1B
100
AcDbSymbolTableRecord
100
AcDbBlockTableRecord
2
*PAPER_SPACE
0
ENDTAB
0
ENDSEC
0
SECTION
2
BLOCKS
0
BLOCK
5
20
100
AcDbEntity
100
AcDbBlockBegin
2
*MODEL_SPACE
0
ENDBLK
5
21
100
AcDbEntity
100
AcDbBlockEnd
0
BLOCK
5
1C
100
AcDbEntity
100
AcDbBlockBegin
2
*PAPER_SPACE
0
ENDBLK
5
1D
100
AcDbEntity
100
AcDbBlockEnd
0
ENDSEC
0
SECTION
2
ENTITIES
0
CIRCLE
5
100
100
AcDbEntity
8
0
100
AcDbCircle
10
-38.004699706665534
20
56.25
30
0
40
1.4999999999999991
210
0
220
0
230
1
0
CIRCLE
5
101
100
AcDbEntity
8
0
100
AcDbCircle
10
38.004699706665626
20
56.249999999999574
30
0
40
1.4999999999999991
210
0
220
0
230
1
0
LWPOLYLINE
5
102
100
AcDbEntity
8
0
100
AcDbPolyline
90
12
70
1
43
0.0
10
-41
20
60
10
-41
20
52.5
10
-35
20
52.5
10
-35
20
0
10
-41
20
-3.6739403974420663e-16
10
-41
20
-3.3753953876031186
10
41
20
-3.3753953876031186
10
41
20
-3.6739403974420663e-16
10
35
20
0
10
35
20
52.5
10
41
20
52.5
10
41
20
60
0
LWPOLYLINE
5
103
100
AcDbEntity
8
0
100
AcDbPolyline
90
4
70
1
43
0.0
10
-25
20
0
10
-24.999999999999982
20
43.418966447615361
42
-0.26324134209538519
10
25
20
43.418966447615389
10
25
20
0
0
LWPOLYLINE
5
104
100
AcDbEntity
8
0
100
AcDbPolyline
90
68
70
1
43
0.0
10
-25.604391502393216
20
43.071574840926104
10
-28.37786032368782
20
47.821087520898161
42
-0.27059518904889474
10
28.377860323691998
20
47.821087520905337
10
25.604391502393216
20
43.071574840926104
10
25.170449697787348
20
43.32211125862792
10
27.64905353943189
20
47.664521073026506
42
0.013896244662104557
10
24.915380585274754
20
49.125699709071
10
22.681837294303705
20
44.652302301355235
42
0.0024671164581592602
10
22.232438726707674
20
44.873921149430231
10
24.421728497004803
20
49.369141978452149
42
0.013896244662105556
10
21.598342891321526
20
50.648401353381075
10
19.662155976740966
20
46.03850111239894
42
0.0024671164581564473
10
19.199225039814149
20
46.230253384916125
10
21.089825863861567
20
50.85903600285264
42
0.013896244662103558
10
18.188817777269733
20
51.950898131627071
10
16.558278288696723
20
47.224235357935257
42
0.0024671164581592602
10
16.083797323781468
20
47.385299942225352
10
17.667613358600313
20
52.127823191282843
42
0.013896244662104557
10
14.70140535309757
20
53.027612552641656
10
13.383495510947153
20
48.204427541887547
42
0.0024671164581648855
10
12.899496318378871
20
48.334114734673541
10
14.169745420556179
20
53.170070402214108
42
0.013896244662104058
10
11.151039254202626
20
53.873933959973797
10
10.151402550748097
20
48.974880330842296
42
0.0024671164581592602
10
9.6599576893742842
20
49.072634791654721
10
10.611200457242337
20
53.981314573080567
42
0.013896244662103558
10
7.5529226932825004
20
54.486238275427674
10
6.8758397263550632
20
49.53229452767512
42
0.0024671164581620726
10
6.3790536385201113
20
49.597697656905254
10
7.0072167045094433
20
54.558081831798063
42
0.013896244662104058
10
3.9224633578439461
20
54.86190351792186
10
3.5708335006556586
20
49.874283199219391
42
0.0024671164581592602
10
3.0708335006556631
20
49.907054930627012
10
3.3732269740803655
20
54.897902372417853
42
0.013898886331089832
10
0.27461819188180137
20
54.999323935568455
10
0.25000000000000888
20
49.999384541472921
42
0.0024618341083496535
10
-0.25000000000000888
20
49.999384541472914
10
-0.27461819188180142
20
54.999323935568455
42
0.013898886331090331
10
-3.3732269740803651
20
54.897902372417846
10
-3.0708335006556631
20
49.907054930627012
42
0.0024671164581620726
10
-3.5708335006556586
20
49.874283199219391
10
-3.922463357843947
20
54.86190351792186
42
0.013896244662103558
10
-7.0072167045094425
20
54.558081831798056
10
-6.3790536385201113
20
49.597697656905254
42
0.0024671164581620726
10
-6.8758397263550632
20
49.532294527675106
10
-7.5529226932824987
20
54.486238275427674
42
0.013896244662103058
10
-10.611200457242333
20
53.981314573080553
10
-9.6599576893742842
20
49.072634791654728
42
0.0024671164581620726
10
-10.151402550748097
20
48.974880330842296
10
-11.151039254202628
20
53.873933959973812
42
0.013896244662103558
10
-14.169745420556179
20
53.170070402214108
10
-12.899496318378873
20
48.334114734673541
42
0.0024671164581620726
10
-13.383495510947155
20
48.204427541887547
10
-14.701405353097572
20
53.027612552641664
42
0.013896244662103558
10
-17.667613358600313
20
52.127823191282836
10
-16.083797323781468
20
47.385299942225352
42
0.0024671164581592602
10
-16.558278288696723
20
47.224235357935257
10
-18.188817777269733
20
51.950898131627085
42
0.013896244662103558
10
-21.089825863861567
20
50.85903600285264
10
-19.199225039814149
20
46.230253384916125
42
0.0024671164581592602
10
-19.662155976740966
20
46.038501112398947
10
-21.598342891321529
20
50.648401353381082
42
0.013896244662104058
10
-24.4217284970048
20
49.369141978452134
10
-22.232438726707674
20
44.873921149430231
42
0.0024671164581592602
10
-22.681837294303705
20
44.652302301355235
10
-24.915380585274754
20
49.125699709071
42
0.013896244662103058
10
-27.649053539431886
20
47.664521073026492
10
-25.170449697787348
20
43.32211125862792
0
LWPOLYLINE
5
105
100
AcDbEntity
8
0
100
AcDbPolyline
90
4
70
1
43
0.0
10
26.75
20
4
10
26.75
20
7.0000000000000009
10
33.25
20
7.0000000000000009
10
33.25
20
4
0
LWPOLYLINE
5
106
100
AcDbEntity
8
0
100
AcDbPolyline
90
16
70
1
43
0.0
10
26.25
20
4
10
26.25
20
7.0000000000000009
10
25
20
7.0000000000000009
10
25
20
7.5000000000000009
10
35
20
7.5000000000000009
10
35
20
7.0000000000000009
10
33.75
20
7.0000000000000009
10
33.75
20
4
10
35
20
4
10
35
20
3.5000000000000004
10
30.25
20
3.5000000000000009
10
30.25
20
0.50000000000000022
10
29.75
20
0.49999999999999989
10
29.75
20
3.5000000000000004
10
25
20
3.5000000000000004
10
25
20
4
0
LWPOLYLINE
5
107
100
AcDbEntity
8
0
100
AcDbPolyline
90
4
70
1
43
0.0
10
26.75
20
18
10
26.75
20
21
10
33.25
20
21
10
33.25
20
18
0
LWPOLYLINE
5
108
100
AcDbEntity
8
0
100
AcDbPolyline
90
16
70
1
43
0.0
10
26.25
20
18
10
26.25
20
20.999999999999996
10
25
20
21
10
25
20
21.5
10
35
20
21.5
10
35
20
21
10
33.75
20
21
10
33.75
20
18
10
35
20
18
10
35
20
17.5
10
30.25
20
17.5
10
30.25
20
14.5
10
29.75
20
14.5
10
29.75
20
17.5
10
25
20
17.5
10
25
20
18
0
LWPOLYLINE
5
109
100
AcDbEntity
8
0
100
AcDbPolyline
90
4
70
1
43
0.0
10
-33.25
20
32
10
-33.25
20
35
10
-26.75
20
35
10
-26.75
20
31.999999999999996
0
LWPOLYLINE
5
110
100
AcDbEntity
8
0
100
AcDbPolyline
90
16
70
1
43
0.0
10
-33.75
20
31.999999999999996
10
-33.75
20
35
10
-35
20
35
10
-35
20
35.5
10
-25
20
35.5
10
-25
20
35
10
-26.25
20
35
10
-26.25
20
31.999999999999996
10
-25
20
31.999999999999996
10
-25
20
31.5
10
-29.75
20
31.5
10
-29.75
20
28.499999999999996
10
-30.25
20
28.499999999999996
10
-30.25
20
31.5
10
-35
20
31.5
10
-35
20
31.999999999999996
0
LWPOLYLINE
5
111
100
AcDbEntity
8
0
100
AcDbPolyline
90
4
70
1
43
0.0
10
-33.25
20
18
10
-33.25
20
21
10
-26.75
20
21
10
-26.75
20
18
0
LWPOLYLINE
5
112
100
AcDbEntity
8
0
100
AcDbPolyline
90
16
70
1
43
0.0
10
-33.75
20
18
10
-33.75
20
20.999999999999996
10
-35
20
21
10
-35
20
21.5
10
-25
20
21.5
10
-25
20
21
10
-26.25
20
21
10
-26.25
20
18
10
-25
20
18
10
-25
20
17.5
10
-29.75
20
17.5
10
-29.75
20
14.5
10
-30.25
20
14.5
10
-30.25
20
17.5
10
-35
20
17.5
10
-35
20
18
0
LWPOLYLINE
5
113
100
AcDbEntity
8
0
100
AcDbPolyline
90
4
70
1
43
0.0
10
-33.25
20
25
10
-33.25
20
28
10
-26.75
20
28
10
-26.75
20
24.999999999999996
0
LWPOLYLINE
5
114
100
AcDbEntity
8
0
100
AcDbPolyline
90
16
70
1
43
0.0
10
-33.75
20
24.999999999999996
10
-33.75
20
28
10
-35
20
28
10
-35
20
28.499999999999996
10
-25
20
28.499999999999996
10
-25
20
28
10
-26.25
20
28
10
-26.25
20
24.999999999999996
10
-25
20
24.999999999999996
10
-25
20
24.499999999999996
10
-29.75
20
24.499999999999996
10
-29.75
20
21.499999999999993
10
-30.25
20
21.499999999999993
10
-30.25
20
24.499999999999996
10
-35
20
24.499999999999996
10
-35
20
24.999999999999996
0
LWPOLYLINE
5
115
100
AcDbEntity
8
0
100
AcDbPolyline
90
4
70
1
43
0.0
10
26.75
20
25
10
26.75
20
28
10
33.25
20
28
10
33.25
20
24.999999999999996
0
LWPOLYLINE
5
116
100
AcDbEntity
8
0
100
AcDbPolyline
90
16
70
1
43
0.0
10
26.25
20
24.999999999999996
10
26.25
20
28
10
25
20
28
10
25
20
28.499999999999996
10
35
20
28.499999999999996
10
35
20
28
10
33.75
20
28
10
33.75
20
24.999999999999996
10
35
20
24.999999999999996
10
35
20
24.499999999999996
10
30.25
20
24.499999999999996
10
30.25
20
21.499999999999993
10
29.75
20
21.499999999999993
10
29.75
20
24.499999999999996
10
25
20
24.499999999999996
10
25
20
24.999999999999996
0
LWPOLYLINE
5
117
100
AcDbEntity
8
0
100
AcDbPolyline
90
4
70
1
43
0.0
10
26.75
20
39
10
26.75
20
42
10
33.25
20
42
10
33.25
20
39
0
LWPOLYLINE
5
118
100
AcDbEntity
8
0
100
AcDbPolyline
90
16
70
1
43
0.0
10
26.25
20
39
10
26.25
20
42
10
25
20
42
10
25
20
42.5
10
35
20
42.5
10
35
20
42
10
33.75
20
42
10
33.75
20
39
10
35
20
39
10
35
20
38.5
10
30.25
20
38.5
10
30.25
20
35.5
10
29.75
20
35.5
10
29.75
20
38.5
10
25
20
38.5
10
25
20
39
0
LWPOLYLINE
5
119
100
AcDbEntity
8
0
100
AcDbPolyline
90
4
70
1
43
0.0
10
26.75
20
32
10
26.75
20
35
10
33.25
20
35
10
33.25
20
31.999999999999996
0
LWPOLYLINE
5
120
100
AcDbEntity
8
0
100
AcDbPolyline
90
16
70
1
43
0.0
10
26.25
20
31.999999999999996
10
26.25
20
35
10
25
20
35
10
25
20
35.5
10
35
20
35.5
10
35
20
35
10
33.75
20
35
10
33.75
20
31.999999999999996
10
35
20
31.999999999999996
10
35
20
31.5
10
30.25
20
31.5
10
30.25
20
28.499999999999996
10
29.75
20
28.499999999999996
10
29.75
20
31.5
10
25
20
31.5
10
25
20
31.999999999999996
0
LWPOLYLINE
5
121
100
AcDbEntity
8
0
100
AcDbPolyline
90
4
70
1
43
0.0
10
26.75
20
10.999999999999998
10
26.75
20
14
10
33.25
20
14
10
33.25
20
11
0
LWPOLYLINE
5
122
100
AcDbEntity
8
0
100
AcDbPolyline
90
16
70
1
43
0.0
10
26.25
20
11
10
26.25
20
14.000000000000002
10
25
20
14
10
25
20
14.500000000000002
10
35
20
14.500000000000002
10
35
20
14
10
33.75
20
14
10
33.75
20
11
10
35
20
11
10
35
20
10.5
10
30.25
20
10.5
10
30.25
20
7.5
10
29.75
20
7.5
10
29.75
20
10.5
10
25
20
10.5
10
25
20
11
0
LWPOLYLINE
5
123
100
AcDbEntity
8
0
100
AcDbPolyline
90
4
70
1
43
0.0
10
-33.25
20
39
10
-33.25
20
42
10
-26.75
20
42
10
-26.75
20
39
0
LWPOLYLINE
5
124
100
AcDbEntity
8
0
100
AcDbPolyline
90
16
70
1
43
0.0
10
-33.75
20
39
10
-33.75
20
42
10
-35
20
42
10
-35
20
42.5
10
-25
20
42.5
10
-25
20
42
10
-26.25
20
42
10
-26.25
20
39
10
-25
20
39
10
-25
20
38.5
10
-29.75
20
38.5
10
-29.75
20
35.5
10
-30.25
20
35.5
10
-30.25
20
38.5
10
-35
20
38.5
10
-35
20
39
0
LWPOLYLINE
5
125
100
AcDbEntity
8
0
100
AcDbPolyline
90
4
70
1
43
0.0
10
-33.25
20
10.999999999999998
10
-33.25
20
14
10
-26.75
20
14
10
-26.75
20
11
0
LWPOLYLINE
5
126
100
AcDbEntity
8
0
100
AcDbPolyline
90
16
70
1
43
0.0
10
-33.75
20
11
10
-33.75
20
14.000000000000002
10
-35
20
14
10
-35
20
14.500000000000002
10
-25
20
14.500000000000002
10
-25
20
14
10
-26.25
20
14
10
-26.25
20
11
10
-25
20
11
10
-25
20
10.5
10
-29.75
20
10.5
10
-29.75
20
7.5
10
-30.25
20
7.5
10
-30.25
20
10.5
10
-35
20
10.5
10
-35
20
11
0
LWPOLYLINE
5
127
100
AcDbEntity
8
0
100
AcDbPolyline
90
4
70
1
43
0.0
10
-33.25
20
4
10
-33.25
20
7.0000000000000009
10
-26.75
20
7.0000000000000009
10
-26.75
20
4
0
LWPOLYLINE
5
128
100
AcDbEntity
8
0
100
AcDbPolyline
90
16
70
1
43
0.0
10
-33.75
20
4
10
-33.75
20
7.0000000000000009
10
-35
20
7.0000000000000009
10
-35
20
7.5000000000000009
10
-25
20
7.5000000000000009
10
-25
20
7.0000000000000009
10
-26.25
20
7.0000000000000009
10
-26.25
20
4
10
-25
20
4
10
-25
20
3.5000000000000004
10
-29.75
20
3.5000000000000009
10
-29.75
20
0.50000000000000022
10
-30.25
20
0.49999999999999989
10
-30.25
20
3.5000000000000004
10
-35
20
3.5000000000000004
10
-35
20
4
0
ENDSEC
0
SECTION
2
OBJECTS
0
DICTIONARY
5
C
100
AcDbDictionary
3
ACAD_GROUP
350
D
3
ACAD_MLINESTYLE
350
17
0
DICTIONARY
5
D
100
AcDbDictionary
0
DICTIONARY
5
1A
330
C
100
AcDbDictionary
0
DICTIONARY
5
17
100
AcDbDictionary
0
ENDSEC
0
EOF
