0
SECTION
2
HEADER
9
$INSUNITS
70
4
9
$ACADVER
1
AC1014
9
$HANDSEED
5
FFFF
0
ENDSEC
0
SECTION
2
TABLES
0
TABLE
2
VPORT
5
8
100
AcDbSymbolTable
0
ENDTAB
0
TABLE
2
LTYPE
5
5
100
AcDbSymbolTable
0
LTYPE
5
14
100
AcDbSymbolTableRecord
100
AcDbLinetypeTableRecord
2
BYBLOCK
70
0
0
LTYPE
5
15
100
AcDbSymbolTableRecord
100
AcDbLinetypeTableRecord
2
BYLAYER
70
0
0
ENDTAB
0
TABLE
2
LAYER
5
2
100
AcDbSymbolTable
70
2
0
LAYER
5
50
100
AcDbSymbolTableRecord
100
AcDbLayerTableRecord
2
0
70
0
6
CONTINUOUS
0
ENDTAB
0
TABLE
2
STYLE
5
3
100
AcDbSymbolTable
70
1
0
STYLE
5
11
100
AcDbSymbolTableRecord
100
AcDbTextStyleTableRecord
2
STANDARD
70
0
0
ENDTAB
0
TABLE
2
VIEW
5
6
100
AcDbSymbolTable
70
0
0
ENDTAB
0
TABLE
2
UCS
5
7
100
AcDbSymbolTable
70
0
0
ENDTAB
0
TABLE
2
APPID
5
9
100
AcDbSymbolTable
70
2
0
APPID
5
12
100
AcDbSymbolTableRecord
100
AcDbRegAppTableRecord
2
ACAD
70
0
0
ENDTAB
0
TABLE
2
DIMSTYLE
5
A
100
AcDbSymbolTable
70
1
0
ENDTAB
0
TABLE
2
BLOCK_RECORD
5
1
100
AcDbSymbolTable
70
1
0
BLOCK_RECORD
5
1F
100
AcDbSymbolTableRecord
100
AcDbBlockTableRecord
2
*MODEL_SPACE
0
BLOCK_RECORD
5
1B
100
AcDbSymbolTableRecord
100
AcDbBlockTableRecord
2
*PAPER_SPACE
0
ENDTAB
0
ENDSEC
0
SECTION
2
BLOCKS
0
BLOCK
5
20
100
AcDbEntity
100
AcDbBlockBegin
2
*MODEL_SPACE
0
ENDBLK
5
21
100
AcDbEntity
100
AcDbBlockEnd
0
BLOCK
5
1C
100
AcDbEntity
100
AcDbBlockBegin
2
*PAPER_SPACE
0
ENDBLK
5
1D
100
AcDbEntity
100
AcDbBlockEnd
0
ENDSEC
0
SECTION
2
ENTITIES
0
CIRCLE
5
100
100
AcDbEntity
8
0
100
AcDbCircle
10
-38.004699706665534
20
56.25
30
0
40
1.4999999999999991
210
0
220
0
230
1
0
CIRCLE
5
101
100
AcDbEntity
8
0
100
AcDbCircle
10
38.004699706665626
20
56.249999999999574
30
0
40
1.4999999999999991
210
0
220
0
230
1
0
LWPOLYLINE
5
102
100
AcDbEntity
8
0
100
AcDbPolyline
90
4
70
1
43
0.0
10
25.000000000000007
20
43.418966447615375
42
0.2632413420953853
10
-24.999999999999986
20
43.418966447615347
10
-25
20
0
10
25
20
0
0
LWPOLYLINE
5
103
100
AcDbEntity
8
0
100
AcDbPolyline
90
32
70
1
43
0.0
10
29.307615723788629
20
78.370896479096857
10
-29.307615723788629
20
78.370896479096857
10
-29.307612037738458
20
72.819923942185639
10
-27.850067246841618
20
72.819924007253476
10
-27.850066693694604
20
70.911799308257599
10
-26.342707651997046
20
70.911799044317846
10
-26.342707651996598
20
60
10
-41
20
60
10
-41
20
52.5
10
-39
20
52.5
10
-39
20
49.734531939654588
10
-35
20
49.734531939654588
10
-35
20
2.9202763977497082
10
-39
20
2.9202763977497077
10
-39
20
0
10
-41
20
-5.5511151231257827e-16
10
-41
20
-3.3753953876031186
10
41
20
-3.3753953876031186
10
41
20
-5.5511151231257827e-16
10
39
20
-2.4492935982947118e-16
10
39
20
2.9202763977497077
10
35
20
2.9202763977497077
10
35
20
49.734531939654588
10
39
20
49.734531939654588
10
39
20
52.5
10
41
20
52.5
10
41
20
60
10
26.342707651996598
20
60
10
26.342707651997046
20
70.911799044317846
10
27.850066693694604
20
70.911799308257599
10
27.850067246841618
20
72.819924007253476
10
29.307612037738458
20
72.819923942185639
0
SPLINE
5
104
100
AcDbEntity
8
0
100
AcDbSpline
70
0
71
3
72
14
73
10
74
0
42
0.000000001
43
0.0000000001
44
0.0000000001
40
-1
40
-1
40
-1
40
-1
40
-0.92176213750551206
40
-0.92176213750551206
40
-0.92176213750551206
40
-0.44076430786749848
40
-0.44076430786749848
40
-0.44076430786749848
40
-1.210335055073978e-07
40
-1.210335055073978e-07
40
-1.210335055073978e-07
40
-1.210335055073978e-07
10
-16.720353099642672
20
62.33621492431066
30
0
10
-16.747989725020229
20
62.428048548141405
30
0
10
-16.765657832398691
20
62.516799567050427
30
0
10
-16.775238290000949
20
62.604184882171921
30
0
10
-16.834137896491981
20
63.14142025102722
30
0
10
-16.577219746024959
20
63.684408232825618
30
0
10
-16.212370961682439
20
64.237717172837662
30
0
10
-15.878040393353
20
64.744743920122417
30
0
10
-15.466289467679031
20
65.208186608594119
30
0
10
-15.254841771879377
20
65.763588300334391
30
0
0
SPLINE
5
105
100
AcDbEntity
8
0
100
AcDbSpline
70
0
71
3
72
11
73
7
74
0
42
0.000000001
43
0.0000000001
44
0.0000000001
40
-1
40
-1
40
-1
40
-1
40
-0.46839961440375122
40
-0.46839961440375122
40
-0.46839961440375122
40
-4.1366445145224684e-07
40
-4.1366445145224684e-07
40
-4.1366445145224684e-07
40
-4.1366445145224684e-07
10
-11.593471263094502
20
64.741814476271898
30
0
10
-13.059054745137038
20
62.543433693487202
30
0
10
-14.448240798269707
20
61.79284718868152
30
0
10
-15.366445426061466
20
61.695931440856874
30
0
10
-16.17548606151999
20
61.610537863180667
30
0
10
-16.614314683922593
20
61.983864733662315
30
0
10
-16.720353099641038
20
62.336214924311015
30
0
0
SPLINE
5
106
100
AcDbEntity
8
0
100
AcDbSpline
70
0
71
3
72
11
73
7
74
0
42
0.000000001
43
0.0000000001
44
0.0000000001
40
-0.99268460114958579
40
-0.99268460114958579
40
-0.99268460114958579
40
-0.99268460114958579
40
-0.60354398941520948
40
-0.60354398941520948
40
-0.60354398941520948
40
-4.6527736510940432e-08
40
-4.6527736510940432e-08
40
-4.6527736510940432e-08
40
-4.6527736510940432e-08
10
-12.939152995364021
20
73.008204030195301
30
0
10
-12.135824460386722
20
71.447188909241177
30
0
10
-11.587409107466653
20
70.065795938201376
30
0
10
-11.289125193324869
20
68.875978410647065
30
0
10
-10.826496919090861
20
67.030611619717192
30
0
10
-10.965040278261348
20
65.684464583277716
30
0
10
-11.593471263094566
20
64.741814476271927
30
0
0
LINE
5
107
100
AcDbEntity
8
0
100
AcDbLine
10
-17.128311857495842
20
71.332538922357898
30
0
11
-12.939152995364021
21
73.008204030195301
31
0
0
SPLINE
5
108
100
AcDbEntity
8
0
100
AcDbSpline
70
0
71
3
72
11
73
7
74
0
42
0.000000001
43
0.0000000001
44
0.0000000001
40
-1
40
-1
40
-1
40
-1
40
-0.7164340519783492
40
-0.7164340519783492
40
-0.7164340519783492
40
-0.063385748153085258
40
-0.063385748153085258
40
-0.063385748153085258
40
-0.063385748153085258
10
-15.254841771879551
20
65.763588300334447
30
0
10
-15.090039038046154
20
66.196468418705081
30
0
10
-15.052682040193108
20
66.679084144020891
30
0
10
-15.12062345587278
20
67.189198941861704
30
0
10
-15.277091559954544
20
68.363985991612395
30
0
10
-15.960039625461011
20
69.716921629501272
30
0
10
-17.128311857495845
20
71.332538922357912
30
0
0
LWPOLYLINE
5
109
100
AcDbEntity
8
0
100
AcDbPolyline
90
4
70
1
43
0.0
10
-19.10852750907765
20
73.771001038070921
10
-13.595260393784072
20
76.189099770170699
10
-12.522457705657636
20
73.713398851548646
10
-17.884875871225532
20
71.568429584586625
0
LINE
5
110
100
AcDbEntity
8
0
100
AcDbLine
10
-19.812335092062657
20
74.008291347544699
30
0
11
-18.108078652853671
21
70.940631838660735
31
0
0
LINE
5
111
100
AcDbEntity
8
0
100
AcDbLine
10
-13.336167284483613
20
76.848714791011119
30
0
11
-19.812335092062657
21
74.008291347544699
31
0
0
LINE
5
112
100
AcDbEntity
8
0
100
AcDbLine
10
-11.85914836787671
20
73.440206284146811
30
0
11
-13.336167284483613
21
76.848714791011119
31
0
0
LINE
5
113
100
AcDbEntity
8
0
100
AcDbLine
10
-12.472852354396576
20
73.194724460564004
30
0
11
-11.85914836787671
21
73.440206284146811
31
0
0
SPLINE
5
114
100
AcDbEntity
8
0
100
AcDbSpline
70
0
71
2
72
6
73
3
74
0
42
0.000000001
43
0.0000000001
44
0.0000000001
40
0
40
0
40
0
40
0.98922138993194653
40
0.98922138993194653
40
0.98922138993194653
10
-11.177445792193117
20
64.464464863758593
30
0
10
-9.3791729966396513
20
67.16188394151024
30
0
10
-12.472852354335815
20
73.194724460445514
30
0
0
SPLINE
5
115
100
AcDbEntity
8
0
100
AcDbSpline
70
4
71
3
72
8
73
4
74
0
42
0.000000001
43
0.0000000001
44
0.0000000001
40
0
40
0
40
0
40
0
40
1
40
1
40
1
40
1
41
1
41
1
41
1
41
1
10
-17.199141885275544
20
62.19212710819771
30
0
10
-16.801738513941473
20
60.871606481891178
30
0
10
-14.030942887301148
20
60.184208396296995
30
0
10
-11.177445792193117
20
64.464464863758593
30
0
0
SPLINE
5
116
100
AcDbEntity
8
0
100
AcDbSpline
70
4
71
3
72
8
73
4
74
0
42
0.000000001
43
0.0000000001
44
0.0000000001
40
0
40
0
40
0
40
0
40
1
40
1
40
1
40
1
41
1
41
1
41
1
41
1
10
-15.722122968668643
20
65.94148794374992
30
0
10
-16.080433825487795
20
65.000325747948182
30
0
10
-17.664291848177616
20
63.737771923165816
30
0
10
-17.199141885275544
20
62.19212710819771
30
0
0
SPLINE
5
117
100
AcDbEntity
8
0
100
AcDbSpline
70
0
71
2
72
6
73
3
74
0
42
0.000000001
43
0.0000000001
44
0.0000000001
40
0.049544361231211059
40
0.049544361231211059
40
0.049544361231211059
40
1
40
1
40
1
10
-17.60746262025777
20
71.140878438480499
30
0
10
-15.068408030743687
20
67.658572321704966
30
0
10
-15.722122968668643
20
65.94148794374992
30
0
0
LINE
5
118
100
AcDbEntity
8
0
100
AcDbLine
10
-18.108078652853671
20
70.940631838660735
30
0
11
-17.60746262025777
21
71.140878438480499
31
0
0
SPLINE
5
119
100
AcDbEntity
8
0
100
AcDbSpline
70
0
71
3
72
14
73
10
74
0
42
0.000000001
43
0.0000000001
44
0.0000000001
40
-1
40
-1
40
-1
40
-1
40
-0.92176213750551206
40
-0.92176213750551206
40
-0.92176213750551206
40
-0.44076430786749848
40
-0.44076430786749848
40
-0.44076430786749848
40
-1.210335055073978e-07
40
-1.210335055073978e-07
40
-1.210335055073978e-07
40
-1.210335055073978e-07
10
-1.720353099642673
20
62.33621492431066
30
0
10
-1.7479897250202292
20
62.428048548141405
30
0
10
-1.7656578323986927
20
62.516799567050427
30
0
10
-1.7752382900009511
20
62.604184882171921
30
0
10
-1.834137896491983
20
63.14142025102722
30
0
10
-1.5772197460249604
20
63.684408232825618
30
0
10
-1.2123709616824385
20
64.237717172837662
30
0
10
-0.87804039335300121
20
64.744743920122417
30
0
10
-0.46628946767903079
20
65.208186608594119
30
0
10
-0.25484177187937718
20
65.763588300334391
30
0
0
SPLINE
5
120
100
AcDbEntity
8
0
100
AcDbSpline
70
0
71
3
72
11
73
7
74
0
42
0.000000001
43
0.0000000001
44
0.0000000001
40
-1
40
-1
40
-1
40
-1
40
-0.46839961440375122
40
-0.46839961440375122
40
-0.46839961440375122
40
-4.1366445145224684e-07
40
-4.1366445145224684e-07
40
-4.1366445145224684e-07
40
-4.1366445145224684e-07
10
3.4065287369054986
20
64.741814476271898
30
0
10
1.9409452548629624
20
62.543433693487202
30
0
10
0.55175920173029303
20
61.79284718868152
30
0
10
-0.3664454260614658
20
61.695931440856874
30
0
10
-1.1754860615199902
20
61.610537863180667
30
0
10
-1.614314683922593
20
61.983864733662315
30
0
10
-1.7203530996410366
20
62.336214924311015
30
0
0
SPLINE
5
121
100
AcDbEntity
8
0
100
AcDbSpline
70
0
71
3
72
11
73
7
74
0
42
0.000000001
43
0.0000000001
44
0.0000000001
40
-0.99268460114958579
40
-0.99268460114958579
40
-0.99268460114958579
40
-0.99268460114958579
40
-0.60354398941520948
40
-0.60354398941520948
40
-0.60354398941520948
40
-4.6527736510940432e-08
40
-4.6527736510940432e-08
40
-4.6527736510940432e-08
40
-4.6527736510940432e-08
10
2.060847004635979
20
73.008204030195301
30
0
10
2.8641755396132762
20
71.447188909241177
30
0
10
3.412590892533347
20
70.065795938201376
30
0
10
3.7108748066751307
20
68.875978410647065
30
0
10
4.17350308090914
20
67.030611619717192
30
0
10
4.0349597217386517
20
65.684464583277716
30
0
10
3.4065287369054342
20
64.741814476271927
30
0
0
LINE
5
122
100
AcDbEntity
8
0
100
AcDbLine
10
-2.1283118574958424
20
71.332538922357898
30
0
11
2.060847004635979
21
73.008204030195301
31
0
0
SPLINE
5
123
100
AcDbEntity
8
0
100
AcDbSpline
70
0
71
3
72
11
73
7
74
0
42
0.000000001
43
0.0000000001
44
0.0000000001
40
-1
40
-1
40
-1
40
-1
40
-0.7164340519783492
40
-0.7164340519783492
40
-0.7164340519783492
40
-0.063385748153085258
40
-0.063385748153085258
40
-0.063385748153085258
40
-0.063385748153085258
10
-0.25484177187955037
20
65.763588300334447
30
0
10
-0.090039038046154651
20
66.196468418705081
30
0
10
-0.052682040193108293
20
66.679084144020891
30
0
10
-0.12062345587277923
20
67.189198941861704
30
0
10
-0.27709155995454376
20
68.363985991612395
30
0
10
-0.96003962546100896
20
69.716921629501272
30
0
10
-2.1283118574958446
20
71.332538922357912
30
0
0
LWPOLYLINE
5
124
100
AcDbEntity
8
0
100
AcDbPolyline
90
4
70
1
43
0.0
10
-4.1085275090776507
20
73.771001038070921
10
1.4047396062159279
20
76.189099770170699
10
2.4775422943423631
20
73.713398851548646
10
-2.8848758712255318
20
71.568429584586625
0
LINE
5
125
100
AcDbEntity
8
0
100
AcDbLine
10
-4.8123350920626562
20
74.008291347544699
30
0
11
-3.1080786528536697
21
70.940631838660735
31
0
0
LINE
5
126
100
AcDbEntity
8
0
100
AcDbLine
10
1.6638327155163868
20
76.848714791011119
30
0
11
-4.8123350920626562
21
74.008291347544699
31
0
0
LINE
5
127
100
AcDbEntity
8
0
100
AcDbLine
10
3.1408516321232893
20
73.440206284146811
30
0
11
1.6638327155163868
21
76.848714791011119
31
0
0
LINE
5
128
100
AcDbEntity
8
0
100
AcDbLine
10
2.5271476456034248
20
73.194724460564004
30
0
11
3.1408516321232893
21
73.440206284146811
31
0
0
SPLINE
5
129
100
AcDbEntity
8
0
100
AcDbSpline
70
0
71
2
72
6
73
3
74
0
42
0.000000001
43
0.0000000001
44
0.0000000001
40
0
40
0
40
0
40
0.98922138993194653
40
0.98922138993194653
40
0.98922138993194653
10
3.822554207806883
20
64.464464863758593
30
0
10
5.6208270033603469
20
67.16188394151024
30
0
10
2.5271476456641828
20
73.194724460445514
30
0
0
SPLINE
5
130
100
AcDbEntity
8
0
100
AcDbSpline
70
4
71
3
72
8
73
4
74
0
42
0.000000001
43
0.0000000001
44
0.0000000001
40
0
40
0
40
0
40
0
40
1
40
1
40
1
40
1
41
1
41
1
41
1
41
1
10
-2.1991418852755462
20
62.19212710819771
30
0
10
-1.801738513941471
20
60.871606481891178
30
0
10
0.96905711269885231
20
60.184208396296995
30
0
10
3.822554207806883
20
64.464464863758593
30
0
0
SPLINE
5
131
100
AcDbEntity
8
0
100
AcDbSpline
70
4
71
3
72
8
73
4
74
0
42
0.000000001
43
0.0000000001
44
0.0000000001
40
0
40
0
40
0
40
0
40
1
40
1
40
1
40
1
41
1
41
1
41
1
41
1
10
-0.72212296866864367
20
65.94148794374992
30
0
10
-1.0804338254877965
20
65.000325747948182
30
0
10
-2.6642918481776157
20
63.737771923165816
30
0
10
-2.1991418852755462
20
62.19212710819771
30
0
0
SPLINE
5
132
100
AcDbEntity
8
0
100
AcDbSpline
70
0
71
2
72
6
73
3
74
0
42
0.000000001
43
0.0000000001
44
0.0000000001
40
0.049544361231211059
40
0.049544361231211059
40
0.049544361231211059
40
1
40
1
40
1
10
-2.6074626202577695
20
71.140878438480499
30
0
10
-0.068408030743686843
20
67.658572321704966
30
0
10
-0.72212296866864367
20
65.94148794374992
30
0
0
LINE
5
133
100
AcDbEntity
8
0
100
AcDbLine
10
-3.1080786528536697
20
70.940631838660735
30
0
11
-2.6074626202577695
21
71.140878438480499
31
0
0
SPLINE
5
134
100
AcDbEntity
8
0
100
AcDbSpline
70
0
71
3
72
14
73
10
74
0
42
0.000000001
43
0.0000000001
44
0.0000000001
40
-1
40
-1
40
-1
40
-1
40
-0.92176213750551206
40
-0.92176213750551206
40
-0.92176213750551206
40
-0.44076430786749848
40
-0.44076430786749848
40
-0.44076430786749848
40
-1.210335055073978e-07
40
-1.210335055073978e-07
40
-1.210335055073978e-07
40
-1.210335055073978e-07
10
13.279646900357328
20
62.33621492431066
30
0
10
13.252010274979771
20
62.428048548141405
30
0
10
13.234342167601307
20
62.516799567050427
30
0
10
13.224761709999049
20
62.604184882171921
30
0
10
13.165862103508017
20
63.14142025102722
30
0
10
13.42278025397504
20
63.684408232825618
30
0
10
13.787629038317561
20
64.237717172837662
30
0
10
14.121959606647
20
64.744743920122417
30
0
10
14.533710532320969
20
65.208186608594119
30
0
10
14.745158228120623
20
65.763588300334391
30
0
0
SPLINE
5
135
100
AcDbEntity
8
0
100
AcDbSpline
70
0
71
3
72
11
73
7
74
0
42
0.000000001
43
0.0000000001
44
0.0000000001
40
-1
40
-1
40
-1
40
-1
40
-0.46839961440375122
40
-0.46839961440375122
40
-0.46839961440375122
40
-4.1366445145224684e-07
40
-4.1366445145224684e-07
40
-4.1366445145224684e-07
40
-4.1366445145224684e-07
10
18.4065287369055
20
64.741814476271898
30
0
10
16.940945254862964
20
62.543433693487202
30
0
10
15.551759201730293
20
61.79284718868152
30
0
10
14.633554573938534
20
61.695931440856874
30
0
10
13.82451393848001
20
61.610537863180667
30
0
10
13.385685316077407
20
61.983864733662315
30
0
10
13.279646900358964
20
62.336214924311015
30
0
0
SPLINE
5
136
100
AcDbEntity
8
0
100
AcDbSpline
70
0
71
3
72
11
73
7
74
0
42
0.000000001
43
0.0000000001
44
0.0000000001
40
-0.99268460114958579
40
-0.99268460114958579
40
-0.99268460114958579
40
-0.99268460114958579
40
-0.60354398941520948
40
-0.60354398941520948
40
-0.60354398941520948
40
-4.6527736510940432e-08
40
-4.6527736510940432e-08
40
-4.6527736510940432e-08
40
-4.6527736510940432e-08
10
17.060847004635981
20
73.008204030195301
30
0
10
17.864175539613274
20
71.447188909241177
30
0
10
18.412590892533348
20
70.065795938201376
30
0
10
18.710874806675129
20
68.875978410647065
30
0
10
19.173503080909139
20
67.030611619717192
30
0
10
19.034959721738652
20
65.684464583277716
30
0
10
18.406528736905436
20
64.741814476271927
30
0
0
LINE
5
137
100
AcDbEntity
8
0
100
AcDbLine
10
12.871688142504158
20
71.332538922357898
30
0
11
17.060847004635981
21
73.008204030195301
31
0
0
SPLINE
5
138
100
AcDbEntity
8
0
100
AcDbSpline
70
0
71
3
72
11
73
7
74
0
42
0.000000001
43
0.0000000001
44
0.0000000001
40
-1
40
-1
40
-1
40
-1
40
-0.7164340519783492
40
-0.7164340519783492
40
-0.7164340519783492
40
-0.063385748153085258
40
-0.063385748153085258
40
-0.063385748153085258
40
-0.063385748153085258
10
14.745158228120449
20
65.763588300334447
30
0
10
14.909960961953846
20
66.196468418705081
30
0
10
14.947317959806892
20
66.679084144020891
30
0
10
14.87937654412722
20
67.189198941861704
30
0
10
14.722908440045458
20
68.363985991612395
30
0
10
14.039960374538992
20
69.716921629501272
30
0
10
12.871688142504158
20
71.332538922357912
30
0
0
LWPOLYLINE
5
139
100
AcDbEntity
8
0
100
AcDbPolyline
90
4
70
1
43
0.0
10
10.89147249092235
20
73.771001038070921
10
16.404739606215927
20
76.189099770170699
10
17.477542294342364
20
73.713398851548646
10
12.115124128774468
20
71.568429584586625
0
LINE
5
140
100
AcDbEntity
8
0
100
AcDbLine
10
10.187664907937343
20
74.008291347544699
30
0
11
11.891921347146329
21
70.940631838660735
31
0
0
LINE
5
141
100
AcDbEntity
8
0
100
AcDbLine
10
16.663832715516385
20
76.848714791011119
30
0
11
10.187664907937343
21
74.008291347544699
31
0
0
LINE
5
142
100
AcDbEntity
8
0
100
AcDbLine
10
18.14085163212329
20
73.440206284146811
30
0
11
16.663832715516385
21
76.848714791011119
31
0
0
LINE
5
143
100
AcDbEntity
8
0
100
AcDbLine
10
17.527147645603424
20
73.194724460564004
30
0
11
18.14085163212329
21
73.440206284146811
31
0
0
SPLINE
5
144
100
AcDbEntity
8
0
100
AcDbSpline
70
0
71
2
72
6
73
3
74
0
42
0.000000001
43
0.0000000001
44
0.0000000001
40
0
40
0
40
0
40
0.98922138993194653
40
0.98922138993194653
40
0.98922138993194653
10
18.822554207806881
20
64.464464863758593
30
0
10
20.620827003360347
20
67.16188394151024
30
0
10
17.527147645664183
20
73.194724460445514
30
0
0
SPLINE
5
145
100
AcDbEntity
8
0
100
AcDbSpline
70
4
71
3
72
8
73
4
74
0
42
0.000000001
43
0.0000000001
44
0.0000000001
40
0
40
0
40
0
40
0
40
1
40
1
40
1
40
1
41
1
41
1
41
1
41
1
10
12.800858114724454
20
62.19212710819771
30
0
10
13.198261486058529
20
60.871606481891178
30
0
10
15.969057112698852
20
60.184208396296995
30
0
10
18.822554207806881
20
64.464464863758593
30
0
0
SPLINE
5
146
100
AcDbEntity
8
0
100
AcDbSpline
70
4
71
3
72
8
73
4
74
0
42
0.000000001
43
0.0000000001
44
0.0000000001
40
0
40
0
40
0
40
0
40
1
40
1
40
1
40
1
41
1
41
1
41
1
41
1
10
14.277877031331357
20
65.94148794374992
30
0
10
13.919566174512203
20
65.000325747948182
30
0
10
12.335708151822384
20
63.737771923165816
30
0
10
12.800858114724454
20
62.19212710819771
30
0
0
SPLINE
5
147
100
AcDbEntity
8
0
100
AcDbSpline
70
0
71
2
72
6
73
3
74
0
42
0.000000001
43
0.0000000001
44
0.0000000001
40
0.049544361231211059
40
0.049544361231211059
40
0.049544361231211059
40
1
40
1
40
1
10
12.39253737974223
20
71.140878438480499
30
0
10
14.931591969256313
20
67.658572321704966
30
0
10
14.277877031331357
20
65.94148794374992
30
0
0
LINE
5
148
100
AcDbEntity
8
0
100
AcDbLine
10
11.891921347146329
20
70.940631838660735
30
0
11
12.39253737974223
21
71.140878438480499
31
0
0
ENDSEC
0
SECTION
2
OBJECTS
0
DICTIONARY
5
C
100
AcDbDictionary
3
ACAD_GROUP
350
D
3
ACAD_MLINESTYLE
350
17
0
DICTIONARY
5
D
100
AcDbDictionary
0
DICTIONARY
5
1A
330
C
100
AcDbDictionary
0
DICTIONARY
5
17
100
AcDbDictionary
0
ENDSEC
0
EOF
