0
SECTION
2
HEADER
9
$INSUNITS
70
4
9
$ACADVER
1
AC1014
9
$HANDSEED
5
FFFF
0
ENDSEC
0
SECTION
2
TABLES
0
TABLE
2
VPORT
5
8
100
AcDbSymbolTable
0
ENDTAB
0
TABLE
2
LTYPE
5
5
100
AcDbSymbolTable
0
LTYPE
5
14
100
AcDbSymbolTableRecord
100
AcDbLinetypeTableRecord
2
BYBLOCK
70
0
0
LTYPE
5
15
100
AcDbSymbolTableRecord
100
AcDbLinetypeTableRecord
2
BYLAYER
70
0
0
ENDTAB
0
TABLE
2
LAYER
5
2
100
AcDbSymbolTable
70
2
0
LAYER
5
50
100
AcDbSymbolTableRecord
100
AcDbLayerTableRecord
2
0
70
0
6
CONTINUOUS
0
ENDTAB
0
TABLE
2
STYLE
5
3
100
AcDbSymbolTable
70
1
0
STYLE
5
11
100
AcDbSymbolTableRecord
100
AcDbTextStyleTableRecord
2
STANDARD
70
0
0
ENDTAB
0
TABLE
2
VIEW
5
6
100
AcDbSymbolTable
70
0
0
ENDTAB
0
TABLE
2
UCS
5
7
100
AcDbSymbolTable
70
0
0
ENDTAB
0
TABLE
2
APPID
5
9
100
AcDbSymbolTable
70
2
0
APPID
5
12
100
AcDbSymbolTableRecord
100
AcDbRegAppTableRecord
2
ACAD
70
0
0
ENDTAB
0
TABLE
2
DIMSTYLE
5
A
100
AcDbSymbolTable
70
1
0
ENDTAB
0
TABLE
2
BLOCK_RECORD
5
1
100
AcDbSymbolTable
70
1
0
BLOCK_RECORD
5
1F
100
AcDbSymbolTableRecord
100
AcDbBlockTableRecord
2
*MODEL_SPACE
0
BLOCK_RECORD
5
1B
100
AcDbSymbolTableRecord
100
AcDbBlockTableRecord
2
*PAPER_SPACE
0
ENDTAB
0
ENDSEC
0
SECTION
2
BLOCKS
0
BLOCK
5
20
100
AcDbEntity
100
AcDbBlockBegin
2
*MODEL_SPACE
0
ENDBLK
5
21
100
AcDbEntity
100
AcDbBlockEnd
0
BLOCK
5
1C
100
AcDbEntity
100
AcDbBlockBegin
2
*PAPER_SPACE
0
ENDBLK
5
1D
100
AcDbEntity
100
AcDbBlockEnd
0
ENDSEC
0
SECTION
2
ENTITIES
0
LWPOLYLINE
5
100
100
AcDbEntity
8
0
100
AcDbPolyline
90
12
70
1
43
0.0
10
-3.6244429878617401
20
5.3601461932879424
10
2.9889467498953204
20
7.5450900402203835
10
4.2939344989490724
20
7.4552427882876593
10
5.15783994435834
20
6.4747984864135155
10
5.546115912210472
20
5.3302105768145047
10
5.4536958194807328
20
4.0228280963724039
10
4.4580868923046957
20
3.1684364349136551
10
-2.155302143509763
20
0.98349281989014159
10
-3.4602900444652906
20
1.0733382156740667
10
-4.324196039915158
20
2.0537831417879993
10
-4.7124719907271917
20
3.1983710011550492
10
-4.6200519604637025
20
4.5057544928461191
0
LINE
5
101
100
AcDbEntity
8
0
100
AcDbLine
10
5.7209877574840551
20
-0.39318774942929124
30
0
11
5.2401350488941523
21
1.6086122875576159
31
0
0
LINE
5
102
100
AcDbEntity
8
0
100
AcDbLine
10
5.7786059345309138
20
-1.433604485971518
30
0
11
5.7209877574840551
21
-0.39318774942929124
31
0
0
LINE
5
103
100
AcDbEntity
8
0
100
AcDbLine
10
5.639787608013771
20
-2.4719585188890569
30
0
11
5.7786059345309138
21
-1.433604485971518
31
0
0
LINE
5
104
100
AcDbEntity
8
0
100
AcDbLine
10
5.2716603345773239
20
-3.5175726680306418
30
0
11
5.639787608013771
21
-2.4719585188890569
31
0
0
LINE
5
105
100
AcDbEntity
8
0
100
AcDbLine
10
4.6649980606480312
20
-4.57343602084892
30
0
11
5.2716603345773239
21
-3.5175726680306418
31
0
0
LINE
5
106
100
AcDbEntity
8
0
100
AcDbLine
10
3.2417115920728756
20
-6.3843804038326546
30
0
11
4.6649980606480312
21
-4.57343602084892
31
0
0
LINE
5
107
100
AcDbEntity
8
0
100
AcDbLine
10
1.7612073562540242
20
-7.6133278984004171
30
0
11
3.2417115920728756
21
-6.3843804038326546
31
0
0
LINE
5
108
100
AcDbEntity
8
0
100
AcDbLine
10
0.88444052623855018
20
-8.0107385680834575
30
0
11
1.7612073562540242
21
-7.6133278984004171
31
0
0
LINE
5
109
100
AcDbEntity
8
0
100
AcDbLine
10
-0.019766411731660938
20
-8.1699846169253654
30
0
11
0.88444052623855018
21
-8.0107385680834575
31
0
0
LINE
5
110
100
AcDbEntity
8
0
100
AcDbLine
10
-0.94178008334642627
20
-8.0569501052582559
30
0
11
-0.019766411731660938
21
-8.1699846169253654
31
0
0
LINE
5
111
100
AcDbEntity
8
0
100
AcDbLine
10
-1.8656370865007466
20
-7.6461825122558658
30
0
11
-0.94178008334642627
21
-8.0569501052582559
31
0
0
LINE
5
112
100
AcDbEntity
8
0
100
AcDbLine
10
-2.9217100234197613
20
-6.5900992621100052
30
0
11
-1.8656370865007466
21
-7.6461825122558658
31
0
0
LINE
5
113
100
AcDbEntity
8
0
100
AcDbLine
10
-3.2325005348577251
20
-5.1540248036661929
30
0
11
-2.9217100234197613
21
-6.5900992621100052
31
0
0
LINE
5
114
100
AcDbEntity
8
0
100
AcDbLine
10
-2.8202314850780663
20
-3.722121973045649
30
0
11
-3.2325005348577251
21
-5.1540248036661929
31
0
0
LINE
5
115
100
AcDbEntity
8
0
100
AcDbLine
10
-1.9731823044665919
20
-2.4851793666907618
30
0
11
-2.8202314850780663
21
-3.722121973045649
31
0
0
LINE
5
116
100
AcDbEntity
8
0
100
AcDbLine
10
-1.7166385720509814
20
-2.0899680945987775
30
0
11
-1.9731823044665919
21
-2.4851793666907618
31
0
0
LINE
5
117
100
AcDbEntity
8
0
100
AcDbLine
10
-1.6324754983855971
20
-1.8128407183033524
30
0
11
-1.7166385720509814
21
-2.0899680945987775
31
0
0
LINE
5
118
100
AcDbEntity
8
0
100
AcDbLine
10
-1.6666603663453783
20
-0.83621942115188475
30
0
11
-1.6324754983855971
21
-1.8128407183033524
31
0
0
LINE
5
119
100
AcDbEntity
8
0
100
AcDbLine
10
-2.0110686242980558
20
0.39804212069482148
30
0
11
-1.6666603663453783
21
-0.83621942115188475
31
0
0
LINE
5
120
100
AcDbEntity
8
0
100
AcDbLine
10
-2.0110686242980558
20
0.39804212069482148
30
0
11
-2.155302143509763
21
0.98349281989014159
31
0
0
LINE
5
121
100
AcDbEntity
8
0
100
AcDbLine
10
5.2401350488941523
20
1.6086122875576159
30
0
11
4.6893408802456715
21
3.3668893350260283
31
0
0
ENDSEC
0
SECTION
2
OBJECTS
0
DICTIONARY
5
C
100
AcDbDictionary
3
ACAD_GROUP
350
D
3
ACAD_MLINESTYLE
350
17
0
DICTIONARY
5
D
100
AcDbDictionary
0
DICTIONARY
5
1A
330
C
100
AcDbDictionary
0
DICTIONARY
5
17
100
AcDbDictionary
0
ENDSEC
0
EOF
